<svg width="733" height="64" viewBox="0 0 733 64" fill="none" xmlns="http://www.w3.org/2000/svg">
    <!-- S -->
    <g class="char" data-index="0">
        <path d="M30.8123 13.7645C30.2453 13.4115 28.8227 12.13 27.1112 10.5618C25.0965 8.71589 18.1729 8.62997 13.0662 9.659C10.8477 10.1061 8.72116 12.8231 6.9626 15.0053C5.47766 16.8479 5.78167 22.078 6.17103 25.6625C6.52836 28.9522 8.98216 29.9466 10.9429 31.3725C12.4333 32.4563 17.0839 34.1462 23.21 36.5669C29.6272 39.1026 31.9419 42.9155 33.694 46.0197C34.9981 48.3301 35.3049 51.4023 35.199 53.8605C35.1568 54.8409 34.8813 55.2596 34.3486 55.7602C30.9999 58.9073 25.973 59.8293 21.3477 60.4722C17.3712 61.0249 15.2077 59.2688 10.2936 55.9239C7.0717 53.0646 5.07567 50.6429 3.71825 48.8212C3.4305 48.3559 3.2187 47.8617 3.00049 46.7107" stroke="black" stroke-width="6" stroke-linecap="round"/>
    </g>
    <!-- O -->
    <g class="char" data-index="1">
        <path d="M57.9034 26.2318C57.6155 26.2059 56.826 26.2052 54.1703 27.3761C52.6279 28.0562 51.8712 28.9437 49.7118 31.4596C48.2856 33.1213 48.0444 34.2467 47.5302 35.592C46.8931 37.2591 46.8832 38.0887 46.6851 40.9856C46.5619 42.7861 46.619 45.9453 46.6317 47.6484C46.6481 49.8542 47.1695 50.7326 48.6297 52.4949C49.835 53.9496 52.3617 54.9932 53.0233 55.465C53.7427 55.978 55.1001 56.4306 56.4867 56.8237C56.9653 56.9594 57.7041 57.0577 59.451 57.1501C61.1979 57.2426 63.9387 57.2944 65.5464 57.2305C67.5593 57.1505 68.6277 56.411 69.8126 55.7456C70.6205 55.292 72.0773 54.3254 73.9737 52.9291C75.9495 51.4744 77.2243 49.8579 77.9006 48.6387C78.6101 47.3597 78.3886 44.975 78.535 43.1316C78.7103 40.9234 78.5223 39.2965 78.4436 38.9058C78.0036 36.7215 76.6785 33.3689 76.3874 32.5961C76.0487 31.6968 75.2547 30.7808 74.701 30.0359C74.1962 29.3566 72.7836 27.9922 71.906 27.1088C71.4226 26.6222 70.7207 26.3384 70.0871 26.0758C69.4481 25.811 68.691 25.6063 67.9257 25.3054C67.0894 24.9765 66.2136 24.8743 65.4337 24.665C64.7841 24.4907 64.051 24.3774 63.2853 24.2857C62.235 24.1599 61.0231 24.5075 60.1206 24.6635C59.4446 24.7803 58.8557 25.2897 58.2222 25.5127C58.0632 25.5523 57.9065 25.5781 57.7476 25.6044C57.5886 25.6306 57.4319 25.6565 57.1915 25.8399" stroke="black" stroke-width="6" stroke-linecap="round"/>
    </g>
    <!-- P -->
    <g class="char" data-index="2">
        <path d="M92.6074 25.2588C92.6074 25.3441 92.6551 29.1859 92.7752 36.5191C92.9429 46.7671 93.2813 47.9683 93.4505 49.2193C93.4751 49.9493 93.5229 50.6437 93.5952 51.7577C93.6197 52.573 93.6197 53.8959 93.4751 55.2588" stroke="black" stroke-width="6" stroke-linecap="round"/>
        <path d="M92.6074 24.6631C93.065 24.3285 94.3196 23.6555 96.057 23.045C98.1854 22.297 100.266 22.3903 102.278 22.2855C104.148 22.188 105.553 22.3473 106.407 22.932C109.608 25.1222 110.451 27.1381 112.129 29.935C113.082 31.5233 112.43 33.3279 111.74 34.6758C111.175 35.778 109.337 36.5276 107.678 37.1413C106.154 37.7047 104.517 37.7954 103.13 37.921C101.659 38.0543 100.407 38.2575 96.4781 38.2588C95.627 38.2171 95.3781 38.1338 95.1047 38.0908C94.8313 38.0479 94.5409 38.0479 94.116 37.7954" stroke="black" stroke-width="6" stroke-linecap="round"/>
    </g>
    <!-- H -->
    <g class="char" data-index="3">
        <path d="M123.607 23.2588C123.607 25.9436 123.992 32.8736 124.771 36.456C125.453 39.0607 125.649 45.2591 125.601 53.4988C125.552 56.4478 125.456 56.8949 124.774 58.2588" stroke="black" stroke-width="6" stroke-linecap="round"/>
        <path d="M125.607 41.2588C125.861 41.2588 126.651 41.3548 127.981 41.8384C129.096 42.2437 131.596 42.2769 134.456 42.2529C136.094 42.2392 137.105 41.6486 138.309 41.429C141.018 41.5002 141.784 41.7431 142.179 41.8398C142.379 41.8886 142.575 41.9366 142.607 41.6951" stroke="black" stroke-width="6" stroke-linecap="round"/>
        <path d="M142.835 23.161C142.835 23.2145 142.784 23.0013 142.707 22.476C142.665 22.1935 142.68 21.8705 142.655 23.7381C142.629 25.6057 142.579 29.6715 142.629 34.588C142.679 39.5046 142.832 45.1486 143 48.6178C143.168 52.0871 143.346 53.2105 143.438 54.4179C143.53 55.6252 143.53 56.8824 143.607 58.2588" stroke="black" stroke-width="6" stroke-linecap="round"/>
    </g>
    <!-- I -->
    <g class="char" data-index="4">
        <path d="M161.866 23.2588C161.866 23.3132 161.866 23.3676 161.77 26.0062C161.674 28.6448 161.483 33.866 161.726 39.2207C161.969 44.5754 162.654 49.9054 163.02 52.7599C163.413 55.832 163.469 56.2737 163.51 57.1336C163.524 57.7759 163.524 58.8365 163.607 60.2588" stroke="black" stroke-width="6" stroke-linecap="round"/>
    </g>
    <!-- A -->
    <g class="char" data-index="5">
        <path d="M184.636 58.8481C184.609 58.8481 184.583 58.8481 184.649 57.8723C184.715 56.8965 184.876 54.9449 185.895 49.2909C186.913 43.6369 188.785 34.3397 189.75 29.4147C190.714 24.4897 190.714 24.2186 190.821 23.4691C190.928 22.7196 191.142 21.4998 191.279 20.7901C191.416 20.0805 191.469 19.9178 192.192 21.3384C192.915 22.759 194.306 25.7677 195.798 28.6323C197.29 31.4969 198.841 34.1261 200.282 37.0798C201.723 40.0335 203.007 43.232 203.962 45.4082C206.069 50.2078 206.597 51.3423 206.989 52.6007C207.359 53.7891 208.162 55.1732 208.529 56.039C208.805 56.6926 209.028 57.4747 209.353 58.2567C209.434 58.4358 209.514 58.5984 209.569 58.7635C209.624 58.9286 209.65 59.0912 209.435 59.2588" stroke="black" stroke-width="6" stroke-linecap="round"/>
        <path d="M189.607 43.2588C189.663 43.2588 192.561 43.2588 197.354 43.2588C201.255 43.2588 201.762 43.2588 202.098 43.2588C202.268 43.2588 202.435 43.2588 202.607 43.2588" stroke="black" stroke-width="6" stroke-linecap="round"/>
    </g>
    <!-- D -->
    <g class="char" data-index="6">
        <path d="M264 4C264 6.065 264.33 12.885 264.666 16.615C264.873 18.9133 265 22.56 265.166 25.7813C265.315 28.6624 265.444 30.99 265.555 34.2775C265.834 37.745 265.889 39.245 265.972 42.4287C266 45.1175 266 49.985 266 55" stroke="black" stroke-width="6" stroke-linecap="round"/>
        <path d="M259 4C264.107 4 274.958 4.4997 277.498 5.51045C280.003 6.50711 282.347 9.45628 284.071 11.4374C286.013 13.6697 287.67 16.6842 290.294 20.4332C292.404 23.4479 294.033 27.2031 294.51 29.6069C295.61 35.1565 294.641 43.5265 293.742 46.5133C292.931 49.2072 288.999 53.1822 285.763 55.8977C281.408 59.5529 277.045 58.7647 273.45 58.9742C271.57 59.0171 268.425 59.0171 266.549 58.8921C264.674 58.7672 264.163 58.5174 263.38 57.7552" stroke="black" stroke-width="6" stroke-linecap="round"/>
    </g>
    <!-- I -->
    <g class="char" data-index="7">
        <path d="M312 21C312.095 24.0069 312.475 30.371 312.643 32.0959C312.893 34.6694 313.143 36.3021 313.285 37.8448C313.486 40.024 313.666 42.7848 313.857 44.3048C313.905 44.6745 313.952 45.0386 313.976 45.8407C314 46.6428 314 47.8717 314 49" stroke="black" stroke-width="6" stroke-linecap="round"/>
    </g>
    <!-- G -->
    <g class="char" data-index="8">
        <path d="M345.901 21C343.996 21 339.69 21.1814 337.144 22.5278C333.639 24.3811 331.455 28.3672 330.583 29.7871C329.394 31.7229 329.171 33.2227 329.014 34.8461C328.872 36.3181 329.877 40.0691 331.308 44.5785C332.366 47.9147 334.308 50.0757 335.384 50.9722C336.865 52.2065 338.783 52.5983 340.39 52.8524C343.624 53.3639 344.822 52.4196 346.208 51.9394C348.495 51.1467 349.654 50.1773 351.798 47.6424C353.623 45.4854 353.683 41.0735 353.953 38.5262C354.005 38.0405 354.042 37.7678 353.91 37.5823C352.608 35.7558 348.234 37.3941 345.888 37.5102C345.367 37.5328 345.101 37.5782 344.809 37.6015C344.518 37.6249 344.208 37.6249 343.888 37.6249" stroke="black" stroke-width="6" stroke-linecap="round"/>
    </g>
    <!-- G -->
    <g class="char" data-index="9">
        <path d="M384.042 21.0636C383.91 21.0636 382.746 20.6939 381.555 20.2479C379.923 19.637 377.854 20.2683 376.125 20.92C372.673 22.2216 370.088 24.8357 368.379 26.4949C366.979 27.8544 366.535 29.6916 366.152 34.0525C365.888 37.0519 366.04 42.5621 366.083 45.5565C366.132 48.8789 366.576 49.4385 367.067 50.0427C368.587 51.9105 370.877 52.4251 372.498 52.8004C374.08 53.1669 377.237 52.988 379.659 52.5931C381.398 52.3095 383.363 50.8905 384.509 50.0511C385.491 49.3319 385.701 47.6756 386.195 46.0164C386.643 44.5107 387.094 43.3322 386.984 37.8169C386.962 36.7338 386.517 36.7457 386.201 36.815C384.818 37.1185 383.508 37.6307 382.295 37.7721C381.98 37.8183 381.668 37.9107 380.975 37.9583C380.281 38.0059 379.214 38.0059 377.577 38.2859" stroke="black" stroke-width="6" stroke-linecap="round"/>
    </g>
    <!-- S -->
    <g class="char" data-index="10">
        <path d="M419.095 20.0961C418.253 20.0961 416.751 20.0014 411.802 20C408.917 19.9992 406.497 22.4817 405.556 23.4373C405.012 23.9891 404.707 24.7283 404.496 25.4903C404.022 27.1963 405.126 28.595 405.715 29.8882C406.427 31.4545 407.711 32.5176 409.705 34.1634C411.872 35.9514 416.81 37.9541 420.214 39.6846C422.743 40.9703 423.324 42.9319 423.655 44.3441C424.002 45.8245 424.174 47.99 423.753 49.6258C423.438 50.849 422.111 51.8695 420.957 52.8287C419.426 54.1012 417.411 54.0258 414.007 53.9799C411.476 53.9458 409.048 52.0272 407.414 51.0667C406.215 49.9699 404.944 48.3455 404.404 47.3434C404.19 46.909 404.096 46.6251 404 46.1892" stroke="black" stroke-width="6" stroke-linecap="round"/>
    </g>
    <!-- - -->
    <g class="char" data-index="11">
        <path d="M440 36C440.184 36 441.291 36 443.283 36C444.264 36 445.184 36 447.451 36C449.718 36 453.305 36 457 36" stroke="black" stroke-width="6" stroke-linecap="round"/>
    </g>
    <!-- G -->
    <g class="char" data-index="12">
        <path d="M508.327 10.0781C507.668 9.61153 504.207 8.01069 501.928 6.39678C499.232 4.48693 496.462 3.18002 492.226 3.00404C488.032 2.82983 485.375 8.32844 483.044 10.8373C479.699 14.438 478.435 18.4443 477.696 21.3292C476.22 27.0951 477.426 35.7438 478.258 39.7932C478.763 42.2535 479.825 44.0577 481.69 46.1684C484.75 49.6315 488.362 52.1665 490.069 53.5139C491.792 54.8742 495.229 55.9272 501.895 55.9996C505.541 56.0393 507.586 52.7216 509.056 50.2771C510.765 47.4343 510.862 44.3433 511.494 42.2638C512.179 40.0154 512.596 37.4412 512.931 35.2913C513.005 34.8197 513.064 34.4205 512.867 34.149C511.798 32.6781 509.136 33.7408 506.469 33.8423C505.796 33.8755 505.268 33.9419 504.797 34.0424C504.327 34.143 503.93 34.2757 502.721 34.6136" stroke="black" stroke-width="6" stroke-linecap="round"/>
    </g>
    <!-- A -->
    <g class="char" data-index="13">
        <path d="M526 48.2257C526 47.9702 526.243 46.4333 527.306 41.9407C530.452 28.6468 531.623 26.2407 532.085 24.0689C532.438 22.4103 532.606 20.6196 533.093 16.7541C533.201 15.9018 533.278 15.5211 534.035 16.9844C536.454 21.6559 537.865 25.6387 538.896 28.7115C543.199 41.5358 544.162 42.9918 544.714 44.5422C544.958 45.3145 545.144 46.0927 545.296 46.865C545.388 47.254 545.509 47.6373 546 49" stroke="black" stroke-width="6" stroke-linecap="round"/>
        <path d="M530.504 37C530.375 37 529.796 36.945 529.211 36.8342C527.991 36.603 532.374 36.5 534.673 36.1683C537.303 35.7783 538.598 35.5017 539.568 35.2242C540.025 35.1117 540.41 35.0567 541 35" stroke="black" stroke-width="6" stroke-linecap="round"/>
    </g>
    <!-- L -->
    <g class="char" data-index="14">
        <path d="M563 17C563 17.1241 563 20.9724 563.131 27.6679C563.188 30.5812 563.523 32.5023 563.658 35.9126C563.793 39.3229 563.793 44.1619 564.021 46.6238C564.25 49.0856 564.707 49.0236 567.557 48.9916C570.406 48.9596 575.634 48.9596 578.523 48.9286C581.412 48.8976 581.804 48.8356 583 48.7716" stroke="black" stroke-width="6" stroke-linecap="round"/>
    </g>
    <!-- L -->
    <g class="char" data-index="15">
        <path d="M591 17C591 17.1246 591 24.1663 591.033 34.9562C591.049 40.0327 591.532 41.659 591.633 46.6826C591.663 48.1446 591.8 48.9008 591.998 49.4048C592.655 51.0764 596.524 48.7158 598.293 48.5279C600.858 48.2136 603.326 47.7737 605.284 47.4906C606.516 47.3943 608.232 47.3943 610 47.3943" stroke="black" stroke-width="6" stroke-linecap="round"/>
    </g>
    <!-- I -->
    <g class="char" data-index="16">
        <path d="M621 18C621 18.1263 621 24.8219 621.055 35.1208C621.11 38.7891 621.22 39.2943 621.277 40.9754C621.334 42.6565 621.334 45.4981 622 49" stroke="black" stroke-width="6" stroke-linecap="round"/>
    </g>
    <!-- G -->
    <g class="char" data-index="17">
        <path d="M653.637 17C651.007 17 644.683 17.4183 642.309 18.614C639.432 20.0637 637.721 22.3404 636.313 24.455C634.35 27.4037 634.337 29.806 634.085 32.059C633.686 35.6335 634.763 37.9053 635.91 40.1932C636.975 42.3185 638.061 43.8922 639.781 45.7227C641.956 48.0371 645.44 48.4721 648.599 48.8629C651.919 49.2737 654.494 48.6897 655.246 48.0591C657.018 46.5746 657.435 43.495 658.084 40.5322C658.665 37.8783 659.09 35.8055 658.984 35.102C656.664 34.5338 652.789 34.8126 650.667 35.3767C650.198 35.5182 649.771 35.6576 648.902 36.0125" stroke="black" stroke-width="6" stroke-linecap="round"/>
    </g>
    <!-- A -->
    <g class="char" data-index="18">
        <path d="M671 51C671 49.7931 673.666 40.8184 676.334 34.1167C678.987 27.4519 680.063 19.7357 680.646 17.3389C680.927 16.1814 680.962 14.9473 681.051 14.293C681.274 12.651 681.856 18.3177 682.573 21.1824C684.106 27.3028 685.98 30.3083 687.239 33.2187C689.3 39.2414 691.101 46.209 691.505 48.3855C691.64 48.9095 691.817 49.4256 692 50.218" stroke="black" stroke-width="6" stroke-linecap="round"/>
        <path d="M678 38C678.085 38 678.169 38 680.273 38C682.377 38 686.499 38 691 39" stroke="black" stroke-width="6" stroke-linecap="round"/>
    </g>
    <!-- N -->
    <g class="char" data-index="19">
        <path d="M704 50.916C704 50.832 704 50.748 704 44.1952C704 37.6425 704 24.6234 704.043 18.2946C704.086 11.9658 704.171 12.7218 704.556 13.5312C704.942 14.3406 705.624 15.1805 708.152 19.5189C710.679 23.8573 715.031 31.6687 718.297 37.1627C725.641 49.5183 727.439 50.7429 728 51C727.532 49.142 726.501 43.7435 725.725 34.0256C725.461 28.1715 725.461 20.4441 725.72 13.5006" stroke="black" stroke-width="6" stroke-linecap="round"/>
    </g>
</svg>
