<?xml version='1.0' encoding='utf-8'?>
<svg xmlns="http://www.w3.org/2000/svg" xmlns:xlink="http://www.w3.org/1999/xlink" width="192" height="75" viewBox="0 0 192 75" fill="none">
<path d="M18.7041 7.47345C25.1792 1.85984 43.2502 7.09965 51.4766 10.4217L64.9346 22.035L75.1152 11.1219L92.3438 6.35431L106.094 8.07989L117.679 16.3397L123.991 25.1024L130.154 16.7088L142.207 9.14923C147.254 8.8588 158.26 8.56883 161.906 9.73224C165.552 10.896 172.899 15.775 176.117 18.0692L183.087 26.8514L183.373 26.4461L184.028 27.9539L184.054 28.0135L186.563 44.5779L186.578 44.6717L186.557 44.7635L184.057 55.7635L184.053 55.783L184.047 55.8026L182.602 60.4246L182.111 59.8074L178.652 65.6424C175.304 67.7425 167.152 72.295 161.327 73.7059C155.502 75.1168 147.055 74.8221 143.56 74.4988L128.672 66.8016L123.055 56.7401L118.244 63.8543L111.482 70.2508C107.072 71.2198 96.414 73.1041 89.0596 72.8865C81.7057 72.6687 75.5938 68.9687 73.457 67.1463L63.9199 56.3094L59.8047 62.1248L45.7227 71.6033C41.0937 72.5658 28.8432 73.4789 16.8711 69.4305C4.89857 65.3819 0.63496 48.0592 0 39.9041L2.45801 23.4852C5.17549 20.4871 12.229 13.0871 18.7041 7.47345Z" fill="#956E49" />
<path d="M18.7041 7.47345C25.1792 1.85984 43.2502 7.09965 51.4766 10.4217L64.9346 22.035L75.1152 11.1219L92.3438 6.35431L106.094 8.07989L117.679 16.3397L123.991 25.1024L130.154 16.7088L142.207 9.14923C147.254 8.8588 158.26 8.56883 161.906 9.73224C165.552 10.896 172.899 15.775 176.117 18.0692L183.087 26.8514L183.373 26.4461L184.028 27.9539L184.054 28.0135L186.563 44.5779L186.578 44.6717L186.557 44.7635L184.057 55.7635L184.053 55.783L184.047 55.8026L182.602 60.4246L182.111 59.8074L178.652 65.6424C175.304 67.7425 167.152 72.295 161.327 73.7059C155.502 75.1168 147.055 74.8221 143.56 74.4988L128.672 66.8016L123.055 56.7401L118.244 63.8543L111.482 70.2508C107.072 71.2198 96.414 73.1041 89.0596 72.8865C81.7057 72.6687 75.5938 68.9687 73.457 67.1463L63.9199 56.3094L59.8047 62.1248L45.7227 71.6033C41.0937 72.5658 28.8432 73.4789 16.8711 69.4305C4.89857 65.3819 0.63496 48.0592 0 39.9041L2.45801 23.4852C5.17549 20.4871 12.229 13.0871 18.7041 7.47345Z" fill="url(#pattern0_42_1052)" fill-opacity="0.5" />
<path d="M23.7041 2.47345C30.1792 -3.14016 48.2502 2.09965 56.4766 5.42169L69.9346 17.035L80.1152 6.12189L97.3438 1.35431L111.094 3.07989L122.679 11.3397L128.991 20.1024L135.154 11.7088L147.207 4.14923C152.254 3.8588 163.26 3.56883 166.906 4.73224C170.552 5.89599 177.899 10.775 181.117 13.0692L188.087 21.8514L188.373 21.4461L189.028 22.9539L189.054 23.0135L191.563 39.5779L191.578 39.6717L191.557 39.7635L189.057 50.7635L189.053 50.783L189.047 50.8026L187.602 55.4246L187.111 54.8074L183.652 60.6424C180.304 62.7425 172.152 67.295 166.327 68.7059C160.502 70.1168 152.055 69.8221 148.56 69.4988L133.672 61.8016L128.055 51.7401L123.244 58.8543L116.482 65.2508C112.072 66.2198 101.414 68.1041 94.0596 67.8865C86.7057 67.6687 80.5938 63.9687 78.457 62.1463L68.9199 51.3094L64.8047 57.1248L50.7227 66.6033C46.0937 67.5658 33.8432 68.4789 21.8711 64.4305C9.89857 60.3819 5.63496 43.0592 5 34.9041L7.45801 18.4852C10.1755 15.4871 17.229 8.08709 23.7041 2.47345ZM65.9355 28.8963C64.9118 28.8963 63.9039 29.0316 62.9121 29.3035C61.9201 29.5755 61.0721 29.9599 60.3682 30.4559L61.7119 33.0721C62.1758 32.7041 62.7358 32.4158 63.3916 32.2078C64.0635 31.9839 64.7438 31.8719 65.4316 31.8719C66.4396 31.8719 67.1841 32.0958 67.6641 32.5438C68.1601 32.9918 68.4082 33.6158 68.4082 34.4158H65.4316C64.1199 34.4159 63.0561 34.5838 62.2402 34.9197C61.4244 35.2397 60.8244 35.6877 60.4404 36.2635C60.0724 36.8395 59.8877 37.5121 59.8877 38.2801C59.8877 39.016 60.0799 39.6804 60.4639 40.2723C60.8479 40.8642 61.4002 41.3363 62.1201 41.6883C62.84 42.0242 63.7041 42.1922 64.7119 42.1922C65.8479 42.1922 66.7761 41.9758 67.4961 41.5438C67.984 41.251 68.3663 40.8649 68.6484 40.3885V41.9998H72.1523V34.6317C72.1523 32.6637 71.6075 31.2159 70.5195 30.2879C69.4315 29.36 67.9034 28.8963 65.9355 28.8963ZM75.54 24.1922V41.9998H79.1162V40.5047C79.4395 40.8953 79.8143 41.2186 80.2441 41.4715C81.0601 41.9515 82.0369 42.1922 83.1729 42.1922C84.3887 42.1921 85.4766 41.9197 86.4365 41.3758C87.4125 40.8158 88.1802 40.0397 88.7402 39.0477C89.3162 38.0557 89.6045 36.8878 89.6045 35.5438C89.6045 34.1838 89.3162 33.0074 88.7402 32.0154C88.1803 31.0236 87.4124 30.2557 86.4365 29.7117C85.4766 29.1678 84.3887 28.8964 83.1729 28.8963C82.0849 28.8963 81.1324 29.136 80.3164 29.616C79.9329 29.8417 79.5899 30.1236 79.2842 30.4588V24.1922H75.54ZM98.2549 28.8963C96.879 28.8963 95.6549 29.1837 94.583 29.7596C93.527 30.3196 92.6865 31.1041 92.0625 32.1121C91.4547 33.104 91.1504 34.2479 91.1504 35.5438C91.1504 36.8236 91.4547 37.9675 92.0625 38.9754C92.6865 39.9674 93.527 40.7519 94.583 41.3279C95.655 41.9039 96.879 42.1922 98.2549 42.1922C99.6147 42.1922 100.83 41.9038 101.902 41.3279C102.974 40.7519 103.815 39.9674 104.423 38.9754C105.031 37.9675 105.335 36.8236 105.335 35.5438C105.335 34.2318 105.031 33.0797 104.423 32.0877C103.815 31.0957 102.974 30.3196 101.902 29.7596C100.83 29.1838 99.6147 28.8963 98.2549 28.8963ZM107.766 29.0877V36.3836C107.766 37.7115 107.997 38.8077 108.461 39.6717C108.925 40.5197 109.573 41.1522 110.405 41.5682C111.253 41.9841 112.213 42.1922 113.285 42.1922C114.277 42.1922 115.189 41.9673 116.021 41.5193C116.517 41.2479 116.939 40.9004 117.293 40.4813V41.9998H120.846V29.0877H117.102V35.4715C117.102 36.2555 116.974 36.9122 116.718 37.4402C116.462 37.9522 116.109 38.3356 115.661 38.5916C115.213 38.8316 114.701 38.952 114.125 38.952C113.293 38.9519 112.646 38.7037 112.182 38.2078C111.734 37.6958 111.51 36.9038 111.51 35.8318V29.0877H107.766ZM124.77 26.2322V29.3758H122.778V32.2557H124.77V37.5594C124.77 39.0954 125.194 40.2559 126.042 41.0399C126.89 41.8078 128.074 42.1922 129.594 42.1922C130.17 42.1922 130.722 42.1278 131.25 41.9998C131.794 41.8558 132.258 41.6477 132.642 41.3758L131.634 38.7361C131.218 39.056 130.714 39.2156 130.122 39.2156C129.626 39.2156 129.234 39.0718 128.946 38.784C128.658 38.48 128.514 38.0555 128.514 37.5115V32.2557H131.729V29.3758H128.514V26.2322H124.77ZM68.4082 37.9197C68.1842 38.4957 67.8241 38.9361 67.3281 39.2401C66.8322 39.528 66.2723 39.6716 65.6484 39.6717C64.9924 39.6717 64.4719 39.5355 64.0879 39.2635C63.7201 38.9756 63.5362 38.5919 63.5361 38.1121C63.5361 37.6803 63.6958 37.32 64.0156 37.032C64.3516 36.7441 64.9599 36.5994 65.8398 36.5994H68.4082V37.9197ZM82.5244 31.9676C83.1484 31.9676 83.7007 32.1122 84.1807 32.4002C84.6765 32.6882 85.0685 33.0959 85.3564 33.6238C85.6604 34.1518 85.8125 34.7918 85.8125 35.5438C85.8125 36.2797 85.6604 36.9197 85.3564 37.4637C85.0684 37.9917 84.6767 38.4003 84.1807 38.6883C83.7007 38.9763 83.1484 39.1199 82.5244 39.1199C81.9006 39.1199 81.3406 38.9761 80.8447 38.6883C80.3488 38.4003 79.9569 37.9916 79.6689 37.4637C79.3809 36.9197 79.2363 36.2798 79.2363 35.5438C79.2363 34.7918 79.381 34.1518 79.6689 33.6238C79.9569 33.0959 80.3488 32.6882 80.8447 32.4002C81.3407 32.1122 81.9004 31.9676 82.5244 31.9676ZM98.2549 31.9676C98.8788 31.9676 99.4386 32.1122 99.9346 32.4002C100.431 32.6882 100.822 33.0959 101.11 33.6238C101.398 34.1518 101.543 34.7918 101.543 35.5438C101.543 36.2798 101.398 36.9197 101.11 37.4637C100.822 37.9916 100.431 38.4003 99.9346 38.6883C99.4387 38.9761 98.8787 39.1199 98.2549 39.1199C97.6311 39.1199 97.0711 38.9761 96.5752 38.6883C96.0792 38.4003 95.679 37.9917 95.375 37.4637C95.087 36.9197 94.9424 36.2797 94.9424 35.5438C94.9424 34.7918 95.087 34.1518 95.375 33.6238C95.679 33.0959 96.0792 32.6882 96.5752 32.4002C97.0712 32.1123 97.6309 31.9676 98.2549 31.9676Z" fill="#FF7700" />
<path d="M68.648 42V39.48L68.408 38.928V34.416C68.408 33.616 68.16 32.992 67.664 32.544C67.184 32.096 66.44 31.872 65.432 31.872C64.744 31.872 64.064 31.984 63.392 32.208C62.736 32.416 62.176 32.704 61.712 33.072L60.368 30.456C61.072 29.96 61.92 29.576 62.912 29.304C63.904 29.032 64.912 28.896 65.936 28.896C67.904 28.896 69.432 29.36 70.52 30.288C71.608 31.216 72.152 32.664 72.152 34.632V42H68.648ZM64.712 42.192C63.704 42.192 62.84 42.024 62.12 41.688C61.4 41.336 60.848 40.864 60.464 40.272C60.08 39.68 59.888 39.016 59.888 38.28C59.888 37.512 60.072 36.84 60.44 36.264C60.824 35.688 61.424 35.24 62.24 34.92C63.056 34.584 64.12 34.416 65.432 34.416H68.864V36.6H65.84C64.96 36.6 64.352 36.744 64.016 37.032C63.696 37.32 63.536 37.68 63.536 38.112C63.536 38.592 63.72 38.976 64.088 39.264C64.472 39.536 64.992 39.672 65.648 39.672C66.272 39.672 66.832 39.528 67.328 39.24C67.824 38.936 68.184 38.496 68.408 37.92L68.984 39.648C68.712 40.48 68.216 41.112 67.496 41.544C66.776 41.976 65.848 42.192 64.712 42.192ZM83.1725 42.192C82.0365 42.192 81.0605 41.952 80.2445 41.472C79.4285 40.992 78.8045 40.264 78.3725 39.288C77.9405 38.296 77.7245 37.048 77.7245 35.544C77.7245 34.024 77.9485 32.776 78.3965 31.8C78.8605 30.824 79.5005 30.096 80.3165 29.616C81.1325 29.136 82.0845 28.896 83.1725 28.896C84.3885 28.896 85.4765 29.168 86.4365 29.712C87.4125 30.256 88.1805 31.024 88.7405 32.016C89.3165 33.008 89.6045 34.184 89.6045 35.544C89.6045 36.888 89.3165 38.056 88.7405 39.048C88.1805 40.04 87.4125 40.816 86.4365 41.376C85.4765 41.92 84.3885 42.192 83.1725 42.192ZM75.5405 42V24.192H79.2845V31.704L79.0445 35.52L79.1165 39.36V42H75.5405ZM82.5245 39.12C83.1485 39.12 83.7005 38.976 84.1805 38.688C84.6765 38.4 85.0685 37.992 85.3565 37.464C85.6605 36.92 85.8125 36.28 85.8125 35.544C85.8125 34.792 85.6605 34.152 85.3565 33.624C85.0685 33.096 84.6765 32.688 84.1805 32.4C83.7005 32.112 83.1485 31.968 82.5245 31.968C81.9005 31.968 81.3405 32.112 80.8445 32.4C80.3485 32.688 79.9565 33.096 79.6685 33.624C79.3805 34.152 79.2365 34.792 79.2365 35.544C79.2365 36.28 79.3805 36.92 79.6685 37.464C79.9565 37.992 80.3485 38.4 80.8445 38.688C81.3405 38.976 81.9005 39.12 82.5245 39.12ZM98.2548 42.192C96.8788 42.192 95.6548 41.904 94.5828 41.328C93.5268 40.752 92.6868 39.968 92.0628 38.976C91.4548 37.968 91.1508 36.824 91.1508 35.544C91.1508 34.248 91.4548 33.104 92.0628 32.112C92.6868 31.104 93.5268 30.32 94.5828 29.76C95.6548 29.184 96.8788 28.896 98.2548 28.896C99.6148 28.896 100.831 29.184 101.903 29.76C102.975 30.32 103.815 31.096 104.423 32.088C105.031 33.08 105.335 34.232 105.335 35.544C105.335 36.824 105.031 37.968 104.423 38.976C103.815 39.968 102.975 40.752 101.903 41.328C100.831 41.904 99.6148 42.192 98.2548 42.192ZM98.2548 39.12C98.8788 39.12 99.4388 38.976 99.9348 38.688C100.431 38.4 100.823 37.992 101.111 37.464C101.399 36.92 101.543 36.28 101.543 35.544C101.543 34.792 101.399 34.152 101.111 33.624C100.823 33.096 100.431 32.688 99.9348 32.4C99.4388 32.112 98.8788 31.968 98.2548 31.968C97.6308 31.968 97.0708 32.112 96.5748 32.4C96.0788 32.688 95.6788 33.096 95.3748 33.624C95.0868 34.152 94.9428 34.792 94.9428 35.544C94.9428 36.28 95.0868 36.92 95.3748 37.464C95.6788 37.992 96.0788 38.4 96.5748 38.688C97.0708 38.976 97.6308 39.12 98.2548 39.12ZM113.285 42.192C112.213 42.192 111.253 41.984 110.405 41.568C109.573 41.152 108.925 40.52 108.461 39.672C107.997 38.808 107.765 37.712 107.765 36.384V29.088H111.509V35.832C111.509 36.904 111.733 37.696 112.181 38.208C112.645 38.704 113.293 38.952 114.125 38.952C114.701 38.952 115.213 38.832 115.661 38.592C116.109 38.336 116.461 37.952 116.717 37.44C116.973 36.912 117.101 36.256 117.101 35.472V29.088H120.845V42H117.293V38.448L117.941 39.48C117.509 40.376 116.869 41.056 116.021 41.52C115.189 41.968 114.277 42.192 113.285 42.192ZM129.594 42.192C128.074 42.192 126.89 41.808 126.042 41.04C125.194 40.256 124.77 39.096 124.77 37.56V26.232H128.514V37.512C128.514 38.056 128.658 38.48 128.946 38.784C129.234 39.072 129.626 39.216 130.122 39.216C130.714 39.216 131.218 39.056 131.634 38.736L132.642 41.376C132.258 41.648 131.794 41.856 131.25 42C130.722 42.128 130.17 42.192 129.594 42.192ZM122.778 32.256V29.376H131.73V32.256H122.778Z" fill="#FFFDF3" />
<defs>
<pattern id="pattern0_42_1052" patternContentUnits="objectBoundingBox" width="1" height="1">
<use xlink:href="#image0_42_1052" transform="matrix(0.00148342 0 0 0.00485729 -1.2715 -2.85032)" />
</pattern>
<image id="image0_42_1052" width="594" height="284" preserveAspectRatio="none" xlink:href="/assets/images/shapes/cardboard_texture.jpg" />
</defs>
</svg>