<svg width="187" height="70" viewBox="0 0 187 70" fill="none" xmlns="http://www.w3.org/2000/svg">
<path d="M18.7041 2.47345C25.1792 -3.14016 43.2502 2.09965 51.4766 5.42169L64.9346 17.035L75.1152 6.12189L92.3438 1.35431L106.094 3.07989L117.679 11.3397L123.991 20.1024L130.154 11.7088L142.207 4.14923C147.254 3.8588 158.26 3.56883 161.906 4.73224C165.552 5.89599 172.899 10.775 176.117 13.0692L183.087 21.8514L183.373 21.4461L184.028 22.9539L184.054 23.0135L186.563 39.5779L186.578 39.6717L186.557 39.7635L184.057 50.7635L184.053 50.783L184.047 50.8026L182.602 55.4246L182.111 54.8074L178.652 60.6424C175.304 62.7425 167.152 67.295 161.327 68.7059C155.502 70.1168 147.055 69.8221 143.56 69.4988L128.672 61.8016L123.055 51.7401L118.244 58.8543L111.482 65.2508C107.072 66.2198 96.414 68.1041 89.0596 67.8865C81.7057 67.6687 75.5938 63.9687 73.457 62.1463L63.9199 51.3094L59.8047 57.1248L45.7227 66.6033C41.0937 67.5658 28.8432 68.4789 16.8711 64.4305C4.89857 60.3819 0.63496 43.0592 0 34.9041L2.45801 18.4852C5.17549 15.4871 12.229 8.08709 18.7041 2.47345ZM60.9355 28.8963C59.9118 28.8963 58.9039 29.0316 57.9121 29.3035C56.9201 29.5755 56.0721 29.9599 55.3682 30.4559L56.7119 33.0721C57.1758 32.7041 57.7358 32.4158 58.3916 32.2078C59.0635 31.9839 59.7438 31.8719 60.4316 31.8719C61.4396 31.8719 62.1841 32.0958 62.6641 32.5438C63.1601 32.9918 63.4082 33.6158 63.4082 34.4158H60.4316C59.1199 34.4159 58.0561 34.5838 57.2402 34.9197C56.4244 35.2397 55.8244 35.6877 55.4404 36.2635C55.0724 36.8395 54.8877 37.5121 54.8877 38.2801C54.8877 39.016 55.0799 39.6804 55.4639 40.2723C55.8479 40.8642 56.4002 41.3363 57.1201 41.6883C57.84 42.0242 58.7041 42.1922 59.7119 42.1922C60.8479 42.1922 61.7761 41.9758 62.4961 41.5438C62.984 41.251 63.3663 40.8649 63.6484 40.3885V41.9998H67.1523V34.6317C67.1523 32.6637 66.6075 31.2159 65.5195 30.2879C64.4315 29.36 62.9034 28.8963 60.9355 28.8963ZM70.54 24.1922V41.9998H74.1162V40.5047C74.4395 40.8953 74.8143 41.2186 75.2441 41.4715C76.0601 41.9515 77.0369 42.1922 78.1729 42.1922C79.3887 42.1921 80.4766 41.9197 81.4365 41.3758C82.4125 40.8158 83.1802 40.0397 83.7402 39.0477C84.3162 38.0557 84.6045 36.8878 84.6045 35.5438C84.6045 34.1838 84.3162 33.0074 83.7402 32.0154C83.1803 31.0236 82.4124 30.2557 81.4365 29.7117C80.4766 29.1678 79.3887 28.8964 78.1729 28.8963C77.0849 28.8963 76.1324 29.136 75.3164 29.616C74.9329 29.8417 74.5899 30.1236 74.2842 30.4588V24.1922H70.54ZM93.2549 28.8963C91.879 28.8963 90.6549 29.1837 89.583 29.7596C88.527 30.3196 87.6865 31.1041 87.0625 32.1121C86.4547 33.104 86.1504 34.2479 86.1504 35.5438C86.1504 36.8236 86.4547 37.9675 87.0625 38.9754C87.6865 39.9674 88.527 40.7519 89.583 41.3279C90.655 41.9039 91.879 42.1922 93.2549 42.1922C94.6147 42.1922 95.8305 41.9038 96.9023 41.3279C97.9743 40.7519 98.8149 39.9674 99.4229 38.9754C100.031 37.9675 100.335 36.8236 100.335 35.5438C100.335 34.2318 100.031 33.0797 99.4229 32.0877C98.8149 31.0957 97.9743 30.3196 96.9023 29.7596C95.8305 29.1838 94.6147 28.8963 93.2549 28.8963ZM102.766 29.0877V36.3836C102.766 37.7115 102.997 38.8077 103.461 39.6717C103.925 40.5197 104.573 41.1522 105.405 41.5682C106.253 41.9841 107.213 42.1922 108.285 42.1922C109.277 42.1922 110.189 41.9673 111.021 41.5193C111.517 41.2479 111.939 40.9004 112.293 40.4813V41.9998H115.846V29.0877H112.102V35.4715C112.102 36.2555 111.974 36.9122 111.718 37.4402C111.462 37.9522 111.109 38.3356 110.661 38.5916C110.213 38.8316 109.701 38.952 109.125 38.952C108.293 38.9519 107.646 38.7037 107.182 38.2078C106.734 37.6958 106.51 36.9038 106.51 35.8318V29.0877H102.766ZM119.77 26.2322V29.3758H117.778V32.2557H119.77V37.5594C119.77 39.0954 120.194 40.2559 121.042 41.0399C121.89 41.8078 123.074 42.1922 124.594 42.1922C125.17 42.1922 125.722 42.1278 126.25 41.9998C126.794 41.8558 127.258 41.6477 127.642 41.3758L126.634 38.7361C126.218 39.056 125.714 39.2156 125.122 39.2156C124.626 39.2156 124.234 39.0718 123.946 38.784C123.658 38.48 123.514 38.0555 123.514 37.5115V32.2557H126.729V29.3758H123.514V26.2322H119.77ZM63.4082 37.9197C63.1842 38.4957 62.8241 38.9361 62.3281 39.2401C61.8322 39.528 61.2723 39.6716 60.6484 39.6717C59.9924 39.6717 59.4719 39.5355 59.0879 39.2635C58.7201 38.9756 58.5362 38.5919 58.5361 38.1121C58.5361 37.6803 58.6958 37.32 59.0156 37.032C59.3516 36.7441 59.9599 36.5994 60.8398 36.5994H63.4082V37.9197ZM77.5244 31.9676C78.1484 31.9676 78.7007 32.1122 79.1807 32.4002C79.6765 32.6882 80.0685 33.0959 80.3564 33.6238C80.6604 34.1518 80.8125 34.7918 80.8125 35.5438C80.8125 36.2797 80.6604 36.9197 80.3564 37.4637C80.0684 37.9917 79.6767 38.4003 79.1807 38.6883C78.7007 38.9763 78.1484 39.1199 77.5244 39.1199C76.9006 39.1199 76.3406 38.9761 75.8447 38.6883C75.3488 38.4003 74.9569 37.9916 74.6689 37.4637C74.3809 36.9197 74.2363 36.2798 74.2363 35.5438C74.2363 34.7918 74.381 34.1518 74.6689 33.6238C74.9569 33.0959 75.3488 32.6882 75.8447 32.4002C76.3407 32.1122 76.9004 31.9676 77.5244 31.9676ZM93.2549 31.9676C93.8788 31.9676 94.4386 32.1122 94.9346 32.4002C95.4305 32.6882 95.8224 33.0959 96.1104 33.6238C96.3983 34.1518 96.543 34.7918 96.543 35.5438C96.543 36.2798 96.3984 36.9197 96.1104 37.4637C95.8224 37.9916 95.4305 38.4003 94.9346 38.6883C94.4387 38.9761 93.8787 39.1199 93.2549 39.1199C92.6311 39.1199 92.0711 38.9761 91.5752 38.6883C91.0792 38.4003 90.679 37.9917 90.375 37.4637C90.087 36.9197 89.9424 36.2797 89.9424 35.5438C89.9424 34.7918 90.087 34.1518 90.375 33.6238C90.679 33.0959 91.0792 32.6882 91.5752 32.4002C92.0712 32.1123 92.6309 31.9676 93.2549 31.9676Z" fill="#FF7700"/>
<path d="M63.648 42V39.48L63.408 38.928V34.416C63.408 33.616 63.16 32.992 62.664 32.544C62.184 32.096 61.44 31.872 60.432 31.872C59.744 31.872 59.064 31.984 58.392 32.208C57.736 32.416 57.176 32.704 56.712 33.072L55.368 30.456C56.072 29.96 56.92 29.576 57.912 29.304C58.904 29.032 59.912 28.896 60.936 28.896C62.904 28.896 64.432 29.36 65.52 30.288C66.608 31.216 67.152 32.664 67.152 34.632V42H63.648ZM59.712 42.192C58.704 42.192 57.84 42.024 57.12 41.688C56.4 41.336 55.848 40.864 55.464 40.272C55.08 39.68 54.888 39.016 54.888 38.28C54.888 37.512 55.072 36.84 55.44 36.264C55.824 35.688 56.424 35.24 57.24 34.92C58.056 34.584 59.12 34.416 60.432 34.416H63.864V36.6H60.84C59.96 36.6 59.352 36.744 59.016 37.032C58.696 37.32 58.536 37.68 58.536 38.112C58.536 38.592 58.72 38.976 59.088 39.264C59.472 39.536 59.992 39.672 60.648 39.672C61.272 39.672 61.832 39.528 62.328 39.24C62.824 38.936 63.184 38.496 63.408 37.92L63.984 39.648C63.712 40.48 63.216 41.112 62.496 41.544C61.776 41.976 60.848 42.192 59.712 42.192ZM78.1725 42.192C77.0365 42.192 76.0605 41.952 75.2445 41.472C74.4285 40.992 73.8045 40.264 73.3725 39.288C72.9405 38.296 72.7245 37.048 72.7245 35.544C72.7245 34.024 72.9485 32.776 73.3965 31.8C73.8605 30.824 74.5005 30.096 75.3165 29.616C76.1325 29.136 77.0845 28.896 78.1725 28.896C79.3885 28.896 80.4765 29.168 81.4365 29.712C82.4125 30.256 83.1805 31.024 83.7405 32.016C84.3165 33.008 84.6045 34.184 84.6045 35.544C84.6045 36.888 84.3165 38.056 83.7405 39.048C83.1805 40.04 82.4125 40.816 81.4365 41.376C80.4765 41.92 79.3885 42.192 78.1725 42.192ZM70.5405 42V24.192H74.2845V31.704L74.0445 35.52L74.1165 39.36V42H70.5405ZM77.5245 39.12C78.1485 39.12 78.7005 38.976 79.1805 38.688C79.6765 38.4 80.0685 37.992 80.3565 37.464C80.6605 36.92 80.8125 36.28 80.8125 35.544C80.8125 34.792 80.6605 34.152 80.3565 33.624C80.0685 33.096 79.6765 32.688 79.1805 32.4C78.7005 32.112 78.1485 31.968 77.5245 31.968C76.9005 31.968 76.3405 32.112 75.8445 32.4C75.3485 32.688 74.9565 33.096 74.6685 33.624C74.3805 34.152 74.2365 34.792 74.2365 35.544C74.2365 36.28 74.3805 36.92 74.6685 37.464C74.9565 37.992 75.3485 38.4 75.8445 38.688C76.3405 38.976 76.9005 39.12 77.5245 39.12ZM93.2548 42.192C91.8788 42.192 90.6548 41.904 89.5828 41.328C88.5268 40.752 87.6868 39.968 87.0628 38.976C86.4548 37.968 86.1508 36.824 86.1508 35.544C86.1508 34.248 86.4548 33.104 87.0628 32.112C87.6868 31.104 88.5268 30.32 89.5828 29.76C90.6548 29.184 91.8788 28.896 93.2548 28.896C94.6148 28.896 95.8308 29.184 96.9028 29.76C97.9748 30.32 98.8148 31.096 99.4228 32.088C100.031 33.08 100.335 34.232 100.335 35.544C100.335 36.824 100.031 37.968 99.4228 38.976C98.8148 39.968 97.9748 40.752 96.9028 41.328C95.8308 41.904 94.6148 42.192 93.2548 42.192ZM93.2548 39.12C93.8788 39.12 94.4388 38.976 94.9348 38.688C95.4308 38.4 95.8228 37.992 96.1108 37.464C96.3988 36.92 96.5428 36.28 96.5428 35.544C96.5428 34.792 96.3988 34.152 96.1108 33.624C95.8228 33.096 95.4308 32.688 94.9348 32.4C94.4388 32.112 93.8788 31.968 93.2548 31.968C92.6308 31.968 92.0708 32.112 91.5748 32.4C91.0788 32.688 90.6788 33.096 90.3748 33.624C90.0868 34.152 89.9428 34.792 89.9428 35.544C89.9428 36.28 90.0868 36.92 90.3748 37.464C90.6788 37.992 91.0788 38.4 91.5748 38.688C92.0708 38.976 92.6308 39.12 93.2548 39.12ZM108.285 42.192C107.213 42.192 106.253 41.984 105.405 41.568C104.573 41.152 103.925 40.52 103.461 39.672C102.997 38.808 102.765 37.712 102.765 36.384V29.088H106.509V35.832C106.509 36.904 106.733 37.696 107.181 38.208C107.645 38.704 108.293 38.952 109.125 38.952C109.701 38.952 110.213 38.832 110.661 38.592C111.109 38.336 111.461 37.952 111.717 37.44C111.973 36.912 112.101 36.256 112.101 35.472V29.088H115.845V42H112.293V38.448L112.941 39.48C112.509 40.376 111.869 41.056 111.021 41.52C110.189 41.968 109.277 42.192 108.285 42.192ZM124.594 42.192C123.074 42.192 121.89 41.808 121.042 41.04C120.194 40.256 119.77 39.096 119.77 37.56V26.232H123.514V37.512C123.514 38.056 123.658 38.48 123.946 38.784C124.234 39.072 124.626 39.216 125.122 39.216C125.714 39.216 126.218 39.056 126.634 38.736L127.642 41.376C127.258 41.648 126.794 41.856 126.25 42C125.722 42.128 125.17 42.192 124.594 42.192ZM117.778 32.256V29.376H126.73V32.256H117.778Z" fill="#FFFDF3"/>
</svg>
