<svg width="205" height="63" viewBox="0 0 205 63" fill="none" xmlns="http://www.w3.org/2000/svg">
<path d="M18.8379 0.34668L204.482 5.76074L181.172 20.043L204.482 24.6309L181.172 34.0664L204.482 43.501L181.172 50.1611L201.152 62.4492H9.82129L23.958 53.1592L3.91211 40.8633L25.7979 30.1787L0.630859 20.043L19.0166 12.2998L0 0L18.8379 0.34668ZM62.9678 26.8965C61.5758 26.8965 60.3351 27.1838 59.2471 27.7598C58.1592 28.3198 57.3036 29.1044 56.6797 30.1123C56.0718 31.1043 55.7676 32.248 55.7676 33.5439C55.7676 34.8238 56.0718 35.9676 56.6797 36.9756C57.3036 37.9834 58.1593 38.7756 59.2471 39.3516C60.3351 39.9116 61.5758 40.1924 62.9678 40.1924C64.3277 40.1923 65.5116 39.9115 66.5195 39.3516C67.5274 38.7756 68.272 37.9677 68.752 36.9277L65.8477 35.3438C65.5117 35.9678 65.0872 36.4239 64.5752 36.7119C64.0793 36.9838 63.5353 37.1201 62.9434 37.1201C62.3036 37.1201 61.7277 36.9763 61.2158 36.6885C60.7038 36.4005 60.2952 35.9919 59.9912 35.4639C59.7033 34.9359 59.5596 34.2958 59.5596 33.5439C59.5596 32.792 59.7033 32.152 59.9912 31.624C60.2952 31.096 60.7038 30.6884 61.2158 30.4004C61.7278 30.1124 62.3034 29.9678 62.9434 29.9678C63.5353 29.9678 64.0792 30.1124 64.5752 30.4004C65.0872 30.6884 65.5117 31.1361 65.8477 31.7441L68.752 30.1836C68.272 29.1277 67.5275 28.3197 66.5195 27.7598C65.5116 27.1838 64.3276 26.8965 62.9678 26.8965ZM76.8867 26.8965C75.5109 26.8965 74.2867 27.1838 73.2148 27.7598C72.1589 28.3198 71.3193 29.1043 70.6953 30.1123C70.0874 31.1043 69.7832 32.248 69.7832 33.5439C69.7832 34.8238 70.0874 35.9676 70.6953 36.9756C71.3193 37.9675 72.1589 38.7521 73.2148 39.3281C74.2867 39.9041 75.5109 40.1923 76.8867 40.1924C78.2467 40.1924 79.4632 39.9041 80.5352 39.3281C81.6072 38.7521 82.4467 37.9676 83.0547 36.9756C83.6626 35.9676 83.9668 34.8239 83.9668 33.5439C83.9668 32.232 83.6627 31.0799 83.0547 30.0879C82.4467 29.096 81.6071 28.3197 80.5352 27.7598C79.4632 27.1838 78.2467 26.8965 76.8867 26.8965ZM103.52 24.2324V27.376H101.527V30.2559H103.52V35.5596C103.52 37.0954 103.943 38.256 104.791 39.04C105.639 39.808 106.824 40.1924 108.344 40.1924C108.919 40.1924 109.471 40.1279 109.999 40C110.543 39.856 111.008 39.648 111.392 39.376L110.384 36.7363C109.968 37.0563 109.463 37.2158 108.871 37.2158C108.375 37.2158 107.983 37.0721 107.695 36.7842C107.407 36.4802 107.264 36.0557 107.264 35.5117V30.2559H110.479V27.376H107.264V24.2324H103.52ZM118.701 26.8965C117.677 26.8965 116.669 27.0317 115.677 27.3037C114.685 27.5757 113.837 27.9601 113.133 28.4561L114.478 31.0723C114.942 30.7043 115.501 30.416 116.157 30.208C116.829 29.984 117.509 29.8721 118.197 29.8721C119.205 29.8721 119.949 30.0961 120.429 30.5439C120.925 30.9919 121.173 31.616 121.173 32.416H118.197C116.885 32.416 115.821 32.5839 115.005 32.9199C114.189 33.2399 113.589 33.6878 113.205 34.2637C112.837 34.8397 112.653 35.5123 112.653 36.2803C112.653 37.0162 112.846 37.6805 113.229 38.2725C113.613 38.8642 114.165 39.3366 114.885 39.6885C115.605 40.0245 116.47 40.1924 117.478 40.1924C118.613 40.1923 119.541 39.9758 120.261 39.5439C120.749 39.2512 121.131 38.865 121.413 38.3887V40H124.917V32.6318C124.917 30.664 124.373 29.2161 123.285 28.2881C122.197 27.3601 120.669 26.8965 118.701 26.8965ZM134.64 26.8965C133.248 26.8965 132.007 27.1838 130.919 27.7598C129.831 28.3198 128.976 29.1044 128.352 30.1123C127.744 31.1043 127.439 32.248 127.439 33.5439C127.439 34.8238 127.744 35.9676 128.352 36.9756C128.975 37.9834 129.831 38.7756 130.919 39.3516C132.007 39.9116 133.248 40.1924 134.64 40.1924C136 40.1923 137.183 39.9115 138.191 39.3516C139.199 38.7756 139.944 37.9677 140.424 36.9277L137.52 35.3438C137.184 35.9678 136.759 36.4239 136.247 36.7119C135.751 36.9838 135.207 37.1201 134.615 37.1201C133.975 37.1201 133.4 36.9763 132.888 36.6885C132.376 36.4005 131.967 35.9919 131.663 35.4639C131.375 34.9359 131.231 34.2958 131.231 33.5439C131.231 32.792 131.375 32.152 131.663 31.624C131.967 31.096 132.376 30.6884 132.888 30.4004C133.4 30.1124 133.975 29.9678 134.615 29.9678C135.207 29.9678 135.751 30.1124 136.247 30.4004C136.759 30.6884 137.184 31.1361 137.52 31.7441L140.424 30.1836C139.944 29.1277 139.199 28.3197 138.191 27.7598C137.183 27.1838 136 26.8965 134.64 26.8965ZM143.223 24.2324V27.376H141.23V30.2559H143.223V35.5596C143.223 37.0954 143.646 38.256 144.494 39.04C145.342 39.808 146.527 40.1924 148.047 40.1924C148.623 40.1924 149.174 40.1279 149.702 40C150.246 39.856 150.711 39.648 151.095 39.376L150.087 36.7363C149.671 37.0563 149.166 37.2158 148.574 37.2158C148.078 37.2158 147.686 37.0721 147.398 36.7842C147.11 36.4802 146.967 36.0557 146.967 35.5117V30.2559H150.183V27.376H146.967V24.2324H143.223ZM94.3174 26.8965C93.2135 26.8965 92.2292 27.1278 91.3652 27.5918C90.8551 27.8658 90.4166 28.2115 90.0459 28.625V27.0879H86.4697V40H90.2139V33.6162C90.2139 32.8164 90.3418 32.1604 90.5977 31.6484C90.8697 31.1364 91.2381 30.7595 91.7021 30.5195C92.182 30.2637 92.7178 30.1358 93.3096 30.1357C94.1415 30.1357 94.7815 30.384 95.2295 30.8799C95.6934 31.3758 95.9257 32.1438 95.9258 33.1836V40H99.6699V32.6084C99.6699 31.2964 99.4376 30.2236 98.9736 29.3916C98.5096 28.5438 97.8696 27.9195 97.0537 27.5195C96.2538 27.1036 95.3413 26.8965 94.3174 26.8965ZM121.173 35.9199C120.949 36.4959 120.589 36.9362 120.093 37.2402C119.597 37.5281 119.037 37.6719 118.413 37.6719C117.757 37.6719 117.237 37.5356 116.854 37.2637C116.486 36.9757 116.301 36.5922 116.301 36.1123C116.301 35.6803 116.461 35.3202 116.781 35.0322C117.117 34.7442 117.725 34.5996 118.605 34.5996H121.173V35.9199ZM76.8867 29.9678C77.5107 29.9678 78.0714 30.1124 78.5674 30.4004C79.0632 30.6884 79.4552 31.0961 79.7432 31.624C80.0311 32.152 80.1748 32.792 80.1748 33.5439C80.1748 34.2799 80.0311 34.9199 79.7432 35.4639C79.4552 35.9919 79.0634 36.4005 78.5674 36.6885C78.0714 36.9765 77.5107 37.1201 76.8867 37.1201C76.2629 37.1201 75.7029 36.9764 75.207 36.6885C74.711 36.4005 74.3108 35.9919 74.0068 35.4639C73.7189 34.9199 73.5752 34.2798 73.5752 33.5439C73.5752 32.792 73.7189 32.152 74.0068 31.624C74.3108 31.0961 74.7111 30.6884 75.207 30.4004C75.7029 30.1125 76.2629 29.9678 76.8867 29.9678Z" fill="#00859D"/>
</svg>
