<?xml version='1.0' encoding='utf-8'?>
<svg xmlns="http://www.w3.org/2000/svg" xmlns:xlink="http://www.w3.org/1999/xlink" width="205" height="63" viewBox="0 0 205 63" fill="none">
<path d="M18.8379 0.34668L204.482 5.76074L181.172 20.043L204.482 24.6309L181.172 34.0664L204.482 43.501L181.172 50.1611L201.152 62.4492H9.82129L23.958 53.1592L3.91211 40.8633L25.7979 30.1787L0.630859 20.043L19.0166 12.2998L0 0L18.8379 0.34668Z" fill="#956E49" />
<path d="M18.8379 0.34668L204.482 5.76074L181.172 20.043L204.482 24.6309L181.172 34.0664L204.482 43.501L181.172 50.1611L201.152 62.4492H9.82129L23.958 53.1592L3.91211 40.8633L25.7979 30.1787L0.630859 20.043L19.0166 12.2998L0 0L18.8379 0.34668Z" fill="url(#pattern0_43_1053)" fill-opacity="0.5" />
<path d="M62.968 40.192C61.576 40.192 60.336 39.912 59.248 39.352C58.16 38.776 57.304 37.984 56.68 36.976C56.072 35.968 55.768 34.824 55.768 33.544C55.768 32.248 56.072 31.104 56.68 30.112C57.304 29.104 58.16 28.32 59.248 27.76C60.336 27.184 61.576 26.896 62.968 26.896C64.328 26.896 65.512 27.184 66.52 27.76C67.528 28.32 68.272 29.128 68.752 30.184L65.848 31.744C65.512 31.136 65.088 30.688 64.576 30.4C64.08 30.112 63.536 29.968 62.944 29.968C62.304 29.968 61.728 30.112 61.216 30.4C60.704 30.688 60.296 31.096 59.992 31.624C59.704 32.152 59.56 32.792 59.56 33.544C59.56 34.296 59.704 34.936 59.992 35.464C60.296 35.992 60.704 36.4 61.216 36.688C61.728 36.976 62.304 37.12 62.944 37.12C63.536 37.12 64.08 36.984 64.576 36.712C65.088 36.424 65.512 35.968 65.848 35.344L68.752 36.928C68.272 37.968 67.528 38.776 66.52 39.352C65.512 39.912 64.328 40.192 62.968 40.192ZM76.8876 40.192C75.5116 40.192 74.2876 39.904 73.2156 39.328C72.1596 38.752 71.3196 37.968 70.6956 36.976C70.0876 35.968 69.7836 34.824 69.7836 33.544C69.7836 32.248 70.0876 31.104 70.6956 30.112C71.3196 29.104 72.1596 28.32 73.2156 27.76C74.2876 27.184 75.5116 26.896 76.8876 26.896C78.2476 26.896 79.4636 27.184 80.5356 27.76C81.6076 28.32 82.4476 29.096 83.0556 30.088C83.6636 31.08 83.9676 32.232 83.9676 33.544C83.9676 34.824 83.6636 35.968 83.0556 36.976C82.4476 37.968 81.6076 38.752 80.5356 39.328C79.4636 39.904 78.2476 40.192 76.8876 40.192ZM76.8876 37.12C77.5116 37.12 78.0716 36.976 78.5676 36.688C79.0636 36.4 79.4556 35.992 79.7436 35.464C80.0316 34.92 80.1756 34.28 80.1756 33.544C80.1756 32.792 80.0316 32.152 79.7436 31.624C79.4556 31.096 79.0636 30.688 78.5676 30.4C78.0716 30.112 77.5116 29.968 76.8876 29.968C76.2636 29.968 75.7036 30.112 75.2076 30.4C74.7116 30.688 74.3116 31.096 74.0076 31.624C73.7196 32.152 73.5756 32.792 73.5756 33.544C73.5756 34.28 73.7196 34.92 74.0076 35.464C74.3116 35.992 74.7116 36.4 75.2076 36.688C75.7036 36.976 76.2636 37.12 76.8876 37.12ZM94.3182 26.896C95.3422 26.896 96.2542 27.104 97.0542 27.52C97.8702 27.92 98.5102 28.544 98.9742 29.392C99.4382 30.224 99.6702 31.296 99.6702 32.608V40H95.9262V33.184C95.9262 32.144 95.6942 31.376 95.2302 30.88C94.7822 30.384 94.1422 30.136 93.3102 30.136C92.7182 30.136 92.1822 30.264 91.7022 30.52C91.2382 30.76 90.8702 31.136 90.5982 31.648C90.3422 32.16 90.2142 32.816 90.2142 33.616V40H86.4702V27.088H90.0462V30.664L89.3742 29.584C89.8382 28.72 90.5022 28.056 91.3662 27.592C92.2302 27.128 93.2142 26.896 94.3182 26.896ZM108.344 40.192C106.824 40.192 105.64 39.808 104.792 39.04C103.944 38.256 103.52 37.096 103.52 35.56V24.232H107.264V35.512C107.264 36.056 107.408 36.48 107.696 36.784C107.984 37.072 108.376 37.216 108.872 37.216C109.464 37.216 109.968 37.056 110.384 36.736L111.392 39.376C111.008 39.648 110.544 39.856 110 40C109.472 40.128 108.92 40.192 108.344 40.192ZM101.528 30.256V27.376H110.48V30.256H101.528ZM121.414 40V37.48L121.174 36.928V32.416C121.174 31.616 120.926 30.992 120.43 30.544C119.95 30.096 119.206 29.872 118.198 29.872C117.51 29.872 116.83 29.984 116.158 30.208C115.502 30.416 114.942 30.704 114.478 31.072L113.134 28.456C113.838 27.96 114.686 27.576 115.678 27.304C116.67 27.032 117.678 26.896 118.702 26.896C120.67 26.896 122.198 27.36 123.286 28.288C124.374 29.216 124.918 30.664 124.918 32.632V40H121.414ZM117.478 40.192C116.47 40.192 115.606 40.024 114.886 39.688C114.166 39.336 113.614 38.864 113.23 38.272C112.846 37.68 112.654 37.016 112.654 36.28C112.654 35.512 112.838 34.84 113.206 34.264C113.59 33.688 114.19 33.24 115.006 32.92C115.822 32.584 116.886 32.416 118.198 32.416H121.63V34.6H118.606C117.726 34.6 117.118 34.744 116.782 35.032C116.462 35.32 116.302 35.68 116.302 36.112C116.302 36.592 116.486 36.976 116.854 37.264C117.238 37.536 117.758 37.672 118.414 37.672C119.038 37.672 119.598 37.528 120.094 37.24C120.59 36.936 120.95 36.496 121.174 35.92L121.75 37.648C121.478 38.48 120.982 39.112 120.262 39.544C119.542 39.976 118.614 40.192 117.478 40.192ZM134.64 40.192C133.248 40.192 132.008 39.912 130.92 39.352C129.832 38.776 128.976 37.984 128.352 36.976C127.744 35.968 127.44 34.824 127.44 33.544C127.44 32.248 127.744 31.104 128.352 30.112C128.976 29.104 129.832 28.32 130.92 27.76C132.008 27.184 133.248 26.896 134.64 26.896C136 26.896 137.184 27.184 138.192 27.76C139.2 28.32 139.944 29.128 140.424 30.184L137.52 31.744C137.184 31.136 136.76 30.688 136.248 30.4C135.752 30.112 135.208 29.968 134.616 29.968C133.976 29.968 133.4 30.112 132.888 30.4C132.376 30.688 131.968 31.096 131.664 31.624C131.376 32.152 131.232 32.792 131.232 33.544C131.232 34.296 131.376 34.936 131.664 35.464C131.968 35.992 132.376 36.4 132.888 36.688C133.4 36.976 133.976 37.12 134.616 37.12C135.208 37.12 135.752 36.984 136.248 36.712C136.76 36.424 137.184 35.968 137.52 35.344L140.424 36.928C139.944 37.968 139.2 38.776 138.192 39.352C137.184 39.912 136 40.192 134.64 40.192ZM148.047 40.192C146.527 40.192 145.343 39.808 144.495 39.04C143.647 38.256 143.223 37.096 143.223 35.56V24.232H146.967V35.512C146.967 36.056 147.111 36.48 147.399 36.784C147.687 37.072 148.079 37.216 148.575 37.216C149.167 37.216 149.671 37.056 150.087 36.736L151.095 39.376C150.711 39.648 150.247 39.856 149.703 40C149.175 40.128 148.623 40.192 148.047 40.192ZM141.231 30.256V27.376H150.183V30.256H141.231Z" fill="#FFFDF3" />
<defs>
<pattern id="pattern0_43_1053" patternContentUnits="objectBoundingBox" width="1" height="1">
<use xlink:href="#image0_43_1053" transform="matrix(0.00148341 0 0 0.00485728 -1.2715 -2.85032)" />
</pattern>
<image id="image0_43_1053" width="594" height="284" preserveAspectRatio="none" xlink:href="/assets/images/shapes/cardboard_texture.jpg" />
</defs>
</svg>