<?xml version='1.0' encoding='utf-8'?>
<svg xmlns="http://www.w3.org/2000/svg" xmlns:xlink="http://www.w3.org/1999/xlink" width="210" height="68" viewBox="0 0 210 68" fill="none">
<path d="M18.8379 5.34668L204.482 10.7607L181.172 25.043L204.482 29.6309L181.172 39.0664L204.482 48.501L181.172 55.1611L201.152 67.4492H9.82129L23.958 58.1592L3.91211 45.8633L25.7979 35.1787L0.630859 25.043L19.0166 17.2998L0 5L18.8379 5.34668Z" fill="#956E49" />
<path d="M18.8379 5.34668L204.482 10.7607L181.172 25.043L204.482 29.6309L181.172 39.0664L204.482 48.501L181.172 55.1611L201.152 67.4492H9.82129L23.958 58.1592L3.91211 45.8633L25.7979 35.1787L0.630859 25.043L19.0166 17.2998L0 5L18.8379 5.34668Z" fill="url(#pattern0_42_1049)" fill-opacity="0.5" />
<path d="M18.8379 5.34668L204.482 10.7607L181.172 25.043L204.482 29.6309L181.172 39.0664L204.482 48.501L181.172 55.1611L201.152 67.4492H9.82129L23.958 58.1592L3.91211 45.8633L25.7979 35.1787L0.630859 25.043L19.0166 17.2998L0 5L18.8379 5.34668Z" fill="#956E49" />
<path d="M18.8379 5.34668L204.482 10.7607L181.172 25.043L204.482 29.6309L181.172 39.0664L204.482 48.501L181.172 55.1611L201.152 67.4492H9.82129L23.958 58.1592L3.91211 45.8633L25.7979 35.1787L0.630859 25.043L19.0166 17.2998L0 5L18.8379 5.34668Z" fill="url(#pattern1_42_1049)" fill-opacity="0.5" />
<path d="M23.8379 0.34668L209.482 5.76074L186.172 20.043L209.482 24.6309L186.172 34.0664L209.482 43.501L186.172 50.1611L206.152 62.4492H14.8213L28.958 53.1592L8.91211 40.8633L30.7979 30.1787L5.63086 20.043L24.0166 12.2998L5 0L23.8379 0.34668ZM67.9678 26.8965C66.5758 26.8965 65.3351 27.1838 64.2471 27.7598C63.1592 28.3198 62.3036 29.1044 61.6797 30.1123C61.0718 31.1043 60.7676 32.248 60.7676 33.5439C60.7676 34.8238 61.0718 35.9676 61.6797 36.9756C62.3036 37.9834 63.1593 38.7756 64.2471 39.3516C65.3351 39.9116 66.5758 40.1924 67.9678 40.1924C69.3277 40.1923 70.5116 39.9115 71.5195 39.3516C72.5274 38.7756 73.272 37.9677 73.752 36.9277L70.8477 35.3438C70.5117 35.9678 70.0872 36.4239 69.5752 36.7119C69.0793 36.9838 68.5353 37.1201 67.9434 37.1201C67.3036 37.1201 66.7277 36.9763 66.2158 36.6885C65.7038 36.4005 65.2952 35.9919 64.9912 35.4639C64.7033 34.9359 64.5596 34.2958 64.5596 33.5439C64.5596 32.792 64.7033 32.152 64.9912 31.624C65.2952 31.096 65.7038 30.6884 66.2158 30.4004C66.7278 30.1124 67.3034 29.9678 67.9434 29.9678C68.5353 29.9678 69.0792 30.1124 69.5752 30.4004C70.0872 30.6884 70.5117 31.1361 70.8477 31.7441L73.752 30.1836C73.272 29.1277 72.5275 28.3197 71.5195 27.7598C70.5116 27.1838 69.3276 26.8965 67.9678 26.8965ZM81.8867 26.8965C80.5109 26.8965 79.2867 27.1838 78.2148 27.7598C77.1589 28.3198 76.3193 29.1043 75.6953 30.1123C75.0874 31.1043 74.7832 32.248 74.7832 33.5439C74.7832 34.8238 75.0874 35.9676 75.6953 36.9756C76.3193 37.9675 77.1589 38.7521 78.2148 39.3281C79.2867 39.9041 80.5109 40.1923 81.8867 40.1924C83.2467 40.1924 84.4632 39.9041 85.5352 39.3281C86.6072 38.7521 87.4467 37.9676 88.0547 36.9756C88.6626 35.9676 88.9668 34.8239 88.9668 33.5439C88.9668 32.232 88.6627 31.0799 88.0547 30.0879C87.4467 29.096 86.6071 28.3197 85.5352 27.7598C84.4632 27.1838 83.2467 26.8965 81.8867 26.8965ZM108.52 24.2324V27.376H106.527V30.2559H108.52V35.5596C108.52 37.0954 108.943 38.256 109.791 39.04C110.639 39.808 111.824 40.1924 113.344 40.1924C113.919 40.1924 114.471 40.1279 114.999 40C115.543 39.856 116.008 39.648 116.392 39.376L115.384 36.7363C114.968 37.0563 114.463 37.2158 113.871 37.2158C113.375 37.2158 112.983 37.0721 112.695 36.7842C112.407 36.4802 112.264 36.0557 112.264 35.5117V30.2559H115.479V27.376H112.264V24.2324H108.52ZM123.701 26.8965C122.677 26.8965 121.669 27.0317 120.677 27.3037C119.685 27.5757 118.837 27.9601 118.133 28.4561L119.478 31.0723C119.942 30.7043 120.501 30.416 121.157 30.208C121.829 29.984 122.509 29.8721 123.197 29.8721C124.205 29.8721 124.949 30.0961 125.429 30.5439C125.925 30.9919 126.173 31.616 126.173 32.416H123.197C121.885 32.416 120.821 32.5839 120.005 32.9199C119.189 33.2399 118.589 33.6878 118.205 34.2637C117.837 34.8397 117.653 35.5123 117.653 36.2803C117.653 37.0162 117.846 37.6805 118.229 38.2725C118.613 38.8642 119.165 39.3366 119.885 39.6885C120.605 40.0245 121.47 40.1924 122.478 40.1924C123.613 40.1923 124.541 39.9758 125.261 39.5439C125.749 39.2512 126.131 38.865 126.413 38.3887V40H129.917V32.6318C129.917 30.664 129.373 29.2161 128.285 28.2881C127.197 27.3601 125.669 26.8965 123.701 26.8965ZM139.64 26.8965C138.248 26.8965 137.007 27.1838 135.919 27.7598C134.831 28.3198 133.976 29.1044 133.352 30.1123C132.744 31.1043 132.439 32.248 132.439 33.5439C132.439 34.8238 132.744 35.9676 133.352 36.9756C133.975 37.9834 134.831 38.7756 135.919 39.3516C137.007 39.9116 138.248 40.1924 139.64 40.1924C141 40.1923 142.183 39.9115 143.191 39.3516C144.199 38.7756 144.944 37.9677 145.424 36.9277L142.52 35.3438C142.184 35.9678 141.759 36.4239 141.247 36.7119C140.751 36.9838 140.207 37.1201 139.615 37.1201C138.975 37.1201 138.4 36.9763 137.888 36.6885C137.376 36.4005 136.967 35.9919 136.663 35.4639C136.375 34.9359 136.231 34.2958 136.231 33.5439C136.231 32.792 136.375 32.152 136.663 31.624C136.967 31.096 137.376 30.6884 137.888 30.4004C138.4 30.1124 138.975 29.9678 139.615 29.9678C140.207 29.9678 140.751 30.1124 141.247 30.4004C141.759 30.6884 142.184 31.1361 142.52 31.7441L145.424 30.1836C144.944 29.1277 144.199 28.3197 143.191 27.7598C142.183 27.1838 141 26.8965 139.64 26.8965ZM148.223 24.2324V27.376H146.23V30.2559H148.223V35.5596C148.223 37.0954 148.646 38.256 149.494 39.04C150.342 39.808 151.527 40.1924 153.047 40.1924C153.623 40.1924 154.174 40.1279 154.702 40C155.246 39.856 155.711 39.648 156.095 39.376L155.087 36.7363C154.671 37.0563 154.166 37.2158 153.574 37.2158C153.078 37.2158 152.686 37.0721 152.398 36.7842C152.11 36.4802 151.967 36.0557 151.967 35.5117V30.2559H155.183V27.376H151.967V24.2324H148.223ZM99.3174 26.8965C98.2135 26.8965 97.2292 27.1278 96.3652 27.5918C95.8551 27.8658 95.4166 28.2115 95.0459 28.625V27.0879H91.4697V40H95.2139V33.6162C95.2139 32.8164 95.3418 32.1604 95.5977 31.6484C95.8697 31.1364 96.2381 30.7595 96.7021 30.5195C97.182 30.2637 97.7178 30.1358 98.3096 30.1357C99.1415 30.1357 99.7815 30.384 100.229 30.8799C100.693 31.3758 100.926 32.1438 100.926 33.1836V40H104.67V32.6084C104.67 31.2964 104.438 30.2236 103.974 29.3916C103.51 28.5438 102.87 27.9195 102.054 27.5195C101.254 27.1036 100.341 26.8965 99.3174 26.8965ZM126.173 35.9199C125.949 36.4959 125.589 36.9362 125.093 37.2402C124.597 37.5281 124.037 37.6719 123.413 37.6719C122.757 37.6719 122.237 37.5356 121.854 37.2637C121.486 36.9757 121.301 36.5922 121.301 36.1123C121.301 35.6803 121.461 35.3202 121.781 35.0322C122.117 34.7442 122.725 34.5996 123.605 34.5996H126.173V35.9199ZM81.8867 29.9678C82.5107 29.9678 83.0714 30.1124 83.5674 30.4004C84.0632 30.6884 84.4552 31.0961 84.7432 31.624C85.0311 32.152 85.1748 32.792 85.1748 33.5439C85.1748 34.2799 85.0311 34.9199 84.7432 35.4639C84.4552 35.9919 84.0634 36.4005 83.5674 36.6885C83.0714 36.9765 82.5107 37.1201 81.8867 37.1201C81.2629 37.1201 80.7029 36.9764 80.207 36.6885C79.711 36.4005 79.3108 35.9919 79.0068 35.4639C78.7189 34.9199 78.5752 34.2798 78.5752 33.5439C78.5752 32.792 78.7189 32.152 79.0068 31.624C79.3108 31.0961 79.7111 30.6884 80.207 30.4004C80.7029 30.1125 81.2629 29.9678 81.8867 29.9678Z" fill="#00859D" />
<path d="M67.968 40.192C66.576 40.192 65.336 39.912 64.248 39.352C63.16 38.776 62.304 37.984 61.68 36.976C61.072 35.968 60.768 34.824 60.768 33.544C60.768 32.248 61.072 31.104 61.68 30.112C62.304 29.104 63.16 28.32 64.248 27.76C65.336 27.184 66.576 26.896 67.968 26.896C69.328 26.896 70.512 27.184 71.52 27.76C72.528 28.32 73.272 29.128 73.752 30.184L70.848 31.744C70.512 31.136 70.088 30.688 69.576 30.4C69.08 30.112 68.536 29.968 67.944 29.968C67.304 29.968 66.728 30.112 66.216 30.4C65.704 30.688 65.296 31.096 64.992 31.624C64.704 32.152 64.56 32.792 64.56 33.544C64.56 34.296 64.704 34.936 64.992 35.464C65.296 35.992 65.704 36.4 66.216 36.688C66.728 36.976 67.304 37.12 67.944 37.12C68.536 37.12 69.08 36.984 69.576 36.712C70.088 36.424 70.512 35.968 70.848 35.344L73.752 36.928C73.272 37.968 72.528 38.776 71.52 39.352C70.512 39.912 69.328 40.192 67.968 40.192ZM81.8876 40.192C80.5116 40.192 79.2876 39.904 78.2156 39.328C77.1596 38.752 76.3196 37.968 75.6956 36.976C75.0876 35.968 74.7836 34.824 74.7836 33.544C74.7836 32.248 75.0876 31.104 75.6956 30.112C76.3196 29.104 77.1596 28.32 78.2156 27.76C79.2876 27.184 80.5116 26.896 81.8876 26.896C83.2476 26.896 84.4636 27.184 85.5356 27.76C86.6076 28.32 87.4476 29.096 88.0556 30.088C88.6636 31.08 88.9676 32.232 88.9676 33.544C88.9676 34.824 88.6636 35.968 88.0556 36.976C87.4476 37.968 86.6076 38.752 85.5356 39.328C84.4636 39.904 83.2476 40.192 81.8876 40.192ZM81.8876 37.12C82.5116 37.12 83.0716 36.976 83.5676 36.688C84.0636 36.4 84.4556 35.992 84.7436 35.464C85.0316 34.92 85.1756 34.28 85.1756 33.544C85.1756 32.792 85.0316 32.152 84.7436 31.624C84.4556 31.096 84.0636 30.688 83.5676 30.4C83.0716 30.112 82.5116 29.968 81.8876 29.968C81.2636 29.968 80.7036 30.112 80.2076 30.4C79.7116 30.688 79.3116 31.096 79.0076 31.624C78.7196 32.152 78.5756 32.792 78.5756 33.544C78.5756 34.28 78.7196 34.92 79.0076 35.464C79.3116 35.992 79.7116 36.4 80.2076 36.688C80.7036 36.976 81.2636 37.12 81.8876 37.12ZM99.3182 26.896C100.342 26.896 101.254 27.104 102.054 27.52C102.87 27.92 103.51 28.544 103.974 29.392C104.438 30.224 104.67 31.296 104.67 32.608V40H100.926V33.184C100.926 32.144 100.694 31.376 100.23 30.88C99.7822 30.384 99.1422 30.136 98.3102 30.136C97.7182 30.136 97.1822 30.264 96.7022 30.52C96.2382 30.76 95.8702 31.136 95.5982 31.648C95.3422 32.16 95.2142 32.816 95.2142 33.616V40H91.4702V27.088H95.0462V30.664L94.3742 29.584C94.8382 28.72 95.5022 28.056 96.3662 27.592C97.2302 27.128 98.2142 26.896 99.3182 26.896ZM113.344 40.192C111.824 40.192 110.64 39.808 109.792 39.04C108.944 38.256 108.52 37.096 108.52 35.56V24.232H112.264V35.512C112.264 36.056 112.408 36.48 112.696 36.784C112.984 37.072 113.376 37.216 113.872 37.216C114.464 37.216 114.968 37.056 115.384 36.736L116.392 39.376C116.008 39.648 115.544 39.856 115 40C114.472 40.128 113.92 40.192 113.344 40.192ZM106.528 30.256V27.376H115.48V30.256H106.528ZM126.414 40V37.48L126.174 36.928V32.416C126.174 31.616 125.926 30.992 125.43 30.544C124.95 30.096 124.206 29.872 123.198 29.872C122.51 29.872 121.83 29.984 121.158 30.208C120.502 30.416 119.942 30.704 119.478 31.072L118.134 28.456C118.838 27.96 119.686 27.576 120.678 27.304C121.67 27.032 122.678 26.896 123.702 26.896C125.67 26.896 127.198 27.36 128.286 28.288C129.374 29.216 129.918 30.664 129.918 32.632V40H126.414ZM122.478 40.192C121.47 40.192 120.606 40.024 119.886 39.688C119.166 39.336 118.614 38.864 118.23 38.272C117.846 37.68 117.654 37.016 117.654 36.28C117.654 35.512 117.838 34.84 118.206 34.264C118.59 33.688 119.19 33.24 120.006 32.92C120.822 32.584 121.886 32.416 123.198 32.416H126.63V34.6H123.606C122.726 34.6 122.118 34.744 121.782 35.032C121.462 35.32 121.302 35.68 121.302 36.112C121.302 36.592 121.486 36.976 121.854 37.264C122.238 37.536 122.758 37.672 123.414 37.672C124.038 37.672 124.598 37.528 125.094 37.24C125.59 36.936 125.95 36.496 126.174 35.92L126.75 37.648C126.478 38.48 125.982 39.112 125.262 39.544C124.542 39.976 123.614 40.192 122.478 40.192ZM139.64 40.192C138.248 40.192 137.008 39.912 135.92 39.352C134.832 38.776 133.976 37.984 133.352 36.976C132.744 35.968 132.44 34.824 132.44 33.544C132.44 32.248 132.744 31.104 133.352 30.112C133.976 29.104 134.832 28.32 135.92 27.76C137.008 27.184 138.248 26.896 139.64 26.896C141 26.896 142.184 27.184 143.192 27.76C144.2 28.32 144.944 29.128 145.424 30.184L142.52 31.744C142.184 31.136 141.76 30.688 141.248 30.4C140.752 30.112 140.208 29.968 139.616 29.968C138.976 29.968 138.4 30.112 137.888 30.4C137.376 30.688 136.968 31.096 136.664 31.624C136.376 32.152 136.232 32.792 136.232 33.544C136.232 34.296 136.376 34.936 136.664 35.464C136.968 35.992 137.376 36.4 137.888 36.688C138.4 36.976 138.976 37.12 139.616 37.12C140.208 37.12 140.752 36.984 141.248 36.712C141.76 36.424 142.184 35.968 142.52 35.344L145.424 36.928C144.944 37.968 144.2 38.776 143.192 39.352C142.184 39.912 141 40.192 139.64 40.192ZM153.047 40.192C151.527 40.192 150.343 39.808 149.495 39.04C148.647 38.256 148.223 37.096 148.223 35.56V24.232H151.967V35.512C151.967 36.056 152.111 36.48 152.399 36.784C152.687 37.072 153.079 37.216 153.575 37.216C154.167 37.216 154.671 37.056 155.087 36.736L156.095 39.376C155.711 39.648 155.247 39.856 154.703 40C154.175 40.128 153.623 40.192 153.047 40.192ZM146.231 30.256V27.376H155.183V30.256H146.231Z" fill="#FFFDF3" />
<defs>
<pattern id="pattern0_42_1049" patternContentUnits="objectBoundingBox" width="1" height="1">
<use xlink:href="#image0_42_1049" transform="matrix(0.00148341 0 0 0.00485728 -1.2715 -2.85032)" />
</pattern>
<pattern id="pattern1_42_1049" patternContentUnits="objectBoundingBox" width="1" height="1">
<use xlink:href="#image0_42_1049" transform="matrix(0.00148341 0 0 0.00485728 -1.2715 -2.85032)" />
</pattern>
<image id="image0_42_1049" width="594" height="284" preserveAspectRatio="none" xlink:href="/assets/images/shapes/cardboard_texture.jpg" />
</defs>
</svg>