<?xml version='1.0' encoding='utf-8'?>
<svg xmlns="http://www.w3.org/2000/svg" xmlns:xlink="http://www.w3.org/1999/xlink" width="210" height="68" viewBox="0 0 210 68" fill="none">
<path d="M204.482 10.761L18.8383 5.34641L0 5L19.0166 17.2994L0.63038 25.043L25.7978 35.1787L3.91196 45.8632L23.9584 58.1591L9.82117 67.4491H201.152L181.172 55.1614L204.482 48.5013L181.172 39.0662L204.482 29.6312L181.172 25.043L204.482 10.761Z" fill="url(#pattern0_43_1054)" fill-opacity="0.5" />
<path d="M204.482 10.761L18.8383 5.34641L0 5L19.0166 17.2994L0.63038 25.043L25.7978 35.1787L3.91196 45.8632L23.9584 58.1591L9.82117 67.4491H201.152L181.172 55.1614L204.482 48.5013L181.172 39.0662L204.482 29.6312L181.172 25.043L204.482 10.761Z" fill="#00859D" />
<path d="M23.8379 0.34668L209.482 5.76074L186.172 20.043L209.482 24.6309L186.172 34.0664L209.482 43.501L186.172 50.1611L206.152 62.4492H14.8213L28.958 53.1592L8.91211 40.8633L30.7979 30.1787L5.63086 20.043L24.0166 12.2998L5 0L23.8379 0.34668ZM67.9678 26.8965C66.5758 26.8965 65.3351 27.1838 64.2471 27.7598C63.1592 28.3198 62.3036 29.1044 61.6797 30.1123C61.0718 31.1043 60.7676 32.248 60.7676 33.5439C60.7676 34.8238 61.0718 35.9676 61.6797 36.9756C62.3036 37.9834 63.1593 38.7756 64.2471 39.3516C65.3351 39.9116 66.5758 40.1924 67.9678 40.1924C69.3277 40.1923 70.5116 39.9115 71.5195 39.3516C72.5274 38.7756 73.272 37.9677 73.752 36.9277L70.8477 35.3438C70.5117 35.9678 70.0872 36.4239 69.5752 36.7119C69.0793 36.9838 68.5353 37.1201 67.9434 37.1201C67.3036 37.1201 66.7277 36.9763 66.2158 36.6885C65.7038 36.4005 65.2952 35.9919 64.9912 35.4639C64.7033 34.9359 64.5596 34.2958 64.5596 33.5439C64.5596 32.792 64.7033 32.152 64.9912 31.624C65.2952 31.096 65.7038 30.6884 66.2158 30.4004C66.7278 30.1124 67.3034 29.9678 67.9434 29.9678C68.5353 29.9678 69.0792 30.1124 69.5752 30.4004C70.0872 30.6884 70.5117 31.1361 70.8477 31.7441L73.752 30.1836C73.272 29.1277 72.5275 28.3197 71.5195 27.7598C70.5116 27.1838 69.3276 26.8965 67.9678 26.8965ZM81.8867 26.8965C80.5109 26.8965 79.2867 27.1838 78.2148 27.7598C77.1589 28.3198 76.3193 29.1043 75.6953 30.1123C75.0874 31.1043 74.7832 32.248 74.7832 33.5439C74.7832 34.8238 75.0874 35.9676 75.6953 36.9756C76.3193 37.9675 77.1589 38.7521 78.2148 39.3281C79.2867 39.9041 80.5109 40.1923 81.8867 40.1924C83.2467 40.1924 84.4632 39.9041 85.5352 39.3281C86.6072 38.7521 87.4467 37.9676 88.0547 36.9756C88.6626 35.9676 88.9668 34.8239 88.9668 33.5439C88.9668 32.232 88.6627 31.0799 88.0547 30.0879C87.4467 29.096 86.6071 28.3197 85.5352 27.7598C84.4632 27.1838 83.2467 26.8965 81.8867 26.8965ZM108.52 24.2324V27.376H106.527V30.2559H108.52V35.5596C108.52 37.0954 108.943 38.256 109.791 39.04C110.639 39.808 111.824 40.1924 113.344 40.1924C113.919 40.1924 114.471 40.1279 114.999 40C115.543 39.856 116.008 39.648 116.392 39.376L115.384 36.7363C114.968 37.0563 114.463 37.2158 113.871 37.2158C113.375 37.2158 112.983 37.0721 112.695 36.7842C112.407 36.4802 112.264 36.0557 112.264 35.5117V30.2559H115.479V27.376H112.264V24.2324H108.52ZM123.701 26.8965C122.677 26.8965 121.669 27.0317 120.677 27.3037C119.685 27.5757 118.837 27.9601 118.133 28.4561L119.478 31.0723C119.942 30.7043 120.501 30.416 121.157 30.208C121.829 29.984 122.509 29.8721 123.197 29.8721C124.205 29.8721 124.949 30.0961 125.429 30.5439C125.925 30.9919 126.173 31.616 126.173 32.416H123.197C121.885 32.416 120.821 32.5839 120.005 32.9199C119.189 33.2399 118.589 33.6878 118.205 34.2637C117.837 34.8397 117.653 35.5123 117.653 36.2803C117.653 37.0162 117.846 37.6805 118.229 38.2725C118.613 38.8642 119.165 39.3366 119.885 39.6885C120.605 40.0245 121.47 40.1924 122.478 40.1924C123.613 40.1923 124.541 39.9758 125.261 39.5439C125.749 39.2512 126.131 38.865 126.413 38.3887V40H129.917V32.6318C129.917 30.664 129.373 29.2161 128.285 28.2881C127.197 27.3601 125.669 26.8965 123.701 26.8965ZM139.64 26.8965C138.248 26.8965 137.007 27.1838 135.919 27.7598C134.831 28.3198 133.976 29.1044 133.352 30.1123C132.744 31.1043 132.439 32.248 132.439 33.5439C132.439 34.8238 132.744 35.9676 133.352 36.9756C133.975 37.9834 134.831 38.7756 135.919 39.3516C137.007 39.9116 138.248 40.1924 139.64 40.1924C141 40.1923 142.183 39.9115 143.191 39.3516C144.199 38.7756 144.944 37.9677 145.424 36.9277L142.52 35.3438C142.184 35.9678 141.759 36.4239 141.247 36.7119C140.751 36.9838 140.207 37.1201 139.615 37.1201C138.975 37.1201 138.4 36.9763 137.888 36.6885C137.376 36.4005 136.967 35.9919 136.663 35.4639C136.375 34.9359 136.231 34.2958 136.231 33.5439C136.231 32.792 136.375 32.152 136.663 31.624C136.967 31.096 137.376 30.6884 137.888 30.4004C138.4 30.1124 138.975 29.9678 139.615 29.9678C140.207 29.9678 140.751 30.1124 141.247 30.4004C141.759 30.6884 142.184 31.1361 142.52 31.7441L145.424 30.1836C144.944 29.1277 144.199 28.3197 143.191 27.7598C142.183 27.1838 141 26.8965 139.64 26.8965ZM148.223 24.2324V27.376H146.23V30.2559H148.223V35.5596C148.223 37.0954 148.646 38.256 149.494 39.04C150.342 39.808 151.527 40.1924 153.047 40.1924C153.623 40.1924 154.174 40.1279 154.702 40C155.246 39.856 155.711 39.648 156.095 39.376L155.087 36.7363C154.671 37.0563 154.166 37.2158 153.574 37.2158C153.078 37.2158 152.686 37.0721 152.398 36.7842C152.11 36.4802 151.967 36.0557 151.967 35.5117V30.2559H155.183V27.376H151.967V24.2324H148.223ZM99.3174 26.8965C98.2135 26.8965 97.2292 27.1278 96.3652 27.5918C95.8551 27.8658 95.4166 28.2115 95.0459 28.625V27.0879H91.4697V40H95.2139V33.6162C95.2139 32.8164 95.3418 32.1604 95.5977 31.6484C95.8697 31.1364 96.2381 30.7595 96.7021 30.5195C97.182 30.2637 97.7178 30.1358 98.3096 30.1357C99.1415 30.1357 99.7815 30.384 100.229 30.8799C100.693 31.3758 100.926 32.1438 100.926 33.1836V40H104.67V32.6084C104.67 31.2964 104.438 30.2236 103.974 29.3916C103.51 28.5438 102.87 27.9195 102.054 27.5195C101.254 27.1036 100.341 26.8965 99.3174 26.8965ZM126.173 35.9199C125.949 36.4959 125.589 36.9362 125.093 37.2402C124.597 37.5281 124.037 37.6719 123.413 37.6719C122.757 37.6719 122.237 37.5356 121.854 37.2637C121.486 36.9757 121.301 36.5922 121.301 36.1123C121.301 35.6803 121.461 35.3202 121.781 35.0322C122.117 34.7442 122.725 34.5996 123.605 34.5996H126.173V35.9199ZM81.8867 29.9678C82.5107 29.9678 83.0714 30.1124 83.5674 30.4004C84.0632 30.6884 84.4552 31.0961 84.7432 31.624C85.0311 32.152 85.1748 32.792 85.1748 33.5439C85.1748 34.2799 85.0311 34.9199 84.7432 35.4639C84.4552 35.9919 84.0634 36.4005 83.5674 36.6885C83.0714 36.9765 82.5107 37.1201 81.8867 37.1201C81.2629 37.1201 80.7029 36.9764 80.207 36.6885C79.711 36.4005 79.3108 35.9919 79.0068 35.4639C78.7189 34.9199 78.5752 34.2798 78.5752 33.5439C78.5752 32.792 78.7189 32.152 79.0068 31.624C79.3108 31.0961 79.7111 30.6884 80.207 30.4004C80.7029 30.1125 81.2629 29.9678 81.8867 29.9678Z" fill="#956E49" />
<path d="M23.8379 0.34668L209.482 5.76074L186.172 20.043L209.482 24.6309L186.172 34.0664L209.482 43.501L186.172 50.1611L206.152 62.4492H14.8213L28.958 53.1592L8.91211 40.8633L30.7979 30.1787L5.63086 20.043L24.0166 12.2998L5 0L23.8379 0.34668ZM67.9678 26.8965C66.5758 26.8965 65.3351 27.1838 64.2471 27.7598C63.1592 28.3198 62.3036 29.1044 61.6797 30.1123C61.0718 31.1043 60.7676 32.248 60.7676 33.5439C60.7676 34.8238 61.0718 35.9676 61.6797 36.9756C62.3036 37.9834 63.1593 38.7756 64.2471 39.3516C65.3351 39.9116 66.5758 40.1924 67.9678 40.1924C69.3277 40.1923 70.5116 39.9115 71.5195 39.3516C72.5274 38.7756 73.272 37.9677 73.752 36.9277L70.8477 35.3438C70.5117 35.9678 70.0872 36.4239 69.5752 36.7119C69.0793 36.9838 68.5353 37.1201 67.9434 37.1201C67.3036 37.1201 66.7277 36.9763 66.2158 36.6885C65.7038 36.4005 65.2952 35.9919 64.9912 35.4639C64.7033 34.9359 64.5596 34.2958 64.5596 33.5439C64.5596 32.792 64.7033 32.152 64.9912 31.624C65.2952 31.096 65.7038 30.6884 66.2158 30.4004C66.7278 30.1124 67.3034 29.9678 67.9434 29.9678C68.5353 29.9678 69.0792 30.1124 69.5752 30.4004C70.0872 30.6884 70.5117 31.1361 70.8477 31.7441L73.752 30.1836C73.272 29.1277 72.5275 28.3197 71.5195 27.7598C70.5116 27.1838 69.3276 26.8965 67.9678 26.8965ZM81.8867 26.8965C80.5109 26.8965 79.2867 27.1838 78.2148 27.7598C77.1589 28.3198 76.3193 29.1043 75.6953 30.1123C75.0874 31.1043 74.7832 32.248 74.7832 33.5439C74.7832 34.8238 75.0874 35.9676 75.6953 36.9756C76.3193 37.9675 77.1589 38.7521 78.2148 39.3281C79.2867 39.9041 80.5109 40.1923 81.8867 40.1924C83.2467 40.1924 84.4632 39.9041 85.5352 39.3281C86.6072 38.7521 87.4467 37.9676 88.0547 36.9756C88.6626 35.9676 88.9668 34.8239 88.9668 33.5439C88.9668 32.232 88.6627 31.0799 88.0547 30.0879C87.4467 29.096 86.6071 28.3197 85.5352 27.7598C84.4632 27.1838 83.2467 26.8965 81.8867 26.8965ZM108.52 24.2324V27.376H106.527V30.2559H108.52V35.5596C108.52 37.0954 108.943 38.256 109.791 39.04C110.639 39.808 111.824 40.1924 113.344 40.1924C113.919 40.1924 114.471 40.1279 114.999 40C115.543 39.856 116.008 39.648 116.392 39.376L115.384 36.7363C114.968 37.0563 114.463 37.2158 113.871 37.2158C113.375 37.2158 112.983 37.0721 112.695 36.7842C112.407 36.4802 112.264 36.0557 112.264 35.5117V30.2559H115.479V27.376H112.264V24.2324H108.52ZM123.701 26.8965C122.677 26.8965 121.669 27.0317 120.677 27.3037C119.685 27.5757 118.837 27.9601 118.133 28.4561L119.478 31.0723C119.942 30.7043 120.501 30.416 121.157 30.208C121.829 29.984 122.509 29.8721 123.197 29.8721C124.205 29.8721 124.949 30.0961 125.429 30.5439C125.925 30.9919 126.173 31.616 126.173 32.416H123.197C121.885 32.416 120.821 32.5839 120.005 32.9199C119.189 33.2399 118.589 33.6878 118.205 34.2637C117.837 34.8397 117.653 35.5123 117.653 36.2803C117.653 37.0162 117.846 37.6805 118.229 38.2725C118.613 38.8642 119.165 39.3366 119.885 39.6885C120.605 40.0245 121.47 40.1924 122.478 40.1924C123.613 40.1923 124.541 39.9758 125.261 39.5439C125.749 39.2512 126.131 38.865 126.413 38.3887V40H129.917V32.6318C129.917 30.664 129.373 29.2161 128.285 28.2881C127.197 27.3601 125.669 26.8965 123.701 26.8965ZM139.64 26.8965C138.248 26.8965 137.007 27.1838 135.919 27.7598C134.831 28.3198 133.976 29.1044 133.352 30.1123C132.744 31.1043 132.439 32.248 132.439 33.5439C132.439 34.8238 132.744 35.9676 133.352 36.9756C133.975 37.9834 134.831 38.7756 135.919 39.3516C137.007 39.9116 138.248 40.1924 139.64 40.1924C141 40.1923 142.183 39.9115 143.191 39.3516C144.199 38.7756 144.944 37.9677 145.424 36.9277L142.52 35.3438C142.184 35.9678 141.759 36.4239 141.247 36.7119C140.751 36.9838 140.207 37.1201 139.615 37.1201C138.975 37.1201 138.4 36.9763 137.888 36.6885C137.376 36.4005 136.967 35.9919 136.663 35.4639C136.375 34.9359 136.231 34.2958 136.231 33.5439C136.231 32.792 136.375 32.152 136.663 31.624C136.967 31.096 137.376 30.6884 137.888 30.4004C138.4 30.1124 138.975 29.9678 139.615 29.9678C140.207 29.9678 140.751 30.1124 141.247 30.4004C141.759 30.6884 142.184 31.1361 142.52 31.7441L145.424 30.1836C144.944 29.1277 144.199 28.3197 143.191 27.7598C142.183 27.1838 141 26.8965 139.64 26.8965ZM148.223 24.2324V27.376H146.23V30.2559H148.223V35.5596C148.223 37.0954 148.646 38.256 149.494 39.04C150.342 39.808 151.527 40.1924 153.047 40.1924C153.623 40.1924 154.174 40.1279 154.702 40C155.246 39.856 155.711 39.648 156.095 39.376L155.087 36.7363C154.671 37.0563 154.166 37.2158 153.574 37.2158C153.078 37.2158 152.686 37.0721 152.398 36.7842C152.11 36.4802 151.967 36.0557 151.967 35.5117V30.2559H155.183V27.376H151.967V24.2324H148.223ZM99.3174 26.8965C98.2135 26.8965 97.2292 27.1278 96.3652 27.5918C95.8551 27.8658 95.4166 28.2115 95.0459 28.625V27.0879H91.4697V40H95.2139V33.6162C95.2139 32.8164 95.3418 32.1604 95.5977 31.6484C95.8697 31.1364 96.2381 30.7595 96.7021 30.5195C97.182 30.2637 97.7178 30.1358 98.3096 30.1357C99.1415 30.1357 99.7815 30.384 100.229 30.8799C100.693 31.3758 100.926 32.1438 100.926 33.1836V40H104.67V32.6084C104.67 31.2964 104.438 30.2236 103.974 29.3916C103.51 28.5438 102.87 27.9195 102.054 27.5195C101.254 27.1036 100.341 26.8965 99.3174 26.8965ZM126.173 35.9199C125.949 36.4959 125.589 36.9362 125.093 37.2402C124.597 37.5281 124.037 37.6719 123.413 37.6719C122.757 37.6719 122.237 37.5356 121.854 37.2637C121.486 36.9757 121.301 36.5922 121.301 36.1123C121.301 35.6803 121.461 35.3202 121.781 35.0322C122.117 34.7442 122.725 34.5996 123.605 34.5996H126.173V35.9199ZM81.8867 29.9678C82.5107 29.9678 83.0714 30.1124 83.5674 30.4004C84.0632 30.6884 84.4552 31.0961 84.7432 31.624C85.0311 32.152 85.1748 32.792 85.1748 33.5439C85.1748 34.2799 85.0311 34.9199 84.7432 35.4639C84.4552 35.9919 84.0634 36.4005 83.5674 36.6885C83.0714 36.9765 82.5107 37.1201 81.8867 37.1201C81.2629 37.1201 80.7029 36.9764 80.207 36.6885C79.711 36.4005 79.3108 35.9919 79.0068 35.4639C78.7189 34.9199 78.5752 34.2798 78.5752 33.5439C78.5752 32.792 78.7189 32.152 79.0068 31.624C79.3108 31.0961 79.7111 30.6884 80.207 30.4004C80.7029 30.1125 81.2629 29.9678 81.8867 29.9678Z" fill="url(#pattern1_43_1054)" fill-opacity="0.5" />
<mask id="path-3-outside-1_43_1054" maskUnits="userSpaceOnUse" x="58.9995" y="23" width="99" height="19" fill="black">
<rect fill="white" x="58.9995" y="23" width="99" height="19" />
<path d="M67.9675 40.192C66.5755 40.192 65.3355 39.912 64.2475 39.352C63.1595 38.776 62.3035 37.984 61.6795 36.976C61.0715 35.968 60.7675 34.824 60.7675 33.544C60.7675 32.248 61.0715 31.104 61.6795 30.112C62.3035 29.104 63.1595 28.32 64.2475 27.76C65.3355 27.184 66.5755 26.896 67.9675 26.896C69.3275 26.896 70.5115 27.184 71.5195 27.76C72.5275 28.32 73.2715 29.128 73.7515 30.184L70.8475 31.744C70.5115 31.136 70.0875 30.688 69.5755 30.4C69.0795 30.112 68.5355 29.968 67.9435 29.968C67.3035 29.968 66.7275 30.112 66.2155 30.4C65.7035 30.688 65.2955 31.096 64.9915 31.624C64.7035 32.152 64.5595 32.792 64.5595 33.544C64.5595 34.296 64.7035 34.936 64.9915 35.464C65.2955 35.992 65.7035 36.4 66.2155 36.688C66.7275 36.976 67.3035 37.12 67.9435 37.12C68.5355 37.12 69.0795 36.984 69.5755 36.712C70.0875 36.424 70.5115 35.968 70.8475 35.344L73.7515 36.928C73.2715 37.968 72.5275 38.776 71.5195 39.352C70.5115 39.912 69.3275 40.192 67.9675 40.192ZM81.8871 40.192C80.5111 40.192 79.2871 39.904 78.2151 39.328C77.1591 38.752 76.3191 37.968 75.6951 36.976C75.0871 35.968 74.7831 34.824 74.7831 33.544C74.7831 32.248 75.0871 31.104 75.6951 30.112C76.3191 29.104 77.1591 28.32 78.2151 27.76C79.2871 27.184 80.5111 26.896 81.8871 26.896C83.2471 26.896 84.4631 27.184 85.5351 27.76C86.6071 28.32 87.4471 29.096 88.0551 30.088C88.6631 31.08 88.9671 32.232 88.9671 33.544C88.9671 34.824 88.6631 35.968 88.0551 36.976C87.4471 37.968 86.6071 38.752 85.5351 39.328C84.4631 39.904 83.2471 40.192 81.8871 40.192ZM81.8871 37.12C82.5111 37.12 83.0711 36.976 83.5671 36.688C84.0631 36.4 84.4551 35.992 84.7431 35.464C85.0311 34.92 85.1751 34.28 85.1751 33.544C85.1751 32.792 85.0311 32.152 84.7431 31.624C84.4551 31.096 84.0631 30.688 83.5671 30.4C83.0711 30.112 82.5111 29.968 81.8871 29.968C81.2631 29.968 80.7031 30.112 80.2071 30.4C79.7111 30.688 79.3111 31.096 79.0071 31.624C78.7191 32.152 78.5751 32.792 78.5751 33.544C78.5751 34.28 78.7191 34.92 79.0071 35.464C79.3111 35.992 79.7111 36.4 80.2071 36.688C80.7031 36.976 81.2631 37.12 81.8871 37.12ZM99.3177 26.896C100.342 26.896 101.254 27.104 102.054 27.52C102.87 27.92 103.51 28.544 103.974 29.392C104.438 30.224 104.67 31.296 104.67 32.608V40H100.926V33.184C100.926 32.144 100.694 31.376 100.23 30.88C99.7817 30.384 99.1417 30.136 98.3097 30.136C97.7177 30.136 97.1817 30.264 96.7017 30.52C96.2377 30.76 95.8697 31.136 95.5977 31.648C95.3417 32.16 95.2137 32.816 95.2137 33.616V40H91.4697V27.088H95.0457V30.664L94.3737 29.584C94.8377 28.72 95.5017 28.056 96.3657 27.592C97.2297 27.128 98.2137 26.896 99.3177 26.896ZM113.343 40.192C111.823 40.192 110.639 39.808 109.791 39.04C108.943 38.256 108.519 37.096 108.519 35.56V24.232H112.263V35.512C112.263 36.056 112.407 36.48 112.695 36.784C112.983 37.072 113.375 37.216 113.871 37.216C114.463 37.216 114.967 37.056 115.383 36.736L116.391 39.376C116.007 39.648 115.543 39.856 114.999 40C114.471 40.128 113.919 40.192 113.343 40.192ZM106.527 30.256V27.376H115.479V30.256H106.527ZM126.413 40V37.48L126.173 36.928V32.416C126.173 31.616 125.925 30.992 125.429 30.544C124.949 30.096 124.205 29.872 123.197 29.872C122.509 29.872 121.829 29.984 121.157 30.208C120.501 30.416 119.941 30.704 119.477 31.072L118.133 28.456C118.837 27.96 119.685 27.576 120.677 27.304C121.669 27.032 122.677 26.896 123.701 26.896C125.669 26.896 127.197 27.36 128.285 28.288C129.373 29.216 129.917 30.664 129.917 32.632V40H126.413ZM122.477 40.192C121.469 40.192 120.605 40.024 119.885 39.688C119.165 39.336 118.613 38.864 118.229 38.272C117.845 37.68 117.653 37.016 117.653 36.28C117.653 35.512 117.837 34.84 118.205 34.264C118.589 33.688 119.189 33.24 120.005 32.92C120.821 32.584 121.885 32.416 123.197 32.416H126.629V34.6H123.605C122.725 34.6 122.117 34.744 121.781 35.032C121.461 35.32 121.301 35.68 121.301 36.112C121.301 36.592 121.485 36.976 121.853 37.264C122.237 37.536 122.757 37.672 123.413 37.672C124.037 37.672 124.597 37.528 125.093 37.24C125.589 36.936 125.949 36.496 126.173 35.92L126.749 37.648C126.477 38.48 125.981 39.112 125.261 39.544C124.541 39.976 123.613 40.192 122.477 40.192ZM139.639 40.192C138.247 40.192 137.007 39.912 135.919 39.352C134.831 38.776 133.975 37.984 133.351 36.976C132.743 35.968 132.439 34.824 132.439 33.544C132.439 32.248 132.743 31.104 133.351 30.112C133.975 29.104 134.831 28.32 135.919 27.76C137.007 27.184 138.247 26.896 139.639 26.896C140.999 26.896 142.183 27.184 143.191 27.76C144.199 28.32 144.943 29.128 145.423 30.184L142.519 31.744C142.183 31.136 141.759 30.688 141.247 30.4C140.751 30.112 140.207 29.968 139.615 29.968C138.975 29.968 138.399 30.112 137.887 30.4C137.375 30.688 136.967 31.096 136.663 31.624C136.375 32.152 136.231 32.792 136.231 33.544C136.231 34.296 136.375 34.936 136.663 35.464C136.967 35.992 137.375 36.4 137.887 36.688C138.399 36.976 138.975 37.12 139.615 37.12C140.207 37.12 140.751 36.984 141.247 36.712C141.759 36.424 142.183 35.968 142.519 35.344L145.423 36.928C144.943 37.968 144.199 38.776 143.191 39.352C142.183 39.912 140.999 40.192 139.639 40.192ZM153.047 40.192C151.527 40.192 150.343 39.808 149.495 39.04C148.647 38.256 148.223 37.096 148.223 35.56V24.232H151.967V35.512C151.967 36.056 152.111 36.48 152.399 36.784C152.687 37.072 153.079 37.216 153.575 37.216C154.167 37.216 154.671 37.056 155.087 36.736L156.095 39.376C155.711 39.648 155.247 39.856 154.703 40C154.175 40.128 153.623 40.192 153.047 40.192ZM146.231 30.256V27.376H155.183V30.256H146.231Z" />
</mask>
<path d="M64.2475 39.352L63.7796 40.2358L63.7899 40.2411L64.2475 39.352ZM61.6795 36.976L60.8232 37.4925L60.8292 37.5024L61.6795 36.976ZM61.6795 30.112L60.8292 29.5856L60.8269 29.5894L61.6795 30.112ZM64.2475 27.76L64.7052 28.6492L64.7154 28.6438L64.2475 27.76ZM71.5195 27.76L71.0233 28.6283L71.0339 28.6342L71.5195 27.76ZM73.7515 30.184L74.2247 31.0649L75.0491 30.6221L74.6619 29.7702L73.7515 30.184ZM70.8475 31.744L69.9723 32.2277L70.4502 33.0926L71.3207 32.6249L70.8475 31.744ZM69.5755 30.4L69.0733 31.2649L69.0853 31.2716L69.5755 30.4ZM66.2155 30.4L66.7058 31.2716L66.7058 31.2716L66.2155 30.4ZM64.9915 31.624L64.1249 31.125L64.1191 31.135L64.1136 31.1451L64.9915 31.624ZM64.9915 35.464L64.1136 35.9429L64.1191 35.953L64.1249 35.963L64.9915 35.464ZM66.2155 36.688L66.7058 35.8164V35.8164L66.2155 36.688ZM69.5755 36.712L70.0564 37.5889L70.0658 37.5836L69.5755 36.712ZM70.8475 35.344L71.3264 34.4661L70.4437 33.9847L69.967 34.8699L70.8475 35.344ZM73.7515 36.928L74.6595 37.3471L75.0514 36.4979L74.2304 36.0501L73.7515 36.928ZM71.5195 39.352L72.0052 40.2262L72.0157 40.2202L71.5195 39.352ZM67.9675 40.192V39.192C66.7126 39.192 65.6332 38.9405 64.7052 38.4629L64.2475 39.352L63.7899 40.2411C65.0378 40.8835 66.4384 41.192 67.9675 41.192V40.192ZM64.2475 39.352L64.7154 38.4682C63.778 37.972 63.0566 37.3007 62.5298 36.4496L61.6795 36.976L60.8292 37.5024C61.5504 38.6673 62.541 39.58 63.7796 40.2358L64.2475 39.352ZM61.6795 36.976L62.5358 36.4595C62.03 35.6209 61.7675 34.6584 61.7675 33.544H60.7675H59.7675C59.7675 34.9896 60.1131 36.3151 60.8232 37.4925L61.6795 36.976ZM60.7675 33.544H61.7675C61.7675 32.4108 62.0312 31.4518 62.5321 30.6346L61.6795 30.112L60.8269 29.5894C60.1118 30.7562 59.7675 32.0852 59.7675 33.544H60.7675ZM61.6795 30.112L62.5298 30.6384C63.0551 29.7898 63.7731 29.1289 64.7052 28.6491L64.2475 27.76L63.7899 26.8709C62.5459 27.5111 61.5519 28.4182 60.8292 29.5856L61.6795 30.112ZM64.2475 27.76L64.7154 28.6438C65.6413 28.1536 66.717 27.896 67.9675 27.896V26.896V25.896C66.434 25.896 65.0297 26.2144 63.7796 26.8762L64.2475 27.76ZM67.9675 26.896V27.896C69.1835 27.896 70.1906 28.1524 71.0234 28.6282L71.5195 27.76L72.0157 26.8918C70.8324 26.2156 69.4715 25.896 67.9675 25.896V26.896ZM71.5195 27.76L71.0339 28.6342C71.8535 29.0895 72.4492 29.7355 72.8411 30.5978L73.7515 30.184L74.6619 29.7702C74.0938 28.5205 73.2016 27.5505 72.0052 26.8858L71.5195 27.76ZM73.7515 30.184L73.2783 29.3031L70.3743 30.8631L70.8475 31.744L71.3207 32.6249L74.2247 31.0649L73.7515 30.184ZM70.8475 31.744L71.7228 31.2603C71.3135 30.5198 70.7671 29.9229 70.0658 29.5284L69.5755 30.4L69.0853 31.2716C69.4079 31.4531 69.7095 31.7522 69.9723 32.2277L70.8475 31.744ZM69.5755 30.4L70.0776 29.5352C69.4241 29.1557 68.706 28.968 67.9435 28.968V29.968V30.968C68.3651 30.968 68.735 31.0683 69.0734 31.2648L69.5755 30.4ZM67.9435 29.968V28.968C67.1476 28.968 66.4001 29.1488 65.7253 29.5284L66.2155 30.4L66.7058 31.2716C67.0549 31.0752 67.4595 30.968 67.9435 30.968V29.968ZM66.2155 30.4L65.7253 29.5284C65.0506 29.9079 64.5151 30.4473 64.1249 31.125L64.9915 31.624L65.8581 32.123C66.0759 31.7447 66.3564 31.4681 66.7058 31.2716L66.2155 30.4ZM64.9915 31.624L64.1136 31.1451C63.7279 31.8524 63.5595 32.6659 63.5595 33.544H64.5595H65.5595C65.5595 32.9181 65.6792 32.4516 65.8694 32.1029L64.9915 31.624ZM64.5595 33.544H63.5595C63.5595 34.4221 63.7279 35.2356 64.1136 35.9429L64.9915 35.464L65.8694 34.9851C65.6792 34.6364 65.5595 34.1699 65.5595 33.544H64.5595ZM64.9915 35.464L64.1249 35.963C64.5151 36.6407 65.0506 37.1801 65.7253 37.5596L66.2155 36.688L66.7058 35.8164C66.3564 35.6199 66.0759 35.3433 65.8581 34.965L64.9915 35.464ZM66.2155 36.688L65.7253 37.5596C66.4001 37.9392 67.1476 38.12 67.9435 38.12V37.12V36.12C67.4595 36.12 67.0549 36.0128 66.7058 35.8164L66.2155 36.688ZM67.9435 37.12V38.12C68.6955 38.12 69.406 37.9454 70.0563 37.5888L69.5755 36.712L69.0947 35.8352C68.753 36.0226 68.3755 36.12 67.9435 36.12V37.12ZM69.5755 36.712L70.0658 37.5836C70.7741 37.1851 71.3209 36.5742 71.728 35.8181L70.8475 35.344L69.967 34.8699C69.7022 35.3618 69.4009 35.6629 69.0853 35.8404L69.5755 36.712ZM70.8475 35.344L70.3687 36.2219L73.2727 37.8059L73.7515 36.928L74.2304 36.0501L71.3264 34.4661L70.8475 35.344ZM73.7515 36.928L72.8436 36.5089C72.452 37.3573 71.8533 38.0095 71.0234 38.4838L71.5195 39.352L72.0157 40.2202C73.2017 39.5425 74.091 38.5787 74.6595 37.3471L73.7515 36.928ZM71.5195 39.352L71.0339 38.4778C70.199 38.9416 69.1882 39.192 67.9675 39.192V40.192V41.192C69.4669 41.192 70.824 40.8824 72.0052 40.2262L71.5195 39.352ZM78.2151 39.328L77.7363 40.2059L77.7418 40.2089L78.2151 39.328ZM75.6951 36.976L74.8388 37.4925L74.8437 37.5005L74.8487 37.5085L75.6951 36.976ZM75.6951 30.112L74.8449 29.5856L74.8425 29.5894L75.6951 30.112ZM78.2151 27.76L78.6836 28.6435L78.6885 28.6409L78.2151 27.76ZM85.5351 27.76L85.0618 28.641L85.0721 28.6463L85.5351 27.76ZM88.0551 36.976L88.9078 37.4986L88.9114 37.4925L88.0551 36.976ZM85.5351 39.328L85.0618 38.4471V38.4471L85.5351 39.328ZM83.5671 36.688L84.0693 37.5528V37.5528L83.5671 36.688ZM84.7431 35.464L85.6211 35.9429L85.6269 35.9319L84.7431 35.464ZM84.7431 31.624L83.8652 32.1029V32.1029L84.7431 31.624ZM83.5671 30.4L83.065 31.2648V31.2648L83.5671 30.4ZM80.2071 30.4L80.7093 31.2648V31.2648L80.2071 30.4ZM79.0071 31.624L78.1405 31.125L78.1348 31.135L78.1292 31.1451L79.0071 31.624ZM79.0071 35.464L78.1233 35.9319L78.1317 35.9476L78.1405 35.963L79.0071 35.464ZM80.2071 36.688L80.7093 35.8232V35.8232L80.2071 36.688ZM81.8871 40.192V39.192C80.6545 39.192 79.5968 38.9352 78.6885 38.4471L78.2151 39.328L77.7418 40.2089C78.9775 40.8728 80.3678 41.192 81.8871 41.192V40.192ZM78.2151 39.328L78.694 38.4501C77.7839 37.9537 77.0721 37.2869 76.5416 36.4435L75.6951 36.976L74.8487 37.5085C75.5662 38.6491 76.5344 39.5503 77.7363 40.2059L78.2151 39.328ZM75.6951 36.976L76.5514 36.4595C76.0456 35.6209 75.7831 34.6584 75.7831 33.544H74.7831H73.7831C73.7831 34.9896 74.1287 36.3151 74.8388 37.4925L75.6951 36.976ZM74.7831 33.544H75.7831C75.7831 32.4108 76.0468 31.4518 76.5477 30.6346L75.6951 30.112L74.8425 29.5894C74.1274 30.7562 73.7831 32.0852 73.7831 33.544H74.7831ZM75.6951 30.112L76.5454 30.6384C77.0753 29.7824 77.7829 29.1211 78.6836 28.6435L78.2151 27.76L77.7466 26.8765C76.5353 27.5189 75.563 28.4256 74.8449 29.5856L75.6951 30.112ZM78.2151 27.76L78.6885 28.6409C79.5968 28.1528 80.6545 27.896 81.8871 27.896V26.896V25.896C80.3678 25.896 78.9775 26.2152 77.7418 26.8791L78.2151 27.76ZM81.8871 26.896V27.896C83.1017 27.896 84.1518 28.1519 85.0618 28.6409L85.5351 27.76L86.0085 26.8791C84.7745 26.2161 83.3926 25.896 81.8871 25.896V26.896ZM85.5351 27.76L85.0721 28.6463C85.9904 29.126 86.6929 29.7791 87.2025 30.6106L88.0551 30.088L88.9077 29.5654C88.2013 28.4129 87.2239 27.514 85.9982 26.8736L85.5351 27.76ZM88.0551 30.088L87.2025 30.6106C87.7023 31.4259 87.9671 32.3923 87.9671 33.544H88.9671H89.9671C89.9671 32.0717 89.624 30.7341 88.9077 29.5654L88.0551 30.088ZM88.9671 33.544H87.9671C87.9671 34.6584 87.7047 35.6209 87.1988 36.4595L88.0551 36.976L88.9114 37.4925C89.6216 36.3151 89.9671 34.9896 89.9671 33.544H88.9671ZM88.0551 36.976L87.2025 36.4534C86.6914 37.2875 85.9854 37.9509 85.0618 38.4471L85.5351 39.328L86.0085 40.2089C87.2289 39.5531 88.2029 38.6485 88.9077 37.4986L88.0551 36.976ZM85.5351 39.328L85.0618 38.4471C84.1518 38.9361 83.1017 39.192 81.8871 39.192V40.192V41.192C83.3926 41.192 84.7745 40.8719 86.0085 40.2089L85.5351 39.328ZM81.8871 37.12V38.12C82.6715 38.12 83.4075 37.9371 84.0693 37.5528L83.5671 36.688L83.065 35.8232C82.7348 36.0149 82.3508 36.12 81.8871 36.12V37.12ZM83.5671 36.688L84.0693 37.5528C84.7313 37.1684 85.2499 36.6233 85.621 35.9429L84.7431 35.464L83.8652 34.9851C83.6604 35.3607 83.395 35.6316 83.065 35.8232L83.5671 36.688ZM84.7431 35.464L85.6269 35.9319C86.0048 35.2181 86.1751 34.4113 86.1751 33.544H85.1751H84.1751C84.1751 34.1487 84.0574 34.6219 83.8593 34.9961L84.7431 35.464ZM85.1751 33.544H86.1751C86.1751 32.6659 86.0068 31.8524 85.621 31.1451L84.7431 31.624L83.8652 32.1029C84.0555 32.4516 84.1751 32.9181 84.1751 33.544H85.1751ZM84.7431 31.624L85.621 31.1451C85.2499 30.4647 84.7313 29.9196 84.0693 29.5352L83.5671 30.4L83.065 31.2648C83.395 31.4564 83.6604 31.7273 83.8652 32.1029L84.7431 31.624ZM83.5671 30.4L84.0693 29.5352C83.4075 29.1509 82.6715 28.968 81.8871 28.968V29.968V30.968C82.3508 30.968 82.7348 31.0731 83.065 31.2648L83.5671 30.4ZM81.8871 29.968V28.968C81.1028 28.968 80.3668 29.1509 79.705 29.5352L80.2071 30.4L80.7093 31.2648C81.0395 31.0731 81.4235 30.968 81.8871 30.968V29.968ZM80.2071 30.4L79.705 29.5352C79.0481 29.9166 78.5262 30.4551 78.1405 31.125L79.0071 31.624L79.8738 32.123C80.096 31.7369 80.3742 31.4594 80.7093 31.2648L80.2071 30.4ZM79.0071 31.624L78.1292 31.1451C77.7435 31.8524 77.5751 32.6659 77.5751 33.544H78.5751H79.5751C79.5751 32.9181 79.6948 32.4516 79.885 32.1029L79.0071 31.624ZM78.5751 33.544H77.5751C77.5751 34.4113 77.7454 35.2181 78.1233 35.9319L79.0071 35.464L79.8909 34.9961C79.6928 34.6219 79.5751 34.1487 79.5751 33.544H78.5751ZM79.0071 35.464L78.1405 35.963C78.5262 36.6329 79.0481 37.1714 79.705 37.5528L80.2071 36.688L80.7093 35.8232C80.3742 35.6286 80.096 35.3511 79.8738 34.965L79.0071 35.464ZM80.2071 36.688L79.705 37.5528C80.3668 37.9371 81.1028 38.12 81.8871 38.12V37.12V36.12C81.4235 36.12 81.0395 36.0149 80.7093 35.8232L80.2071 36.688ZM102.054 27.52L101.592 28.4072L101.603 28.4127L101.614 28.4179L102.054 27.52ZM103.974 29.392L103.096 29.872L103.1 29.8791L103.974 29.392ZM104.67 40V41H105.67V40H104.67ZM100.926 40H99.9257V41H100.926V40ZM100.23 30.88L99.4876 31.5503L99.4935 31.5568L99.4994 31.5632L100.23 30.88ZM96.7017 30.52L97.1612 31.4083L97.1723 31.4024L96.7017 30.52ZM95.5977 31.648L94.7146 31.1788L94.7088 31.1897L94.7033 31.2008L95.5977 31.648ZM95.2137 40V41H96.2137V40H95.2137ZM91.4697 40H90.4697V41H91.4697V40ZM91.4697 27.088V26.088H90.4697V27.088H91.4697ZM95.0457 27.088H96.0457V26.088H95.0457V27.088ZM95.0457 30.664L94.1966 31.1923L96.0457 34.164V30.664H95.0457ZM94.3737 29.584L93.4927 29.1109L93.2188 29.6208L93.5246 30.1123L94.3737 29.584ZM96.3657 27.592L96.8388 28.473V28.473L96.3657 27.592ZM99.3177 26.896V27.896C100.203 27.896 100.953 28.0748 101.592 28.4072L102.054 27.52L102.515 26.6328C101.554 26.1332 100.48 25.896 99.3177 25.896V26.896ZM102.054 27.52L101.614 28.4179C102.232 28.7211 102.725 29.1929 103.096 29.872L103.974 29.392L104.851 28.912C104.295 27.8951 103.507 27.1189 102.494 26.6221L102.054 27.52ZM103.974 29.392L103.1 29.8791C103.456 30.5165 103.67 31.4052 103.67 32.608H104.67H105.67C105.67 31.1868 105.42 29.9315 104.847 28.9049L103.974 29.392ZM104.67 32.608H103.67V40H104.67H105.67V32.608H104.67ZM104.67 40V39H100.926V40V41H104.67V40ZM100.926 40H101.926V33.184H100.926H99.9257V40H100.926ZM100.926 33.184H101.926C101.926 32.0211 101.67 30.9555 100.96 30.1968L100.23 30.88L99.4994 31.5632C99.7177 31.7965 99.9257 32.2669 99.9257 33.184H100.926ZM100.23 30.88L100.972 30.2097C100.289 29.4543 99.3501 29.136 98.3097 29.136V30.136V31.136C98.9333 31.136 99.2739 31.3137 99.4876 31.5503L100.23 30.88ZM98.3097 30.136V29.136C97.5684 29.136 96.8685 29.2977 96.2311 29.6376L96.7017 30.52L97.1723 31.4024C97.4949 31.2303 97.867 31.136 98.3097 31.136V30.136ZM96.7017 30.52L96.2423 29.6318C95.5781 29.9753 95.071 30.5079 94.7146 31.1788L95.5977 31.648L96.4808 32.1172C96.6684 31.7641 96.8973 31.5447 97.1611 31.4082L96.7017 30.52ZM95.5977 31.648L94.7033 31.2008C94.3559 31.8956 94.2137 32.7188 94.2137 33.616H95.2137H96.2137C96.2137 32.9132 96.3275 32.4244 96.4921 32.0952L95.5977 31.648ZM95.2137 33.616H94.2137V40H95.2137H96.2137V33.616H95.2137ZM95.2137 40V39H91.4697V40V41H95.2137V40ZM91.4697 40H92.4697V27.088H91.4697H90.4697V40H91.4697ZM91.4697 27.088V28.088H95.0457V27.088V26.088H91.4697V27.088ZM95.0457 27.088H94.0457V30.664H95.0457H96.0457V27.088H95.0457ZM95.0457 30.664L95.8948 30.1357L95.2228 29.0557L94.3737 29.584L93.5246 30.1123L94.1966 31.1923L95.0457 30.664ZM94.3737 29.584L95.2547 30.0571C95.6258 29.3662 96.1479 28.8441 96.8388 28.473L96.3657 27.592L95.8926 26.711C94.8555 27.2679 94.0496 28.0738 93.4927 29.1109L94.3737 29.584ZM96.3657 27.592L96.8388 28.473C97.5399 28.0965 98.3578 27.896 99.3177 27.896V26.896V25.896C98.0696 25.896 96.9195 26.1595 95.8926 26.711L96.3657 27.592ZM109.791 39.04L109.113 39.7743L109.12 39.7812L109.791 39.04ZM108.519 24.232V23.232H107.519V24.232H108.519ZM112.263 24.232H113.263V23.232H112.263V24.232ZM112.695 36.784L111.969 37.4717L111.979 37.4816L111.988 37.4911L112.695 36.784ZM115.383 36.736L116.318 36.3793L115.838 35.1243L114.774 35.9434L115.383 36.736ZM116.391 39.376L116.969 40.192L117.602 39.7438L117.326 39.0193L116.391 39.376ZM114.999 40L115.235 40.9718L115.245 40.9694L115.255 40.9667L114.999 40ZM106.527 30.256H105.527V31.256H106.527V30.256ZM106.527 27.376V26.376H105.527V27.376H106.527ZM115.479 27.376H116.479V26.376H115.479V27.376ZM115.479 30.256V31.256H116.479V30.256H115.479ZM113.343 40.192V39.192C111.988 39.192 111.073 38.8518 110.463 38.2988L109.791 39.04L109.12 39.7812C110.206 40.7642 111.658 41.192 113.343 41.192V40.192ZM109.791 39.04L110.47 38.3057C109.888 37.7678 109.519 36.9135 109.519 35.56H108.519H107.519C107.519 37.2785 107.998 38.7442 109.113 39.7743L109.791 39.04ZM108.519 35.56H109.519V24.232H108.519H107.519V35.56H108.519ZM108.519 24.232V25.232H112.263V24.232V23.232H108.519V24.232ZM112.263 24.232H111.263V35.512H112.263H113.263V24.232H112.263ZM112.263 35.512H111.263C111.263 36.2327 111.458 36.9316 111.969 37.4717L112.695 36.784L113.421 36.0963C113.357 36.0284 113.263 35.8793 113.263 35.512H112.263ZM112.695 36.784L111.988 37.4911C112.503 38.0061 113.172 38.216 113.871 38.216V37.216V36.216C113.579 36.216 113.464 36.1379 113.403 36.0769L112.695 36.784ZM113.871 37.216V38.216C114.654 38.216 115.38 38.0001 115.993 37.5286L115.383 36.736L114.774 35.9434C114.555 36.1119 114.273 36.216 113.871 36.216V37.216ZM115.383 36.736L114.449 37.0927L115.457 39.7327L116.391 39.376L117.326 39.0193L116.318 36.3793L115.383 36.736ZM116.391 39.376L115.813 38.56C115.544 38.7508 115.194 38.914 114.744 39.0333L114.999 40L115.255 40.9667C115.893 40.798 116.471 40.5452 116.969 40.192L116.391 39.376ZM114.999 40L114.764 39.0282C114.317 39.1364 113.845 39.192 113.343 39.192V40.192V41.192C113.994 41.192 114.625 41.1196 115.235 40.9718L114.999 40ZM106.527 30.256H107.527V27.376H106.527H105.527V30.256H106.527ZM106.527 27.376V28.376H115.479V27.376V26.376H106.527V27.376ZM115.479 27.376H114.479V30.256H115.479H116.479V27.376H115.479ZM115.479 30.256V29.256H106.527V30.256V31.256H115.479V30.256ZM126.413 40H125.413V41H126.413V40ZM126.413 37.48H127.413V37.272L127.33 37.0813L126.413 37.48ZM126.173 36.928H125.173V37.136L125.256 37.3267L126.173 36.928ZM125.429 30.544L124.747 31.2751L124.753 31.2806L124.759 31.2861L125.429 30.544ZM121.157 30.208L121.459 31.1612L121.466 31.159L121.473 31.1567L121.157 30.208ZM119.477 31.072L118.588 31.529L119.144 32.6123L120.099 31.8555L119.477 31.072ZM118.133 28.456L117.557 27.6385L116.846 28.1394L117.244 28.913L118.133 28.456ZM120.677 27.304L120.413 26.3396V26.3396L120.677 27.304ZM128.285 28.288L128.934 27.5272V27.5272L128.285 28.288ZM129.917 40V41H130.917V40H129.917ZM119.885 39.688L119.446 40.5864L119.454 40.5904L119.462 40.5942L119.885 39.688ZM118.229 38.272L119.068 37.7278V37.7278L118.229 38.272ZM118.205 34.264L117.373 33.7093L117.368 33.7174L117.362 33.7256L118.205 34.264ZM120.005 32.92L120.37 33.851L120.378 33.8479L120.386 33.8447L120.005 32.92ZM126.629 32.416H127.629V31.416H126.629V32.416ZM126.629 34.6V35.6H127.629V34.6H126.629ZM121.781 35.032L121.13 34.2727L121.121 34.2806L121.112 34.2887L121.781 35.032ZM121.853 37.264L121.237 38.0515L121.256 38.0662L121.275 38.08L121.853 37.264ZM125.093 37.24L125.595 38.1048L125.606 38.0988L125.616 38.0926L125.093 37.24ZM126.173 35.92L127.122 35.6038L126.246 32.9749L125.241 35.5576L126.173 35.92ZM126.749 37.648L127.7 37.9587L127.802 37.645L127.698 37.3318L126.749 37.648ZM125.261 39.544L124.747 38.6865V38.6865L125.261 39.544ZM126.413 40H127.413V37.48H126.413H125.413V40H126.413ZM126.413 37.48L127.33 37.0813L127.09 36.5293L126.173 36.928L125.256 37.3267L125.496 37.8787L126.413 37.48ZM126.173 36.928H127.173V32.416H126.173H125.173V36.928H126.173ZM126.173 32.416H127.173C127.173 31.3938 126.846 30.4767 126.099 29.8019L125.429 30.544L124.759 31.2861C125.004 31.5073 125.173 31.8382 125.173 32.416H126.173ZM125.429 30.544L126.111 29.8129C125.369 29.1196 124.327 28.872 123.197 28.872V29.872V30.872C124.083 30.872 124.53 31.0724 124.747 31.2751L125.429 30.544ZM123.197 29.872V28.872C122.398 28.872 121.612 29.0023 120.841 29.2593L121.157 30.208L121.473 31.1567C122.046 30.9657 122.62 30.872 123.197 30.872V29.872ZM121.157 30.208L120.855 29.2548C120.102 29.4936 119.429 29.8338 118.856 30.2885L119.477 31.072L120.099 31.8555C120.453 31.5742 120.901 31.3384 121.459 31.1612L121.157 30.208ZM119.477 31.072L120.367 30.615L119.023 27.999L118.133 28.456L117.244 28.913L118.588 31.529L119.477 31.072ZM118.133 28.456L118.709 29.2735C119.302 28.8556 120.04 28.5156 120.942 28.2684L120.677 27.304L120.413 26.3396C119.33 26.6364 118.372 27.0644 117.557 27.6385L118.133 28.456ZM120.677 27.304L120.942 28.2684C121.848 28.0199 122.767 27.896 123.701 27.896V26.896V25.896C122.587 25.896 121.49 26.0441 120.413 26.3396L120.677 27.304ZM123.701 26.896V27.896C125.521 27.896 126.787 28.3247 127.636 29.0488L128.285 28.288L128.934 27.5272C127.607 26.3953 125.818 25.896 123.701 25.896V26.896ZM128.285 28.288L127.636 29.0488C128.426 29.7229 128.917 30.8413 128.917 32.632H129.917H130.917C130.917 30.4867 130.32 28.7091 128.934 27.5272L128.285 28.288ZM129.917 32.632H128.917V40H129.917H130.917V32.632H129.917ZM129.917 40V39H126.413V40V41H129.917V40ZM122.477 40.192V39.192C121.577 39.192 120.865 39.0418 120.308 38.7818L119.885 39.688L119.462 40.5942C120.345 41.0062 121.361 41.192 122.477 41.192V40.192ZM119.885 39.688L120.324 38.7896C119.745 38.5062 119.341 38.1479 119.068 37.7278L118.229 38.272L117.39 38.8162C117.886 39.5801 118.586 40.1658 119.446 40.5864L119.885 39.688ZM118.229 38.272L119.068 37.7278C118.794 37.305 118.653 36.8316 118.653 36.28H117.653H116.653C116.653 37.2004 116.896 38.055 117.39 38.8162L118.229 38.272ZM117.653 36.28H118.653C118.653 35.6785 118.795 35.1983 119.048 34.8024L118.205 34.264L117.362 33.7256C116.879 34.4817 116.653 35.3455 116.653 36.28H117.653ZM118.205 34.264L119.037 34.8187C119.281 34.4533 119.694 34.1162 120.37 33.851L120.005 32.92L119.64 31.989C118.684 32.3638 117.897 32.9227 117.373 33.7093L118.205 34.264ZM120.005 32.92L120.386 33.8447C121.037 33.5765 121.958 33.416 123.197 33.416V32.416V31.416C121.812 31.416 120.605 31.5915 119.624 31.9953L120.005 32.92ZM123.197 32.416V33.416H126.629V32.416V31.416H123.197V32.416ZM126.629 32.416H125.629V34.6H126.629H127.629V32.416H126.629ZM126.629 34.6V33.6H123.605V34.6V35.6H126.629V34.6ZM123.605 34.6V33.6C122.688 33.6 121.757 33.7355 121.13 34.2727L121.781 35.032L122.432 35.7913C122.477 35.7525 122.763 35.6 123.605 35.6V34.6ZM121.781 35.032L121.112 34.2887C120.581 34.7671 120.301 35.3976 120.301 36.112H121.301H122.301C122.301 35.9624 122.342 35.8729 122.45 35.7753L121.781 35.032ZM121.301 36.112H120.301C120.301 36.8898 120.619 37.568 121.237 38.0515L121.853 37.264L122.469 36.4765C122.351 36.384 122.301 36.2942 122.301 36.112H121.301ZM121.853 37.264L121.275 38.08C121.883 38.5105 122.629 38.672 123.413 38.672V37.672V36.672C122.885 36.672 122.591 36.5615 122.431 36.448L121.853 37.264ZM123.413 37.672V38.672C124.198 38.672 124.933 38.4891 125.595 38.1048L125.093 37.24L124.591 36.3752C124.261 36.5669 123.877 36.672 123.413 36.672V37.672ZM125.093 37.24L125.616 38.0926C126.31 37.667 126.807 37.0486 127.105 36.2824L126.173 35.92L125.241 35.5576C125.091 35.9434 124.868 36.205 124.571 36.3874L125.093 37.24ZM126.173 35.92L125.224 36.2362L125.8 37.9642L126.749 37.648L127.698 37.3318L127.122 35.6038L126.173 35.92ZM126.749 37.648L125.799 37.3373C125.598 37.9511 125.251 38.384 124.747 38.6865L125.261 39.544L125.776 40.4015C126.711 39.84 127.356 39.0089 127.7 37.9587L126.749 37.648ZM125.261 39.544L124.747 38.6865C124.228 38.9979 123.494 39.192 122.477 39.192V40.192V41.192C123.733 41.192 124.855 40.9541 125.776 40.4015L125.261 39.544ZM135.919 39.352L135.451 40.2358L135.462 40.2411L135.919 39.352ZM133.351 36.976L132.495 37.4925L132.501 37.5024L133.351 36.976ZM133.351 30.112L132.501 29.5856L132.499 29.5894L133.351 30.112ZM135.919 27.76L136.377 28.6492L136.387 28.6438L135.919 27.76ZM143.191 27.76L142.695 28.6283L142.706 28.6342L143.191 27.76ZM145.423 30.184L145.897 31.0649L146.721 30.6221L146.334 29.7702L145.423 30.184ZM142.519 31.744L141.644 32.2277L142.122 33.0926L142.993 32.6249L142.519 31.744ZM141.247 30.4L140.745 31.2649L140.757 31.2716L141.247 30.4ZM137.887 30.4L138.378 31.2716V31.2716L137.887 30.4ZM136.663 31.624L135.797 31.125L135.791 31.135L135.785 31.1451L136.663 31.624ZM136.663 35.464L135.785 35.9429L135.791 35.953L135.797 35.963L136.663 35.464ZM137.887 36.688L138.378 35.8164V35.8164L137.887 36.688ZM141.247 36.712L141.728 37.5889L141.738 37.5836L141.247 36.712ZM142.519 35.344L142.998 34.4661L142.116 33.9847L141.639 34.8699L142.519 35.344ZM145.423 36.928L146.331 37.3471L146.723 36.4979L145.902 36.0501L145.423 36.928ZM143.191 39.352L143.677 40.2262L143.688 40.2202L143.191 39.352ZM139.639 40.192V39.192C138.385 39.192 137.305 38.9405 136.377 38.4629L135.919 39.352L135.462 40.2411C136.71 40.8835 138.11 41.192 139.639 41.192V40.192ZM135.919 39.352L136.387 38.4682C135.45 37.972 134.729 37.3007 134.202 36.4496L133.351 36.976L132.501 37.5024C133.222 38.6673 134.213 39.58 135.451 40.2358L135.919 39.352ZM133.351 36.976L134.208 36.4595C133.702 35.6209 133.439 34.6584 133.439 33.544H132.439H131.439C131.439 34.9896 131.785 36.3151 132.495 37.4925L133.351 36.976ZM132.439 33.544H133.439C133.439 32.4108 133.703 31.4518 134.204 30.6346L133.351 30.112L132.499 29.5894C131.784 30.7562 131.439 32.0852 131.439 33.544H132.439ZM133.351 30.112L134.202 30.6384C134.727 29.7898 135.445 29.1289 136.377 28.6491L135.919 27.76L135.462 26.8709C134.218 27.5111 133.224 28.4182 132.501 29.5856L133.351 30.112ZM135.919 27.76L136.387 28.6438C137.313 28.1536 138.389 27.896 139.639 27.896V26.896V25.896C138.106 25.896 136.702 26.2144 135.451 26.8762L135.919 27.76ZM139.639 26.896V27.896C140.855 27.896 141.862 28.1524 142.695 28.6282L143.191 27.76L143.688 26.8918C142.504 26.2156 141.143 25.896 139.639 25.896V26.896ZM143.191 27.76L142.706 28.6342C143.525 29.0895 144.121 29.7355 144.513 30.5978L145.423 30.184L146.334 29.7702C145.766 28.5205 144.873 27.5505 143.677 26.8858L143.191 27.76ZM145.423 30.184L144.95 29.3031L142.046 30.8631L142.519 31.744L142.993 32.6249L145.897 31.0649L145.423 30.184ZM142.519 31.744L143.395 31.2603C142.985 30.5198 142.439 29.9229 141.738 29.5284L141.247 30.4L140.757 31.2716C141.08 31.4531 141.381 31.7522 141.644 32.2277L142.519 31.744ZM141.247 30.4L141.75 29.5352C141.096 29.1557 140.378 28.968 139.615 28.968V29.968V30.968C140.037 30.968 140.407 31.0683 140.745 31.2648L141.247 30.4ZM139.615 29.968V28.968C138.819 28.968 138.072 29.1488 137.397 29.5284L137.887 30.4L138.378 31.2716C138.727 31.0752 139.131 30.968 139.615 30.968V29.968ZM137.887 30.4L137.397 29.5284C136.722 29.9079 136.187 30.4473 135.797 31.125L136.663 31.624L137.53 32.123C137.748 31.7447 138.028 31.4681 138.378 31.2716L137.887 30.4ZM136.663 31.624L135.785 31.1451C135.4 31.8524 135.231 32.6659 135.231 33.544H136.231H137.231C137.231 32.9181 137.351 32.4516 137.541 32.1029L136.663 31.624ZM136.231 33.544H135.231C135.231 34.4221 135.4 35.2356 135.785 35.9429L136.663 35.464L137.541 34.9851C137.351 34.6364 137.231 34.1699 137.231 33.544H136.231ZM136.663 35.464L135.797 35.963C136.187 36.6407 136.722 37.1801 137.397 37.5596L137.887 36.688L138.378 35.8164C138.028 35.6199 137.748 35.3433 137.53 34.965L136.663 35.464ZM137.887 36.688L137.397 37.5596C138.072 37.9392 138.819 38.12 139.615 38.12V37.12V36.12C139.131 36.12 138.727 36.0128 138.378 35.8164L137.887 36.688ZM139.615 37.12V38.12C140.367 38.12 141.078 37.9454 141.728 37.5888L141.247 36.712L140.767 35.8352C140.425 36.0226 140.047 36.12 139.615 36.12V37.12ZM141.247 36.712L141.738 37.5836C142.446 37.1851 142.993 36.5742 143.4 35.8181L142.519 35.344L141.639 34.8699C141.374 35.3618 141.073 35.6629 140.757 35.8404L141.247 36.712ZM142.519 35.344L142.041 36.2219L144.945 37.8059L145.423 36.928L145.902 36.0501L142.998 34.4661L142.519 35.344ZM145.423 36.928L144.515 36.5089C144.124 37.3573 143.525 38.0095 142.695 38.4838L143.191 39.352L143.688 40.2202C144.874 39.5425 145.763 38.5787 146.331 37.3471L145.423 36.928ZM143.191 39.352L142.706 38.4778C141.871 38.9416 140.86 39.192 139.639 39.192V40.192V41.192C141.139 41.192 142.496 40.8824 143.677 40.2262L143.191 39.352ZM149.495 39.04L148.816 39.7743L148.823 39.7812L149.495 39.04ZM148.223 24.232V23.232H147.223V24.232H148.223ZM151.967 24.232H152.967V23.232H151.967V24.232ZM152.399 36.784L151.673 37.4717L151.682 37.4816L151.691 37.4911L152.399 36.784ZM155.087 36.736L156.021 36.3793L155.542 35.1243L154.477 35.9434L155.087 36.736ZM156.095 39.376L156.673 40.192L157.305 39.7438L157.029 39.0193L156.095 39.376ZM154.703 40L154.938 40.9718L154.948 40.9694L154.958 40.9667L154.703 40ZM146.231 30.256H145.231V31.256H146.231V30.256ZM146.231 27.376V26.376H145.231V27.376H146.231ZM155.183 27.376H156.183V26.376H155.183V27.376ZM155.183 30.256V31.256H156.183V30.256H155.183ZM153.047 40.192V39.192C151.692 39.192 150.776 38.8518 150.166 38.2988L149.495 39.04L148.823 39.7812C149.909 40.7642 151.362 41.192 153.047 41.192V40.192ZM149.495 39.04L150.173 38.3057C149.592 37.7678 149.223 36.9135 149.223 35.56H148.223H147.223C147.223 37.2785 147.702 38.7442 148.816 39.7743L149.495 39.04ZM148.223 35.56H149.223V24.232H148.223H147.223V35.56H148.223ZM148.223 24.232V25.232H151.967V24.232V23.232H148.223V24.232ZM151.967 24.232H150.967V35.512H151.967H152.967V24.232H151.967ZM151.967 35.512H150.967C150.967 36.2327 151.161 36.9316 151.673 37.4717L152.399 36.784L153.125 36.0963C153.06 36.0284 152.967 35.8793 152.967 35.512H151.967ZM152.399 36.784L151.691 37.4911C152.206 38.0061 152.875 38.216 153.575 38.216V37.216V36.216C153.282 36.216 153.167 36.1379 153.106 36.0769L152.399 36.784ZM153.575 37.216V38.216C154.357 38.216 155.083 38.0001 155.696 37.5286L155.087 36.736L154.477 35.9434C154.258 36.1119 153.976 36.216 153.575 36.216V37.216ZM155.087 36.736L154.152 37.0927L155.16 39.7327L156.095 39.376L157.029 39.0193L156.021 36.3793L155.087 36.736ZM156.095 39.376L155.517 38.56C155.247 38.7508 154.897 38.914 154.447 39.0333L154.703 40L154.958 40.9667C155.596 40.798 156.174 40.5452 156.673 40.192L156.095 39.376ZM154.703 40L154.467 39.0282C154.021 39.1364 153.548 39.192 153.047 39.192V40.192V41.192C153.697 41.192 154.329 41.1196 154.938 40.9718L154.703 40ZM146.231 30.256H147.231V27.376H146.231H145.231V30.256H146.231ZM146.231 27.376V28.376H155.183V27.376V26.376H146.231V27.376ZM155.183 27.376H154.183V30.256H155.183H156.183V27.376H155.183ZM155.183 30.256V29.256H146.231V30.256V31.256H155.183V30.256Z" fill="#6F4316" mask="url(#path-3-outside-1_43_1054)" />
<path d="M204.482 10.761L18.8383 5.34641L0 5L19.0166 17.2994L0.63038 25.043L25.7978 35.1787L3.91196 45.8632L23.9584 58.1591L9.82117 67.4491H201.152L181.172 55.1614L204.482 48.5013L181.172 39.0662L204.482 29.6312L181.172 25.043L204.482 10.761Z" fill="url(#pattern2_43_1054)" fill-opacity="0.5" />
<path d="M204.482 10.761L18.8383 5.34641L0 5L19.0166 17.2994L0.63038 25.043L25.7978 35.1787L3.91196 45.8632L23.9584 58.1591L9.82117 67.4491H201.152L181.172 55.1614L204.482 48.5013L181.172 39.0662L204.482 29.6312L181.172 25.043L204.482 10.761Z" fill="#00859D" />
<path d="M23.8379 0.34668L209.482 5.76074L186.172 20.043L209.482 24.6309L186.172 34.0664L209.482 43.501L186.172 50.1611L206.152 62.4492H14.8213L28.958 53.1592L8.91211 40.8633L30.7979 30.1787L5.63086 20.043L24.0166 12.2998L5 0L23.8379 0.34668ZM67.9678 26.8965C66.5758 26.8965 65.3351 27.1838 64.2471 27.7598C63.1592 28.3198 62.3036 29.1044 61.6797 30.1123C61.0718 31.1043 60.7676 32.248 60.7676 33.5439C60.7676 34.8238 61.0718 35.9676 61.6797 36.9756C62.3036 37.9834 63.1593 38.7756 64.2471 39.3516C65.3351 39.9116 66.5758 40.1924 67.9678 40.1924C69.3277 40.1923 70.5116 39.9115 71.5195 39.3516C72.5274 38.7756 73.272 37.9677 73.752 36.9277L70.8477 35.3438C70.5117 35.9678 70.0872 36.4239 69.5752 36.7119C69.0793 36.9838 68.5353 37.1201 67.9434 37.1201C67.3036 37.1201 66.7277 36.9763 66.2158 36.6885C65.7038 36.4005 65.2952 35.9919 64.9912 35.4639C64.7033 34.9359 64.5596 34.2958 64.5596 33.5439C64.5596 32.792 64.7033 32.152 64.9912 31.624C65.2952 31.096 65.7038 30.6884 66.2158 30.4004C66.7278 30.1124 67.3034 29.9678 67.9434 29.9678C68.5353 29.9678 69.0792 30.1124 69.5752 30.4004C70.0872 30.6884 70.5117 31.1361 70.8477 31.7441L73.752 30.1836C73.272 29.1277 72.5275 28.3197 71.5195 27.7598C70.5116 27.1838 69.3276 26.8965 67.9678 26.8965ZM81.8867 26.8965C80.5109 26.8965 79.2867 27.1838 78.2148 27.7598C77.1589 28.3198 76.3193 29.1043 75.6953 30.1123C75.0874 31.1043 74.7832 32.248 74.7832 33.5439C74.7832 34.8238 75.0874 35.9676 75.6953 36.9756C76.3193 37.9675 77.1589 38.7521 78.2148 39.3281C79.2867 39.9041 80.5109 40.1923 81.8867 40.1924C83.2467 40.1924 84.4632 39.9041 85.5352 39.3281C86.6072 38.7521 87.4467 37.9676 88.0547 36.9756C88.6626 35.9676 88.9668 34.8239 88.9668 33.5439C88.9668 32.232 88.6627 31.0799 88.0547 30.0879C87.4467 29.096 86.6071 28.3197 85.5352 27.7598C84.4632 27.1838 83.2467 26.8965 81.8867 26.8965ZM108.52 24.2324V27.376H106.527V30.2559H108.52V35.5596C108.52 37.0954 108.943 38.256 109.791 39.04C110.639 39.808 111.824 40.1924 113.344 40.1924C113.919 40.1924 114.471 40.1279 114.999 40C115.543 39.856 116.008 39.648 116.392 39.376L115.384 36.7363C114.968 37.0563 114.463 37.2158 113.871 37.2158C113.375 37.2158 112.983 37.0721 112.695 36.7842C112.407 36.4802 112.264 36.0557 112.264 35.5117V30.2559H115.479V27.376H112.264V24.2324H108.52ZM123.701 26.8965C122.677 26.8965 121.669 27.0317 120.677 27.3037C119.685 27.5757 118.837 27.9601 118.133 28.4561L119.478 31.0723C119.942 30.7043 120.501 30.416 121.157 30.208C121.829 29.984 122.509 29.8721 123.197 29.8721C124.205 29.8721 124.949 30.0961 125.429 30.5439C125.925 30.9919 126.173 31.616 126.173 32.416H123.197C121.885 32.416 120.821 32.5839 120.005 32.9199C119.189 33.2399 118.589 33.6878 118.205 34.2637C117.837 34.8397 117.653 35.5123 117.653 36.2803C117.653 37.0162 117.846 37.6805 118.229 38.2725C118.613 38.8642 119.165 39.3366 119.885 39.6885C120.605 40.0245 121.47 40.1924 122.478 40.1924C123.613 40.1923 124.541 39.9758 125.261 39.5439C125.749 39.2512 126.131 38.865 126.413 38.3887V40H129.917V32.6318C129.917 30.664 129.373 29.2161 128.285 28.2881C127.197 27.3601 125.669 26.8965 123.701 26.8965ZM139.64 26.8965C138.248 26.8965 137.007 27.1838 135.919 27.7598C134.831 28.3198 133.976 29.1044 133.352 30.1123C132.744 31.1043 132.439 32.248 132.439 33.5439C132.439 34.8238 132.744 35.9676 133.352 36.9756C133.975 37.9834 134.831 38.7756 135.919 39.3516C137.007 39.9116 138.248 40.1924 139.64 40.1924C141 40.1923 142.183 39.9115 143.191 39.3516C144.199 38.7756 144.944 37.9677 145.424 36.9277L142.52 35.3438C142.184 35.9678 141.759 36.4239 141.247 36.7119C140.751 36.9838 140.207 37.1201 139.615 37.1201C138.975 37.1201 138.4 36.9763 137.888 36.6885C137.376 36.4005 136.967 35.9919 136.663 35.4639C136.375 34.9359 136.231 34.2958 136.231 33.5439C136.231 32.792 136.375 32.152 136.663 31.624C136.967 31.096 137.376 30.6884 137.888 30.4004C138.4 30.1124 138.975 29.9678 139.615 29.9678C140.207 29.9678 140.751 30.1124 141.247 30.4004C141.759 30.6884 142.184 31.1361 142.52 31.7441L145.424 30.1836C144.944 29.1277 144.199 28.3197 143.191 27.7598C142.183 27.1838 141 26.8965 139.64 26.8965ZM148.223 24.2324V27.376H146.23V30.2559H148.223V35.5596C148.223 37.0954 148.646 38.256 149.494 39.04C150.342 39.808 151.527 40.1924 153.047 40.1924C153.623 40.1924 154.174 40.1279 154.702 40C155.246 39.856 155.711 39.648 156.095 39.376L155.087 36.7363C154.671 37.0563 154.166 37.2158 153.574 37.2158C153.078 37.2158 152.686 37.0721 152.398 36.7842C152.11 36.4802 151.967 36.0557 151.967 35.5117V30.2559H155.183V27.376H151.967V24.2324H148.223ZM99.3174 26.8965C98.2135 26.8965 97.2292 27.1278 96.3652 27.5918C95.8551 27.8658 95.4166 28.2115 95.0459 28.625V27.0879H91.4697V40H95.2139V33.6162C95.2139 32.8164 95.3418 32.1604 95.5977 31.6484C95.8697 31.1364 96.2381 30.7595 96.7021 30.5195C97.182 30.2637 97.7178 30.1358 98.3096 30.1357C99.1415 30.1357 99.7815 30.384 100.229 30.8799C100.693 31.3758 100.926 32.1438 100.926 33.1836V40H104.67V32.6084C104.67 31.2964 104.438 30.2236 103.974 29.3916C103.51 28.5438 102.87 27.9195 102.054 27.5195C101.254 27.1036 100.341 26.8965 99.3174 26.8965ZM126.173 35.9199C125.949 36.4959 125.589 36.9362 125.093 37.2402C124.597 37.5281 124.037 37.6719 123.413 37.6719C122.757 37.6719 122.237 37.5356 121.854 37.2637C121.486 36.9757 121.301 36.5922 121.301 36.1123C121.301 35.6803 121.461 35.3202 121.781 35.0322C122.117 34.7442 122.725 34.5996 123.605 34.5996H126.173V35.9199ZM81.8867 29.9678C82.5107 29.9678 83.0714 30.1124 83.5674 30.4004C84.0632 30.6884 84.4552 31.0961 84.7432 31.624C85.0311 32.152 85.1748 32.792 85.1748 33.5439C85.1748 34.2799 85.0311 34.9199 84.7432 35.4639C84.4552 35.9919 84.0634 36.4005 83.5674 36.6885C83.0714 36.9765 82.5107 37.1201 81.8867 37.1201C81.2629 37.1201 80.7029 36.9764 80.207 36.6885C79.711 36.4005 79.3108 35.9919 79.0068 35.4639C78.7189 34.9199 78.5752 34.2798 78.5752 33.5439C78.5752 32.792 78.7189 32.152 79.0068 31.624C79.3108 31.0961 79.7111 30.6884 80.207 30.4004C80.7029 30.1125 81.2629 29.9678 81.8867 29.9678Z" fill="#956E49" />
<path d="M23.8379 0.34668L209.482 5.76074L186.172 20.043L209.482 24.6309L186.172 34.0664L209.482 43.501L186.172 50.1611L206.152 62.4492H14.8213L28.958 53.1592L8.91211 40.8633L30.7979 30.1787L5.63086 20.043L24.0166 12.2998L5 0L23.8379 0.34668ZM67.9678 26.8965C66.5758 26.8965 65.3351 27.1838 64.2471 27.7598C63.1592 28.3198 62.3036 29.1044 61.6797 30.1123C61.0718 31.1043 60.7676 32.248 60.7676 33.5439C60.7676 34.8238 61.0718 35.9676 61.6797 36.9756C62.3036 37.9834 63.1593 38.7756 64.2471 39.3516C65.3351 39.9116 66.5758 40.1924 67.9678 40.1924C69.3277 40.1923 70.5116 39.9115 71.5195 39.3516C72.5274 38.7756 73.272 37.9677 73.752 36.9277L70.8477 35.3438C70.5117 35.9678 70.0872 36.4239 69.5752 36.7119C69.0793 36.9838 68.5353 37.1201 67.9434 37.1201C67.3036 37.1201 66.7277 36.9763 66.2158 36.6885C65.7038 36.4005 65.2952 35.9919 64.9912 35.4639C64.7033 34.9359 64.5596 34.2958 64.5596 33.5439C64.5596 32.792 64.7033 32.152 64.9912 31.624C65.2952 31.096 65.7038 30.6884 66.2158 30.4004C66.7278 30.1124 67.3034 29.9678 67.9434 29.9678C68.5353 29.9678 69.0792 30.1124 69.5752 30.4004C70.0872 30.6884 70.5117 31.1361 70.8477 31.7441L73.752 30.1836C73.272 29.1277 72.5275 28.3197 71.5195 27.7598C70.5116 27.1838 69.3276 26.8965 67.9678 26.8965ZM81.8867 26.8965C80.5109 26.8965 79.2867 27.1838 78.2148 27.7598C77.1589 28.3198 76.3193 29.1043 75.6953 30.1123C75.0874 31.1043 74.7832 32.248 74.7832 33.5439C74.7832 34.8238 75.0874 35.9676 75.6953 36.9756C76.3193 37.9675 77.1589 38.7521 78.2148 39.3281C79.2867 39.9041 80.5109 40.1923 81.8867 40.1924C83.2467 40.1924 84.4632 39.9041 85.5352 39.3281C86.6072 38.7521 87.4467 37.9676 88.0547 36.9756C88.6626 35.9676 88.9668 34.8239 88.9668 33.5439C88.9668 32.232 88.6627 31.0799 88.0547 30.0879C87.4467 29.096 86.6071 28.3197 85.5352 27.7598C84.4632 27.1838 83.2467 26.8965 81.8867 26.8965ZM108.52 24.2324V27.376H106.527V30.2559H108.52V35.5596C108.52 37.0954 108.943 38.256 109.791 39.04C110.639 39.808 111.824 40.1924 113.344 40.1924C113.919 40.1924 114.471 40.1279 114.999 40C115.543 39.856 116.008 39.648 116.392 39.376L115.384 36.7363C114.968 37.0563 114.463 37.2158 113.871 37.2158C113.375 37.2158 112.983 37.0721 112.695 36.7842C112.407 36.4802 112.264 36.0557 112.264 35.5117V30.2559H115.479V27.376H112.264V24.2324H108.52ZM123.701 26.8965C122.677 26.8965 121.669 27.0317 120.677 27.3037C119.685 27.5757 118.837 27.9601 118.133 28.4561L119.478 31.0723C119.942 30.7043 120.501 30.416 121.157 30.208C121.829 29.984 122.509 29.8721 123.197 29.8721C124.205 29.8721 124.949 30.0961 125.429 30.5439C125.925 30.9919 126.173 31.616 126.173 32.416H123.197C121.885 32.416 120.821 32.5839 120.005 32.9199C119.189 33.2399 118.589 33.6878 118.205 34.2637C117.837 34.8397 117.653 35.5123 117.653 36.2803C117.653 37.0162 117.846 37.6805 118.229 38.2725C118.613 38.8642 119.165 39.3366 119.885 39.6885C120.605 40.0245 121.47 40.1924 122.478 40.1924C123.613 40.1923 124.541 39.9758 125.261 39.5439C125.749 39.2512 126.131 38.865 126.413 38.3887V40H129.917V32.6318C129.917 30.664 129.373 29.2161 128.285 28.2881C127.197 27.3601 125.669 26.8965 123.701 26.8965ZM139.64 26.8965C138.248 26.8965 137.007 27.1838 135.919 27.7598C134.831 28.3198 133.976 29.1044 133.352 30.1123C132.744 31.1043 132.439 32.248 132.439 33.5439C132.439 34.8238 132.744 35.9676 133.352 36.9756C133.975 37.9834 134.831 38.7756 135.919 39.3516C137.007 39.9116 138.248 40.1924 139.64 40.1924C141 40.1923 142.183 39.9115 143.191 39.3516C144.199 38.7756 144.944 37.9677 145.424 36.9277L142.52 35.3438C142.184 35.9678 141.759 36.4239 141.247 36.7119C140.751 36.9838 140.207 37.1201 139.615 37.1201C138.975 37.1201 138.4 36.9763 137.888 36.6885C137.376 36.4005 136.967 35.9919 136.663 35.4639C136.375 34.9359 136.231 34.2958 136.231 33.5439C136.231 32.792 136.375 32.152 136.663 31.624C136.967 31.096 137.376 30.6884 137.888 30.4004C138.4 30.1124 138.975 29.9678 139.615 29.9678C140.207 29.9678 140.751 30.1124 141.247 30.4004C141.759 30.6884 142.184 31.1361 142.52 31.7441L145.424 30.1836C144.944 29.1277 144.199 28.3197 143.191 27.7598C142.183 27.1838 141 26.8965 139.64 26.8965ZM148.223 24.2324V27.376H146.23V30.2559H148.223V35.5596C148.223 37.0954 148.646 38.256 149.494 39.04C150.342 39.808 151.527 40.1924 153.047 40.1924C153.623 40.1924 154.174 40.1279 154.702 40C155.246 39.856 155.711 39.648 156.095 39.376L155.087 36.7363C154.671 37.0563 154.166 37.2158 153.574 37.2158C153.078 37.2158 152.686 37.0721 152.398 36.7842C152.11 36.4802 151.967 36.0557 151.967 35.5117V30.2559H155.183V27.376H151.967V24.2324H148.223ZM99.3174 26.8965C98.2135 26.8965 97.2292 27.1278 96.3652 27.5918C95.8551 27.8658 95.4166 28.2115 95.0459 28.625V27.0879H91.4697V40H95.2139V33.6162C95.2139 32.8164 95.3418 32.1604 95.5977 31.6484C95.8697 31.1364 96.2381 30.7595 96.7021 30.5195C97.182 30.2637 97.7178 30.1358 98.3096 30.1357C99.1415 30.1357 99.7815 30.384 100.229 30.8799C100.693 31.3758 100.926 32.1438 100.926 33.1836V40H104.67V32.6084C104.67 31.2964 104.438 30.2236 103.974 29.3916C103.51 28.5438 102.87 27.9195 102.054 27.5195C101.254 27.1036 100.341 26.8965 99.3174 26.8965ZM126.173 35.9199C125.949 36.4959 125.589 36.9362 125.093 37.2402C124.597 37.5281 124.037 37.6719 123.413 37.6719C122.757 37.6719 122.237 37.5356 121.854 37.2637C121.486 36.9757 121.301 36.5922 121.301 36.1123C121.301 35.6803 121.461 35.3202 121.781 35.0322C122.117 34.7442 122.725 34.5996 123.605 34.5996H126.173V35.9199ZM81.8867 29.9678C82.5107 29.9678 83.0714 30.1124 83.5674 30.4004C84.0632 30.6884 84.4552 31.0961 84.7432 31.624C85.0311 32.152 85.1748 32.792 85.1748 33.5439C85.1748 34.2799 85.0311 34.9199 84.7432 35.4639C84.4552 35.9919 84.0634 36.4005 83.5674 36.6885C83.0714 36.9765 82.5107 37.1201 81.8867 37.1201C81.2629 37.1201 80.7029 36.9764 80.207 36.6885C79.711 36.4005 79.3108 35.9919 79.0068 35.4639C78.7189 34.9199 78.5752 34.2798 78.5752 33.5439C78.5752 32.792 78.7189 32.152 79.0068 31.624C79.3108 31.0961 79.7111 30.6884 80.207 30.4004C80.7029 30.1125 81.2629 29.9678 81.8867 29.9678Z" fill="url(#pattern3_43_1054)" fill-opacity="0.5" />
<path d="M67.9675 40.192C66.5755 40.192 65.3355 39.912 64.2475 39.352C63.1595 38.776 62.3035 37.984 61.6795 36.976C61.0715 35.968 60.7675 34.824 60.7675 33.544C60.7675 32.248 61.0715 31.104 61.6795 30.112C62.3035 29.104 63.1595 28.32 64.2475 27.76C65.3355 27.184 66.5755 26.896 67.9675 26.896C69.3275 26.896 70.5115 27.184 71.5195 27.76C72.5275 28.32 73.2715 29.128 73.7515 30.184L70.8475 31.744C70.5115 31.136 70.0875 30.688 69.5755 30.4C69.0795 30.112 68.5355 29.968 67.9435 29.968C67.3035 29.968 66.7275 30.112 66.2155 30.4C65.7035 30.688 65.2955 31.096 64.9915 31.624C64.7035 32.152 64.5595 32.792 64.5595 33.544C64.5595 34.296 64.7035 34.936 64.9915 35.464C65.2955 35.992 65.7035 36.4 66.2155 36.688C66.7275 36.976 67.3035 37.12 67.9435 37.12C68.5355 37.12 69.0795 36.984 69.5755 36.712C70.0875 36.424 70.5115 35.968 70.8475 35.344L73.7515 36.928C73.2715 37.968 72.5275 38.776 71.5195 39.352C70.5115 39.912 69.3275 40.192 67.9675 40.192ZM81.8871 40.192C80.5111 40.192 79.2871 39.904 78.2151 39.328C77.1591 38.752 76.3191 37.968 75.6951 36.976C75.0871 35.968 74.7831 34.824 74.7831 33.544C74.7831 32.248 75.0871 31.104 75.6951 30.112C76.3191 29.104 77.1591 28.32 78.2151 27.76C79.2871 27.184 80.5111 26.896 81.8871 26.896C83.2471 26.896 84.4631 27.184 85.5351 27.76C86.6071 28.32 87.4471 29.096 88.0551 30.088C88.6631 31.08 88.9671 32.232 88.9671 33.544C88.9671 34.824 88.6631 35.968 88.0551 36.976C87.4471 37.968 86.6071 38.752 85.5351 39.328C84.4631 39.904 83.2471 40.192 81.8871 40.192ZM81.8871 37.12C82.5111 37.12 83.0711 36.976 83.5671 36.688C84.0631 36.4 84.4551 35.992 84.7431 35.464C85.0311 34.92 85.1751 34.28 85.1751 33.544C85.1751 32.792 85.0311 32.152 84.7431 31.624C84.4551 31.096 84.0631 30.688 83.5671 30.4C83.0711 30.112 82.5111 29.968 81.8871 29.968C81.2631 29.968 80.7031 30.112 80.2071 30.4C79.7111 30.688 79.3111 31.096 79.0071 31.624C78.7191 32.152 78.5751 32.792 78.5751 33.544C78.5751 34.28 78.7191 34.92 79.0071 35.464C79.3111 35.992 79.7111 36.4 80.2071 36.688C80.7031 36.976 81.2631 37.12 81.8871 37.12ZM99.3177 26.896C100.342 26.896 101.254 27.104 102.054 27.52C102.87 27.92 103.51 28.544 103.974 29.392C104.438 30.224 104.67 31.296 104.67 32.608V40H100.926V33.184C100.926 32.144 100.694 31.376 100.23 30.88C99.7817 30.384 99.1417 30.136 98.3097 30.136C97.7177 30.136 97.1817 30.264 96.7017 30.52C96.2377 30.76 95.8697 31.136 95.5977 31.648C95.3417 32.16 95.2137 32.816 95.2137 33.616V40H91.4697V27.088H95.0457V30.664L94.3737 29.584C94.8377 28.72 95.5017 28.056 96.3657 27.592C97.2297 27.128 98.2137 26.896 99.3177 26.896ZM113.343 40.192C111.823 40.192 110.639 39.808 109.791 39.04C108.943 38.256 108.519 37.096 108.519 35.56V24.232H112.263V35.512C112.263 36.056 112.407 36.48 112.695 36.784C112.983 37.072 113.375 37.216 113.871 37.216C114.463 37.216 114.967 37.056 115.383 36.736L116.391 39.376C116.007 39.648 115.543 39.856 114.999 40C114.471 40.128 113.919 40.192 113.343 40.192ZM106.527 30.256V27.376H115.479V30.256H106.527ZM126.413 40V37.48L126.173 36.928V32.416C126.173 31.616 125.925 30.992 125.429 30.544C124.949 30.096 124.205 29.872 123.197 29.872C122.509 29.872 121.829 29.984 121.157 30.208C120.501 30.416 119.941 30.704 119.477 31.072L118.133 28.456C118.837 27.96 119.685 27.576 120.677 27.304C121.669 27.032 122.677 26.896 123.701 26.896C125.669 26.896 127.197 27.36 128.285 28.288C129.373 29.216 129.917 30.664 129.917 32.632V40H126.413ZM122.477 40.192C121.469 40.192 120.605 40.024 119.885 39.688C119.165 39.336 118.613 38.864 118.229 38.272C117.845 37.68 117.653 37.016 117.653 36.28C117.653 35.512 117.837 34.84 118.205 34.264C118.589 33.688 119.189 33.24 120.005 32.92C120.821 32.584 121.885 32.416 123.197 32.416H126.629V34.6H123.605C122.725 34.6 122.117 34.744 121.781 35.032C121.461 35.32 121.301 35.68 121.301 36.112C121.301 36.592 121.485 36.976 121.853 37.264C122.237 37.536 122.757 37.672 123.413 37.672C124.037 37.672 124.597 37.528 125.093 37.24C125.589 36.936 125.949 36.496 126.173 35.92L126.749 37.648C126.477 38.48 125.981 39.112 125.261 39.544C124.541 39.976 123.613 40.192 122.477 40.192ZM139.639 40.192C138.247 40.192 137.007 39.912 135.919 39.352C134.831 38.776 133.975 37.984 133.351 36.976C132.743 35.968 132.439 34.824 132.439 33.544C132.439 32.248 132.743 31.104 133.351 30.112C133.975 29.104 134.831 28.32 135.919 27.76C137.007 27.184 138.247 26.896 139.639 26.896C140.999 26.896 142.183 27.184 143.191 27.76C144.199 28.32 144.943 29.128 145.423 30.184L142.519 31.744C142.183 31.136 141.759 30.688 141.247 30.4C140.751 30.112 140.207 29.968 139.615 29.968C138.975 29.968 138.399 30.112 137.887 30.4C137.375 30.688 136.967 31.096 136.663 31.624C136.375 32.152 136.231 32.792 136.231 33.544C136.231 34.296 136.375 34.936 136.663 35.464C136.967 35.992 137.375 36.4 137.887 36.688C138.399 36.976 138.975 37.12 139.615 37.12C140.207 37.12 140.751 36.984 141.247 36.712C141.759 36.424 142.183 35.968 142.519 35.344L145.423 36.928C144.943 37.968 144.199 38.776 143.191 39.352C142.183 39.912 140.999 40.192 139.639 40.192ZM153.047 40.192C151.527 40.192 150.343 39.808 149.495 39.04C148.647 38.256 148.223 37.096 148.223 35.56V24.232H151.967V35.512C151.967 36.056 152.111 36.48 152.399 36.784C152.687 37.072 153.079 37.216 153.575 37.216C154.167 37.216 154.671 37.056 155.087 36.736L156.095 39.376C155.711 39.648 155.247 39.856 154.703 40C154.175 40.128 153.623 40.192 153.047 40.192ZM146.231 30.256V27.376H155.183V30.256H146.231Z" fill="#FFFDF3" />
<defs>
<pattern id="pattern0_43_1054" patternContentUnits="objectBoundingBox" width="1" height="1">
<use xlink:href="#image0_43_1054" transform="matrix(0.00148342 0 0 0.00485729 -1.27151 -2.85032)" />
</pattern>
<pattern id="pattern1_43_1054" patternContentUnits="objectBoundingBox" width="1" height="1">
<use xlink:href="#image0_43_1054" transform="matrix(0.00148341 0 0 0.00485728 -1.2715 -2.85032)" />
</pattern>
<pattern id="pattern2_43_1054" patternContentUnits="objectBoundingBox" width="1" height="1">
<use xlink:href="#image0_43_1054" transform="matrix(0.00148342 0 0 0.00485729 -1.27151 -2.85032)" />
</pattern>
<pattern id="pattern3_43_1054" patternContentUnits="objectBoundingBox" width="1" height="1">
<use xlink:href="#image0_43_1054" transform="matrix(0.00148341 0 0 0.00485728 -1.2715 -2.85032)" />
</pattern>
<image id="image0_43_1054" width="594" height="284" preserveAspectRatio="none" xlink:href="/assets/images/shapes/cardboard_texture.jpg" />
</defs>
</svg>