<?xml version='1.0' encoding='utf-8'?>
<svg xmlns="http://www.w3.org/2000/svg" xmlns:xlink="http://www.w3.org/1999/xlink" width="182" height="87" viewBox="0 0 182 87" fill="none">
<path d="M182 20.7686V83.9092L141.651 64.5801L115.279 83.9092L87.1367 68.0195L66.9443 87L0 62.8623L22.75 2.72852L60.5234 31.0771L78.9814 7.02637L115.279 27.2139L152.382 0L182 20.7686ZM86.3418 41.0879V54C86.3418 54.6239 86.1971 55.0876 85.9092 55.3916C85.6372 55.7115 85.2695 55.872 84.8057 55.8721C84.1818 55.8721 83.6536 55.7199 83.2217 55.416L82.2129 58.1279C82.5809 58.3679 83.0296 58.5443 83.5576 58.6562C84.0854 58.7842 84.6372 58.8476 85.2129 58.8477C86.7648 58.8477 87.9655 58.4083 88.8135 57.5283C89.6615 56.6483 90.085 55.4636 90.085 53.9756V41.0879H86.3418ZM51.3604 40.8965C50.2244 40.8965 49.2476 41.1362 48.4316 41.6162C48.002 41.869 47.6269 42.1917 47.3037 42.582V41.0879H43.7275V58.6562H47.4717V52.6289C47.7774 52.9641 48.1204 53.246 48.5039 53.4717C49.3199 53.9517 50.2724 54.1924 51.3604 54.1924C52.5762 54.1923 53.6641 53.9199 54.624 53.376C55.5999 52.832 56.3678 52.0641 56.9277 51.0723C57.5037 50.0803 57.792 48.9039 57.792 47.5439C57.792 46.2 57.5037 45.032 56.9277 44.04C56.3678 43.0481 55.5999 42.2803 54.624 41.7363C53.6641 41.1764 52.5762 40.8965 51.3604 40.8965ZM76.5908 40.8965C75.2149 40.8965 73.9909 41.1839 72.9189 41.7598C71.8629 42.3198 71.0224 43.1043 70.3984 44.1123C69.7906 45.1042 69.4863 46.2481 69.4863 47.5439C69.4863 48.8238 69.7906 49.9677 70.3984 50.9756C71.0224 51.9676 71.8629 52.7521 72.9189 53.3281C73.9909 53.9041 75.2149 54.1924 76.5908 54.1924C77.9506 54.1924 79.1664 53.904 80.2383 53.3281C81.3103 52.7521 82.1508 51.9676 82.7588 50.9756C83.3667 49.9677 83.6709 48.8238 83.6709 47.5439C83.6709 46.232 83.3668 45.0799 82.7588 44.0879C82.1508 43.0959 81.3103 42.3198 80.2383 41.7598C79.1664 41.1839 77.9506 40.8965 76.5908 40.8965ZM99.4609 40.8965C98.149 40.8965 96.9726 41.1838 95.9326 41.7598C94.8926 42.3198 94.0689 43.1043 93.4609 44.1123C92.869 45.1043 92.5723 46.248 92.5723 47.5439C92.5723 48.8238 92.8766 49.9677 93.4844 50.9756C94.0924 51.9676 94.9487 52.7521 96.0527 53.3281C97.1726 53.9041 98.4686 54.1923 99.9404 54.1924C101.108 54.1924 102.141 54.0161 103.037 53.6641C103.933 53.2961 104.677 52.7754 105.269 52.1035L103.276 49.9443C102.845 50.3601 102.365 50.6719 101.837 50.8799C101.325 51.0878 100.725 51.1923 100.037 51.1924C99.2691 51.1924 98.5965 51.0562 98.0205 50.7842C97.4605 50.4962 97.0212 50.0875 96.7012 49.5596C96.5356 49.2633 96.4162 48.9433 96.3408 48.5996H106.108C106.124 48.4397 106.14 48.2716 106.156 48.0957C106.172 47.9038 106.181 47.7357 106.181 47.5918C106.181 46.1999 105.885 45.0076 105.293 44.0156C104.701 43.0078 103.893 42.2399 102.869 41.7119C101.861 41.168 100.725 40.8965 99.4609 40.8965ZM114.913 40.8965C113.521 40.8965 112.281 41.1838 111.193 41.7598C110.105 42.3198 109.249 43.1043 108.625 44.1123C108.017 45.1042 107.713 46.2481 107.713 47.5439C107.713 48.8238 108.017 49.9677 108.625 50.9756C109.249 51.9835 110.105 52.7756 111.193 53.3516C112.281 53.9115 113.521 54.1924 114.913 54.1924C116.273 54.1924 117.457 53.9115 118.465 53.3516C119.473 52.7756 120.217 51.9677 120.697 50.9277L117.793 49.3438C117.457 49.9677 117.033 50.4239 116.521 50.7119C116.026 50.9839 115.482 51.1201 114.89 51.1201C114.25 51.1201 113.673 50.9765 113.161 50.6885C112.649 50.4005 112.242 49.9919 111.938 49.4639C111.65 48.9359 111.505 48.2959 111.505 47.5439C111.505 46.792 111.65 46.152 111.938 45.624C112.241 45.0962 112.649 44.6884 113.161 44.4004C113.673 44.1124 114.25 43.9678 114.89 43.9678C115.482 43.9678 116.026 44.1124 116.521 44.4004C117.033 44.6884 117.457 45.1363 117.793 45.7441L120.697 44.1836C120.217 43.1278 119.473 42.3197 118.465 41.7598C117.457 41.1839 116.273 40.8965 114.913 40.8965ZM123.496 38.2324V41.376H121.505V44.2559H123.496V49.5596C123.496 51.0956 123.921 52.256 124.769 53.04C125.617 53.808 126.8 54.1924 128.32 54.1924C128.896 54.1924 129.449 54.128 129.977 54C130.52 53.856 130.984 53.6479 131.368 53.376L130.36 50.7363C129.944 51.0562 129.44 51.2158 128.849 51.2158C128.353 51.2158 127.961 51.072 127.673 50.7842C127.385 50.4802 127.24 50.0557 127.24 49.5117V44.2559H130.456V41.376H127.24V38.2324H123.496ZM138.51 40.8965C137.262 40.8965 136.19 41.0803 135.294 41.4482C134.398 41.8002 133.71 42.2882 133.23 42.9121C132.766 43.5361 132.534 44.2563 132.534 45.0723C132.534 45.8081 132.67 46.4081 132.942 46.8721C133.23 47.336 133.606 47.7036 134.07 47.9756C134.534 48.2476 135.046 48.4556 135.606 48.5996C136.166 48.7276 136.718 48.8321 137.262 48.9121C137.822 48.9921 138.334 49.0724 138.798 49.1523C139.262 49.2323 139.63 49.3517 139.902 49.5117C140.19 49.6557 140.334 49.8798 140.334 50.1836C140.334 50.5516 140.15 50.8399 139.782 51.0479C139.43 51.2559 138.822 51.3604 137.958 51.3604C137.174 51.3603 136.374 51.2483 135.559 51.0244C134.759 50.7844 134.062 50.4803 133.47 50.1123L132.223 52.7998C132.815 53.1997 133.614 53.5357 134.622 53.8076C135.646 54.0636 136.71 54.1924 137.814 54.1924C139.11 54.1924 140.207 54.016 141.103 53.6641C142.014 53.3121 142.71 52.8316 143.19 52.2236C143.67 51.5997 143.91 50.8877 143.91 50.0879C143.91 49.3519 143.767 48.7595 143.479 48.3115C143.191 47.8478 142.814 47.4884 142.351 47.2324C141.903 46.9604 141.398 46.7524 140.838 46.6084C140.278 46.4644 139.718 46.3599 139.158 46.2959C138.614 46.2159 138.11 46.1282 137.646 46.0322C137.183 45.9363 136.806 45.8083 136.519 45.6484C136.247 45.4884 136.11 45.2477 136.11 44.9277C136.11 44.5759 136.303 44.2884 136.687 44.0645C137.07 43.8405 137.678 43.7276 138.51 43.7275C139.102 43.7275 139.71 43.8004 140.334 43.9443C140.974 44.0723 141.606 44.3205 142.23 44.6885L143.479 42.0244C142.871 41.6564 142.11 41.3756 141.198 41.1836C140.286 40.9916 139.39 40.8965 138.51 40.8965ZM68.3145 40.8965C67.0986 40.8965 66.0667 41.1363 65.2188 41.6162C64.6748 41.9138 64.227 42.3042 63.874 42.7861V41.0879H60.2979V54H64.042V47.9043C64.042 46.6724 64.3546 45.7684 64.9785 45.1924C65.6185 44.6004 66.4506 44.3037 67.4746 44.3037C67.6183 44.3037 67.7541 44.3122 67.8818 44.3281C68.0098 44.3281 68.1545 44.3356 68.3145 44.3516V40.8965ZM50.7119 43.9678C51.3359 43.9678 51.8882 44.1124 52.3682 44.4004C52.864 44.6884 53.256 45.0961 53.5439 45.624C53.8479 46.152 54 46.792 54 47.5439C54 48.2799 53.8479 48.9199 53.5439 49.4639C53.2559 49.9919 52.8642 50.4005 52.3682 50.6885C51.8882 50.9764 51.3359 51.1201 50.7119 51.1201C50.0881 51.1201 49.5281 50.9763 49.0322 50.6885C48.5363 50.4005 48.1444 49.9918 47.8564 49.4639C47.5684 48.9199 47.4238 48.2799 47.4238 47.5439C47.4238 46.792 47.5685 46.152 47.8564 45.624C48.1444 45.0961 48.5363 44.6884 49.0322 44.4004C49.5282 44.1124 50.0879 43.9678 50.7119 43.9678ZM76.5908 43.9678C77.2148 43.9678 77.7745 44.1124 78.2705 44.4004C78.7665 44.6884 79.1583 45.0961 79.4463 45.624C79.7343 46.152 79.8789 46.792 79.8789 47.5439C79.8789 48.2799 79.7343 48.9199 79.4463 49.4639C79.1583 49.9918 78.7665 50.4005 78.2705 50.6885C77.7746 50.9763 77.2146 51.1201 76.5908 51.1201C75.967 51.1201 75.407 50.9763 74.9111 50.6885C74.4151 50.4005 74.0149 49.9919 73.7109 49.4639C73.4229 48.9199 73.2783 48.2799 73.2783 47.5439C73.2783 46.792 73.4229 46.152 73.7109 45.624C74.0149 45.0961 74.4152 44.6884 74.9111 44.4004C75.4071 44.1124 75.9669 43.9678 76.5908 43.9678ZM99.4844 43.7275C100.124 43.7275 100.685 43.8722 101.165 44.1602C101.645 44.4321 102.021 44.8158 102.293 45.3115C102.473 45.6407 102.593 46.0093 102.653 46.416H96.2969C96.3591 46.0161 96.4769 45.6559 96.6523 45.3359C96.9243 44.8241 97.3005 44.4321 97.7803 44.1602C98.2762 43.8722 98.8445 43.7276 99.4844 43.7275ZM88.2129 35.1123C87.5251 35.1124 86.9651 35.312 86.5332 35.7119C86.1012 36.1119 85.8857 36.6082 85.8857 37.2002C85.8858 37.7921 86.1013 38.2885 86.5332 38.6885C86.9651 39.0883 87.5252 39.288 88.2129 39.2881C88.9168 39.2881 89.4776 39.0884 89.8936 38.6885C90.3256 38.2725 90.541 37.7519 90.541 37.1279C90.541 36.5361 90.3253 36.0564 89.8936 35.6885C89.4616 35.3045 88.9009 35.1123 88.2129 35.1123Z" fill="#956E49" />
<path d="M182 20.7686V83.9092L141.651 64.5801L115.279 83.9092L87.1367 68.0195L66.9443 87L0 62.8623L22.75 2.72852L60.5234 31.0771L78.9814 7.02637L115.279 27.2139L152.382 0L182 20.7686ZM86.3418 41.0879V54C86.3418 54.6239 86.1971 55.0876 85.9092 55.3916C85.6372 55.7115 85.2695 55.872 84.8057 55.8721C84.1818 55.8721 83.6536 55.7199 83.2217 55.416L82.2129 58.1279C82.5809 58.3679 83.0296 58.5443 83.5576 58.6562C84.0854 58.7842 84.6372 58.8476 85.2129 58.8477C86.7648 58.8477 87.9655 58.4083 88.8135 57.5283C89.6615 56.6483 90.085 55.4636 90.085 53.9756V41.0879H86.3418ZM51.3604 40.8965C50.2244 40.8965 49.2476 41.1362 48.4316 41.6162C48.002 41.869 47.6269 42.1917 47.3037 42.582V41.0879H43.7275V58.6562H47.4717V52.6289C47.7774 52.9641 48.1204 53.246 48.5039 53.4717C49.3199 53.9517 50.2724 54.1924 51.3604 54.1924C52.5762 54.1923 53.6641 53.9199 54.624 53.376C55.5999 52.832 56.3678 52.0641 56.9277 51.0723C57.5037 50.0803 57.792 48.9039 57.792 47.5439C57.792 46.2 57.5037 45.032 56.9277 44.04C56.3678 43.0481 55.5999 42.2803 54.624 41.7363C53.6641 41.1764 52.5762 40.8965 51.3604 40.8965ZM76.5908 40.8965C75.2149 40.8965 73.9909 41.1839 72.9189 41.7598C71.8629 42.3198 71.0224 43.1043 70.3984 44.1123C69.7906 45.1042 69.4863 46.2481 69.4863 47.5439C69.4863 48.8238 69.7906 49.9677 70.3984 50.9756C71.0224 51.9676 71.8629 52.7521 72.9189 53.3281C73.9909 53.9041 75.2149 54.1924 76.5908 54.1924C77.9506 54.1924 79.1664 53.904 80.2383 53.3281C81.3103 52.7521 82.1508 51.9676 82.7588 50.9756C83.3667 49.9677 83.6709 48.8238 83.6709 47.5439C83.6709 46.232 83.3668 45.0799 82.7588 44.0879C82.1508 43.0959 81.3103 42.3198 80.2383 41.7598C79.1664 41.1839 77.9506 40.8965 76.5908 40.8965ZM99.4609 40.8965C98.149 40.8965 96.9726 41.1838 95.9326 41.7598C94.8926 42.3198 94.0689 43.1043 93.4609 44.1123C92.869 45.1043 92.5723 46.248 92.5723 47.5439C92.5723 48.8238 92.8766 49.9677 93.4844 50.9756C94.0924 51.9676 94.9487 52.7521 96.0527 53.3281C97.1726 53.9041 98.4686 54.1923 99.9404 54.1924C101.108 54.1924 102.141 54.0161 103.037 53.6641C103.933 53.2961 104.677 52.7754 105.269 52.1035L103.276 49.9443C102.845 50.3601 102.365 50.6719 101.837 50.8799C101.325 51.0878 100.725 51.1923 100.037 51.1924C99.2691 51.1924 98.5965 51.0562 98.0205 50.7842C97.4605 50.4962 97.0212 50.0875 96.7012 49.5596C96.5356 49.2633 96.4162 48.9433 96.3408 48.5996H106.108C106.124 48.4397 106.14 48.2716 106.156 48.0957C106.172 47.9038 106.181 47.7357 106.181 47.5918C106.181 46.1999 105.885 45.0076 105.293 44.0156C104.701 43.0078 103.893 42.2399 102.869 41.7119C101.861 41.168 100.725 40.8965 99.4609 40.8965ZM114.913 40.8965C113.521 40.8965 112.281 41.1838 111.193 41.7598C110.105 42.3198 109.249 43.1043 108.625 44.1123C108.017 45.1042 107.713 46.2481 107.713 47.5439C107.713 48.8238 108.017 49.9677 108.625 50.9756C109.249 51.9835 110.105 52.7756 111.193 53.3516C112.281 53.9115 113.521 54.1924 114.913 54.1924C116.273 54.1924 117.457 53.9115 118.465 53.3516C119.473 52.7756 120.217 51.9677 120.697 50.9277L117.793 49.3438C117.457 49.9677 117.033 50.4239 116.521 50.7119C116.026 50.9839 115.482 51.1201 114.89 51.1201C114.25 51.1201 113.673 50.9765 113.161 50.6885C112.649 50.4005 112.242 49.9919 111.938 49.4639C111.65 48.9359 111.505 48.2959 111.505 47.5439C111.505 46.792 111.65 46.152 111.938 45.624C112.241 45.0962 112.649 44.6884 113.161 44.4004C113.673 44.1124 114.25 43.9678 114.89 43.9678C115.482 43.9678 116.026 44.1124 116.521 44.4004C117.033 44.6884 117.457 45.1363 117.793 45.7441L120.697 44.1836C120.217 43.1278 119.473 42.3197 118.465 41.7598C117.457 41.1839 116.273 40.8965 114.913 40.8965ZM123.496 38.2324V41.376H121.505V44.2559H123.496V49.5596C123.496 51.0956 123.921 52.256 124.769 53.04C125.617 53.808 126.8 54.1924 128.32 54.1924C128.896 54.1924 129.449 54.128 129.977 54C130.52 53.856 130.984 53.6479 131.368 53.376L130.36 50.7363C129.944 51.0562 129.44 51.2158 128.849 51.2158C128.353 51.2158 127.961 51.072 127.673 50.7842C127.385 50.4802 127.24 50.0557 127.24 49.5117V44.2559H130.456V41.376H127.24V38.2324H123.496ZM138.51 40.8965C137.262 40.8965 136.19 41.0803 135.294 41.4482C134.398 41.8002 133.71 42.2882 133.23 42.9121C132.766 43.5361 132.534 44.2563 132.534 45.0723C132.534 45.8081 132.67 46.4081 132.942 46.8721C133.23 47.336 133.606 47.7036 134.07 47.9756C134.534 48.2476 135.046 48.4556 135.606 48.5996C136.166 48.7276 136.718 48.8321 137.262 48.9121C137.822 48.9921 138.334 49.0724 138.798 49.1523C139.262 49.2323 139.63 49.3517 139.902 49.5117C140.19 49.6557 140.334 49.8798 140.334 50.1836C140.334 50.5516 140.15 50.8399 139.782 51.0479C139.43 51.2559 138.822 51.3604 137.958 51.3604C137.174 51.3603 136.374 51.2483 135.559 51.0244C134.759 50.7844 134.062 50.4803 133.47 50.1123L132.223 52.7998C132.815 53.1997 133.614 53.5357 134.622 53.8076C135.646 54.0636 136.71 54.1924 137.814 54.1924C139.11 54.1924 140.207 54.016 141.103 53.6641C142.014 53.3121 142.71 52.8316 143.19 52.2236C143.67 51.5997 143.91 50.8877 143.91 50.0879C143.91 49.3519 143.767 48.7595 143.479 48.3115C143.191 47.8478 142.814 47.4884 142.351 47.2324C141.903 46.9604 141.398 46.7524 140.838 46.6084C140.278 46.4644 139.718 46.3599 139.158 46.2959C138.614 46.2159 138.11 46.1282 137.646 46.0322C137.183 45.9363 136.806 45.8083 136.519 45.6484C136.247 45.4884 136.11 45.2477 136.11 44.9277C136.11 44.5759 136.303 44.2884 136.687 44.0645C137.07 43.8405 137.678 43.7276 138.51 43.7275C139.102 43.7275 139.71 43.8004 140.334 43.9443C140.974 44.0723 141.606 44.3205 142.23 44.6885L143.479 42.0244C142.871 41.6564 142.11 41.3756 141.198 41.1836C140.286 40.9916 139.39 40.8965 138.51 40.8965ZM68.3145 40.8965C67.0986 40.8965 66.0667 41.1363 65.2188 41.6162C64.6748 41.9138 64.227 42.3042 63.874 42.7861V41.0879H60.2979V54H64.042V47.9043C64.042 46.6724 64.3546 45.7684 64.9785 45.1924C65.6185 44.6004 66.4506 44.3037 67.4746 44.3037C67.6183 44.3037 67.7541 44.3122 67.8818 44.3281C68.0098 44.3281 68.1545 44.3356 68.3145 44.3516V40.8965ZM50.7119 43.9678C51.3359 43.9678 51.8882 44.1124 52.3682 44.4004C52.864 44.6884 53.256 45.0961 53.5439 45.624C53.8479 46.152 54 46.792 54 47.5439C54 48.2799 53.8479 48.9199 53.5439 49.4639C53.2559 49.9919 52.8642 50.4005 52.3682 50.6885C51.8882 50.9764 51.3359 51.1201 50.7119 51.1201C50.0881 51.1201 49.5281 50.9763 49.0322 50.6885C48.5363 50.4005 48.1444 49.9918 47.8564 49.4639C47.5684 48.9199 47.4238 48.2799 47.4238 47.5439C47.4238 46.792 47.5685 46.152 47.8564 45.624C48.1444 45.0961 48.5363 44.6884 49.0322 44.4004C49.5282 44.1124 50.0879 43.9678 50.7119 43.9678ZM76.5908 43.9678C77.2148 43.9678 77.7745 44.1124 78.2705 44.4004C78.7665 44.6884 79.1583 45.0961 79.4463 45.624C79.7343 46.152 79.8789 46.792 79.8789 47.5439C79.8789 48.2799 79.7343 48.9199 79.4463 49.4639C79.1583 49.9918 78.7665 50.4005 78.2705 50.6885C77.7746 50.9763 77.2146 51.1201 76.5908 51.1201C75.967 51.1201 75.407 50.9763 74.9111 50.6885C74.4151 50.4005 74.0149 49.9919 73.7109 49.4639C73.4229 48.9199 73.2783 48.2799 73.2783 47.5439C73.2783 46.792 73.4229 46.152 73.7109 45.624C74.0149 45.0961 74.4152 44.6884 74.9111 44.4004C75.4071 44.1124 75.9669 43.9678 76.5908 43.9678ZM99.4844 43.7275C100.124 43.7275 100.685 43.8722 101.165 44.1602C101.645 44.4321 102.021 44.8158 102.293 45.3115C102.473 45.6407 102.593 46.0093 102.653 46.416H96.2969C96.3591 46.0161 96.4769 45.6559 96.6523 45.3359C96.9243 44.8241 97.3005 44.4321 97.7803 44.1602C98.2762 43.8722 98.8445 43.7276 99.4844 43.7275ZM88.2129 35.1123C87.5251 35.1124 86.9651 35.312 86.5332 35.7119C86.1012 36.1119 85.8857 36.6082 85.8857 37.2002C85.8858 37.7921 86.1013 38.2885 86.5332 38.6885C86.9651 39.0883 87.5252 39.288 88.2129 39.2881C88.9168 39.2881 89.4776 39.0884 89.8936 38.6885C90.3256 38.2725 90.541 37.7519 90.541 37.1279C90.541 36.5361 90.3253 36.0564 89.8936 35.6885C89.4616 35.3045 88.9009 35.1123 88.2129 35.1123Z" fill="url(#pattern0_38_773)" fill-opacity="0.5" />
<path d="M51.36 54.192C50.272 54.192 49.32 53.952 48.504 53.472C47.688 52.992 47.048 52.264 46.584 51.288C46.136 50.296 45.912 49.048 45.912 47.544C45.912 46.024 46.128 44.776 46.56 43.8C46.992 42.824 47.616 42.096 48.432 41.616C49.248 41.136 50.224 40.896 51.36 40.896C52.576 40.896 53.664 41.176 54.624 41.736C55.6 42.28 56.368 43.048 56.928 44.04C57.504 45.032 57.792 46.2 57.792 47.544C57.792 48.904 57.504 50.08 56.928 51.072C56.368 52.064 55.6 52.832 54.624 53.376C53.664 53.92 52.576 54.192 51.36 54.192ZM43.728 58.656V41.088H47.304V43.728L47.232 47.568L47.472 51.384V58.656H43.728ZM50.712 51.12C51.336 51.12 51.888 50.976 52.368 50.688C52.864 50.4 53.256 49.992 53.544 49.464C53.848 48.92 54 48.28 54 47.544C54 46.792 53.848 46.152 53.544 45.624C53.256 45.096 52.864 44.688 52.368 44.4C51.888 44.112 51.336 43.968 50.712 43.968C50.088 43.968 49.528 44.112 49.032 44.4C48.536 44.688 48.144 45.096 47.856 45.624C47.568 46.152 47.424 46.792 47.424 47.544C47.424 48.28 47.568 48.92 47.856 49.464C48.144 49.992 48.536 50.4 49.032 50.688C49.528 50.976 50.088 51.12 50.712 51.12ZM60.2983 54V41.088H63.8743V44.736L63.3703 43.68C63.7543 42.768 64.3703 42.08 65.2183 41.616C66.0663 41.136 67.0983 40.896 68.3143 40.896V44.352C68.1543 44.336 68.0103 44.328 67.8823 44.328C67.7543 44.312 67.6183 44.304 67.4743 44.304C66.4503 44.304 65.6183 44.6 64.9783 45.192C64.3543 45.768 64.0423 46.672 64.0423 47.904V54H60.2983ZM76.5908 54.192C75.2148 54.192 73.9908 53.904 72.9188 53.328C71.8628 52.752 71.0228 51.968 70.3988 50.976C69.7908 49.968 69.4868 48.824 69.4868 47.544C69.4868 46.248 69.7908 45.104 70.3988 44.112C71.0228 43.104 71.8628 42.32 72.9188 41.76C73.9908 41.184 75.2148 40.896 76.5908 40.896C77.9508 40.896 79.1668 41.184 80.2388 41.76C81.3108 42.32 82.1508 43.096 82.7588 44.088C83.3668 45.08 83.6708 46.232 83.6708 47.544C83.6708 48.824 83.3668 49.968 82.7588 50.976C82.1508 51.968 81.3108 52.752 80.2388 53.328C79.1668 53.904 77.9508 54.192 76.5908 54.192ZM76.5908 51.12C77.2148 51.12 77.7748 50.976 78.2708 50.688C78.7668 50.4 79.1588 49.992 79.4468 49.464C79.7348 48.92 79.8788 48.28 79.8788 47.544C79.8788 46.792 79.7348 46.152 79.4468 45.624C79.1588 45.096 78.7668 44.688 78.2708 44.4C77.7748 44.112 77.2148 43.968 76.5908 43.968C75.9668 43.968 75.4068 44.112 74.9108 44.4C74.4148 44.688 74.0148 45.096 73.7108 45.624C73.4228 46.152 73.2788 46.792 73.2788 47.544C73.2788 48.28 73.4228 48.92 73.7108 49.464C74.0148 49.992 74.4148 50.4 74.9108 50.688C75.4068 50.976 75.9668 51.12 76.5908 51.12ZM85.2133 58.848C84.6373 58.848 84.0853 58.784 83.5573 58.656C83.0293 58.544 82.5813 58.368 82.2133 58.128L83.2213 55.416C83.6533 55.72 84.1813 55.872 84.8053 55.872C85.2693 55.872 85.6373 55.712 85.9093 55.392C86.1973 55.088 86.3413 54.624 86.3413 54V41.088H90.0853V53.976C90.0853 55.464 89.6613 56.648 88.8133 57.528C87.9653 58.408 86.7653 58.848 85.2133 58.848ZM88.2133 39.288C87.5253 39.288 86.9653 39.088 86.5333 38.688C86.1013 38.288 85.8853 37.792 85.8853 37.2C85.8853 36.608 86.1013 36.112 86.5333 35.712C86.9653 35.312 87.5253 35.112 88.2133 35.112C88.9013 35.112 89.4613 35.304 89.8933 35.688C90.3253 36.056 90.5413 36.536 90.5413 37.128C90.5413 37.752 90.3253 38.272 89.8933 38.688C89.4773 39.088 88.9173 39.288 88.2133 39.288ZM99.9407 54.192C98.4687 54.192 97.1727 53.904 96.0527 53.328C94.9487 52.752 94.0927 51.968 93.4847 50.976C92.8767 49.968 92.5727 48.824 92.5727 47.544C92.5727 46.248 92.8687 45.104 93.4607 44.112C94.0687 43.104 94.8927 42.32 95.9327 41.76C96.9727 41.184 98.1487 40.896 99.4607 40.896C100.725 40.896 101.861 41.168 102.869 41.712C103.893 42.24 104.701 43.008 105.293 44.016C105.885 45.008 106.181 46.2 106.181 47.592C106.181 47.736 106.173 47.904 106.157 48.096C106.141 48.272 106.125 48.44 106.109 48.6H95.6207V46.416H104.141L102.701 47.064C102.701 46.392 102.565 45.808 102.293 45.312C102.021 44.816 101.645 44.432 101.165 44.16C100.685 43.872 100.125 43.728 99.4847 43.728C98.8447 43.728 98.2767 43.872 97.7807 44.16C97.3007 44.432 96.9247 44.824 96.6527 45.336C96.3807 45.832 96.2447 46.424 96.2447 47.112V47.688C96.2447 48.392 96.3967 49.016 96.7007 49.56C97.0207 50.088 97.4607 50.496 98.0207 50.784C98.5967 51.056 99.2687 51.192 100.037 51.192C100.725 51.192 101.325 51.088 101.837 50.88C102.365 50.672 102.845 50.36 103.277 49.944L105.269 52.104C104.677 52.776 103.933 53.296 103.037 53.664C102.141 54.016 101.109 54.192 99.9407 54.192ZM114.913 54.192C113.521 54.192 112.281 53.912 111.193 53.352C110.105 52.776 109.249 51.984 108.625 50.976C108.017 49.968 107.713 48.824 107.713 47.544C107.713 46.248 108.017 45.104 108.625 44.112C109.249 43.104 110.105 42.32 111.193 41.76C112.281 41.184 113.521 40.896 114.913 40.896C116.273 40.896 117.457 41.184 118.465 41.76C119.473 42.32 120.217 43.128 120.697 44.184L117.793 45.744C117.457 45.136 117.033 44.688 116.521 44.4C116.025 44.112 115.481 43.968 114.889 43.968C114.249 43.968 113.673 44.112 113.161 44.4C112.649 44.688 112.241 45.096 111.937 45.624C111.649 46.152 111.505 46.792 111.505 47.544C111.505 48.296 111.649 48.936 111.937 49.464C112.241 49.992 112.649 50.4 113.161 50.688C113.673 50.976 114.249 51.12 114.889 51.12C115.481 51.12 116.025 50.984 116.521 50.712C117.033 50.424 117.457 49.968 117.793 49.344L120.697 50.928C120.217 51.968 119.473 52.776 118.465 53.352C117.457 53.912 116.273 54.192 114.913 54.192ZM128.321 54.192C126.801 54.192 125.617 53.808 124.769 53.04C123.921 52.256 123.497 51.096 123.497 49.56V38.232H127.241V49.512C127.241 50.056 127.385 50.48 127.673 50.784C127.961 51.072 128.353 51.216 128.849 51.216C129.441 51.216 129.945 51.056 130.361 50.736L131.369 53.376C130.985 53.648 130.521 53.856 129.977 54C129.449 54.128 128.897 54.192 128.321 54.192ZM121.505 44.256V41.376H130.457V44.256H121.505ZM137.814 54.192C136.71 54.192 135.646 54.064 134.622 53.808C133.614 53.536 132.814 53.2 132.222 52.8L133.47 50.112C134.062 50.48 134.758 50.784 135.558 51.024C136.374 51.248 137.174 51.36 137.958 51.36C138.822 51.36 139.43 51.256 139.782 51.048C140.15 50.84 140.334 50.552 140.334 50.184C140.334 49.88 140.19 49.656 139.902 49.512C139.63 49.352 139.262 49.232 138.798 49.152C138.334 49.072 137.822 48.992 137.262 48.912C136.718 48.832 136.166 48.728 135.606 48.6C135.046 48.456 134.534 48.248 134.07 47.976C133.606 47.704 133.23 47.336 132.942 46.872C132.67 46.408 132.534 45.808 132.534 45.072C132.534 44.256 132.766 43.536 133.23 42.912C133.71 42.288 134.398 41.8 135.294 41.448C136.19 41.08 137.262 40.896 138.51 40.896C139.39 40.896 140.286 40.992 141.198 41.184C142.11 41.376 142.87 41.656 143.478 42.024L142.23 44.688C141.606 44.32 140.974 44.072 140.334 43.944C139.71 43.8 139.102 43.728 138.51 43.728C137.678 43.728 137.07 43.84 136.686 44.064C136.302 44.288 136.11 44.576 136.11 44.928C136.11 45.248 136.246 45.488 136.518 45.648C136.806 45.808 137.182 45.936 137.646 46.032C138.11 46.128 138.614 46.216 139.158 46.296C139.718 46.36 140.278 46.464 140.838 46.608C141.398 46.752 141.902 46.96 142.35 47.232C142.814 47.488 143.19 47.848 143.478 48.312C143.766 48.76 143.91 49.352 143.91 50.088C143.91 50.888 143.67 51.6 143.19 52.224C142.71 52.832 142.014 53.312 141.102 53.664C140.206 54.016 139.11 54.192 137.814 54.192Z" fill="#FFFDF3" />
<defs>
<pattern id="pattern0_38_773" patternContentUnits="objectBoundingBox" width="1" height="1">
<use xlink:href="#image0_38_773" transform="matrix(0.00148342 0 0 0.00485728 -1.2715 -2.85032)" />
</pattern>
<image id="image0_38_773" width="594" height="284" preserveAspectRatio="none" xlink:href="/assets/images/shapes/cardboard_texture.jpg" />
</defs>
</svg>