<?xml version='1.0' encoding='utf-8'?>
<svg xmlns="http://www.w3.org/2000/svg" xmlns:xlink="http://www.w3.org/1999/xlink" width="187" height="92" viewBox="0 0 187 92" fill="none">
<path d="M182 25.7686V88.9092L141.651 69.5801L115.279 88.9092L87.1367 73.0195L66.9443 92L0 67.8623L22.75 7.72852L60.5234 36.0771L78.9814 12.0264L115.279 32.2139L152.382 5L182 25.7686Z" fill="#F7AD00" />
<path d="M187 20.7686V83.9092L146.651 64.5801L120.279 83.9092L92.1367 68.0195L71.9443 87L5 62.8623L27.75 2.72852L65.5234 31.0771L83.9814 7.02637L120.279 27.2139L157.382 0L187 20.7686ZM91.3418 41.0879V54C91.3418 54.6239 91.1971 55.0876 90.9092 55.3916C90.6372 55.7115 90.2695 55.872 89.8057 55.8721C89.1818 55.8721 88.6536 55.7199 88.2217 55.416L87.2129 58.1279C87.5809 58.3679 88.0296 58.5443 88.5576 58.6562C89.0854 58.7842 89.6372 58.8476 90.2129 58.8477C91.7648 58.8477 92.9655 58.4083 93.8135 57.5283C94.6615 56.6483 95.085 55.4636 95.085 53.9756V41.0879H91.3418ZM56.3604 40.8965C55.2244 40.8965 54.2476 41.1362 53.4316 41.6162C53.002 41.869 52.6269 42.1917 52.3037 42.582V41.0879H48.7275V58.6562H52.4717V52.6289C52.7774 52.9641 53.1204 53.246 53.5039 53.4717C54.3199 53.9517 55.2724 54.1924 56.3604 54.1924C57.5762 54.1923 58.6641 53.9199 59.624 53.376C60.5999 52.832 61.3678 52.0641 61.9277 51.0723C62.5037 50.0803 62.792 48.9039 62.792 47.5439C62.792 46.2 62.5037 45.032 61.9277 44.04C61.3678 43.0481 60.5999 42.2803 59.624 41.7363C58.6641 41.1764 57.5762 40.8965 56.3604 40.8965ZM81.5908 40.8965C80.2149 40.8965 78.9909 41.1839 77.9189 41.7598C76.8629 42.3198 76.0224 43.1043 75.3984 44.1123C74.7906 45.1042 74.4863 46.2481 74.4863 47.5439C74.4863 48.8238 74.7906 49.9677 75.3984 50.9756C76.0224 51.9676 76.8629 52.7521 77.9189 53.3281C78.9909 53.9041 80.2149 54.1924 81.5908 54.1924C82.9506 54.1924 84.1664 53.904 85.2383 53.3281C86.3103 52.7521 87.1508 51.9676 87.7588 50.9756C88.3667 49.9677 88.6709 48.8238 88.6709 47.5439C88.6709 46.232 88.3668 45.0799 87.7588 44.0879C87.1508 43.0959 86.3103 42.3198 85.2383 41.7598C84.1664 41.1839 82.9506 40.8965 81.5908 40.8965ZM104.461 40.8965C103.149 40.8965 101.973 41.1838 100.933 41.7598C99.8926 42.3198 99.0689 43.1043 98.4609 44.1123C97.869 45.1043 97.5723 46.248 97.5723 47.5439C97.5723 48.8238 97.8766 49.9677 98.4844 50.9756C99.0924 51.9676 99.9487 52.7521 101.053 53.3281C102.173 53.9041 103.469 54.1923 104.94 54.1924C106.108 54.1924 107.141 54.0161 108.037 53.6641C108.933 53.2961 109.677 52.7754 110.269 52.1035L108.276 49.9443C107.845 50.3601 107.365 50.6719 106.837 50.8799C106.325 51.0878 105.725 51.1923 105.037 51.1924C104.269 51.1924 103.597 51.0562 103.021 50.7842C102.461 50.4962 102.021 50.0875 101.701 49.5596C101.536 49.2633 101.416 48.9433 101.341 48.5996H111.108C111.124 48.4397 111.14 48.2716 111.156 48.0957C111.172 47.9038 111.181 47.7357 111.181 47.5918C111.181 46.1999 110.885 45.0076 110.293 44.0156C109.701 43.0078 108.893 42.2399 107.869 41.7119C106.861 41.168 105.725 40.8965 104.461 40.8965ZM119.913 40.8965C118.521 40.8965 117.281 41.1838 116.193 41.7598C115.105 42.3198 114.249 43.1043 113.625 44.1123C113.017 45.1042 112.713 46.2481 112.713 47.5439C112.713 48.8238 113.017 49.9677 113.625 50.9756C114.249 51.9835 115.105 52.7756 116.193 53.3516C117.281 53.9115 118.521 54.1924 119.913 54.1924C121.273 54.1924 122.457 53.9115 123.465 53.3516C124.473 52.7756 125.217 51.9677 125.697 50.9277L122.793 49.3438C122.457 49.9677 122.033 50.4239 121.521 50.7119C121.026 50.9839 120.482 51.1201 119.89 51.1201C119.25 51.1201 118.673 50.9765 118.161 50.6885C117.649 50.4005 117.242 49.9919 116.938 49.4639C116.65 48.9359 116.505 48.2959 116.505 47.5439C116.505 46.792 116.65 46.152 116.938 45.624C117.241 45.0962 117.649 44.6884 118.161 44.4004C118.673 44.1124 119.25 43.9678 119.89 43.9678C120.482 43.9678 121.026 44.1124 121.521 44.4004C122.033 44.6884 122.457 45.1363 122.793 45.7441L125.697 44.1836C125.217 43.1278 124.473 42.3197 123.465 41.7598C122.457 41.1839 121.273 40.8965 119.913 40.8965ZM128.496 38.2324V41.376H126.505V44.2559H128.496V49.5596C128.496 51.0956 128.921 52.256 129.769 53.04C130.617 53.808 131.8 54.1924 133.32 54.1924C133.896 54.1924 134.449 54.128 134.977 54C135.52 53.856 135.984 53.6479 136.368 53.376L135.36 50.7363C134.944 51.0562 134.44 51.2158 133.849 51.2158C133.353 51.2158 132.961 51.072 132.673 50.7842C132.385 50.4802 132.24 50.0557 132.24 49.5117V44.2559H135.456V41.376H132.24V38.2324H128.496ZM143.51 40.8965C142.262 40.8965 141.19 41.0803 140.294 41.4482C139.398 41.8002 138.71 42.2882 138.23 42.9121C137.766 43.5361 137.534 44.2563 137.534 45.0723C137.534 45.8081 137.67 46.4081 137.942 46.8721C138.23 47.336 138.606 47.7036 139.07 47.9756C139.534 48.2476 140.046 48.4556 140.606 48.5996C141.166 48.7276 141.718 48.8321 142.262 48.9121C142.822 48.9921 143.334 49.0724 143.798 49.1523C144.262 49.2323 144.63 49.3517 144.902 49.5117C145.19 49.6557 145.334 49.8798 145.334 50.1836C145.334 50.5516 145.15 50.8399 144.782 51.0479C144.43 51.2559 143.822 51.3604 142.958 51.3604C142.174 51.3603 141.374 51.2483 140.559 51.0244C139.759 50.7844 139.062 50.4803 138.47 50.1123L137.223 52.7998C137.815 53.1997 138.614 53.5357 139.622 53.8076C140.646 54.0636 141.71 54.1924 142.814 54.1924C144.11 54.1924 145.207 54.016 146.103 53.6641C147.014 53.3121 147.71 52.8316 148.19 52.2236C148.67 51.5997 148.91 50.8877 148.91 50.0879C148.91 49.3519 148.767 48.7595 148.479 48.3115C148.191 47.8478 147.814 47.4884 147.351 47.2324C146.903 46.9604 146.398 46.7524 145.838 46.6084C145.278 46.4644 144.718 46.3599 144.158 46.2959C143.614 46.2159 143.11 46.1282 142.646 46.0322C142.183 45.9363 141.806 45.8083 141.519 45.6484C141.247 45.4884 141.11 45.2477 141.11 44.9277C141.11 44.5759 141.303 44.2884 141.687 44.0645C142.07 43.8405 142.678 43.7276 143.51 43.7275C144.102 43.7275 144.71 43.8004 145.334 43.9443C145.974 44.0723 146.606 44.3205 147.23 44.6885L148.479 42.0244C147.871 41.6564 147.11 41.3756 146.198 41.1836C145.286 40.9916 144.39 40.8965 143.51 40.8965ZM73.3145 40.8965C72.0986 40.8965 71.0667 41.1363 70.2188 41.6162C69.6748 41.9138 69.227 42.3042 68.874 42.7861V41.0879H65.2979V54H69.042V47.9043C69.042 46.6724 69.3546 45.7684 69.9785 45.1924C70.6185 44.6004 71.4506 44.3037 72.4746 44.3037C72.6183 44.3037 72.7541 44.3122 72.8818 44.3281C73.0098 44.3281 73.1545 44.3356 73.3145 44.3516V40.8965ZM55.7119 43.9678C56.3359 43.9678 56.8882 44.1124 57.3682 44.4004C57.864 44.6884 58.256 45.0961 58.5439 45.624C58.8479 46.152 59 46.792 59 47.5439C59 48.2799 58.8479 48.9199 58.5439 49.4639C58.2559 49.9919 57.8642 50.4005 57.3682 50.6885C56.8882 50.9764 56.3359 51.1201 55.7119 51.1201C55.0881 51.1201 54.5281 50.9763 54.0322 50.6885C53.5363 50.4005 53.1444 49.9918 52.8564 49.4639C52.5684 48.9199 52.4238 48.2799 52.4238 47.5439C52.4238 46.792 52.5685 46.152 52.8564 45.624C53.1444 45.0961 53.5363 44.6884 54.0322 44.4004C54.5282 44.1124 55.0879 43.9678 55.7119 43.9678ZM81.5908 43.9678C82.2148 43.9678 82.7745 44.1124 83.2705 44.4004C83.7665 44.6884 84.1583 45.0961 84.4463 45.624C84.7343 46.152 84.8789 46.792 84.8789 47.5439C84.8789 48.2799 84.7343 48.9199 84.4463 49.4639C84.1583 49.9918 83.7665 50.4005 83.2705 50.6885C82.7746 50.9763 82.2146 51.1201 81.5908 51.1201C80.967 51.1201 80.407 50.9763 79.9111 50.6885C79.4151 50.4005 79.0149 49.9919 78.7109 49.4639C78.4229 48.9199 78.2783 48.2799 78.2783 47.5439C78.2783 46.792 78.4229 46.152 78.7109 45.624C79.0149 45.0961 79.4152 44.6884 79.9111 44.4004C80.4071 44.1124 80.9669 43.9678 81.5908 43.9678ZM104.484 43.7275C105.124 43.7275 105.685 43.8722 106.165 44.1602C106.645 44.4321 107.021 44.8158 107.293 45.3115C107.473 45.6407 107.593 46.0093 107.653 46.416H101.297C101.359 46.0161 101.477 45.6559 101.652 45.3359C101.924 44.8241 102.3 44.4321 102.78 44.1602C103.276 43.8722 103.845 43.7276 104.484 43.7275ZM93.2129 35.1123C92.5251 35.1124 91.9651 35.312 91.5332 35.7119C91.1012 36.1119 90.8857 36.6082 90.8857 37.2002C90.8858 37.7921 91.1013 38.2885 91.5332 38.6885C91.9651 39.0883 92.5252 39.288 93.2129 39.2881C93.9168 39.2881 94.4776 39.0884 94.8936 38.6885C95.3256 38.2725 95.541 37.7519 95.541 37.1279C95.541 36.5361 95.3253 36.0564 94.8936 35.6885C94.4616 35.3045 93.9009 35.1123 93.2129 35.1123Z" fill="#956E49" />
<path d="M187 20.7686V83.9092L146.651 64.5801L120.279 83.9092L92.1367 68.0195L71.9443 87L5 62.8623L27.75 2.72852L65.5234 31.0771L83.9814 7.02637L120.279 27.2139L157.382 0L187 20.7686ZM91.3418 41.0879V54C91.3418 54.6239 91.1971 55.0876 90.9092 55.3916C90.6372 55.7115 90.2695 55.872 89.8057 55.8721C89.1818 55.8721 88.6536 55.7199 88.2217 55.416L87.2129 58.1279C87.5809 58.3679 88.0296 58.5443 88.5576 58.6562C89.0854 58.7842 89.6372 58.8476 90.2129 58.8477C91.7648 58.8477 92.9655 58.4083 93.8135 57.5283C94.6615 56.6483 95.085 55.4636 95.085 53.9756V41.0879H91.3418ZM56.3604 40.8965C55.2244 40.8965 54.2476 41.1362 53.4316 41.6162C53.002 41.869 52.6269 42.1917 52.3037 42.582V41.0879H48.7275V58.6562H52.4717V52.6289C52.7774 52.9641 53.1204 53.246 53.5039 53.4717C54.3199 53.9517 55.2724 54.1924 56.3604 54.1924C57.5762 54.1923 58.6641 53.9199 59.624 53.376C60.5999 52.832 61.3678 52.0641 61.9277 51.0723C62.5037 50.0803 62.792 48.9039 62.792 47.5439C62.792 46.2 62.5037 45.032 61.9277 44.04C61.3678 43.0481 60.5999 42.2803 59.624 41.7363C58.6641 41.1764 57.5762 40.8965 56.3604 40.8965ZM81.5908 40.8965C80.2149 40.8965 78.9909 41.1839 77.9189 41.7598C76.8629 42.3198 76.0224 43.1043 75.3984 44.1123C74.7906 45.1042 74.4863 46.2481 74.4863 47.5439C74.4863 48.8238 74.7906 49.9677 75.3984 50.9756C76.0224 51.9676 76.8629 52.7521 77.9189 53.3281C78.9909 53.9041 80.2149 54.1924 81.5908 54.1924C82.9506 54.1924 84.1664 53.904 85.2383 53.3281C86.3103 52.7521 87.1508 51.9676 87.7588 50.9756C88.3667 49.9677 88.6709 48.8238 88.6709 47.5439C88.6709 46.232 88.3668 45.0799 87.7588 44.0879C87.1508 43.0959 86.3103 42.3198 85.2383 41.7598C84.1664 41.1839 82.9506 40.8965 81.5908 40.8965ZM104.461 40.8965C103.149 40.8965 101.973 41.1838 100.933 41.7598C99.8926 42.3198 99.0689 43.1043 98.4609 44.1123C97.869 45.1043 97.5723 46.248 97.5723 47.5439C97.5723 48.8238 97.8766 49.9677 98.4844 50.9756C99.0924 51.9676 99.9487 52.7521 101.053 53.3281C102.173 53.9041 103.469 54.1923 104.94 54.1924C106.108 54.1924 107.141 54.0161 108.037 53.6641C108.933 53.2961 109.677 52.7754 110.269 52.1035L108.276 49.9443C107.845 50.3601 107.365 50.6719 106.837 50.8799C106.325 51.0878 105.725 51.1923 105.037 51.1924C104.269 51.1924 103.597 51.0562 103.021 50.7842C102.461 50.4962 102.021 50.0875 101.701 49.5596C101.536 49.2633 101.416 48.9433 101.341 48.5996H111.108C111.124 48.4397 111.14 48.2716 111.156 48.0957C111.172 47.9038 111.181 47.7357 111.181 47.5918C111.181 46.1999 110.885 45.0076 110.293 44.0156C109.701 43.0078 108.893 42.2399 107.869 41.7119C106.861 41.168 105.725 40.8965 104.461 40.8965ZM119.913 40.8965C118.521 40.8965 117.281 41.1838 116.193 41.7598C115.105 42.3198 114.249 43.1043 113.625 44.1123C113.017 45.1042 112.713 46.2481 112.713 47.5439C112.713 48.8238 113.017 49.9677 113.625 50.9756C114.249 51.9835 115.105 52.7756 116.193 53.3516C117.281 53.9115 118.521 54.1924 119.913 54.1924C121.273 54.1924 122.457 53.9115 123.465 53.3516C124.473 52.7756 125.217 51.9677 125.697 50.9277L122.793 49.3438C122.457 49.9677 122.033 50.4239 121.521 50.7119C121.026 50.9839 120.482 51.1201 119.89 51.1201C119.25 51.1201 118.673 50.9765 118.161 50.6885C117.649 50.4005 117.242 49.9919 116.938 49.4639C116.65 48.9359 116.505 48.2959 116.505 47.5439C116.505 46.792 116.65 46.152 116.938 45.624C117.241 45.0962 117.649 44.6884 118.161 44.4004C118.673 44.1124 119.25 43.9678 119.89 43.9678C120.482 43.9678 121.026 44.1124 121.521 44.4004C122.033 44.6884 122.457 45.1363 122.793 45.7441L125.697 44.1836C125.217 43.1278 124.473 42.3197 123.465 41.7598C122.457 41.1839 121.273 40.8965 119.913 40.8965ZM128.496 38.2324V41.376H126.505V44.2559H128.496V49.5596C128.496 51.0956 128.921 52.256 129.769 53.04C130.617 53.808 131.8 54.1924 133.32 54.1924C133.896 54.1924 134.449 54.128 134.977 54C135.52 53.856 135.984 53.6479 136.368 53.376L135.36 50.7363C134.944 51.0562 134.44 51.2158 133.849 51.2158C133.353 51.2158 132.961 51.072 132.673 50.7842C132.385 50.4802 132.24 50.0557 132.24 49.5117V44.2559H135.456V41.376H132.24V38.2324H128.496ZM143.51 40.8965C142.262 40.8965 141.19 41.0803 140.294 41.4482C139.398 41.8002 138.71 42.2882 138.23 42.9121C137.766 43.5361 137.534 44.2563 137.534 45.0723C137.534 45.8081 137.67 46.4081 137.942 46.8721C138.23 47.336 138.606 47.7036 139.07 47.9756C139.534 48.2476 140.046 48.4556 140.606 48.5996C141.166 48.7276 141.718 48.8321 142.262 48.9121C142.822 48.9921 143.334 49.0724 143.798 49.1523C144.262 49.2323 144.63 49.3517 144.902 49.5117C145.19 49.6557 145.334 49.8798 145.334 50.1836C145.334 50.5516 145.15 50.8399 144.782 51.0479C144.43 51.2559 143.822 51.3604 142.958 51.3604C142.174 51.3603 141.374 51.2483 140.559 51.0244C139.759 50.7844 139.062 50.4803 138.47 50.1123L137.223 52.7998C137.815 53.1997 138.614 53.5357 139.622 53.8076C140.646 54.0636 141.71 54.1924 142.814 54.1924C144.11 54.1924 145.207 54.016 146.103 53.6641C147.014 53.3121 147.71 52.8316 148.19 52.2236C148.67 51.5997 148.91 50.8877 148.91 50.0879C148.91 49.3519 148.767 48.7595 148.479 48.3115C148.191 47.8478 147.814 47.4884 147.351 47.2324C146.903 46.9604 146.398 46.7524 145.838 46.6084C145.278 46.4644 144.718 46.3599 144.158 46.2959C143.614 46.2159 143.11 46.1282 142.646 46.0322C142.183 45.9363 141.806 45.8083 141.519 45.6484C141.247 45.4884 141.11 45.2477 141.11 44.9277C141.11 44.5759 141.303 44.2884 141.687 44.0645C142.07 43.8405 142.678 43.7276 143.51 43.7275C144.102 43.7275 144.71 43.8004 145.334 43.9443C145.974 44.0723 146.606 44.3205 147.23 44.6885L148.479 42.0244C147.871 41.6564 147.11 41.3756 146.198 41.1836C145.286 40.9916 144.39 40.8965 143.51 40.8965ZM73.3145 40.8965C72.0986 40.8965 71.0667 41.1363 70.2188 41.6162C69.6748 41.9138 69.227 42.3042 68.874 42.7861V41.0879H65.2979V54H69.042V47.9043C69.042 46.6724 69.3546 45.7684 69.9785 45.1924C70.6185 44.6004 71.4506 44.3037 72.4746 44.3037C72.6183 44.3037 72.7541 44.3122 72.8818 44.3281C73.0098 44.3281 73.1545 44.3356 73.3145 44.3516V40.8965ZM55.7119 43.9678C56.3359 43.9678 56.8882 44.1124 57.3682 44.4004C57.864 44.6884 58.256 45.0961 58.5439 45.624C58.8479 46.152 59 46.792 59 47.5439C59 48.2799 58.8479 48.9199 58.5439 49.4639C58.2559 49.9919 57.8642 50.4005 57.3682 50.6885C56.8882 50.9764 56.3359 51.1201 55.7119 51.1201C55.0881 51.1201 54.5281 50.9763 54.0322 50.6885C53.5363 50.4005 53.1444 49.9918 52.8564 49.4639C52.5684 48.9199 52.4238 48.2799 52.4238 47.5439C52.4238 46.792 52.5685 46.152 52.8564 45.624C53.1444 45.0961 53.5363 44.6884 54.0322 44.4004C54.5282 44.1124 55.0879 43.9678 55.7119 43.9678ZM81.5908 43.9678C82.2148 43.9678 82.7745 44.1124 83.2705 44.4004C83.7665 44.6884 84.1583 45.0961 84.4463 45.624C84.7343 46.152 84.8789 46.792 84.8789 47.5439C84.8789 48.2799 84.7343 48.9199 84.4463 49.4639C84.1583 49.9918 83.7665 50.4005 83.2705 50.6885C82.7746 50.9763 82.2146 51.1201 81.5908 51.1201C80.967 51.1201 80.407 50.9763 79.9111 50.6885C79.4151 50.4005 79.0149 49.9919 78.7109 49.4639C78.4229 48.9199 78.2783 48.2799 78.2783 47.5439C78.2783 46.792 78.4229 46.152 78.7109 45.624C79.0149 45.0961 79.4152 44.6884 79.9111 44.4004C80.4071 44.1124 80.9669 43.9678 81.5908 43.9678ZM104.484 43.7275C105.124 43.7275 105.685 43.8722 106.165 44.1602C106.645 44.4321 107.021 44.8158 107.293 45.3115C107.473 45.6407 107.593 46.0093 107.653 46.416H101.297C101.359 46.0161 101.477 45.6559 101.652 45.3359C101.924 44.8241 102.3 44.4321 102.78 44.1602C103.276 43.8722 103.845 43.7276 104.484 43.7275ZM93.2129 35.1123C92.5251 35.1124 91.9651 35.312 91.5332 35.7119C91.1012 36.1119 90.8857 36.6082 90.8857 37.2002C90.8858 37.7921 91.1013 38.2885 91.5332 38.6885C91.9651 39.0883 92.5252 39.288 93.2129 39.2881C93.9168 39.2881 94.4776 39.0884 94.8936 38.6885C95.3256 38.2725 95.541 37.7519 95.541 37.1279C95.541 36.5361 95.3253 36.0564 94.8936 35.6885C94.4616 35.3045 93.9009 35.1123 93.2129 35.1123Z" fill="url(#pattern0_43_1056)" fill-opacity="0.5" />
<path d="M56.36 54.192C55.272 54.192 54.32 53.952 53.504 53.472C52.688 52.992 52.048 52.264 51.584 51.288C51.136 50.296 50.912 49.048 50.912 47.544C50.912 46.024 51.128 44.776 51.56 43.8C51.992 42.824 52.616 42.096 53.432 41.616C54.248 41.136 55.224 40.896 56.36 40.896C57.576 40.896 58.664 41.176 59.624 41.736C60.6 42.28 61.368 43.048 61.928 44.04C62.504 45.032 62.792 46.2 62.792 47.544C62.792 48.904 62.504 50.08 61.928 51.072C61.368 52.064 60.6 52.832 59.624 53.376C58.664 53.92 57.576 54.192 56.36 54.192ZM48.728 58.656V41.088H52.304V43.728L52.232 47.568L52.472 51.384V58.656H48.728ZM55.712 51.12C56.336 51.12 56.888 50.976 57.368 50.688C57.864 50.4 58.256 49.992 58.544 49.464C58.848 48.92 59 48.28 59 47.544C59 46.792 58.848 46.152 58.544 45.624C58.256 45.096 57.864 44.688 57.368 44.4C56.888 44.112 56.336 43.968 55.712 43.968C55.088 43.968 54.528 44.112 54.032 44.4C53.536 44.688 53.144 45.096 52.856 45.624C52.568 46.152 52.424 46.792 52.424 47.544C52.424 48.28 52.568 48.92 52.856 49.464C53.144 49.992 53.536 50.4 54.032 50.688C54.528 50.976 55.088 51.12 55.712 51.12ZM65.2983 54V41.088H68.8743V44.736L68.3703 43.68C68.7543 42.768 69.3703 42.08 70.2183 41.616C71.0663 41.136 72.0983 40.896 73.3143 40.896V44.352C73.1543 44.336 73.0103 44.328 72.8823 44.328C72.7543 44.312 72.6183 44.304 72.4743 44.304C71.4503 44.304 70.6183 44.6 69.9783 45.192C69.3543 45.768 69.0423 46.672 69.0423 47.904V54H65.2983ZM81.5908 54.192C80.2148 54.192 78.9908 53.904 77.9188 53.328C76.8628 52.752 76.0228 51.968 75.3988 50.976C74.7908 49.968 74.4868 48.824 74.4868 47.544C74.4868 46.248 74.7908 45.104 75.3988 44.112C76.0228 43.104 76.8628 42.32 77.9188 41.76C78.9908 41.184 80.2148 40.896 81.5908 40.896C82.9508 40.896 84.1668 41.184 85.2388 41.76C86.3108 42.32 87.1508 43.096 87.7588 44.088C88.3668 45.08 88.6708 46.232 88.6708 47.544C88.6708 48.824 88.3668 49.968 87.7588 50.976C87.1508 51.968 86.3108 52.752 85.2388 53.328C84.1668 53.904 82.9508 54.192 81.5908 54.192ZM81.5908 51.12C82.2148 51.12 82.7748 50.976 83.2708 50.688C83.7668 50.4 84.1588 49.992 84.4468 49.464C84.7348 48.92 84.8788 48.28 84.8788 47.544C84.8788 46.792 84.7348 46.152 84.4468 45.624C84.1588 45.096 83.7668 44.688 83.2708 44.4C82.7748 44.112 82.2148 43.968 81.5908 43.968C80.9668 43.968 80.4068 44.112 79.9108 44.4C79.4148 44.688 79.0148 45.096 78.7108 45.624C78.4228 46.152 78.2788 46.792 78.2788 47.544C78.2788 48.28 78.4228 48.92 78.7108 49.464C79.0148 49.992 79.4148 50.4 79.9108 50.688C80.4068 50.976 80.9668 51.12 81.5908 51.12ZM90.2133 58.848C89.6373 58.848 89.0853 58.784 88.5573 58.656C88.0293 58.544 87.5813 58.368 87.2133 58.128L88.2213 55.416C88.6533 55.72 89.1813 55.872 89.8053 55.872C90.2693 55.872 90.6373 55.712 90.9093 55.392C91.1973 55.088 91.3413 54.624 91.3413 54V41.088H95.0853V53.976C95.0853 55.464 94.6613 56.648 93.8133 57.528C92.9653 58.408 91.7653 58.848 90.2133 58.848ZM93.2133 39.288C92.5253 39.288 91.9653 39.088 91.5333 38.688C91.1013 38.288 90.8853 37.792 90.8853 37.2C90.8853 36.608 91.1013 36.112 91.5333 35.712C91.9653 35.312 92.5253 35.112 93.2133 35.112C93.9013 35.112 94.4613 35.304 94.8933 35.688C95.3253 36.056 95.5413 36.536 95.5413 37.128C95.5413 37.752 95.3253 38.272 94.8933 38.688C94.4773 39.088 93.9173 39.288 93.2133 39.288ZM104.941 54.192C103.469 54.192 102.173 53.904 101.053 53.328C99.9487 52.752 99.0927 51.968 98.4847 50.976C97.8767 49.968 97.5727 48.824 97.5727 47.544C97.5727 46.248 97.8687 45.104 98.4607 44.112C99.0687 43.104 99.8927 42.32 100.933 41.76C101.973 41.184 103.149 40.896 104.461 40.896C105.725 40.896 106.861 41.168 107.869 41.712C108.893 42.24 109.701 43.008 110.293 44.016C110.885 45.008 111.181 46.2 111.181 47.592C111.181 47.736 111.173 47.904 111.157 48.096C111.141 48.272 111.125 48.44 111.109 48.6H100.621V46.416H109.141L107.701 47.064C107.701 46.392 107.565 45.808 107.293 45.312C107.021 44.816 106.645 44.432 106.165 44.16C105.685 43.872 105.125 43.728 104.485 43.728C103.845 43.728 103.277 43.872 102.781 44.16C102.301 44.432 101.925 44.824 101.653 45.336C101.381 45.832 101.245 46.424 101.245 47.112V47.688C101.245 48.392 101.397 49.016 101.701 49.56C102.021 50.088 102.461 50.496 103.021 50.784C103.597 51.056 104.269 51.192 105.037 51.192C105.725 51.192 106.325 51.088 106.837 50.88C107.365 50.672 107.845 50.36 108.277 49.944L110.269 52.104C109.677 52.776 108.933 53.296 108.037 53.664C107.141 54.016 106.109 54.192 104.941 54.192ZM119.913 54.192C118.521 54.192 117.281 53.912 116.193 53.352C115.105 52.776 114.249 51.984 113.625 50.976C113.017 49.968 112.713 48.824 112.713 47.544C112.713 46.248 113.017 45.104 113.625 44.112C114.249 43.104 115.105 42.32 116.193 41.76C117.281 41.184 118.521 40.896 119.913 40.896C121.273 40.896 122.457 41.184 123.465 41.76C124.473 42.32 125.217 43.128 125.697 44.184L122.793 45.744C122.457 45.136 122.033 44.688 121.521 44.4C121.025 44.112 120.481 43.968 119.889 43.968C119.249 43.968 118.673 44.112 118.161 44.4C117.649 44.688 117.241 45.096 116.937 45.624C116.649 46.152 116.505 46.792 116.505 47.544C116.505 48.296 116.649 48.936 116.937 49.464C117.241 49.992 117.649 50.4 118.161 50.688C118.673 50.976 119.249 51.12 119.889 51.12C120.481 51.12 121.025 50.984 121.521 50.712C122.033 50.424 122.457 49.968 122.793 49.344L125.697 50.928C125.217 51.968 124.473 52.776 123.465 53.352C122.457 53.912 121.273 54.192 119.913 54.192ZM133.321 54.192C131.801 54.192 130.617 53.808 129.769 53.04C128.921 52.256 128.497 51.096 128.497 49.56V38.232H132.241V49.512C132.241 50.056 132.385 50.48 132.673 50.784C132.961 51.072 133.353 51.216 133.849 51.216C134.441 51.216 134.945 51.056 135.361 50.736L136.369 53.376C135.985 53.648 135.521 53.856 134.977 54C134.449 54.128 133.897 54.192 133.321 54.192ZM126.505 44.256V41.376H135.457V44.256H126.505ZM142.814 54.192C141.71 54.192 140.646 54.064 139.622 53.808C138.614 53.536 137.814 53.2 137.222 52.8L138.47 50.112C139.062 50.48 139.758 50.784 140.558 51.024C141.374 51.248 142.174 51.36 142.958 51.36C143.822 51.36 144.43 51.256 144.782 51.048C145.15 50.84 145.334 50.552 145.334 50.184C145.334 49.88 145.19 49.656 144.902 49.512C144.63 49.352 144.262 49.232 143.798 49.152C143.334 49.072 142.822 48.992 142.262 48.912C141.718 48.832 141.166 48.728 140.606 48.6C140.046 48.456 139.534 48.248 139.07 47.976C138.606 47.704 138.23 47.336 137.942 46.872C137.67 46.408 137.534 45.808 137.534 45.072C137.534 44.256 137.766 43.536 138.23 42.912C138.71 42.288 139.398 41.8 140.294 41.448C141.19 41.08 142.262 40.896 143.51 40.896C144.39 40.896 145.286 40.992 146.198 41.184C147.11 41.376 147.87 41.656 148.478 42.024L147.23 44.688C146.606 44.32 145.974 44.072 145.334 43.944C144.71 43.8 144.102 43.728 143.51 43.728C142.678 43.728 142.07 43.84 141.686 44.064C141.302 44.288 141.11 44.576 141.11 44.928C141.11 45.248 141.246 45.488 141.518 45.648C141.806 45.808 142.182 45.936 142.646 46.032C143.11 46.128 143.614 46.216 144.158 46.296C144.718 46.36 145.278 46.464 145.838 46.608C146.398 46.752 146.902 46.96 147.35 47.232C147.814 47.488 148.19 47.848 148.478 48.312C148.766 48.76 148.91 49.352 148.91 50.088C148.91 50.888 148.67 51.6 148.19 52.224C147.71 52.832 147.014 53.312 146.102 53.664C145.206 54.016 144.11 54.192 142.814 54.192Z" fill="#FFFDF3" />
<defs>
<pattern id="pattern0_43_1056" patternContentUnits="objectBoundingBox" width="1" height="1">
<use xlink:href="#image0_43_1056" transform="matrix(0.00148342 0 0 0.00485728 -1.2715 -2.85032)" />
</pattern>
<image id="image0_43_1056" width="594" height="284" preserveAspectRatio="none" xlink:href="/assets/images/shapes/cardboard_texture.jpg" />
</defs>
</svg>