<?xml version='1.0' encoding='utf-8'?>
<svg xmlns="http://www.w3.org/2000/svg" xmlns:xlink="http://www.w3.org/1999/xlink" width="210" height="68" viewBox="0 0 210 68" fill="none">
<g id="contact">
<g id="contact_inactive">
<g class="bg">
<path d="M204.482 10.761L18.8383 5.34641L0 5L19.0166 17.2994L0.63038 25.043L25.7978 35.1787L3.91196 45.8632L23.9584 58.1591L9.82117 67.4491H201.152L181.172 55.1614L204.482 48.5013L181.172 39.0662L204.482 29.6312L181.172 25.043L204.482 10.761Z" fill="url(#pattern0_46_1362)" fill-opacity="0.5" />
<path d="M204.482 10.761L18.8383 5.34641L0 5L19.0166 17.2994L0.63038 25.043L25.7978 35.1787L3.91196 45.8632L23.9584 58.1591L9.82117 67.4491H201.152L181.172 55.1614L204.482 48.5013L181.172 39.0662L204.482 29.6312L181.172 25.043L204.482 10.761Z" fill="#00859D" />
</g>
<g class="fg">
<g id="Vector">
<path d="M209.482 5.76101L23.8383 0.34641L5 0L24.0166 12.2994L5.63038 20.043L30.7978 30.1787L8.91196 40.8632L28.9584 53.1591L14.8212 62.4491H206.152L186.172 50.1614L209.482 43.5013L186.172 34.0662L209.482 24.6312L186.172 20.043L209.482 5.76101Z" fill="#AC6928" />
<path d="M209.482 5.76101L23.8383 0.34641L5 0L24.0166 12.2994L5.63038 20.043L30.7978 30.1787L8.91196 40.8632L28.9584 53.1591L14.8212 62.4491H206.152L186.172 50.1614L209.482 43.5013L186.172 34.0662L209.482 24.6312L186.172 20.043L209.482 5.76101Z" fill="url(#pattern1_46_1362)" fill-opacity="0.5" />
</g>
<path id="contact_2" d="M67.9675 40.192C66.5755 40.192 65.3355 39.912 64.2475 39.352C63.1595 38.776 62.3035 37.984 61.6795 36.976C61.0715 35.968 60.7675 34.824 60.7675 33.544C60.7675 32.248 61.0715 31.104 61.6795 30.112C62.3035 29.104 63.1595 28.32 64.2475 27.76C65.3355 27.184 66.5755 26.896 67.9675 26.896C69.3275 26.896 70.5115 27.184 71.5195 27.76C72.5275 28.32 73.2715 29.128 73.7515 30.184L70.8475 31.744C70.5115 31.136 70.0875 30.688 69.5755 30.4C69.0795 30.112 68.5355 29.968 67.9435 29.968C67.3035 29.968 66.7275 30.112 66.2155 30.4C65.7035 30.688 65.2955 31.096 64.9915 31.624C64.7035 32.152 64.5595 32.792 64.5595 33.544C64.5595 34.296 64.7035 34.936 64.9915 35.464C65.2955 35.992 65.7035 36.4 66.2155 36.688C66.7275 36.976 67.3035 37.12 67.9435 37.12C68.5355 37.12 69.0795 36.984 69.5755 36.712C70.0875 36.424 70.5115 35.968 70.8475 35.344L73.7515 36.928C73.2715 37.968 72.5275 38.776 71.5195 39.352C70.5115 39.912 69.3275 40.192 67.9675 40.192ZM81.8871 40.192C80.5111 40.192 79.2871 39.904 78.2151 39.328C77.1591 38.752 76.3191 37.968 75.6951 36.976C75.0871 35.968 74.7831 34.824 74.7831 33.544C74.7831 32.248 75.0871 31.104 75.6951 30.112C76.3191 29.104 77.1591 28.32 78.2151 27.76C79.2871 27.184 80.5111 26.896 81.8871 26.896C83.2471 26.896 84.4631 27.184 85.5351 27.76C86.6071 28.32 87.4471 29.096 88.0551 30.088C88.6631 31.08 88.9671 32.232 88.9671 33.544C88.9671 34.824 88.6631 35.968 88.0551 36.976C87.4471 37.968 86.6071 38.752 85.5351 39.328C84.4631 39.904 83.2471 40.192 81.8871 40.192ZM81.8871 37.12C82.5111 37.12 83.0711 36.976 83.5671 36.688C84.0631 36.4 84.4551 35.992 84.7431 35.464C85.0311 34.92 85.1751 34.28 85.1751 33.544C85.1751 32.792 85.0311 32.152 84.7431 31.624C84.4551 31.096 84.0631 30.688 83.5671 30.4C83.0711 30.112 82.5111 29.968 81.8871 29.968C81.2631 29.968 80.7031 30.112 80.2071 30.4C79.7111 30.688 79.3111 31.096 79.0071 31.624C78.7191 32.152 78.5751 32.792 78.5751 33.544C78.5751 34.28 78.7191 34.92 79.0071 35.464C79.3111 35.992 79.7111 36.4 80.2071 36.688C80.7031 36.976 81.2631 37.12 81.8871 37.12ZM99.3177 26.896C100.342 26.896 101.254 27.104 102.054 27.52C102.87 27.92 103.51 28.544 103.974 29.392C104.438 30.224 104.67 31.296 104.67 32.608V40H100.926V33.184C100.926 32.144 100.694 31.376 100.23 30.88C99.7817 30.384 99.1417 30.136 98.3097 30.136C97.7177 30.136 97.1817 30.264 96.7017 30.52C96.2377 30.76 95.8697 31.136 95.5977 31.648C95.3417 32.16 95.2137 32.816 95.2137 33.616V40H91.4697V27.088H95.0457V30.664L94.3737 29.584C94.8377 28.72 95.5017 28.056 96.3657 27.592C97.2297 27.128 98.2137 26.896 99.3177 26.896ZM113.343 40.192C111.823 40.192 110.639 39.808 109.791 39.04C108.943 38.256 108.519 37.096 108.519 35.56V24.232H112.263V35.512C112.263 36.056 112.407 36.48 112.695 36.784C112.983 37.072 113.375 37.216 113.871 37.216C114.463 37.216 114.967 37.056 115.383 36.736L116.391 39.376C116.007 39.648 115.543 39.856 114.999 40C114.471 40.128 113.919 40.192 113.343 40.192ZM106.527 30.256V27.376H115.479V30.256H106.527ZM126.413 40V37.48L126.173 36.928V32.416C126.173 31.616 125.925 30.992 125.429 30.544C124.949 30.096 124.205 29.872 123.197 29.872C122.509 29.872 121.829 29.984 121.157 30.208C120.501 30.416 119.941 30.704 119.477 31.072L118.133 28.456C118.837 27.96 119.685 27.576 120.677 27.304C121.669 27.032 122.677 26.896 123.701 26.896C125.669 26.896 127.197 27.36 128.285 28.288C129.373 29.216 129.917 30.664 129.917 32.632V40H126.413ZM122.477 40.192C121.469 40.192 120.605 40.024 119.885 39.688C119.165 39.336 118.613 38.864 118.229 38.272C117.845 37.68 117.653 37.016 117.653 36.28C117.653 35.512 117.837 34.84 118.205 34.264C118.589 33.688 119.189 33.24 120.005 32.92C120.821 32.584 121.885 32.416 123.197 32.416H126.629V34.6H123.605C122.725 34.6 122.117 34.744 121.781 35.032C121.461 35.32 121.301 35.68 121.301 36.112C121.301 36.592 121.485 36.976 121.853 37.264C122.237 37.536 122.757 37.672 123.413 37.672C124.037 37.672 124.597 37.528 125.093 37.24C125.589 36.936 125.949 36.496 126.173 35.92L126.749 37.648C126.477 38.48 125.981 39.112 125.261 39.544C124.541 39.976 123.613 40.192 122.477 40.192ZM139.639 40.192C138.247 40.192 137.007 39.912 135.919 39.352C134.831 38.776 133.975 37.984 133.351 36.976C132.743 35.968 132.439 34.824 132.439 33.544C132.439 32.248 132.743 31.104 133.351 30.112C133.975 29.104 134.831 28.32 135.919 27.76C137.007 27.184 138.247 26.896 139.639 26.896C140.999 26.896 142.183 27.184 143.191 27.76C144.199 28.32 144.943 29.128 145.423 30.184L142.519 31.744C142.183 31.136 141.759 30.688 141.247 30.4C140.751 30.112 140.207 29.968 139.615 29.968C138.975 29.968 138.399 30.112 137.887 30.4C137.375 30.688 136.967 31.096 136.663 31.624C136.375 32.152 136.231 32.792 136.231 33.544C136.231 34.296 136.375 34.936 136.663 35.464C136.967 35.992 137.375 36.4 137.887 36.688C138.399 36.976 138.975 37.12 139.615 37.12C140.207 37.12 140.751 36.984 141.247 36.712C141.759 36.424 142.183 35.968 142.519 35.344L145.423 36.928C144.943 37.968 144.199 38.776 143.191 39.352C142.183 39.912 140.999 40.192 139.639 40.192ZM153.047 40.192C151.527 40.192 150.343 39.808 149.495 39.04C148.647 38.256 148.223 37.096 148.223 35.56V24.232H151.967V35.512C151.967 36.056 152.111 36.48 152.399 36.784C152.687 37.072 153.079 37.216 153.575 37.216C154.167 37.216 154.671 37.056 155.087 36.736L156.095 39.376C155.711 39.648 155.247 39.856 154.703 40C154.175 40.128 153.623 40.192 153.047 40.192ZM146.231 30.256V27.376H155.183V30.256H146.231Z" fill="#FFFDF3" />
</g>
</g>
<g id="contact_active">
<g class="bg">
<path d="M204.482 10.761L18.8383 5.34641L0 5L19.0166 17.2994L0.63038 25.043L25.7978 35.1787L3.91196 45.8632L23.9584 58.1591L9.82117 67.4491H201.152L181.172 55.1614L204.482 48.5013L181.172 39.0662L204.482 29.6312L181.172 25.043L204.482 10.761Z" fill="#AC6928" />
<path d="M204.482 10.761L18.8383 5.34641L0 5L19.0166 17.2994L0.63038 25.043L25.7978 35.1787L3.91196 45.8632L23.9584 58.1591L9.82117 67.4491H201.152L181.172 55.1614L204.482 48.5013L181.172 39.0662L204.482 29.6312L181.172 25.043L204.482 10.761Z" fill="url(#pattern2_46_1362)" fill-opacity="0.5" />
</g>
<g class="fg">
<g id="Vector_2">
<path d="M209.482 5.76101L23.8383 0.34641L5 0L24.0166 12.2994L5.63038 20.043L30.7978 30.1787L8.91196 40.8632L28.9584 53.1591L14.8212 62.4491H206.152L186.172 50.1614L209.482 43.5013L186.172 34.0662L209.482 24.6312L186.172 20.043L209.482 5.76101Z" fill="url(#pattern3_46_1362)" fill-opacity="0.5" />
<path d="M209.482 5.76101L23.8383 0.34641L5 0L24.0166 12.2994L5.63038 20.043L30.7978 30.1787L8.91196 40.8632L28.9584 53.1591L14.8212 62.4491H206.152L186.172 50.1614L209.482 43.5013L186.172 34.0662L209.482 24.6312L186.172 20.043L209.482 5.76101Z" fill="#00859D" />
</g>
<path id="contact_3" d="M67.9675 40.192C66.5755 40.192 65.3355 39.912 64.2475 39.352C63.1595 38.776 62.3035 37.984 61.6795 36.976C61.0715 35.968 60.7675 34.824 60.7675 33.544C60.7675 32.248 61.0715 31.104 61.6795 30.112C62.3035 29.104 63.1595 28.32 64.2475 27.76C65.3355 27.184 66.5755 26.896 67.9675 26.896C69.3275 26.896 70.5115 27.184 71.5195 27.76C72.5275 28.32 73.2715 29.128 73.7515 30.184L70.8475 31.744C70.5115 31.136 70.0875 30.688 69.5755 30.4C69.0795 30.112 68.5355 29.968 67.9435 29.968C67.3035 29.968 66.7275 30.112 66.2155 30.4C65.7035 30.688 65.2955 31.096 64.9915 31.624C64.7035 32.152 64.5595 32.792 64.5595 33.544C64.5595 34.296 64.7035 34.936 64.9915 35.464C65.2955 35.992 65.7035 36.4 66.2155 36.688C66.7275 36.976 67.3035 37.12 67.9435 37.12C68.5355 37.12 69.0795 36.984 69.5755 36.712C70.0875 36.424 70.5115 35.968 70.8475 35.344L73.7515 36.928C73.2715 37.968 72.5275 38.776 71.5195 39.352C70.5115 39.912 69.3275 40.192 67.9675 40.192ZM81.8871 40.192C80.5111 40.192 79.2871 39.904 78.2151 39.328C77.1591 38.752 76.3191 37.968 75.6951 36.976C75.0871 35.968 74.7831 34.824 74.7831 33.544C74.7831 32.248 75.0871 31.104 75.6951 30.112C76.3191 29.104 77.1591 28.32 78.2151 27.76C79.2871 27.184 80.5111 26.896 81.8871 26.896C83.2471 26.896 84.4631 27.184 85.5351 27.76C86.6071 28.32 87.4471 29.096 88.0551 30.088C88.6631 31.08 88.9671 32.232 88.9671 33.544C88.9671 34.824 88.6631 35.968 88.0551 36.976C87.4471 37.968 86.6071 38.752 85.5351 39.328C84.4631 39.904 83.2471 40.192 81.8871 40.192ZM81.8871 37.12C82.5111 37.12 83.0711 36.976 83.5671 36.688C84.0631 36.4 84.4551 35.992 84.7431 35.464C85.0311 34.92 85.1751 34.28 85.1751 33.544C85.1751 32.792 85.0311 32.152 84.7431 31.624C84.4551 31.096 84.0631 30.688 83.5671 30.4C83.0711 30.112 82.5111 29.968 81.8871 29.968C81.2631 29.968 80.7031 30.112 80.2071 30.4C79.7111 30.688 79.3111 31.096 79.0071 31.624C78.7191 32.152 78.5751 32.792 78.5751 33.544C78.5751 34.28 78.7191 34.92 79.0071 35.464C79.3111 35.992 79.7111 36.4 80.2071 36.688C80.7031 36.976 81.2631 37.12 81.8871 37.12ZM99.3177 26.896C100.342 26.896 101.254 27.104 102.054 27.52C102.87 27.92 103.51 28.544 103.974 29.392C104.438 30.224 104.67 31.296 104.67 32.608V40H100.926V33.184C100.926 32.144 100.694 31.376 100.23 30.88C99.7817 30.384 99.1417 30.136 98.3097 30.136C97.7177 30.136 97.1817 30.264 96.7017 30.52C96.2377 30.76 95.8697 31.136 95.5977 31.648C95.3417 32.16 95.2137 32.816 95.2137 33.616V40H91.4697V27.088H95.0457V30.664L94.3737 29.584C94.8377 28.72 95.5017 28.056 96.3657 27.592C97.2297 27.128 98.2137 26.896 99.3177 26.896ZM113.343 40.192C111.823 40.192 110.639 39.808 109.791 39.04C108.943 38.256 108.519 37.096 108.519 35.56V24.232H112.263V35.512C112.263 36.056 112.407 36.48 112.695 36.784C112.983 37.072 113.375 37.216 113.871 37.216C114.463 37.216 114.967 37.056 115.383 36.736L116.391 39.376C116.007 39.648 115.543 39.856 114.999 40C114.471 40.128 113.919 40.192 113.343 40.192ZM106.527 30.256V27.376H115.479V30.256H106.527ZM126.413 40V37.48L126.173 36.928V32.416C126.173 31.616 125.925 30.992 125.429 30.544C124.949 30.096 124.205 29.872 123.197 29.872C122.509 29.872 121.829 29.984 121.157 30.208C120.501 30.416 119.941 30.704 119.477 31.072L118.133 28.456C118.837 27.96 119.685 27.576 120.677 27.304C121.669 27.032 122.677 26.896 123.701 26.896C125.669 26.896 127.197 27.36 128.285 28.288C129.373 29.216 129.917 30.664 129.917 32.632V40H126.413ZM122.477 40.192C121.469 40.192 120.605 40.024 119.885 39.688C119.165 39.336 118.613 38.864 118.229 38.272C117.845 37.68 117.653 37.016 117.653 36.28C117.653 35.512 117.837 34.84 118.205 34.264C118.589 33.688 119.189 33.24 120.005 32.92C120.821 32.584 121.885 32.416 123.197 32.416H126.629V34.6H123.605C122.725 34.6 122.117 34.744 121.781 35.032C121.461 35.32 121.301 35.68 121.301 36.112C121.301 36.592 121.485 36.976 121.853 37.264C122.237 37.536 122.757 37.672 123.413 37.672C124.037 37.672 124.597 37.528 125.093 37.24C125.589 36.936 125.949 36.496 126.173 35.92L126.749 37.648C126.477 38.48 125.981 39.112 125.261 39.544C124.541 39.976 123.613 40.192 122.477 40.192ZM139.639 40.192C138.247 40.192 137.007 39.912 135.919 39.352C134.831 38.776 133.975 37.984 133.351 36.976C132.743 35.968 132.439 34.824 132.439 33.544C132.439 32.248 132.743 31.104 133.351 30.112C133.975 29.104 134.831 28.32 135.919 27.76C137.007 27.184 138.247 26.896 139.639 26.896C140.999 26.896 142.183 27.184 143.191 27.76C144.199 28.32 144.943 29.128 145.423 30.184L142.519 31.744C142.183 31.136 141.759 30.688 141.247 30.4C140.751 30.112 140.207 29.968 139.615 29.968C138.975 29.968 138.399 30.112 137.887 30.4C137.375 30.688 136.967 31.096 136.663 31.624C136.375 32.152 136.231 32.792 136.231 33.544C136.231 34.296 136.375 34.936 136.663 35.464C136.967 35.992 137.375 36.4 137.887 36.688C138.399 36.976 138.975 37.12 139.615 37.12C140.207 37.12 140.751 36.984 141.247 36.712C141.759 36.424 142.183 35.968 142.519 35.344L145.423 36.928C144.943 37.968 144.199 38.776 143.191 39.352C142.183 39.912 140.999 40.192 139.639 40.192ZM153.047 40.192C151.527 40.192 150.343 39.808 149.495 39.04C148.647 38.256 148.223 37.096 148.223 35.56V24.232H151.967V35.512C151.967 36.056 152.111 36.48 152.399 36.784C152.687 37.072 153.079 37.216 153.575 37.216C154.167 37.216 154.671 37.056 155.087 36.736L156.095 39.376C155.711 39.648 155.247 39.856 154.703 40C154.175 40.128 153.623 40.192 153.047 40.192ZM146.231 30.256V27.376H155.183V30.256H146.231Z" fill="#FFFDF3" />
</g>
</g>
</g>
<!-- <defs>
<pattern id="pattern0_46_1362" patternContentUnits="objectBoundingBox" width="1" height="1">
<use xlink:href="#image0_46_1362" transform="matrix(0.00148342 0 0 0.00485729 -1.27151 -2.85032)" />
</pattern>
<pattern id="pattern1_46_1362" patternContentUnits="objectBoundingBox" width="1" height="1">
<use xlink:href="#image0_46_1362" transform="matrix(0.00148342 0 0 0.00485729 -1.27151 -2.85032)" />
</pattern>
<pattern id="pattern2_46_1362" patternContentUnits="objectBoundingBox" width="1" height="1">
<use xlink:href="#image0_46_1362" transform="matrix(0.00148342 0 0 0.00485729 -1.27151 -2.85032)" />
</pattern>
<pattern id="pattern3_46_1362" patternContentUnits="objectBoundingBox" width="1" height="1">
<use xlink:href="#image0_46_1362" transform="matrix(0.00148342 0 0 0.00485729 -1.27151 -2.85032)" />
</pattern>
<image id="image0_46_1362" data-name="Paper-Texture-1(edit).jpg" width="594" height="284" preserveAspectRatio="none" xlink:href="/assets/images/shapes/cardboard_texture.jpg" />
</defs> -->

<defs>
  <pattern id="cardboard_tile" 
           patternUnits="userSpaceOnUse" 
           width="100" height="100" 
           viewBox="0 0 100 100">
    
    <image xlink:href="/assets/images/shapes/cardboard_texture.jpg" 
           x="0" y="0" 
           width="100" height="100" 
           preserveAspectRatio="xMidYMid slice" />
  </pattern>

  <pattern id="pattern0_46_1362" xlink:href="#cardboard_tile" />
  <pattern id="pattern1_46_1362" xlink:href="#cardboard_tile" />
  <pattern id="pattern2_46_1362" xlink:href="#cardboard_tile" />
  <pattern id="pattern3_46_1362" xlink:href="#cardboard_tile" />
</defs>

</svg>