<?xml version='1.0' encoding='utf-8'?>
<svg xmlns="http://www.w3.org/2000/svg" xmlns:xlink="http://www.w3.org/1999/xlink" width="75" height="90" viewBox="0 0 75 90" fill="none">
<g id="hamburger">
<g id="hamburger_inactive">
<!-- <path class="bg" d="M18.7041 7.47345C25.1792 1.85984 43.2502 7.09965 51.4766 10.4217L64.9346 22.035L75.1152 11.1219L92.3437 6.35431L106.094 8.07989L117.679 16.3396L123.991 25.1024L130.154 16.7087L142.207 9.14923C147.254 8.8588 158.26 8.56883 161.906 9.73224C165.552 10.8958 172.899 15.775 176.117 18.0691L183.087 26.8513L183.373 26.4461L184.028 27.9539L184.054 28.0134L186.563 44.5779L186.578 44.6716L186.557 44.7634L184.057 55.7634L184.053 55.783L184.047 55.8025L182.602 60.4246L182.111 59.8074L178.652 65.6423C175.304 67.7424 167.152 72.295 161.327 73.7058C155.502 75.1167 147.055 74.8221 143.56 74.4988L128.672 66.8015L123.055 56.74L118.244 63.8543L111.482 70.2507C107.072 71.2197 96.414 73.1042 89.0596 72.8866C81.7056 72.6688 75.5937 68.9686 73.457 67.1462L63.9199 56.3093L59.8047 62.1248L45.7226 71.6033C41.0936 72.5658 28.8432 73.4789 16.8711 69.4305C4.89851 65.3819 0.63492 48.0591 0 39.9041L2.45801 23.4851C5.17551 20.487 12.229 13.0871 18.7041 7.47345Z" fill="#FF7700" /> -->
<g class="bg">
<path d="M23.704,2.473C30.179,-3.14 48.25,2.1 56.477,5.422L69.935,17.035C70.287,20.188 71.197,31.47 71.428,33.759L70.015,44.785C69.688,47.203 66.463,51.074 65.7,52.636C65.332,53.389 65.26,52.484 64.935,51.74L50.723,66.603C46.094,67.566 33.843,68.479 21.871,64.43C9.899,60.382 5.635,43.059 5,34.904L7.458,18.485C10.176,15.487 17.229,8.087 23.704,2.473Z" fill="#965F29" transform="matrix(1,0,0,1,-5,4.78649)" />
<path d="M23.704,2.473C30.179,-3.14 48.25,2.1 56.477,5.422L69.935,17.035C70.287,20.188 71.197,31.47 71.428,33.759L70.015,44.785C69.688,47.203 66.463,51.074 65.7,52.636C65.332,53.389 65.26,52.484 64.935,51.74L50.723,66.603C46.094,67.566 33.843,68.479 21.871,64.43C9.899,60.382 5.635,43.059 5,34.904L7.458,18.485C10.176,15.487 17.229,8.087 23.704,2.473Z" fill-opacity="0.5" />
</g>
<g class="fg">
<g id="cardboard">
<path d="M23.704,2.473C30.179,-3.14 48.25,2.1 56.477,5.422L69.935,17.035C70.287,20.188 71.197,31.47 71.428,33.759L70.015,44.785C69.688,47.203 66.463,51.074 65.7,52.636C65.332,53.389 65.26,52.484 64.935,51.74L50.723,66.603C46.094,67.566 33.843,68.479 21.871,64.43C9.899,60.382 5.635,43.059 5,34.904L7.458,18.485C10.176,15.487 17.229,8.087 23.704,2.473Z" fill="var(--c-section, var(--c-about))"/>
<!-- <path d="M23.7041 2.47345C30.1792 -3.14016 48.2502 2.09965 56.4766 5.42169L69.9346 17.035L80.1152 6.12189L97.3437 1.35431L111.094 3.07989L122.679 11.3396L128.991 20.1024L135.154 11.7087L147.207 4.14923C152.254 3.8588 163.26 3.56883 166.906 4.73224C170.552 5.89583 177.899 10.775 181.117 13.0691L188.087 21.8513L188.373 21.4461L189.028 22.9539L189.054 23.0134L191.563 39.5779L191.578 39.6716L191.557 39.7634L189.057 50.7634L189.053 50.783L189.047 50.8025L187.602 55.4246L187.111 54.8074L183.652 60.6423C180.304 62.7424 172.152 67.295 166.327 68.7058C160.502 70.1167 152.055 69.8221 148.56 69.4988L133.672 61.8015L128.055 51.74L123.244 58.8543L116.482 65.2507C112.072 66.2197 101.414 68.1042 94.0596 67.8866C86.7056 67.6688 80.5937 63.9686 78.457 62.1462L68.9199 51.3093L64.8047 57.1248L50.7226 66.6033C46.0936 67.5658 33.8432 68.4789 21.8711 64.4305C9.89851 60.3819 5.63492 43.0591 5 34.9041L7.45801 18.4851C10.1755 15.487 17.229 8.0871 23.7041 2.47345Z" fill="#965F29" /> -->
<!-- <path d="M23.7041 2.47345C30.1792 -3.14016 48.2502 2.09965 56.4766 5.42169L69.9346 17.035L80.1152 6.12189L97.3437 1.35431L111.094 3.07989L122.679 11.3396L128.991 20.1024L135.154 11.7087L147.207 4.14923C152.254 3.8588 163.26 3.56883 166.906 4.73224C170.552 5.89583 177.899 10.775 181.117 13.0691L188.087 21.8513L188.373 21.4461L189.028 22.9539L189.054 23.0134L191.563 39.5779L191.578 39.6716L191.557 39.7634L189.057 50.7634L189.053 50.783L189.047 50.8025L187.602 55.4246L187.111 54.8074L183.652 60.6423C180.304 62.7424 172.152 67.295 166.327 68.7058C160.502 70.1167 152.055 69.8221 148.56 69.4988L133.672 61.8015L128.055 51.74L123.244 58.8543L116.482 65.2507C112.072 66.2197 101.414 68.1042 94.0596 67.8866C86.7056 67.6688 80.5937 63.9686 78.457 62.1462L68.9199 51.3093L64.8047 57.1248L50.7226 66.6033C46.0936 67.5658 33.8432 68.4789 21.8711 64.4305C9.89851 60.3819 5.63492 43.0591 5 34.9041L7.45801 18.4851C10.1755 15.487 17.229 8.0871 23.7041 2.47345Z" fill="url(#pattern0_46_1268)" fill-opacity="0.5" /> -->
</g>
    <g id="hamburger_text">
        <path d="M55,24C55,25.104 54.104,26 53,26L25,26C23.896,26 23,25.104 23,24C23,22.896 23.896,22 25,22L53,22C54.104,22 55,22.896 55,24Z" style="fill:rgb(255,253,243);"/>
        <path d="M55,33C55,34.104 54.104,35 53,35L25,35C23.896,35 23,34.104 23,33C23,31.896 23.896,31 25,31L53,31C54.104,31 55,31.896 55,33Z" style="fill:rgb(255,253,243);"/>
        <path d="M55,42C55,43.104 54.104,44 53,44L25,44C23.896,44 23,43.104 23,42C23,40.896 23.896,40 25,40L53,40C54.104,40 55,40.896 55,42Z" style="fill:rgb(255,253,243);"/>
    </g>
<!-- <path id="hamburger_text" d="M70.648 43V40.48L70.408 39.928V35.416C70.408 34.616 70.16 33.992 69.664 33.544C69.184 33.096 68.44 32.872 67.432 32.872C66.744 32.872 66.064 32.984 65.392 33.208C64.736 33.416 64.176 33.704 63.712 34.072L62.368 31.456C63.072 30.96 63.92 30.576 64.912 30.304C65.904 30.032 66.912 29.896 67.936 29.896C69.904 29.896 71.432 30.36 72.52 31.288C73.608 32.216 74.152 33.664 74.152 35.632V43H70.648ZM66.712 43.192C65.704 43.192 64.84 43.024 64.12 42.688C63.4 42.336 62.848 41.864 62.464 41.272C62.08 40.68 61.888 40.016 61.888 39.28C61.888 38.512 62.072 37.84 62.44 37.264C62.824 36.688 63.424 36.24 64.24 35.92C65.056 35.584 66.12 35.416 67.432 35.416H70.864V37.6H67.84C66.96 37.6 66.352 37.744 66.016 38.032C65.696 38.32 65.536 38.68 65.536 39.112C65.536 39.592 65.72 39.976 66.088 40.264C66.472 40.536 66.992 40.672 67.648 40.672C68.272 40.672 68.832 40.528 69.328 40.24C69.824 39.936 70.184 39.496 70.408 38.92L70.984 40.648C70.712 41.48 70.216 42.112 69.496 42.544C68.776 42.976 67.848 43.192 66.712 43.192ZM85.1725 43.192C84.0365 43.192 83.0605 42.952 82.2445 42.472C81.4285 41.992 80.8045 41.264 80.3725 40.288C79.9405 39.296 79.7245 38.048 79.7245 36.544C79.7245 35.024 79.9485 33.776 80.3965 32.8C80.8605 31.824 81.5005 31.096 82.3165 30.616C83.1325 30.136 84.0845 29.896 85.1725 29.896C86.3885 29.896 87.4765 30.168 88.4365 30.712C89.4125 31.256 90.1805 32.024 90.7405 33.016C91.3165 34.008 91.6045 35.184 91.6045 36.544C91.6045 37.888 91.3165 39.056 90.7405 40.048C90.1805 41.04 89.4125 41.816 88.4365 42.376C87.4765 42.92 86.3885 43.192 85.1725 43.192ZM77.5405 43V25.192H81.2845V32.704L81.0445 36.52L81.1165 40.36V43H77.5405ZM84.5245 40.12C85.1485 40.12 85.7005 39.976 86.1805 39.688C86.6765 39.4 87.0685 38.992 87.3565 38.464C87.6605 37.92 87.8125 37.28 87.8125 36.544C87.8125 35.792 87.6605 35.152 87.3565 34.624C87.0685 34.096 86.6765 33.688 86.1805 33.4C85.7005 33.112 85.1485 32.968 84.5245 32.968C83.9005 32.968 83.3405 33.112 82.8445 33.4C82.3485 33.688 81.9565 34.096 81.6685 34.624C81.3805 35.152 81.2365 35.792 81.2365 36.544C81.2365 37.28 81.3805 37.92 81.6685 38.464C81.9565 38.992 82.3485 39.4 82.8445 39.688C83.3405 39.976 83.9005 40.12 84.5245 40.12ZM100.255 43.192C98.8788 43.192 97.6548 42.904 96.5828 42.328C95.5268 41.752 94.6868 40.968 94.0628 39.976C93.4548 38.968 93.1508 37.824 93.1508 36.544C93.1508 35.248 93.4548 34.104 94.0628 33.112C94.6868 32.104 95.5268 31.32 96.5828 30.76C97.6548 30.184 98.8788 29.896 100.255 29.896C101.615 29.896 102.831 30.184 103.903 30.76C104.975 31.32 105.815 32.096 106.423 33.088C107.031 34.08 107.335 35.232 107.335 36.544C107.335 37.824 107.031 38.968 106.423 39.976C105.815 40.968 104.975 41.752 103.903 42.328C102.831 42.904 101.615 43.192 100.255 43.192ZM100.255 40.12C100.879 40.12 101.439 39.976 101.935 39.688C102.431 39.4 102.823 38.992 103.111 38.464C103.399 37.92 103.543 37.28 103.543 36.544C103.543 35.792 103.399 35.152 103.111 34.624C102.823 34.096 102.431 33.688 101.935 33.4C101.439 33.112 100.879 32.968 100.255 32.968C99.6308 32.968 99.0708 33.112 98.5748 33.4C98.0788 33.688 97.6788 34.096 97.3748 34.624C97.0868 35.152 96.9428 35.792 96.9428 36.544C96.9428 37.28 97.0868 37.92 97.3748 38.464C97.6788 38.992 98.0788 39.4 98.5748 39.688C99.0708 39.976 99.6308 40.12 100.255 40.12ZM115.285 43.192C114.213 43.192 113.253 42.984 112.405 42.568C111.573 42.152 110.925 41.52 110.461 40.672C109.997 39.808 109.765 38.712 109.765 37.384V30.088H113.509V36.832C113.509 37.904 113.733 38.696 114.181 39.208C114.645 39.704 115.293 39.952 116.125 39.952C116.701 39.952 117.213 39.832 117.661 39.592C118.109 39.336 118.461 38.952 118.717 38.44C118.973 37.912 119.101 37.256 119.101 36.472V30.088H122.845V43H119.293V39.448L119.941 40.48C119.509 41.376 118.869 42.056 118.021 42.52C117.189 42.968 116.277 43.192 115.285 43.192ZM131.594 43.192C130.074 43.192 128.89 42.808 128.042 42.04C127.194 41.256 126.77 40.096 126.77 38.56V27.232H130.514V38.512C130.514 39.056 130.658 39.48 130.946 39.784C131.234 40.072 131.626 40.216 132.122 40.216C132.714 40.216 133.218 40.056 133.634 39.736L134.642 42.376C134.258 42.648 133.794 42.856 133.25 43C132.722 43.128 132.17 43.192 131.594 43.192ZM124.778 33.256V30.376H133.73V33.256H124.778Z" fill="#FFFDF3" /> -->
</g>
</g>
<g id="hamburger_active">
<g class="bg" transform="matrix(1,0,0,1,-5,4.78649)">>
<path d="M23.704,2.473C30.179,-3.14 48.25,2.1 56.477,5.422L69.935,17.035C70.287,20.188 71.197,31.47 71.428,33.759L70.015,44.785C69.688,47.203 66.463,51.074 65.7,52.636C65.332,53.389 65.26,52.484 64.935,51.74L50.723,66.603C46.094,67.566 33.843,68.479 21.871,64.43C9.899,60.382 5.635,43.059 5,34.904L7.458,18.485C10.176,15.487 17.229,8.087 23.704,2.473Z" fill="#965F29" />
<path d="M23.704,2.473C30.179,-3.14 48.25,2.1 56.477,5.422L69.935,17.035C70.287,20.188 71.197,31.47 71.428,33.759L70.015,44.785C69.688,47.203 66.463,51.074 65.7,52.636C65.332,53.389 65.26,52.484 64.935,51.74L50.723,66.603C46.094,67.566 33.843,68.479 21.871,64.43C9.899,60.382 5.635,43.059 5,34.904L7.458,18.485C10.176,15.487 17.229,8.087 23.704,2.473Z" fill="url(#pattern1_46_1268)" fill-opacity="0.5" />
<!-- <path d="M18.7041 7.47345C25.1792 1.85984 43.2502 7.09965 51.4766 10.4217L64.9346 22.035L75.1152 11.1219L92.3437 6.35431L106.094 8.07989L117.679 16.3396L123.991 25.1024L130.154 16.7087L142.207 9.14923C147.254 8.8588 158.26 8.56883 161.906 9.73224C165.552 10.8958 172.899 15.775 176.117 18.0691L183.087 26.8513L183.373 26.4461L184.028 27.9539L184.054 28.0134L186.563 44.5779L186.578 44.6716L186.557 44.7634L184.057 55.7634L184.053 55.783L184.047 55.8025L182.602 60.4246L182.111 59.8074L178.652 65.6423C175.304 67.7424 167.152 72.295 161.327 73.7058C155.502 75.1167 147.055 74.8221 143.56 74.4988L128.672 66.8015L123.055 56.74L118.244 63.8543L111.482 70.2507C107.072 71.2197 96.414 73.1042 89.0596 72.8866C81.7056 72.6688 75.5937 68.9686 73.457 67.1462L63.9199 56.3093L59.8047 62.1248L45.7226 71.6033C41.0936 72.5658 28.8432 73.4789 16.8711 69.4305C4.89851 65.3819 0.63492 48.0591 0 39.9041L2.45801 23.4851C5.17551 20.487 12.229 13.0871 18.7041 7.47345Z" fill="#965F29" />
<path d="M18.7041 7.47345C25.1792 1.85984 43.2502 7.09965 51.4766 10.4217L64.9346 22.035L75.1152 11.1219L92.3437 6.35431L106.094 8.07989L117.679 16.3396L123.991 25.1024L130.154 16.7087L142.207 9.14923C147.254 8.8588 158.26 8.56883 161.906 9.73224C165.552 10.8958 172.899 15.775 176.117 18.0691L183.087 26.8513L183.373 26.4461L184.028 27.9539L184.054 28.0134L186.563 44.5779L186.578 44.6716L186.557 44.7634L184.057 55.7634L184.053 55.783L184.047 55.8025L182.602 60.4246L182.111 59.8074L178.652 65.6423C175.304 67.7424 167.152 72.295 161.327 73.7058C155.502 75.1167 147.055 74.8221 143.56 74.4988L128.672 66.8015L123.055 56.74L118.244 63.8543L111.482 70.2507C107.072 71.2197 96.414 73.1042 89.0596 72.8866C81.7056 72.6688 75.5937 68.9686 73.457 67.1462L63.9199 56.3093L59.8047 62.1248L45.7226 71.6033C41.0936 72.5658 28.8432 73.4789 16.8711 69.4305C4.89851 65.3819 0.63492 48.0591 0 39.9041L2.45801 23.4851C5.17551 20.487 12.229 13.0871 18.7041 7.47345Z" fill="url(#pattern1_46_1268)" fill-opacity="0.5" /> -->
</g>
<g class="fg">
<path id="paper" d="M23.704,2.473C30.179,-3.14 48.25,2.1 56.477,5.422L69.935,17.035C70.287,20.188 71.197,31.47 71.428,33.759L70.015,44.785C69.688,47.203 66.463,51.074 65.7,52.636C65.332,53.389 65.26,52.484 64.935,51.74L50.723,66.603C46.094,67.566 33.843,68.479 21.871,64.43C9.899,60.382 5.635,43.059 5,34.904L7.458,18.485C10.176,15.487 17.229,8.087 23.704,2.473Z" fill="var(--c-section, var(--c-about))" />
    <g id="hamburger_text">
        <path d="M55,24C55,25.104 54.104,26 53,26L25,26C23.896,26 23,25.104 23,24C23,22.896 23.896,22 25,22L53,22C54.104,22 55,22.896 55,24Z" style="fill:rgb(255,253,243);"/>
        <path d="M55,33C55,34.104 54.104,35 53,35L25,35C23.896,35 23,34.104 23,33C23,31.896 23.896,31 25,31L53,31C54.104,31 55,31.896 55,33Z" style="fill:rgb(255,253,243);"/>
        <path d="M55,42C55,43.104 54.104,44 53,44L25,44C23.896,44 23,43.104 23,42C23,40.896 23.896,40 25,40L53,40C54.104,40 55,40.896 55,42Z" style="fill:rgb(255,253,243);"/>
    </g>

<!-- <path id="paper" d="M23.7041 2.47345C30.1792 -3.14016 48.2502 2.09965 56.4766 5.42169L69.9346 17.035L80.1152 6.12189L97.3437 1.35431L111.094 3.07989L122.679 11.3396L128.991 20.1024L135.154 11.7087L147.207 4.14923C152.254 3.8588 163.26 3.56883 166.906 4.73224C170.552 5.89583 177.899 10.775 181.117 13.0691L188.087 21.8513L188.373 21.4461L189.028 22.9539L189.054 23.0134L191.563 39.5779L191.578 39.6716L191.557 39.7634L189.057 50.7634L189.053 50.783L189.047 50.8025L187.602 55.4246L187.111 54.8074L183.652 60.6423C180.304 62.7424 172.152 67.295 166.327 68.7058C160.502 70.1167 152.055 69.8221 148.56 69.4988L133.672 61.8015L128.055 51.74L123.244 58.8543L116.482 65.2507C112.072 66.2197 101.414 68.1042 94.0596 67.8866C86.7056 67.6688 80.5937 63.9686 78.457 62.1462L68.9199 51.3093L64.8047 57.1248L50.7226 66.6033C46.0936 67.5658 33.8432 68.4789 21.8711 64.4305C9.89851 60.3819 5.63492 43.0591 5 34.9041L7.45801 18.4851C10.1755 15.487 17.229 8.0871 23.7041 2.47345Z" fill="#FF7700" /> -->
<!-- <path id="hamburger_text_2" d="M70.648 43V40.48L70.408 39.928V35.416C70.408 34.616 70.16 33.992 69.664 33.544C69.184 33.096 68.44 32.872 67.432 32.872C66.744 32.872 66.064 32.984 65.392 33.208C64.736 33.416 64.176 33.704 63.712 34.072L62.368 31.456C63.072 30.96 63.92 30.576 64.912 30.304C65.904 30.032 66.912 29.896 67.936 29.896C69.904 29.896 71.432 30.36 72.52 31.288C73.608 32.216 74.152 33.664 74.152 35.632V43H70.648ZM66.712 43.192C65.704 43.192 64.84 43.024 64.12 42.688C63.4 42.336 62.848 41.864 62.464 41.272C62.08 40.68 61.888 40.016 61.888 39.28C61.888 38.512 62.072 37.84 62.44 37.264C62.824 36.688 63.424 36.24 64.24 35.92C65.056 35.584 66.12 35.416 67.432 35.416H70.864V37.6H67.84C66.96 37.6 66.352 37.744 66.016 38.032C65.696 38.32 65.536 38.68 65.536 39.112C65.536 39.592 65.72 39.976 66.088 40.264C66.472 40.536 66.992 40.672 67.648 40.672C68.272 40.672 68.832 40.528 69.328 40.24C69.824 39.936 70.184 39.496 70.408 38.92L70.984 40.648C70.712 41.48 70.216 42.112 69.496 42.544C68.776 42.976 67.848 43.192 66.712 43.192ZM85.1725 43.192C84.0365 43.192 83.0605 42.952 82.2445 42.472C81.4285 41.992 80.8045 41.264 80.3725 40.288C79.9405 39.296 79.7245 38.048 79.7245 36.544C79.7245 35.024 79.9485 33.776 80.3965 32.8C80.8605 31.824 81.5005 31.096 82.3165 30.616C83.1325 30.136 84.0845 29.896 85.1725 29.896C86.3885 29.896 87.4765 30.168 88.4365 30.712C89.4125 31.256 90.1805 32.024 90.7405 33.016C91.3165 34.008 91.6045 35.184 91.6045 36.544C91.6045 37.888 91.3165 39.056 90.7405 40.048C90.1805 41.04 89.4125 41.816 88.4365 42.376C87.4765 42.92 86.3885 43.192 85.1725 43.192ZM77.5405 43V25.192H81.2845V32.704L81.0445 36.52L81.1165 40.36V43H77.5405ZM84.5245 40.12C85.1485 40.12 85.7005 39.976 86.1805 39.688C86.6765 39.4 87.0685 38.992 87.3565 38.464C87.6605 37.92 87.8125 37.28 87.8125 36.544C87.8125 35.792 87.6605 35.152 87.3565 34.624C87.0685 34.096 86.6765 33.688 86.1805 33.4C85.7005 33.112 85.1485 32.968 84.5245 32.968C83.9005 32.968 83.3405 33.112 82.8445 33.4C82.3485 33.688 81.9565 34.096 81.6685 34.624C81.3805 35.152 81.2365 35.792 81.2365 36.544C81.2365 37.28 81.3805 37.92 81.6685 38.464C81.9565 38.992 82.3485 39.4 82.8445 39.688C83.3405 39.976 83.9005 40.12 84.5245 40.12ZM100.255 43.192C98.8788 43.192 97.6548 42.904 96.5828 42.328C95.5268 41.752 94.6868 40.968 94.0628 39.976C93.4548 38.968 93.1508 37.824 93.1508 36.544C93.1508 35.248 93.4548 34.104 94.0628 33.112C94.6868 32.104 95.5268 31.32 96.5828 30.76C97.6548 30.184 98.8788 29.896 100.255 29.896C101.615 29.896 102.831 30.184 103.903 30.76C104.975 31.32 105.815 32.096 106.423 33.088C107.031 34.08 107.335 35.232 107.335 36.544C107.335 37.824 107.031 38.968 106.423 39.976C105.815 40.968 104.975 41.752 103.903 42.328C102.831 42.904 101.615 43.192 100.255 43.192ZM100.255 40.12C100.879 40.12 101.439 39.976 101.935 39.688C102.431 39.4 102.823 38.992 103.111 38.464C103.399 37.92 103.543 37.28 103.543 36.544C103.543 35.792 103.399 35.152 103.111 34.624C102.823 34.096 102.431 33.688 101.935 33.4C101.439 33.112 100.879 32.968 100.255 32.968C99.6308 32.968 99.0708 33.112 98.5748 33.4C98.0788 33.688 97.6788 34.096 97.3748 34.624C97.0868 35.152 96.9428 35.792 96.9428 36.544C96.9428 37.28 97.0868 37.92 97.3748 38.464C97.6788 38.992 98.0788 39.4 98.5748 39.688C99.0708 39.976 99.6308 40.12 100.255 40.12ZM115.285 43.192C114.213 43.192 113.253 42.984 112.405 42.568C111.573 42.152 110.925 41.52 110.461 40.672C109.997 39.808 109.765 38.712 109.765 37.384V30.088H113.509V36.832C113.509 37.904 113.733 38.696 114.181 39.208C114.645 39.704 115.293 39.952 116.125 39.952C116.701 39.952 117.213 39.832 117.661 39.592C118.109 39.336 118.461 38.952 118.717 38.44C118.973 37.912 119.101 37.256 119.101 36.472V30.088H122.845V43H119.293V39.448L119.941 40.48C119.509 41.376 118.869 42.056 118.021 42.52C117.189 42.968 116.277 43.192 115.285 43.192ZM131.594 43.192C130.074 43.192 128.89 42.808 128.042 42.04C127.194 41.256 126.77 40.096 126.77 38.56V27.232H130.514V38.512C130.514 39.056 130.658 39.48 130.946 39.784C131.234 40.072 131.626 40.216 132.122 40.216C132.714 40.216 133.218 40.056 133.634 39.736L134.642 42.376C134.258 42.648 133.794 42.856 133.25 43C132.722 43.128 132.17 43.192 131.594 43.192ZM124.778 33.256V30.376H133.73V33.256H124.778Z" fill="#FFFDF3" /> -->
</g>
</g>
</g>
<defs>
  <pattern id="cardboard_tile_hamburger" 
           patternUnits="userSpaceOnUse" 
           width="100" height="100" 
           viewBox="0 0 100 100">
    <image xlink:href="/assets/images/shapes/cardboard_texture.jpg" 
           x="0" y="0" 
           width="100" height="100" 
           preserveAspectRatio="xMidYMid slice" />
  </pattern>

  <pattern id="pattern0_46_hamburger" xlink:href="#cardboard_tile_hamburger" />
  <pattern id="pattern1_46_hamburger" xlink:href="#cardboard_tile_hamburger" />
</defs>
</svg>