<?xml version='1.0' encoding='utf-8'?>
<svg xmlns="http://www.w3.org/2000/svg" xmlns:xlink="http://www.w3.org/1999/xlink" width="187" height="92" viewBox="0 0 187 92" fill="none">
<g id="projects">
<g id="projects_inactive">
<path class="bg" d="M0 67.8625L22.75 7.72847L60.5236 36.0774L78.9811 12.0265L115.279 32.2143L152.382 5L182 25.7687V88.9094L141.651 69.5803L115.279 88.9094L87.1368 73.0196L66.9446 92L0 67.8625Z" fill="#F7AD00" />
<g class="fg">
<g class="cardboard">
<path d="M5 62.8625L27.75 2.72847L65.5236 31.0774L83.9811 7.0265L120.279 27.2143L157.382 0L187 20.7687V83.9094L146.651 64.5803L120.279 83.9094L92.1368 68.0196L71.9446 87L5 62.8625Z" fill="#965F29" />
<path d="M5 62.8625L27.75 2.72847L65.5236 31.0774L83.9811 7.0265L120.279 27.2143L157.382 0L187 20.7687V83.9094L146.651 64.5803L120.279 83.9094L92.1368 68.0196L71.9446 87L5 62.8625Z" fill="url(#pattern0_46_1278)" fill-opacity="0.5" />
</g>
<path id="projects_2" d="M56.36 54.192C55.272 54.192 54.32 53.952 53.504 53.472C52.688 52.992 52.048 52.264 51.584 51.288C51.136 50.296 50.912 49.048 50.912 47.544C50.912 46.024 51.128 44.776 51.56 43.8C51.992 42.824 52.616 42.096 53.432 41.616C54.248 41.136 55.224 40.896 56.36 40.896C57.576 40.896 58.664 41.176 59.624 41.736C60.6 42.28 61.368 43.048 61.928 44.04C62.504 45.032 62.792 46.2 62.792 47.544C62.792 48.904 62.504 50.08 61.928 51.072C61.368 52.064 60.6 52.832 59.624 53.376C58.664 53.92 57.576 54.192 56.36 54.192ZM48.728 58.656V41.088H52.304V43.728L52.232 47.568L52.472 51.384V58.656H48.728ZM55.712 51.12C56.336 51.12 56.888 50.976 57.368 50.688C57.864 50.4 58.256 49.992 58.544 49.464C58.848 48.92 59 48.28 59 47.544C59 46.792 58.848 46.152 58.544 45.624C58.256 45.096 57.864 44.688 57.368 44.4C56.888 44.112 56.336 43.968 55.712 43.968C55.088 43.968 54.528 44.112 54.032 44.4C53.536 44.688 53.144 45.096 52.856 45.624C52.568 46.152 52.424 46.792 52.424 47.544C52.424 48.28 52.568 48.92 52.856 49.464C53.144 49.992 53.536 50.4 54.032 50.688C54.528 50.976 55.088 51.12 55.712 51.12ZM65.2983 54V41.088H68.8743V44.736L68.3703 43.68C68.7543 42.768 69.3703 42.08 70.2183 41.616C71.0663 41.136 72.0983 40.896 73.3143 40.896V44.352C73.1543 44.336 73.0103 44.328 72.8823 44.328C72.7543 44.312 72.6183 44.304 72.4743 44.304C71.4503 44.304 70.6183 44.6 69.9783 45.192C69.3543 45.768 69.0423 46.672 69.0423 47.904V54H65.2983ZM81.5908 54.192C80.2148 54.192 78.9908 53.904 77.9188 53.328C76.8628 52.752 76.0228 51.968 75.3988 50.976C74.7908 49.968 74.4868 48.824 74.4868 47.544C74.4868 46.248 74.7908 45.104 75.3988 44.112C76.0228 43.104 76.8628 42.32 77.9188 41.76C78.9908 41.184 80.2148 40.896 81.5908 40.896C82.9508 40.896 84.1668 41.184 85.2388 41.76C86.3108 42.32 87.1508 43.096 87.7588 44.088C88.3668 45.08 88.6708 46.232 88.6708 47.544C88.6708 48.824 88.3668 49.968 87.7588 50.976C87.1508 51.968 86.3108 52.752 85.2388 53.328C84.1668 53.904 82.9508 54.192 81.5908 54.192ZM81.5908 51.12C82.2148 51.12 82.7748 50.976 83.2708 50.688C83.7668 50.4 84.1588 49.992 84.4468 49.464C84.7348 48.92 84.8788 48.28 84.8788 47.544C84.8788 46.792 84.7348 46.152 84.4468 45.624C84.1588 45.096 83.7668 44.688 83.2708 44.4C82.7748 44.112 82.2148 43.968 81.5908 43.968C80.9668 43.968 80.4068 44.112 79.9108 44.4C79.4148 44.688 79.0148 45.096 78.7108 45.624C78.4228 46.152 78.2788 46.792 78.2788 47.544C78.2788 48.28 78.4228 48.92 78.7108 49.464C79.0148 49.992 79.4148 50.4 79.9108 50.688C80.4068 50.976 80.9668 51.12 81.5908 51.12ZM90.2133 58.848C89.6373 58.848 89.0853 58.784 88.5573 58.656C88.0293 58.544 87.5813 58.368 87.2133 58.128L88.2213 55.416C88.6533 55.72 89.1813 55.872 89.8053 55.872C90.2693 55.872 90.6373 55.712 90.9093 55.392C91.1973 55.088 91.3413 54.624 91.3413 54V41.088H95.0853V53.976C95.0853 55.464 94.6613 56.648 93.8133 57.528C92.9653 58.408 91.7653 58.848 90.2133 58.848ZM93.2133 39.288C92.5253 39.288 91.9653 39.088 91.5333 38.688C91.1013 38.288 90.8853 37.792 90.8853 37.2C90.8853 36.608 91.1013 36.112 91.5333 35.712C91.9653 35.312 92.5253 35.112 93.2133 35.112C93.9013 35.112 94.4613 35.304 94.8933 35.688C95.3253 36.056 95.5413 36.536 95.5413 37.128C95.5413 37.752 95.3253 38.272 94.8933 38.688C94.4773 39.088 93.9173 39.288 93.2133 39.288ZM104.941 54.192C103.469 54.192 102.173 53.904 101.053 53.328C99.9487 52.752 99.0927 51.968 98.4847 50.976C97.8767 49.968 97.5727 48.824 97.5727 47.544C97.5727 46.248 97.8687 45.104 98.4607 44.112C99.0687 43.104 99.8927 42.32 100.933 41.76C101.973 41.184 103.149 40.896 104.461 40.896C105.725 40.896 106.861 41.168 107.869 41.712C108.893 42.24 109.701 43.008 110.293 44.016C110.885 45.008 111.181 46.2 111.181 47.592C111.181 47.736 111.173 47.904 111.157 48.096C111.141 48.272 111.125 48.44 111.109 48.6H100.621V46.416H109.141L107.701 47.064C107.701 46.392 107.565 45.808 107.293 45.312C107.021 44.816 106.645 44.432 106.165 44.16C105.685 43.872 105.125 43.728 104.485 43.728C103.845 43.728 103.277 43.872 102.781 44.16C102.301 44.432 101.925 44.824 101.653 45.336C101.381 45.832 101.245 46.424 101.245 47.112V47.688C101.245 48.392 101.397 49.016 101.701 49.56C102.021 50.088 102.461 50.496 103.021 50.784C103.597 51.056 104.269 51.192 105.037 51.192C105.725 51.192 106.325 51.088 106.837 50.88C107.365 50.672 107.845 50.36 108.277 49.944L110.269 52.104C109.677 52.776 108.933 53.296 108.037 53.664C107.141 54.016 106.109 54.192 104.941 54.192ZM119.913 54.192C118.521 54.192 117.281 53.912 116.193 53.352C115.105 52.776 114.249 51.984 113.625 50.976C113.017 49.968 112.713 48.824 112.713 47.544C112.713 46.248 113.017 45.104 113.625 44.112C114.249 43.104 115.105 42.32 116.193 41.76C117.281 41.184 118.521 40.896 119.913 40.896C121.273 40.896 122.457 41.184 123.465 41.76C124.473 42.32 125.217 43.128 125.697 44.184L122.793 45.744C122.457 45.136 122.033 44.688 121.521 44.4C121.025 44.112 120.481 43.968 119.889 43.968C119.249 43.968 118.673 44.112 118.161 44.4C117.649 44.688 117.241 45.096 116.937 45.624C116.649 46.152 116.505 46.792 116.505 47.544C116.505 48.296 116.649 48.936 116.937 49.464C117.241 49.992 117.649 50.4 118.161 50.688C118.673 50.976 119.249 51.12 119.889 51.12C120.481 51.12 121.025 50.984 121.521 50.712C122.033 50.424 122.457 49.968 122.793 49.344L125.697 50.928C125.217 51.968 124.473 52.776 123.465 53.352C122.457 53.912 121.273 54.192 119.913 54.192ZM133.321 54.192C131.801 54.192 130.617 53.808 129.769 53.04C128.921 52.256 128.497 51.096 128.497 49.56V38.232H132.241V49.512C132.241 50.056 132.385 50.48 132.673 50.784C132.961 51.072 133.353 51.216 133.849 51.216C134.441 51.216 134.945 51.056 135.361 50.736L136.369 53.376C135.985 53.648 135.521 53.856 134.977 54C134.449 54.128 133.897 54.192 133.321 54.192ZM126.505 44.256V41.376H135.457V44.256H126.505ZM142.814 54.192C141.71 54.192 140.646 54.064 139.622 53.808C138.614 53.536 137.814 53.2 137.222 52.8L138.47 50.112C139.062 50.48 139.758 50.784 140.558 51.024C141.374 51.248 142.174 51.36 142.958 51.36C143.822 51.36 144.43 51.256 144.782 51.048C145.15 50.84 145.334 50.552 145.334 50.184C145.334 49.88 145.19 49.656 144.902 49.512C144.63 49.352 144.262 49.232 143.798 49.152C143.334 49.072 142.822 48.992 142.262 48.912C141.718 48.832 141.166 48.728 140.606 48.6C140.046 48.456 139.534 48.248 139.07 47.976C138.606 47.704 138.23 47.336 137.942 46.872C137.67 46.408 137.534 45.808 137.534 45.072C137.534 44.256 137.766 43.536 138.23 42.912C138.71 42.288 139.398 41.8 140.294 41.448C141.19 41.08 142.262 40.896 143.51 40.896C144.39 40.896 145.286 40.992 146.198 41.184C147.11 41.376 147.87 41.656 148.478 42.024L147.23 44.688C146.606 44.32 145.974 44.072 145.334 43.944C144.71 43.8 144.102 43.728 143.51 43.728C142.678 43.728 142.07 43.84 141.686 44.064C141.302 44.288 141.11 44.576 141.11 44.928C141.11 45.248 141.246 45.488 141.518 45.648C141.806 45.808 142.182 45.936 142.646 46.032C143.11 46.128 143.614 46.216 144.158 46.296C144.718 46.36 145.278 46.464 145.838 46.608C146.398 46.752 146.902 46.96 147.35 47.232C147.814 47.488 148.19 47.848 148.478 48.312C148.766 48.76 148.91 49.352 148.91 50.088C148.91 50.888 148.67 51.6 148.19 52.224C147.71 52.832 147.014 53.312 146.102 53.664C145.206 54.016 144.11 54.192 142.814 54.192Z" fill="#FFFDF3" />
</g>
</g>
<g id="projects_active">
<g class="bg">
<path d="M0 67.8625L22.75 7.72847L60.5236 36.0774L78.9811 12.0265L115.279 32.2143L152.382 5L182 25.7687V88.9094L141.651 69.5803L115.279 88.9094L87.1368 73.0196L66.9446 92L0 67.8625Z" fill="#965F29" />
<path d="M0 67.8625L22.75 7.72847L60.5236 36.0774L78.9811 12.0265L115.279 32.2143L152.382 5L182 25.7687V88.9094L141.651 69.5803L115.279 88.9094L87.1368 73.0196L66.9446 92L0 67.8625Z" fill="url(#pattern1_46_1278)" fill-opacity="0.5" />
</g>
<g class="fg">
<path id="paper" d="M5 62.8625L27.75 2.72847L65.5236 31.0774L83.9811 7.0265L120.279 27.2143L157.382 0L187 20.7687V83.9094L146.651 64.5803L120.279 83.9094L92.1368 68.0196L71.9446 87L5 62.8625Z" fill="#F7AD00" />
<path id="projects_3" d="M56.36 54.192C55.272 54.192 54.32 53.952 53.504 53.472C52.688 52.992 52.048 52.264 51.584 51.288C51.136 50.296 50.912 49.048 50.912 47.544C50.912 46.024 51.128 44.776 51.56 43.8C51.992 42.824 52.616 42.096 53.432 41.616C54.248 41.136 55.224 40.896 56.36 40.896C57.576 40.896 58.664 41.176 59.624 41.736C60.6 42.28 61.368 43.048 61.928 44.04C62.504 45.032 62.792 46.2 62.792 47.544C62.792 48.904 62.504 50.08 61.928 51.072C61.368 52.064 60.6 52.832 59.624 53.376C58.664 53.92 57.576 54.192 56.36 54.192ZM48.728 58.656V41.088H52.304V43.728L52.232 47.568L52.472 51.384V58.656H48.728ZM55.712 51.12C56.336 51.12 56.888 50.976 57.368 50.688C57.864 50.4 58.256 49.992 58.544 49.464C58.848 48.92 59 48.28 59 47.544C59 46.792 58.848 46.152 58.544 45.624C58.256 45.096 57.864 44.688 57.368 44.4C56.888 44.112 56.336 43.968 55.712 43.968C55.088 43.968 54.528 44.112 54.032 44.4C53.536 44.688 53.144 45.096 52.856 45.624C52.568 46.152 52.424 46.792 52.424 47.544C52.424 48.28 52.568 48.92 52.856 49.464C53.144 49.992 53.536 50.4 54.032 50.688C54.528 50.976 55.088 51.12 55.712 51.12ZM65.2983 54V41.088H68.8743V44.736L68.3703 43.68C68.7543 42.768 69.3703 42.08 70.2183 41.616C71.0663 41.136 72.0983 40.896 73.3143 40.896V44.352C73.1543 44.336 73.0103 44.328 72.8823 44.328C72.7543 44.312 72.6183 44.304 72.4743 44.304C71.4503 44.304 70.6183 44.6 69.9783 45.192C69.3543 45.768 69.0423 46.672 69.0423 47.904V54H65.2983ZM81.5908 54.192C80.2148 54.192 78.9908 53.904 77.9188 53.328C76.8628 52.752 76.0228 51.968 75.3988 50.976C74.7908 49.968 74.4868 48.824 74.4868 47.544C74.4868 46.248 74.7908 45.104 75.3988 44.112C76.0228 43.104 76.8628 42.32 77.9188 41.76C78.9908 41.184 80.2148 40.896 81.5908 40.896C82.9508 40.896 84.1668 41.184 85.2388 41.76C86.3108 42.32 87.1508 43.096 87.7588 44.088C88.3668 45.08 88.6708 46.232 88.6708 47.544C88.6708 48.824 88.3668 49.968 87.7588 50.976C87.1508 51.968 86.3108 52.752 85.2388 53.328C84.1668 53.904 82.9508 54.192 81.5908 54.192ZM81.5908 51.12C82.2148 51.12 82.7748 50.976 83.2708 50.688C83.7668 50.4 84.1588 49.992 84.4468 49.464C84.7348 48.92 84.8788 48.28 84.8788 47.544C84.8788 46.792 84.7348 46.152 84.4468 45.624C84.1588 45.096 83.7668 44.688 83.2708 44.4C82.7748 44.112 82.2148 43.968 81.5908 43.968C80.9668 43.968 80.4068 44.112 79.9108 44.4C79.4148 44.688 79.0148 45.096 78.7108 45.624C78.4228 46.152 78.2788 46.792 78.2788 47.544C78.2788 48.28 78.4228 48.92 78.7108 49.464C79.0148 49.992 79.4148 50.4 79.9108 50.688C80.4068 50.976 80.9668 51.12 81.5908 51.12ZM90.2133 58.848C89.6373 58.848 89.0853 58.784 88.5573 58.656C88.0293 58.544 87.5813 58.368 87.2133 58.128L88.2213 55.416C88.6533 55.72 89.1813 55.872 89.8053 55.872C90.2693 55.872 90.6373 55.712 90.9093 55.392C91.1973 55.088 91.3413 54.624 91.3413 54V41.088H95.0853V53.976C95.0853 55.464 94.6613 56.648 93.8133 57.528C92.9653 58.408 91.7653 58.848 90.2133 58.848ZM93.2133 39.288C92.5253 39.288 91.9653 39.088 91.5333 38.688C91.1013 38.288 90.8853 37.792 90.8853 37.2C90.8853 36.608 91.1013 36.112 91.5333 35.712C91.9653 35.312 92.5253 35.112 93.2133 35.112C93.9013 35.112 94.4613 35.304 94.8933 35.688C95.3253 36.056 95.5413 36.536 95.5413 37.128C95.5413 37.752 95.3253 38.272 94.8933 38.688C94.4773 39.088 93.9173 39.288 93.2133 39.288ZM104.941 54.192C103.469 54.192 102.173 53.904 101.053 53.328C99.9487 52.752 99.0927 51.968 98.4847 50.976C97.8767 49.968 97.5727 48.824 97.5727 47.544C97.5727 46.248 97.8687 45.104 98.4607 44.112C99.0687 43.104 99.8927 42.32 100.933 41.76C101.973 41.184 103.149 40.896 104.461 40.896C105.725 40.896 106.861 41.168 107.869 41.712C108.893 42.24 109.701 43.008 110.293 44.016C110.885 45.008 111.181 46.2 111.181 47.592C111.181 47.736 111.173 47.904 111.157 48.096C111.141 48.272 111.125 48.44 111.109 48.6H100.621V46.416H109.141L107.701 47.064C107.701 46.392 107.565 45.808 107.293 45.312C107.021 44.816 106.645 44.432 106.165 44.16C105.685 43.872 105.125 43.728 104.485 43.728C103.845 43.728 103.277 43.872 102.781 44.16C102.301 44.432 101.925 44.824 101.653 45.336C101.381 45.832 101.245 46.424 101.245 47.112V47.688C101.245 48.392 101.397 49.016 101.701 49.56C102.021 50.088 102.461 50.496 103.021 50.784C103.597 51.056 104.269 51.192 105.037 51.192C105.725 51.192 106.325 51.088 106.837 50.88C107.365 50.672 107.845 50.36 108.277 49.944L110.269 52.104C109.677 52.776 108.933 53.296 108.037 53.664C107.141 54.016 106.109 54.192 104.941 54.192ZM119.913 54.192C118.521 54.192 117.281 53.912 116.193 53.352C115.105 52.776 114.249 51.984 113.625 50.976C113.017 49.968 112.713 48.824 112.713 47.544C112.713 46.248 113.017 45.104 113.625 44.112C114.249 43.104 115.105 42.32 116.193 41.76C117.281 41.184 118.521 40.896 119.913 40.896C121.273 40.896 122.457 41.184 123.465 41.76C124.473 42.32 125.217 43.128 125.697 44.184L122.793 45.744C122.457 45.136 122.033 44.688 121.521 44.4C121.025 44.112 120.481 43.968 119.889 43.968C119.249 43.968 118.673 44.112 118.161 44.4C117.649 44.688 117.241 45.096 116.937 45.624C116.649 46.152 116.505 46.792 116.505 47.544C116.505 48.296 116.649 48.936 116.937 49.464C117.241 49.992 117.649 50.4 118.161 50.688C118.673 50.976 119.249 51.12 119.889 51.12C120.481 51.12 121.025 50.984 121.521 50.712C122.033 50.424 122.457 49.968 122.793 49.344L125.697 50.928C125.217 51.968 124.473 52.776 123.465 53.352C122.457 53.912 121.273 54.192 119.913 54.192ZM133.321 54.192C131.801 54.192 130.617 53.808 129.769 53.04C128.921 52.256 128.497 51.096 128.497 49.56V38.232H132.241V49.512C132.241 50.056 132.385 50.48 132.673 50.784C132.961 51.072 133.353 51.216 133.849 51.216C134.441 51.216 134.945 51.056 135.361 50.736L136.369 53.376C135.985 53.648 135.521 53.856 134.977 54C134.449 54.128 133.897 54.192 133.321 54.192ZM126.505 44.256V41.376H135.457V44.256H126.505ZM142.814 54.192C141.71 54.192 140.646 54.064 139.622 53.808C138.614 53.536 137.814 53.2 137.222 52.8L138.47 50.112C139.062 50.48 139.758 50.784 140.558 51.024C141.374 51.248 142.174 51.36 142.958 51.36C143.822 51.36 144.43 51.256 144.782 51.048C145.15 50.84 145.334 50.552 145.334 50.184C145.334 49.88 145.19 49.656 144.902 49.512C144.63 49.352 144.262 49.232 143.798 49.152C143.334 49.072 142.822 48.992 142.262 48.912C141.718 48.832 141.166 48.728 140.606 48.6C140.046 48.456 139.534 48.248 139.07 47.976C138.606 47.704 138.23 47.336 137.942 46.872C137.67 46.408 137.534 45.808 137.534 45.072C137.534 44.256 137.766 43.536 138.23 42.912C138.71 42.288 139.398 41.8 140.294 41.448C141.19 41.08 142.262 40.896 143.51 40.896C144.39 40.896 145.286 40.992 146.198 41.184C147.11 41.376 147.87 41.656 148.478 42.024L147.23 44.688C146.606 44.32 145.974 44.072 145.334 43.944C144.71 43.8 144.102 43.728 143.51 43.728C142.678 43.728 142.07 43.84 141.686 44.064C141.302 44.288 141.11 44.576 141.11 44.928C141.11 45.248 141.246 45.488 141.518 45.648C141.806 45.808 142.182 45.936 142.646 46.032C143.11 46.128 143.614 46.216 144.158 46.296C144.718 46.36 145.278 46.464 145.838 46.608C146.398 46.752 146.902 46.96 147.35 47.232C147.814 47.488 148.19 47.848 148.478 48.312C148.766 48.76 148.91 49.352 148.91 50.088C148.91 50.888 148.67 51.6 148.19 52.224C147.71 52.832 147.014 53.312 146.102 53.664C145.206 54.016 144.11 54.192 142.814 54.192Z" fill="#FFFDF3" />
</g>
</g>
</g>
<defs>
  <pattern id="cardboard_tile_1278" 
           patternUnits="userSpaceOnUse" 
           width="100" height="100" 
           viewBox="0 0 100 100">
    <image xlink:href="/assets/images/shapes/cardboard_texture.jpg" 
           x="0" y="0" 
           width="100" height="100" 
           preserveAspectRatio="xMidYMid slice" />
  </pattern>

  <pattern id="pattern0_46_1278" xlink:href="#cardboard_tile_1278" />
  <pattern id="pattern1_46_1278" xlink:href="#cardboard_tile_1278" />
</defs>
</svg>