<?xml version='1.0' encoding='utf-8'?>
<svg xmlns="http://www.w3.org/2000/svg" xmlns:xlink="http://www.w3.org/1999/xlink" width="199" height="92" viewBox="0 0 199 92" fill="none">
<g id="research">
<g id="research_inactive">
<path class="bg" d="M11.6321 39.7509C25.2697 20.4558 35.2975 13.2285 47.3307 12.5537C59.3639 11.8788 65.87 22.7304 69.3916 37.6035C74.7741 16.6602 83.8315 12.672 92.2547 10.6388C100.678 8.60559 112.264 11.6756 122.337 26.7712C131.246 11.436 137.981 7.59232 151.217 5.56092C164.454 3.52952 174.458 6.67178 182.102 20.678C189.747 34.6841 198.884 44.68 190.927 57.3535C182.97 70.027 162.047 71.9095 157.635 62.0927C153.223 52.2758 153.624 53.852 153.624 53.852C150.787 69.6012 144.398 86.0084 130.36 86.3469C116.321 86.6854 107.006 81.1582 102.683 65.3614C95.8963 86.1917 85.0348 89.055 75.8093 90.7476C66.5838 92.4401 58.0692 88.4604 49.3362 75.8552L47.3357 57.4C47.244 57.6688 46.1718 59.4384 36.9019 70.8939C25.6709 84.7729 5.91577 79.7249 0 60.0616C2.97192 51.9147 -2.00546 59.0461 11.6321 39.7509Z" fill="#00AB1D" />
<g class="fg">
<g id="Vector">
<path d="M16.6321 34.7509C30.2697 15.4558 40.2975 8.22855 52.3307 7.55368C64.3639 6.87882 70.87 17.7304 74.3916 32.6035C79.7741 11.6602 88.8315 7.67203 97.2547 5.63881C105.678 3.60559 117.264 6.67562 127.337 21.7712C136.246 6.436 142.981 2.59232 156.217 0.560919C169.454 -1.47048 179.458 1.67178 187.102 15.678C194.747 29.6841 203.884 39.68 195.927 52.3535C187.97 65.027 167.047 66.9095 162.635 57.0927C158.223 47.2758 158.624 48.852 158.624 48.852C155.787 64.6012 149.398 81.0084 135.36 81.3469C121.321 81.6854 112.006 76.1582 107.683 60.3614C100.896 81.1917 90.0348 84.055 80.8093 85.7476C71.5838 87.4401 63.0692 83.4604 54.3362 70.8552L52.3357 52.4C52.244 52.6688 51.1718 54.4384 41.9019 65.8939C30.6709 79.7729 10.9158 74.7249 5 55.0616C7.97192 46.9147 2.99454 54.0461 16.6321 34.7509Z" fill="#965F29" />
<path d="M16.6321 34.7509C30.2697 15.4558 40.2975 8.22855 52.3307 7.55368C64.3639 6.87882 70.87 17.7304 74.3916 32.6035C79.7741 11.6602 88.8315 7.67203 97.2547 5.63881C105.678 3.60559 117.264 6.67562 127.337 21.7712C136.246 6.436 142.981 2.59232 156.217 0.560919C169.454 -1.47048 179.458 1.67178 187.102 15.678C194.747 29.6841 203.884 39.68 195.927 52.3535C187.97 65.027 167.047 66.9095 162.635 57.0927C158.223 47.2758 158.624 48.852 158.624 48.852C155.787 64.6012 149.398 81.0084 135.36 81.3469C121.321 81.6854 112.006 76.1582 107.683 60.3614C100.896 81.1917 90.0348 84.055 80.8093 85.7476C71.5838 87.4401 63.0692 83.4604 54.3362 70.8552L52.3357 52.4C52.244 52.6688 51.1718 54.4384 41.9019 65.8939C30.6709 79.7729 10.9158 74.7249 5 55.0616C7.97192 46.9147 2.99454 54.0461 16.6321 34.7509Z" fill="url(#pattern0_46_1339)" fill-opacity="0.5" />
</g>
<path id="research_2" d="M48.9819 48V35.088H52.5579V38.736L52.0539 37.68C52.4379 36.768 53.0539 36.08 53.9019 35.616C54.7499 35.136 55.7819 34.896 56.9979 34.896V38.352C56.8379 38.336 56.6939 38.328 56.5659 38.328C56.4379 38.312 56.3019 38.304 56.1579 38.304C55.1339 38.304 54.3019 38.6 53.6619 39.192C53.0379 39.768 52.7259 40.672 52.7259 41.904V48H48.9819ZM65.5383 48.192C64.0663 48.192 62.7703 47.904 61.6503 47.328C60.5463 46.752 59.6903 45.968 59.0823 44.976C58.4743 43.968 58.1703 42.824 58.1703 41.544C58.1703 40.248 58.4663 39.104 59.0583 38.112C59.6663 37.104 60.4903 36.32 61.5303 35.76C62.5703 35.184 63.7463 34.896 65.0583 34.896C66.3223 34.896 67.4583 35.168 68.4663 35.712C69.4903 36.24 70.2983 37.008 70.8903 38.016C71.4823 39.008 71.7783 40.2 71.7783 41.592C71.7783 41.736 71.7703 41.904 71.7543 42.096C71.7383 42.272 71.7223 42.44 71.7063 42.6H61.2183V40.416H69.7383L68.2983 41.064C68.2983 40.392 68.1623 39.808 67.8903 39.312C67.6183 38.816 67.2423 38.432 66.7623 38.16C66.2823 37.872 65.7223 37.728 65.0823 37.728C64.4423 37.728 63.8743 37.872 63.3783 38.16C62.8983 38.432 62.5223 38.824 62.2503 39.336C61.9783 39.832 61.8423 40.424 61.8423 41.112V41.688C61.8423 42.392 61.9943 43.016 62.2983 43.56C62.6183 44.088 63.0583 44.496 63.6183 44.784C64.1943 45.056 64.8663 45.192 65.6343 45.192C66.3223 45.192 66.9223 45.088 67.4343 44.88C67.9623 44.672 68.4423 44.36 68.8743 43.944L70.8663 46.104C70.2743 46.776 69.5303 47.296 68.6343 47.664C67.7383 48.016 66.7063 48.192 65.5383 48.192ZM78.615 48.192C77.511 48.192 76.447 48.064 75.423 47.808C74.415 47.536 73.615 47.2 73.023 46.8L74.271 44.112C74.863 44.48 75.559 44.784 76.359 45.024C77.175 45.248 77.975 45.36 78.759 45.36C79.623 45.36 80.231 45.256 80.583 45.048C80.951 44.84 81.135 44.552 81.135 44.184C81.135 43.88 80.991 43.656 80.703 43.512C80.431 43.352 80.063 43.232 79.599 43.152C79.135 43.072 78.623 42.992 78.063 42.912C77.519 42.832 76.967 42.728 76.407 42.6C75.847 42.456 75.335 42.248 74.871 41.976C74.407 41.704 74.031 41.336 73.743 40.872C73.471 40.408 73.335 39.808 73.335 39.072C73.335 38.256 73.567 37.536 74.031 36.912C74.511 36.288 75.199 35.8 76.095 35.448C76.991 35.08 78.063 34.896 79.311 34.896C80.191 34.896 81.087 34.992 81.999 35.184C82.911 35.376 83.671 35.656 84.279 36.024L83.031 38.688C82.407 38.32 81.775 38.072 81.135 37.944C80.511 37.8 79.903 37.728 79.311 37.728C78.479 37.728 77.871 37.84 77.487 38.064C77.103 38.288 76.911 38.576 76.911 38.928C76.911 39.248 77.047 39.488 77.319 39.648C77.607 39.808 77.983 39.936 78.447 40.032C78.911 40.128 79.415 40.216 79.959 40.296C80.519 40.36 81.079 40.464 81.639 40.608C82.199 40.752 82.703 40.96 83.151 41.232C83.615 41.488 83.991 41.848 84.279 42.312C84.567 42.76 84.711 43.352 84.711 44.088C84.711 44.888 84.471 45.6 83.991 46.224C83.511 46.832 82.815 47.312 81.903 47.664C81.007 48.016 79.911 48.192 78.615 48.192ZM93.429 48.192C91.957 48.192 90.661 47.904 89.541 47.328C88.437 46.752 87.581 45.968 86.973 44.976C86.365 43.968 86.061 42.824 86.061 41.544C86.061 40.248 86.357 39.104 86.949 38.112C87.557 37.104 88.381 36.32 89.421 35.76C90.461 35.184 91.637 34.896 92.949 34.896C94.213 34.896 95.349 35.168 96.357 35.712C97.381 36.24 98.189 37.008 98.781 38.016C99.373 39.008 99.669 40.2 99.669 41.592C99.669 41.736 99.661 41.904 99.645 42.096C99.629 42.272 99.613 42.44 99.597 42.6H89.109V40.416H97.629L96.189 41.064C96.189 40.392 96.053 39.808 95.781 39.312C95.509 38.816 95.133 38.432 94.653 38.16C94.173 37.872 93.613 37.728 92.973 37.728C92.333 37.728 91.765 37.872 91.269 38.16C90.789 38.432 90.413 38.824 90.141 39.336C89.869 39.832 89.733 40.424 89.733 41.112V41.688C89.733 42.392 89.885 43.016 90.189 43.56C90.509 44.088 90.949 44.496 91.509 44.784C92.085 45.056 92.757 45.192 93.525 45.192C94.213 45.192 94.813 45.088 95.325 44.88C95.853 44.672 96.333 44.36 96.765 43.944L98.757 46.104C98.165 46.776 97.421 47.296 96.525 47.664C95.629 48.016 94.597 48.192 93.429 48.192ZM109.73 48V45.48L109.49 44.928V40.416C109.49 39.616 109.242 38.992 108.746 38.544C108.266 38.096 107.522 37.872 106.514 37.872C105.826 37.872 105.146 37.984 104.474 38.208C103.818 38.416 103.258 38.704 102.794 39.072L101.45 36.456C102.154 35.96 103.002 35.576 103.994 35.304C104.986 35.032 105.994 34.896 107.018 34.896C108.986 34.896 110.514 35.36 111.602 36.288C112.69 37.216 113.234 38.664 113.234 40.632V48H109.73ZM105.794 48.192C104.786 48.192 103.922 48.024 103.202 47.688C102.482 47.336 101.93 46.864 101.546 46.272C101.162 45.68 100.97 45.016 100.97 44.28C100.97 43.512 101.154 42.84 101.522 42.264C101.906 41.688 102.506 41.24 103.322 40.92C104.138 40.584 105.202 40.416 106.514 40.416H109.946V42.6H106.922C106.042 42.6 105.434 42.744 105.098 43.032C104.778 43.32 104.618 43.68 104.618 44.112C104.618 44.592 104.802 44.976 105.17 45.264C105.554 45.536 106.074 45.672 106.73 45.672C107.354 45.672 107.914 45.528 108.41 45.24C108.906 44.936 109.266 44.496 109.49 43.92L110.066 45.648C109.794 46.48 109.298 47.112 108.578 47.544C107.858 47.976 106.93 48.192 105.794 48.192ZM116.623 48V35.088H120.199V38.736L119.695 37.68C120.079 36.768 120.695 36.08 121.543 35.616C122.391 35.136 123.423 34.896 124.639 34.896V38.352C124.479 38.336 124.335 38.328 124.207 38.328C124.079 38.312 123.943 38.304 123.799 38.304C122.775 38.304 121.943 38.6 121.303 39.192C120.679 39.768 120.367 40.672 120.367 41.904V48H116.623ZM133.011 48.192C131.619 48.192 130.379 47.912 129.291 47.352C128.203 46.776 127.347 45.984 126.723 44.976C126.115 43.968 125.811 42.824 125.811 41.544C125.811 40.248 126.115 39.104 126.723 38.112C127.347 37.104 128.203 36.32 129.291 35.76C130.379 35.184 131.619 34.896 133.011 34.896C134.371 34.896 135.555 35.184 136.563 35.76C137.571 36.32 138.315 37.128 138.795 38.184L135.891 39.744C135.555 39.136 135.131 38.688 134.619 38.4C134.123 38.112 133.579 37.968 132.987 37.968C132.347 37.968 131.771 38.112 131.259 38.4C130.747 38.688 130.339 39.096 130.035 39.624C129.747 40.152 129.603 40.792 129.603 41.544C129.603 42.296 129.747 42.936 130.035 43.464C130.339 43.992 130.747 44.4 131.259 44.688C131.771 44.976 132.347 45.12 132.987 45.12C133.579 45.12 134.123 44.984 134.619 44.712C135.131 44.424 135.555 43.968 135.891 43.344L138.795 44.928C138.315 45.968 137.571 46.776 136.563 47.352C135.555 47.912 134.371 48.192 133.011 48.192ZM148.728 34.896C149.752 34.896 150.664 35.104 151.464 35.52C152.28 35.92 152.92 36.544 153.384 37.392C153.848 38.224 154.08 39.296 154.08 40.608V48H150.336V41.184C150.336 40.144 150.104 39.376 149.64 38.88C149.192 38.384 148.552 38.136 147.72 38.136C147.128 38.136 146.592 38.264 146.112 38.52C145.648 38.76 145.28 39.136 145.008 39.648C144.752 40.16 144.624 40.816 144.624 41.616V48H140.88V30.192H144.624V38.664L143.784 37.584C144.248 36.72 144.912 36.056 145.776 35.592C146.64 35.128 147.624 34.896 148.728 34.896Z" fill="#FFFDF3" />
</g>
</g>
<g id="research_active">
<g class="bg">
<path d="M11.6321 39.7509C25.2697 20.4558 35.2975 13.2285 47.3307 12.5537C59.3639 11.8788 65.87 22.7304 69.3916 37.6035C74.7741 16.6602 83.8315 12.672 92.2547 10.6388C100.678 8.60559 112.264 11.6756 122.337 26.7712C131.246 11.436 137.981 7.59232 151.217 5.56092C164.454 3.52952 174.458 6.67178 182.102 20.678C189.747 34.6841 198.884 44.68 190.927 57.3535C182.97 70.027 162.047 71.9095 157.635 62.0927C153.223 52.2758 153.624 53.852 153.624 53.852C150.787 69.6012 144.398 86.0084 130.36 86.3469C116.321 86.6854 107.006 81.1582 102.683 65.3614C95.8963 86.1917 85.0348 89.055 75.8093 90.7476C66.5838 92.4401 58.0692 88.4604 49.3362 75.8552L47.3357 57.4C47.244 57.6688 46.1718 59.4384 36.9019 70.8939C25.6709 84.7729 5.91577 79.7249 0 60.0616C2.97192 51.9147 -2.00546 59.0461 11.6321 39.7509Z" fill="#965F29" />
<path d="M11.6321 39.7509C25.2697 20.4558 35.2975 13.2285 47.3307 12.5537C59.3639 11.8788 65.87 22.7304 69.3916 37.6035C74.7741 16.6602 83.8315 12.672 92.2547 10.6388C100.678 8.60559 112.264 11.6756 122.337 26.7712C131.246 11.436 137.981 7.59232 151.217 5.56092C164.454 3.52952 174.458 6.67178 182.102 20.678C189.747 34.6841 198.884 44.68 190.927 57.3535C182.97 70.027 162.047 71.9095 157.635 62.0927C153.223 52.2758 153.624 53.852 153.624 53.852C150.787 69.6012 144.398 86.0084 130.36 86.3469C116.321 86.6854 107.006 81.1582 102.683 65.3614C95.8963 86.1917 85.0348 89.055 75.8093 90.7476C66.5838 92.4401 58.0692 88.4604 49.3362 75.8552L47.3357 57.4C47.244 57.6688 46.1718 59.4384 36.9019 70.8939C25.6709 84.7729 5.91577 79.7249 0 60.0616C2.97192 51.9147 -2.00546 59.0461 11.6321 39.7509Z" fill="url(#pattern1_46_1339)" fill-opacity="0.5" />
</g>
<g class="fg">
<path id="color" d="M16.6321 34.7509C30.2697 15.4558 40.2975 8.22855 52.3307 7.55368C64.3639 6.87882 70.87 17.7304 74.3916 32.6035C79.7741 11.6602 88.8315 7.67203 97.2547 5.63881C105.678 3.60559 117.264 6.67562 127.337 21.7712C136.246 6.436 142.981 2.59232 156.217 0.560919C169.454 -1.47048 179.458 1.67178 187.102 15.678C194.747 29.6841 203.884 39.68 195.927 52.3535C187.97 65.027 167.047 66.9095 162.635 57.0927C158.223 47.2758 158.624 48.852 158.624 48.852C155.787 64.6012 149.398 81.0084 135.36 81.3469C121.321 81.6854 112.006 76.1582 107.683 60.3614C100.896 81.1917 90.0348 84.055 80.8093 85.7476C71.5838 87.4401 63.0692 83.4604 54.3362 70.8552L52.3357 52.4C52.244 52.6688 51.1718 54.4384 41.9019 65.8939C30.6709 79.7729 10.9158 74.7249 5 55.0616C7.97192 46.9147 2.99454 54.0461 16.6321 34.7509Z" fill="#00AB1D" />
<path id="research_3" d="M48.9819 48V35.088H52.5579V38.736L52.0539 37.68C52.4379 36.768 53.0539 36.08 53.9019 35.616C54.7499 35.136 55.7819 34.896 56.9979 34.896V38.352C56.8379 38.336 56.6939 38.328 56.5659 38.328C56.4379 38.312 56.3019 38.304 56.1579 38.304C55.1339 38.304 54.3019 38.6 53.6619 39.192C53.0379 39.768 52.7259 40.672 52.7259 41.904V48H48.9819ZM65.5383 48.192C64.0663 48.192 62.7703 47.904 61.6503 47.328C60.5463 46.752 59.6903 45.968 59.0823 44.976C58.4743 43.968 58.1703 42.824 58.1703 41.544C58.1703 40.248 58.4663 39.104 59.0583 38.112C59.6663 37.104 60.4903 36.32 61.5303 35.76C62.5703 35.184 63.7463 34.896 65.0583 34.896C66.3223 34.896 67.4583 35.168 68.4663 35.712C69.4903 36.24 70.2983 37.008 70.8903 38.016C71.4823 39.008 71.7783 40.2 71.7783 41.592C71.7783 41.736 71.7703 41.904 71.7543 42.096C71.7383 42.272 71.7223 42.44 71.7063 42.6H61.2183V40.416H69.7383L68.2983 41.064C68.2983 40.392 68.1623 39.808 67.8903 39.312C67.6183 38.816 67.2423 38.432 66.7623 38.16C66.2823 37.872 65.7223 37.728 65.0823 37.728C64.4423 37.728 63.8743 37.872 63.3783 38.16C62.8983 38.432 62.5223 38.824 62.2503 39.336C61.9783 39.832 61.8423 40.424 61.8423 41.112V41.688C61.8423 42.392 61.9943 43.016 62.2983 43.56C62.6183 44.088 63.0583 44.496 63.6183 44.784C64.1943 45.056 64.8663 45.192 65.6343 45.192C66.3223 45.192 66.9223 45.088 67.4343 44.88C67.9623 44.672 68.4423 44.36 68.8743 43.944L70.8663 46.104C70.2743 46.776 69.5303 47.296 68.6343 47.664C67.7383 48.016 66.7063 48.192 65.5383 48.192ZM78.615 48.192C77.511 48.192 76.447 48.064 75.423 47.808C74.415 47.536 73.615 47.2 73.023 46.8L74.271 44.112C74.863 44.48 75.559 44.784 76.359 45.024C77.175 45.248 77.975 45.36 78.759 45.36C79.623 45.36 80.231 45.256 80.583 45.048C80.951 44.84 81.135 44.552 81.135 44.184C81.135 43.88 80.991 43.656 80.703 43.512C80.431 43.352 80.063 43.232 79.599 43.152C79.135 43.072 78.623 42.992 78.063 42.912C77.519 42.832 76.967 42.728 76.407 42.6C75.847 42.456 75.335 42.248 74.871 41.976C74.407 41.704 74.031 41.336 73.743 40.872C73.471 40.408 73.335 39.808 73.335 39.072C73.335 38.256 73.567 37.536 74.031 36.912C74.511 36.288 75.199 35.8 76.095 35.448C76.991 35.08 78.063 34.896 79.311 34.896C80.191 34.896 81.087 34.992 81.999 35.184C82.911 35.376 83.671 35.656 84.279 36.024L83.031 38.688C82.407 38.32 81.775 38.072 81.135 37.944C80.511 37.8 79.903 37.728 79.311 37.728C78.479 37.728 77.871 37.84 77.487 38.064C77.103 38.288 76.911 38.576 76.911 38.928C76.911 39.248 77.047 39.488 77.319 39.648C77.607 39.808 77.983 39.936 78.447 40.032C78.911 40.128 79.415 40.216 79.959 40.296C80.519 40.36 81.079 40.464 81.639 40.608C82.199 40.752 82.703 40.96 83.151 41.232C83.615 41.488 83.991 41.848 84.279 42.312C84.567 42.76 84.711 43.352 84.711 44.088C84.711 44.888 84.471 45.6 83.991 46.224C83.511 46.832 82.815 47.312 81.903 47.664C81.007 48.016 79.911 48.192 78.615 48.192ZM93.429 48.192C91.957 48.192 90.661 47.904 89.541 47.328C88.437 46.752 87.581 45.968 86.973 44.976C86.365 43.968 86.061 42.824 86.061 41.544C86.061 40.248 86.357 39.104 86.949 38.112C87.557 37.104 88.381 36.32 89.421 35.76C90.461 35.184 91.637 34.896 92.949 34.896C94.213 34.896 95.349 35.168 96.357 35.712C97.381 36.24 98.189 37.008 98.781 38.016C99.373 39.008 99.669 40.2 99.669 41.592C99.669 41.736 99.661 41.904 99.645 42.096C99.629 42.272 99.613 42.44 99.597 42.6H89.109V40.416H97.629L96.189 41.064C96.189 40.392 96.053 39.808 95.781 39.312C95.509 38.816 95.133 38.432 94.653 38.16C94.173 37.872 93.613 37.728 92.973 37.728C92.333 37.728 91.765 37.872 91.269 38.16C90.789 38.432 90.413 38.824 90.141 39.336C89.869 39.832 89.733 40.424 89.733 41.112V41.688C89.733 42.392 89.885 43.016 90.189 43.56C90.509 44.088 90.949 44.496 91.509 44.784C92.085 45.056 92.757 45.192 93.525 45.192C94.213 45.192 94.813 45.088 95.325 44.88C95.853 44.672 96.333 44.36 96.765 43.944L98.757 46.104C98.165 46.776 97.421 47.296 96.525 47.664C95.629 48.016 94.597 48.192 93.429 48.192ZM109.73 48V45.48L109.49 44.928V40.416C109.49 39.616 109.242 38.992 108.746 38.544C108.266 38.096 107.522 37.872 106.514 37.872C105.826 37.872 105.146 37.984 104.474 38.208C103.818 38.416 103.258 38.704 102.794 39.072L101.45 36.456C102.154 35.96 103.002 35.576 103.994 35.304C104.986 35.032 105.994 34.896 107.018 34.896C108.986 34.896 110.514 35.36 111.602 36.288C112.69 37.216 113.234 38.664 113.234 40.632V48H109.73ZM105.794 48.192C104.786 48.192 103.922 48.024 103.202 47.688C102.482 47.336 101.93 46.864 101.546 46.272C101.162 45.68 100.97 45.016 100.97 44.28C100.97 43.512 101.154 42.84 101.522 42.264C101.906 41.688 102.506 41.24 103.322 40.92C104.138 40.584 105.202 40.416 106.514 40.416H109.946V42.6H106.922C106.042 42.6 105.434 42.744 105.098 43.032C104.778 43.32 104.618 43.68 104.618 44.112C104.618 44.592 104.802 44.976 105.17 45.264C105.554 45.536 106.074 45.672 106.73 45.672C107.354 45.672 107.914 45.528 108.41 45.24C108.906 44.936 109.266 44.496 109.49 43.92L110.066 45.648C109.794 46.48 109.298 47.112 108.578 47.544C107.858 47.976 106.93 48.192 105.794 48.192ZM116.623 48V35.088H120.199V38.736L119.695 37.68C120.079 36.768 120.695 36.08 121.543 35.616C122.391 35.136 123.423 34.896 124.639 34.896V38.352C124.479 38.336 124.335 38.328 124.207 38.328C124.079 38.312 123.943 38.304 123.799 38.304C122.775 38.304 121.943 38.6 121.303 39.192C120.679 39.768 120.367 40.672 120.367 41.904V48H116.623ZM133.011 48.192C131.619 48.192 130.379 47.912 129.291 47.352C128.203 46.776 127.347 45.984 126.723 44.976C126.115 43.968 125.811 42.824 125.811 41.544C125.811 40.248 126.115 39.104 126.723 38.112C127.347 37.104 128.203 36.32 129.291 35.76C130.379 35.184 131.619 34.896 133.011 34.896C134.371 34.896 135.555 35.184 136.563 35.76C137.571 36.32 138.315 37.128 138.795 38.184L135.891 39.744C135.555 39.136 135.131 38.688 134.619 38.4C134.123 38.112 133.579 37.968 132.987 37.968C132.347 37.968 131.771 38.112 131.259 38.4C130.747 38.688 130.339 39.096 130.035 39.624C129.747 40.152 129.603 40.792 129.603 41.544C129.603 42.296 129.747 42.936 130.035 43.464C130.339 43.992 130.747 44.4 131.259 44.688C131.771 44.976 132.347 45.12 132.987 45.12C133.579 45.12 134.123 44.984 134.619 44.712C135.131 44.424 135.555 43.968 135.891 43.344L138.795 44.928C138.315 45.968 137.571 46.776 136.563 47.352C135.555 47.912 134.371 48.192 133.011 48.192ZM148.728 34.896C149.752 34.896 150.664 35.104 151.464 35.52C152.28 35.92 152.92 36.544 153.384 37.392C153.848 38.224 154.08 39.296 154.08 40.608V48H150.336V41.184C150.336 40.144 150.104 39.376 149.64 38.88C149.192 38.384 148.552 38.136 147.72 38.136C147.128 38.136 146.592 38.264 146.112 38.52C145.648 38.76 145.28 39.136 145.008 39.648C144.752 40.16 144.624 40.816 144.624 41.616V48H140.88V30.192H144.624V38.664L143.784 37.584C144.248 36.72 144.912 36.056 145.776 35.592C146.64 35.128 147.624 34.896 148.728 34.896Z" fill="#FFFDF3" />
</g>
</g>
</g>
<defs>
  <pattern id="cardboard_tile_1339" 
           patternUnits="userSpaceOnUse" 
           width="100" height="100" 
           viewBox="0 0 100 100">
    <image xlink:href="/assets/images/shapes/cardboard_texture.jpg" 
           x="0" y="0" 
           width="100" height="100" 
           preserveAspectRatio="xMidYMid slice" />
  </pattern>

  <pattern id="pattern0_46_1339" xlink:href="#cardboard_tile_1339" />
  <pattern id="pattern1_46_1339" xlink:href="#cardboard_tile_1339" />
</defs>
</svg>