<?xml version="1.0" encoding="utf-8" standalone="no"?>
<!DOCTYPE svg PUBLIC "-//W3C//DTD SVG 1.1//EN"
  "http://www.w3.org/Graphics/SVG/1.1/DTD/svg11.dtd">
<svg xmlns:xlink="http://www.w3.org/1999/xlink" width="72pt" height="72pt" viewBox="0 0 72 72" xmlns="http://www.w3.org/2000/svg" version="1.1">
 <metadata>
  <rdf:RDF xmlns:dc="http://purl.org/dc/elements/1.1/" xmlns:cc="http://creativecommons.org/ns#" xmlns:rdf="http://www.w3.org/1999/02/22-rdf-syntax-ns#">
   <cc:Work>
    <dc:type rdf:resource="http://purl.org/dc/dcmitype/StillImage"/>
    <dc:date>2026-04-08T16:40:01.157444</dc:date>
    <dc:format>image/svg+xml</dc:format>
    <dc:creator>
     <cc:Agent>
      <dc:title>Matplotlib v3.10.1, https://matplotlib.org/</dc:title>
     </cc:Agent>
    </dc:creator>
   </cc:Work>
  </rdf:RDF>
 </metadata>
 <defs>
  <style type="text/css">*{stroke-linejoin: round; stroke-linecap: butt}</style>
 </defs>
 <g id="figure_1">
  <g id="patch_1">
   <path d="M 0 72 
L 1 72.041896 
L 2 72.087881 
L 3 72.168898 
L 4 72.211277 
L 5 72.279228 
L 6 72.325425 
L 7 72.368985 
L 8 72.426279 
L 9 72.489818 
L 10 72.542205 
L 11 72.597685 
L 12 72.666549 
L 13 72.71267 
L 14 72.755455 
L 15 72.789722 
L 16 72.819973 
L 17 72.845849 
L 18 72.888991 
L 19 72.91694 
L 20 72.944376 
L 21 72.968002 
L 22 72.98172 
L 23 72.994026 
L 24 72.99974 
L 25 72.998423 
L 26 72.992804 
L 27 72.978059 
L 28 72.968184 
L 29 72.948035 
L 30 72.914116 
L 31 72.88596 
L 32 72.854853 
L 33 72.82021 
L 34 72.788925 
L 35 72.739014 
L 36 72.701235 
L 37 72.660156 
L 38 72.603256 
L 39 72.563576 
L 40 72.510012 
L 41 72.430141 
L 42 72.367421 
L 43 72.283211 
L 44 72.232722 
L 45 72.172087 
L 46 72.118629 
L 47 72.045811 
L 48 71.953508 
L 49 71.884739 
L 50 71.808075 
L 51 71.763114 
L 52 71.705025 
L 53 71.635988 
L 54 71.567889 
L 55 71.492917 
L 56 71.451825 
L 57 71.411686 
L 58 71.375298 
L 59 71.342223 
L 60 71.303128 
L 61 71.246325 
L 62 71.199291 
L 63 71.14991 
L 64 71.118113 
L 65 71.082405 
L 66 71.064927 
L 67 71.04637 
L 68 71.030251 
L 69 71.020273 
L 70 71.006759 
L 71 71.002208 
L 72 71.000028 
L 71.002745 71 
L 71.007879 70 
L 71.015485 69 
L 71.025706 68 
L 71.036381 67 
L 71.063658 66 
L 71.098921 65 
L 71.122842 64 
L 71.162506 63 
L 71.199967 62 
L 71.229985 61 
L 71.286259 60 
L 71.316306 59 
L 71.349155 58 
L 71.382681 57 
L 71.430903 56 
L 71.48571 55 
L 71.527102 54 
L 71.599951 53 
L 71.650547 52 
L 71.698834 51 
L 71.745261 50 
L 71.829912 49 
L 71.879164 48 
L 71.942219 47 
L 72.010759 46 
L 72.098973 45 
L 72.147689 44 
L 72.203293 43 
L 72.274263 42 
L 72.333002 41 
L 72.411103 40 
L 72.456878 39 
L 72.531921 38 
L 72.572772 37 
L 72.618224 36 
L 72.675804 35 
L 72.715667 34 
L 72.746742 33 
L 72.793231 32 
L 72.819119 31 
L 72.850578 30 
L 72.881962 29 
L 72.905617 28 
L 72.938949 27 
L 72.963467 26 
L 72.981197 25 
L 72.988901 24 
L 72.997475 23 
L 72.999985 22 
L 72.997531 21 
L 72.991853 20 
L 72.98423 19 
L 72.96428 18 
L 72.937531 17 
L 72.900949 16 
L 72.871996 15 
L 72.839354 14 
L 72.812076 13 
L 72.756253 12 
L 72.716797 11 
L 72.683102 10 
L 72.651534 9 
L 72.602763 8 
L 72.548929 7 
L 72.502685 6 
L 72.446168 5 
L 72.403661 4 
L 72.357708 3 
L 72.310756 2 
L 72.251918 1 
L 72.163638 0 
L 71 -0.105872 
L 70 -0.056068 
L 69 0.000024 
L 68 0.063644 
L 67 0.110312 
L 66 0.160323 
L 65 0.207349 
L 64 0.256598 
L 63 0.324713 
L 62 0.384316 
L 61 0.431368 
L 60 0.496508 
L 59 0.540639 
L 58 0.580617 
L 57 0.635234 
L 56 0.680452 
L 55 0.713832 
L 54 0.754352 
L 53 0.792004 
L 52 0.826951 
L 51 0.85061 
L 50 0.878875 
L 49 0.910122 
L 48 0.940763 
L 47 0.954436 
L 46 0.973522 
L 45 0.990316 
L 44 0.998954 
L 43 0.999969 
L 42 0.996633 
L 41 0.988753 
L 40 0.981551 
L 39 0.971878 
L 38 0.949407 
L 37 0.926789 
L 36 0.894112 
L 35 0.872212 
L 34 0.83197 
L 33 0.803034 
L 32 0.757597 
L 31 0.69809 
L 30 0.647967 
L 29 0.580625 
L 28 0.532298 
L 27 0.451062 
L 26 0.389733 
L 25 0.30413 
L 24 0.249601 
L 23 0.203956 
L 22 0.122314 
L 21 0.060596 
L 20 -0.024812 
L 19 -0.102192 
L 18 -0.165847 
L 17 -0.251287 
L 16 -0.324196 
L 15 -0.364781 
L 14 -0.418568 
L 13 -0.464303 
L 12 -0.511335 
L 11 -0.587454 
L 10 -0.640737 
L 9 -0.68124 
L 8 -0.711936 
L 7 -0.765736 
L 6 -0.815109 
L 5 -0.847003 
L 4 -0.886582 
L 3 -0.924456 
L 2 -0.952774 
L 1 -0.971724 
L 0 -0.989036 
L -0.994675 1 
L -0.999492 2 
L -0.999908 3 
L -0.996481 4 
L -0.991222 5 
L -0.980988 6 
L -0.970635 7 
L -0.948618 8 
L -0.92403 9 
L -0.884529 10 
L -0.849121 11 
L -0.798032 12 
L -0.752515 13 
L -0.692772 14 
L -0.657363 15 
L -0.591172 16 
L -0.520894 17 
L -0.473813 18 
L -0.432345 19 
L -0.377413 20 
L -0.328633 21 
L -0.281352 22 
L -0.209425 23 
L -0.154858 24 
L -0.088861 25 
L -0.020579 26 
L 0.053022 27 
L 0.124993 28 
L 0.175339 29 
L 0.217777 30 
L 0.299494 31 
L 0.347809 32 
L 0.415639 33 
L 0.49355 34 
L 0.544718 35 
L 0.594961 36 
L 0.655587 37 
L 0.713066 38 
L 0.762042 39 
L 0.814311 40 
L 0.84069 41 
L 0.886706 42 
L 0.92028 43 
L 0.947831 44 
L 0.966512 45 
L 0.984058 46 
L 0.993407 47 
L 0.998736 48 
L 0.999745 49 
L 0.996284 50 
L 0.989631 51 
L 0.976448 52 
L 0.961378 53 
L 0.94237 54 
L 0.92577 55 
L 0.899537 56 
L 0.859233 57 
L 0.826213 58 
L 0.777816 59 
L 0.750158 60 
L 0.711505 61 
L 0.642823 62 
L 0.605805 63 
L 0.554722 64 
L 0.517069 65 
L 0.442085 66 
L 0.388001 67 
L 0.305753 68 
L 0.23016 69 
L 0.144675 70 
L 0.093381 71 
L 0.049647 72 
L 0 72 
z
" style="fill: none; opacity: 0; stroke: #ffffff; stroke-width: 4; stroke-linejoin: miter"/>
   <path d="M 0 72 
L 1 72.041896 
L 2 72.087881 
L 3 72.168898 
L 4 72.211277 
L 5 72.279228 
L 6 72.325425 
L 7 72.368985 
L 8 72.426279 
L 9 72.489818 
L 10 72.542205 
L 11 72.597685 
L 12 72.666549 
L 13 72.71267 
L 14 72.755455 
L 15 72.789722 
L 16 72.819973 
L 17 72.845849 
L 18 72.888991 
L 19 72.91694 
L 20 72.944376 
L 21 72.968002 
L 22 72.98172 
L 23 72.994026 
L 24 72.99974 
L 25 72.998423 
L 26 72.992804 
L 27 72.978059 
L 28 72.968184 
L 29 72.948035 
L 30 72.914116 
L 31 72.88596 
L 32 72.854853 
L 33 72.82021 
L 34 72.788925 
L 35 72.739014 
L 36 72.701235 
L 37 72.660156 
L 38 72.603256 
L 39 72.563576 
L 40 72.510012 
L 41 72.430141 
L 42 72.367421 
L 43 72.283211 
L 44 72.232722 
L 45 72.172087 
L 46 72.118629 
L 47 72.045811 
L 48 71.953508 
L 49 71.884739 
L 50 71.808075 
L 51 71.763114 
L 52 71.705025 
L 53 71.635988 
L 54 71.567889 
L 55 71.492917 
L 56 71.451825 
L 57 71.411686 
L 58 71.375298 
L 59 71.342223 
L 60 71.303128 
L 61 71.246325 
L 62 71.199291 
L 63 71.14991 
L 64 71.118113 
L 65 71.082405 
L 66 71.064927 
L 67 71.04637 
L 68 71.030251 
L 69 71.020273 
L 70 71.006759 
L 71 71.002208 
L 72 71.000028 
L 71.002745 71 
L 71.007879 70 
L 71.015485 69 
L 71.025706 68 
L 71.036381 67 
L 71.063658 66 
L 71.098921 65 
L 71.122842 64 
L 71.162506 63 
L 71.199967 62 
L 71.229985 61 
L 71.286259 60 
L 71.316306 59 
L 71.349155 58 
L 71.382681 57 
L 71.430903 56 
L 71.48571 55 
L 71.527102 54 
L 71.599951 53 
L 71.650547 52 
L 71.698834 51 
L 71.745261 50 
L 71.829912 49 
L 71.879164 48 
L 71.942219 47 
L 72.010759 46 
L 72.098973 45 
L 72.147689 44 
L 72.203293 43 
L 72.274263 42 
L 72.333002 41 
L 72.411103 40 
L 72.456878 39 
L 72.531921 38 
L 72.572772 37 
L 72.618224 36 
L 72.675804 35 
L 72.715667 34 
L 72.746742 33 
L 72.793231 32 
L 72.819119 31 
L 72.850578 30 
L 72.881962 29 
L 72.905617 28 
L 72.938949 27 
L 72.963467 26 
L 72.981197 25 
L 72.988901 24 
L 72.997475 23 
L 72.999985 22 
L 72.997531 21 
L 72.991853 20 
L 72.98423 19 
L 72.96428 18 
L 72.937531 17 
L 72.900949 16 
L 72.871996 15 
L 72.839354 14 
L 72.812076 13 
L 72.756253 12 
L 72.716797 11 
L 72.683102 10 
L 72.651534 9 
L 72.602763 8 
L 72.548929 7 
L 72.502685 6 
L 72.446168 5 
L 72.403661 4 
L 72.357708 3 
L 72.310756 2 
L 72.251918 1 
L 72.163638 0 
L 71 -0.105872 
L 70 -0.056068 
L 69 0.000024 
L 68 0.063644 
L 67 0.110312 
L 66 0.160323 
L 65 0.207349 
L 64 0.256598 
L 63 0.324713 
L 62 0.384316 
L 61 0.431368 
L 60 0.496508 
L 59 0.540639 
L 58 0.580617 
L 57 0.635234 
L 56 0.680452 
L 55 0.713832 
L 54 0.754352 
L 53 0.792004 
L 52 0.826951 
L 51 0.85061 
L 50 0.878875 
L 49 0.910122 
L 48 0.940763 
L 47 0.954436 
L 46 0.973522 
L 45 0.990316 
L 44 0.998954 
L 43 0.999969 
L 42 0.996633 
L 41 0.988753 
L 40 0.981551 
L 39 0.971878 
L 38 0.949407 
L 37 0.926789 
L 36 0.894112 
L 35 0.872212 
L 34 0.83197 
L 33 0.803034 
L 32 0.757597 
L 31 0.69809 
L 30 0.647967 
L 29 0.580625 
L 28 0.532298 
L 27 0.451062 
L 26 0.389733 
L 25 0.30413 
L 24 0.249601 
L 23 0.203956 
L 22 0.122314 
L 21 0.060596 
L 20 -0.024812 
L 19 -0.102192 
L 18 -0.165847 
L 17 -0.251287 
L 16 -0.324196 
L 15 -0.364781 
L 14 -0.418568 
L 13 -0.464303 
L 12 -0.511335 
L 11 -0.587454 
L 10 -0.640737 
L 9 -0.68124 
L 8 -0.711936 
L 7 -0.765736 
L 6 -0.815109 
L 5 -0.847003 
L 4 -0.886582 
L 3 -0.924456 
L 2 -0.952774 
L 1 -0.971724 
L 0 -0.989036 
L -0.994675 1 
L -0.999492 2 
L -0.999908 3 
L -0.996481 4 
L -0.991222 5 
L -0.980988 6 
L -0.970635 7 
L -0.948618 8 
L -0.92403 9 
L -0.884529 10 
L -0.849121 11 
L -0.798032 12 
L -0.752515 13 
L -0.692772 14 
L -0.657363 15 
L -0.591172 16 
L -0.520894 17 
L -0.473813 18 
L -0.432345 19 
L -0.377413 20 
L -0.328633 21 
L -0.281352 22 
L -0.209425 23 
L -0.154858 24 
L -0.088861 25 
L -0.020579 26 
L 0.053022 27 
L 0.124993 28 
L 0.175339 29 
L 0.217777 30 
L 0.299494 31 
L 0.347809 32 
L 0.415639 33 
L 0.49355 34 
L 0.544718 35 
L 0.594961 36 
L 0.655587 37 
L 0.713066 38 
L 0.762042 39 
L 0.814311 40 
L 0.84069 41 
L 0.886706 42 
L 0.92028 43 
L 0.947831 44 
L 0.966512 45 
L 0.984058 46 
L 0.993407 47 
L 0.998736 48 
L 0.999745 49 
L 0.996284 50 
L 0.989631 51 
L 0.976448 52 
L 0.961378 53 
L 0.94237 54 
L 0.92577 55 
L 0.899537 56 
L 0.859233 57 
L 0.826213 58 
L 0.777816 59 
L 0.750158 60 
L 0.711505 61 
L 0.642823 62 
L 0.605805 63 
L 0.554722 64 
L 0.517069 65 
L 0.442085 66 
L 0.388001 67 
L 0.305753 68 
L 0.23016 69 
L 0.144675 70 
L 0.093381 71 
L 0.049647 72 
L 0 72 
z
" style="fill: none; opacity: 0"/>
  </g>
  <g id="axes_1">
   <g id="line2d_1">
    <path d="M 57.190909 36.36 
L 56.190909 36.318104 
L 55.190909 36.272119 
L 54.190909 36.191102 
L 53.190909 36.148723 
L 52.190909 36.080772 
L 51.190909 36.034575 
L 50.190909 35.991015 
L 49.190909 35.933721 
L 48.190909 35.870182 
L 47.190909 35.817795 
L 46.190909 35.762315 
L 45.190909 35.693451 
L 44.190909 35.64733 
L 43.190909 35.604545 
L 42.190909 35.570278 
L 41.190909 35.540027 
L 40.190909 35.514151 
L 39.190909 35.471009 
L 38.190909 35.44306 
L 37.190909 35.415624 
L 36.190909 35.391998 
L 35.190909 35.37828 
L 34.190909 35.365974 
L 33.190909 35.36026 
L 32.190909 35.361577 
L 31.190909 35.367196 
L 30.190909 35.381941 
L 29.190909 35.391816 
L 28.190909 35.411965 
L 27.190909 35.445884 
L 26.190909 35.47404 
L 25.190909 35.505147 
L 24.190909 35.53979 
L 23.190909 35.571075 
L 22.190909 35.620986 
L 21.190909 35.658765 
L 20.190909 35.699844 
L 19.190909 35.756744 
L 18.190909 35.796424 
L 16.609091 35.849988 
" clip-path="url(#p8d2d066406)" style="fill: none; stroke: #ffffff; stroke-width: 4; stroke-linecap: square"/>
    <path d="M 57.190909 36.36 
L 56.190909 36.318104 
L 55.190909 36.272119 
L 54.190909 36.191102 
L 53.190909 36.148723 
L 52.190909 36.080772 
L 51.190909 36.034575 
L 50.190909 35.991015 
L 49.190909 35.933721 
L 48.190909 35.870182 
L 47.190909 35.817795 
L 46.190909 35.762315 
L 45.190909 35.693451 
L 44.190909 35.64733 
L 43.190909 35.604545 
L 42.190909 35.570278 
L 41.190909 35.540027 
L 40.190909 35.514151 
L 39.190909 35.471009 
L 38.190909 35.44306 
L 37.190909 35.415624 
L 36.190909 35.391998 
L 35.190909 35.37828 
L 34.190909 35.365974 
L 33.190909 35.36026 
L 32.190909 35.361577 
L 31.190909 35.367196 
L 30.190909 35.381941 
L 29.190909 35.391816 
L 28.190909 35.411965 
L 27.190909 35.445884 
L 26.190909 35.47404 
L 25.190909 35.505147 
L 24.190909 35.53979 
L 23.190909 35.571075 
L 22.190909 35.620986 
L 21.190909 35.658765 
L 20.190909 35.699844 
L 19.190909 35.756744 
L 18.190909 35.796424 
L 16.609091 35.849988 
" clip-path="url(#p8d2d066406)" style="fill: none; stroke: #000000; stroke-width: 5; stroke-linecap: square"/>
   </g>
   <g id="line2d_2">
    <path d="M 26.754545 23.678182 
L 25.959503 24.286181 
L 25.161843 24.891039 
L 24.341756 25.468984 
L 23.546404 26.076612 
L 22.734682 26.664595 
L 21.936886 27.26929 
L 21.140778 27.87601 
L 20.335878 28.47218 
L 19.52698 29.063553 
L 18.725222 29.663492 
L 17.921483 30.261056 
L 17.109176 30.848337 
L 16.311429 31.453091 
L 15.515817 32.060407 
L 14.725659 32.674267 
L 13.938071 33.291211 
L 13.153284 33.911517 
L 12.357444 34.518559 
L 10.949353 35.655587 
L 11.70001 37.725674 
L 12.453106 38.384009 
L 13.212546 39.034731 
L 13.972889 39.68437 
L 14.737452 40.328944 
L 15.506517 40.968116 
L 16.278335 41.603984 
L 17.055995 42.232841 
L 17.830539 42.865439 
L 18.611659 43.490144 
L 19.401595 44.104272 
L 20.187841 44.722826 
L 20.975977 45.339113 
L 21.766376 45.952684 
L 22.554625 46.568835 
L 23.354799 47.170676 
L 24.147206 47.781838 
L 24.941725 48.390465 
L 26.36835 49.505252 
" clip-path="url(#p8d2d066406)" style="fill: none; stroke: #ffffff; stroke-width: 4; stroke-linecap: square"/>
    <path d="M 26.754545 23.678182 
L 25.959503 24.286181 
L 25.161843 24.891039 
L 24.341756 25.468984 
L 23.546404 26.076612 
L 22.734682 26.664595 
L 21.936886 27.26929 
L 21.140778 27.87601 
L 20.335878 28.47218 
L 19.52698 29.063553 
L 18.725222 29.663492 
L 17.921483 30.261056 
L 17.109176 30.848337 
L 16.311429 31.453091 
L 15.515817 32.060407 
L 14.725659 32.674267 
L 13.938071 33.291211 
L 13.153284 33.911517 
L 12.357444 34.518559 
L 10.949353 35.655587 
L 11.70001 37.725674 
L 12.453106 38.384009 
L 13.212546 39.034731 
L 13.972889 39.68437 
L 14.737452 40.328944 
L 15.506517 40.968116 
L 16.278335 41.603984 
L 17.055995 42.232841 
L 17.830539 42.865439 
L 18.611659 43.490144 
L 19.401595 44.104272 
L 20.187841 44.722826 
L 20.975977 45.339113 
L 21.766376 45.952684 
L 22.554625 46.568835 
L 23.354799 47.170676 
L 24.147206 47.781838 
L 24.941725 48.390465 
L 26.36835 49.505252 
" clip-path="url(#p8d2d066406)" style="fill: none; stroke: #000000; stroke-width: 5; stroke-linecap: square"/>
   </g>
  </g>
 </g>
 <defs>
  <clipPath id="p8d2d066406">
   <rect x="9" y="8.64" width="55.8" height="55.44"/>
  </clipPath>
 </defs>
</svg>
