<?xml version="1.0" encoding="utf-8" standalone="no"?>
<!DOCTYPE svg PUBLIC "-//W3C//DTD SVG 1.1//EN"
  "http://www.w3.org/Graphics/SVG/1.1/DTD/svg11.dtd">
<svg xmlns:xlink="http://www.w3.org/1999/xlink" width="72pt" height="72pt" viewBox="0 0 72 72" xmlns="http://www.w3.org/2000/svg" version="1.1">
 <metadata>
  <rdf:RDF xmlns:dc="http://purl.org/dc/elements/1.1/" xmlns:cc="http://creativecommons.org/ns#" xmlns:rdf="http://www.w3.org/1999/02/22-rdf-syntax-ns#">
   <cc:Work>
    <dc:type rdf:resource="http://purl.org/dc/dcmitype/StillImage"/>
    <dc:date>2026-04-08T16:40:01.177653</dc:date>
    <dc:format>image/svg+xml</dc:format>
    <dc:creator>
     <cc:Agent>
      <dc:title>Matplotlib v3.10.1, https://matplotlib.org/</dc:title>
     </cc:Agent>
    </dc:creator>
   </cc:Work>
  </rdf:RDF>
 </metadata>
 <defs>
  <style type="text/css">*{stroke-linejoin: round; stroke-linecap: butt}</style>
 </defs>
 <g id="figure_1">
  <g id="patch_1">
   <path d="M 0 72 
L 1 72.041896 
L 2 72.087881 
L 3 72.168898 
L 4 72.211277 
L 5 72.279228 
L 6 72.325425 
L 7 72.368985 
L 8 72.426279 
L 9 72.489818 
L 10 72.542205 
L 11 72.597685 
L 12 72.666549 
L 13 72.71267 
L 14 72.755455 
L 15 72.789722 
L 16 72.819973 
L 17 72.845849 
L 18 72.888991 
L 19 72.91694 
L 20 72.944376 
L 21 72.968002 
L 22 72.98172 
L 23 72.994026 
L 24 72.99974 
L 25 72.998423 
L 26 72.992804 
L 27 72.978059 
L 28 72.968184 
L 29 72.948035 
L 30 72.914116 
L 31 72.88596 
L 32 72.854853 
L 33 72.82021 
L 34 72.788925 
L 35 72.739014 
L 36 72.701235 
L 37 72.660156 
L 38 72.603256 
L 39 72.563576 
L 40 72.510012 
L 41 72.430141 
L 42 72.367421 
L 43 72.283211 
L 44 72.232722 
L 45 72.172087 
L 46 72.118629 
L 47 72.045811 
L 48 71.953508 
L 49 71.884739 
L 50 71.808075 
L 51 71.763114 
L 52 71.705025 
L 53 71.635988 
L 54 71.567889 
L 55 71.492917 
L 56 71.451825 
L 57 71.411686 
L 58 71.375298 
L 59 71.342223 
L 60 71.303128 
L 61 71.246325 
L 62 71.199291 
L 63 71.14991 
L 64 71.118113 
L 65 71.082405 
L 66 71.064927 
L 67 71.04637 
L 68 71.030251 
L 69 71.020273 
L 70 71.006759 
L 71 71.002208 
L 72 71.000028 
L 71.002745 71 
L 71.007879 70 
L 71.015485 69 
L 71.025706 68 
L 71.036381 67 
L 71.063658 66 
L 71.098921 65 
L 71.122842 64 
L 71.162506 63 
L 71.199967 62 
L 71.229985 61 
L 71.286259 60 
L 71.316306 59 
L 71.349155 58 
L 71.382681 57 
L 71.430903 56 
L 71.48571 55 
L 71.527102 54 
L 71.599951 53 
L 71.650547 52 
L 71.698834 51 
L 71.745261 50 
L 71.829912 49 
L 71.879164 48 
L 71.942219 47 
L 72.010759 46 
L 72.098973 45 
L 72.147689 44 
L 72.203293 43 
L 72.274263 42 
L 72.333002 41 
L 72.411103 40 
L 72.456878 39 
L 72.531921 38 
L 72.572772 37 
L 72.618224 36 
L 72.675804 35 
L 72.715667 34 
L 72.746742 33 
L 72.793231 32 
L 72.819119 31 
L 72.850578 30 
L 72.881962 29 
L 72.905617 28 
L 72.938949 27 
L 72.963467 26 
L 72.981197 25 
L 72.988901 24 
L 72.997475 23 
L 72.999985 22 
L 72.997531 21 
L 72.991853 20 
L 72.98423 19 
L 72.96428 18 
L 72.937531 17 
L 72.900949 16 
L 72.871996 15 
L 72.839354 14 
L 72.812076 13 
L 72.756253 12 
L 72.716797 11 
L 72.683102 10 
L 72.651534 9 
L 72.602763 8 
L 72.548929 7 
L 72.502685 6 
L 72.446168 5 
L 72.403661 4 
L 72.357708 3 
L 72.310756 2 
L 72.251918 1 
L 72.163638 0 
L 71 -0.105872 
L 70 -0.056068 
L 69 0.000024 
L 68 0.063644 
L 67 0.110312 
L 66 0.160323 
L 65 0.207349 
L 64 0.256598 
L 63 0.324713 
L 62 0.384316 
L 61 0.431368 
L 60 0.496508 
L 59 0.540639 
L 58 0.580617 
L 57 0.635234 
L 56 0.680452 
L 55 0.713832 
L 54 0.754352 
L 53 0.792004 
L 52 0.826951 
L 51 0.85061 
L 50 0.878875 
L 49 0.910122 
L 48 0.940763 
L 47 0.954436 
L 46 0.973522 
L 45 0.990316 
L 44 0.998954 
L 43 0.999969 
L 42 0.996633 
L 41 0.988753 
L 40 0.981551 
L 39 0.971878 
L 38 0.949407 
L 37 0.926789 
L 36 0.894112 
L 35 0.872212 
L 34 0.83197 
L 33 0.803034 
L 32 0.757597 
L 31 0.69809 
L 30 0.647967 
L 29 0.580625 
L 28 0.532298 
L 27 0.451062 
L 26 0.389733 
L 25 0.30413 
L 24 0.249601 
L 23 0.203956 
L 22 0.122314 
L 21 0.060596 
L 20 -0.024812 
L 19 -0.102192 
L 18 -0.165847 
L 17 -0.251287 
L 16 -0.324196 
L 15 -0.364781 
L 14 -0.418568 
L 13 -0.464303 
L 12 -0.511335 
L 11 -0.587454 
L 10 -0.640737 
L 9 -0.68124 
L 8 -0.711936 
L 7 -0.765736 
L 6 -0.815109 
L 5 -0.847003 
L 4 -0.886582 
L 3 -0.924456 
L 2 -0.952774 
L 1 -0.971724 
L 0 -0.989036 
L -0.994675 1 
L -0.999492 2 
L -0.999908 3 
L -0.996481 4 
L -0.991222 5 
L -0.980988 6 
L -0.970635 7 
L -0.948618 8 
L -0.92403 9 
L -0.884529 10 
L -0.849121 11 
L -0.798032 12 
L -0.752515 13 
L -0.692772 14 
L -0.657363 15 
L -0.591172 16 
L -0.520894 17 
L -0.473813 18 
L -0.432345 19 
L -0.377413 20 
L -0.328633 21 
L -0.281352 22 
L -0.209425 23 
L -0.154858 24 
L -0.088861 25 
L -0.020579 26 
L 0.053022 27 
L 0.124993 28 
L 0.175339 29 
L 0.217777 30 
L 0.299494 31 
L 0.347809 32 
L 0.415639 33 
L 0.49355 34 
L 0.544718 35 
L 0.594961 36 
L 0.655587 37 
L 0.713066 38 
L 0.762042 39 
L 0.814311 40 
L 0.84069 41 
L 0.886706 42 
L 0.92028 43 
L 0.947831 44 
L 0.966512 45 
L 0.984058 46 
L 0.993407 47 
L 0.998736 48 
L 0.999745 49 
L 0.996284 50 
L 0.989631 51 
L 0.976448 52 
L 0.961378 53 
L 0.94237 54 
L 0.92577 55 
L 0.899537 56 
L 0.859233 57 
L 0.826213 58 
L 0.777816 59 
L 0.750158 60 
L 0.711505 61 
L 0.642823 62 
L 0.605805 63 
L 0.554722 64 
L 0.517069 65 
L 0.442085 66 
L 0.388001 67 
L 0.305753 68 
L 0.23016 69 
L 0.144675 70 
L 0.093381 71 
L 0.049647 72 
L 0 72 
z
" style="fill: none; opacity: 0; stroke: #ffffff; stroke-width: 4; stroke-linejoin: miter"/>
   <path d="M 0 72 
L 1 72.041896 
L 2 72.087881 
L 3 72.168898 
L 4 72.211277 
L 5 72.279228 
L 6 72.325425 
L 7 72.368985 
L 8 72.426279 
L 9 72.489818 
L 10 72.542205 
L 11 72.597685 
L 12 72.666549 
L 13 72.71267 
L 14 72.755455 
L 15 72.789722 
L 16 72.819973 
L 17 72.845849 
L 18 72.888991 
L 19 72.91694 
L 20 72.944376 
L 21 72.968002 
L 22 72.98172 
L 23 72.994026 
L 24 72.99974 
L 25 72.998423 
L 26 72.992804 
L 27 72.978059 
L 28 72.968184 
L 29 72.948035 
L 30 72.914116 
L 31 72.88596 
L 32 72.854853 
L 33 72.82021 
L 34 72.788925 
L 35 72.739014 
L 36 72.701235 
L 37 72.660156 
L 38 72.603256 
L 39 72.563576 
L 40 72.510012 
L 41 72.430141 
L 42 72.367421 
L 43 72.283211 
L 44 72.232722 
L 45 72.172087 
L 46 72.118629 
L 47 72.045811 
L 48 71.953508 
L 49 71.884739 
L 50 71.808075 
L 51 71.763114 
L 52 71.705025 
L 53 71.635988 
L 54 71.567889 
L 55 71.492917 
L 56 71.451825 
L 57 71.411686 
L 58 71.375298 
L 59 71.342223 
L 60 71.303128 
L 61 71.246325 
L 62 71.199291 
L 63 71.14991 
L 64 71.118113 
L 65 71.082405 
L 66 71.064927 
L 67 71.04637 
L 68 71.030251 
L 69 71.020273 
L 70 71.006759 
L 71 71.002208 
L 72 71.000028 
L 71.002745 71 
L 71.007879 70 
L 71.015485 69 
L 71.025706 68 
L 71.036381 67 
L 71.063658 66 
L 71.098921 65 
L 71.122842 64 
L 71.162506 63 
L 71.199967 62 
L 71.229985 61 
L 71.286259 60 
L 71.316306 59 
L 71.349155 58 
L 71.382681 57 
L 71.430903 56 
L 71.48571 55 
L 71.527102 54 
L 71.599951 53 
L 71.650547 52 
L 71.698834 51 
L 71.745261 50 
L 71.829912 49 
L 71.879164 48 
L 71.942219 47 
L 72.010759 46 
L 72.098973 45 
L 72.147689 44 
L 72.203293 43 
L 72.274263 42 
L 72.333002 41 
L 72.411103 40 
L 72.456878 39 
L 72.531921 38 
L 72.572772 37 
L 72.618224 36 
L 72.675804 35 
L 72.715667 34 
L 72.746742 33 
L 72.793231 32 
L 72.819119 31 
L 72.850578 30 
L 72.881962 29 
L 72.905617 28 
L 72.938949 27 
L 72.963467 26 
L 72.981197 25 
L 72.988901 24 
L 72.997475 23 
L 72.999985 22 
L 72.997531 21 
L 72.991853 20 
L 72.98423 19 
L 72.96428 18 
L 72.937531 17 
L 72.900949 16 
L 72.871996 15 
L 72.839354 14 
L 72.812076 13 
L 72.756253 12 
L 72.716797 11 
L 72.683102 10 
L 72.651534 9 
L 72.602763 8 
L 72.548929 7 
L 72.502685 6 
L 72.446168 5 
L 72.403661 4 
L 72.357708 3 
L 72.310756 2 
L 72.251918 1 
L 72.163638 0 
L 71 -0.105872 
L 70 -0.056068 
L 69 0.000024 
L 68 0.063644 
L 67 0.110312 
L 66 0.160323 
L 65 0.207349 
L 64 0.256598 
L 63 0.324713 
L 62 0.384316 
L 61 0.431368 
L 60 0.496508 
L 59 0.540639 
L 58 0.580617 
L 57 0.635234 
L 56 0.680452 
L 55 0.713832 
L 54 0.754352 
L 53 0.792004 
L 52 0.826951 
L 51 0.85061 
L 50 0.878875 
L 49 0.910122 
L 48 0.940763 
L 47 0.954436 
L 46 0.973522 
L 45 0.990316 
L 44 0.998954 
L 43 0.999969 
L 42 0.996633 
L 41 0.988753 
L 40 0.981551 
L 39 0.971878 
L 38 0.949407 
L 37 0.926789 
L 36 0.894112 
L 35 0.872212 
L 34 0.83197 
L 33 0.803034 
L 32 0.757597 
L 31 0.69809 
L 30 0.647967 
L 29 0.580625 
L 28 0.532298 
L 27 0.451062 
L 26 0.389733 
L 25 0.30413 
L 24 0.249601 
L 23 0.203956 
L 22 0.122314 
L 21 0.060596 
L 20 -0.024812 
L 19 -0.102192 
L 18 -0.165847 
L 17 -0.251287 
L 16 -0.324196 
L 15 -0.364781 
L 14 -0.418568 
L 13 -0.464303 
L 12 -0.511335 
L 11 -0.587454 
L 10 -0.640737 
L 9 -0.68124 
L 8 -0.711936 
L 7 -0.765736 
L 6 -0.815109 
L 5 -0.847003 
L 4 -0.886582 
L 3 -0.924456 
L 2 -0.952774 
L 1 -0.971724 
L 0 -0.989036 
L -0.994675 1 
L -0.999492 2 
L -0.999908 3 
L -0.996481 4 
L -0.991222 5 
L -0.980988 6 
L -0.970635 7 
L -0.948618 8 
L -0.92403 9 
L -0.884529 10 
L -0.849121 11 
L -0.798032 12 
L -0.752515 13 
L -0.692772 14 
L -0.657363 15 
L -0.591172 16 
L -0.520894 17 
L -0.473813 18 
L -0.432345 19 
L -0.377413 20 
L -0.328633 21 
L -0.281352 22 
L -0.209425 23 
L -0.154858 24 
L -0.088861 25 
L -0.020579 26 
L 0.053022 27 
L 0.124993 28 
L 0.175339 29 
L 0.217777 30 
L 0.299494 31 
L 0.347809 32 
L 0.415639 33 
L 0.49355 34 
L 0.544718 35 
L 0.594961 36 
L 0.655587 37 
L 0.713066 38 
L 0.762042 39 
L 0.814311 40 
L 0.84069 41 
L 0.886706 42 
L 0.92028 43 
L 0.947831 44 
L 0.966512 45 
L 0.984058 46 
L 0.993407 47 
L 0.998736 48 
L 0.999745 49 
L 0.996284 50 
L 0.989631 51 
L 0.976448 52 
L 0.961378 53 
L 0.94237 54 
L 0.92577 55 
L 0.899537 56 
L 0.859233 57 
L 0.826213 58 
L 0.777816 59 
L 0.750158 60 
L 0.711505 61 
L 0.642823 62 
L 0.605805 63 
L 0.554722 64 
L 0.517069 65 
L 0.442085 66 
L 0.388001 67 
L 0.305753 68 
L 0.23016 69 
L 0.144675 70 
L 0.093381 71 
L 0.049647 72 
L 0 72 
z
" style="fill: none; opacity: 0"/>
  </g>
  <g id="axes_1">
   <g id="line2d_1">
    <path d="M 16.609091 36.36 
L 17.609091 36.401896 
L 18.609091 36.447881 
L 19.609091 36.528898 
L 20.609091 36.571277 
L 21.609091 36.639228 
L 22.609091 36.685425 
L 23.609091 36.728985 
L 24.609091 36.786279 
L 25.609091 36.849818 
L 26.609091 36.902205 
L 27.609091 36.957685 
L 28.609091 37.026549 
L 29.609091 37.07267 
L 30.609091 37.115455 
L 31.609091 37.149722 
L 32.609091 37.179973 
L 33.609091 37.205849 
L 34.609091 37.248991 
L 35.609091 37.27694 
L 36.609091 37.304376 
L 37.609091 37.328002 
L 38.609091 37.34172 
L 39.609091 37.354026 
L 40.609091 37.35974 
L 41.609091 37.358423 
L 42.609091 37.352804 
L 43.609091 37.338059 
L 44.609091 37.328184 
L 45.609091 37.308035 
L 46.609091 37.274116 
L 47.609091 37.24596 
L 48.609091 37.214853 
L 49.609091 37.18021 
L 50.609091 37.148925 
L 51.609091 37.099014 
L 52.609091 37.061235 
L 53.609091 37.020156 
L 54.609091 36.963256 
L 55.609091 36.923576 
L 57.190909 36.870012 
" clip-path="url(#p6b7d2de8fa)" style="fill: none; stroke: #ffffff; stroke-width: 4; stroke-linecap: square"/>
    <path d="M 16.609091 36.36 
L 17.609091 36.401896 
L 18.609091 36.447881 
L 19.609091 36.528898 
L 20.609091 36.571277 
L 21.609091 36.639228 
L 22.609091 36.685425 
L 23.609091 36.728985 
L 24.609091 36.786279 
L 25.609091 36.849818 
L 26.609091 36.902205 
L 27.609091 36.957685 
L 28.609091 37.026549 
L 29.609091 37.07267 
L 30.609091 37.115455 
L 31.609091 37.149722 
L 32.609091 37.179973 
L 33.609091 37.205849 
L 34.609091 37.248991 
L 35.609091 37.27694 
L 36.609091 37.304376 
L 37.609091 37.328002 
L 38.609091 37.34172 
L 39.609091 37.354026 
L 40.609091 37.35974 
L 41.609091 37.358423 
L 42.609091 37.352804 
L 43.609091 37.338059 
L 44.609091 37.328184 
L 45.609091 37.308035 
L 46.609091 37.274116 
L 47.609091 37.24596 
L 48.609091 37.214853 
L 49.609091 37.18021 
L 50.609091 37.148925 
L 51.609091 37.099014 
L 52.609091 37.061235 
L 53.609091 37.020156 
L 54.609091 36.963256 
L 55.609091 36.923576 
L 57.190909 36.870012 
" clip-path="url(#p6b7d2de8fa)" style="fill: none; stroke: #000000; stroke-width: 5; stroke-linecap: square"/>
   </g>
   <g id="line2d_2">
    <path d="M 47.045455 23.678182 
L 47.786855 24.350551 
L 48.525637 25.026063 
L 49.241993 25.728486 
L 49.983083 26.401227 
L 50.707804 27.093612 
L 51.44645 27.769287 
L 52.186785 28.442935 
L 52.918328 29.127134 
L 53.645872 29.81613 
L 54.380556 30.496559 
L 55.11326 31.179365 
L 55.837396 31.872452 
L 56.576091 32.548067 
L 57.316922 33.22112 
L 58.063206 33.887629 
L 58.812061 34.551053 
L 59.563717 35.211116 
L 60.304319 35.884443 
L 61.676625 37.064413 
L 60.89084 36.274695 
L 60.107494 36.896729 
L 59.330491 37.526375 
L 58.554391 38.157105 
L 57.782512 38.7929 
L 57.015134 39.434097 
L 56.25051 40.078598 
L 55.491728 40.730109 
L 54.729829 41.37788 
L 53.974507 42.033544 
L 53.227999 42.699785 
L 52.477803 43.3616 
L 51.729496 44.025681 
L 50.983453 44.692479 
L 50.23526 45.356697 
L 49.498991 46.035224 
L 48.754955 46.704431 
L 48.013032 47.376173 
L 46.65926 48.578384 
" clip-path="url(#p6b7d2de8fa)" style="fill: none; stroke: #ffffff; stroke-width: 4; stroke-linecap: square"/>
    <path d="M 47.045455 23.678182 
L 47.786855 24.350551 
L 48.525637 25.026063 
L 49.241993 25.728486 
L 49.983083 26.401227 
L 50.707804 27.093612 
L 51.44645 27.769287 
L 52.186785 28.442935 
L 52.918328 29.127134 
L 53.645872 29.81613 
L 54.380556 30.496559 
L 55.11326 31.179365 
L 55.837396 31.872452 
L 56.576091 32.548067 
L 57.316922 33.22112 
L 58.063206 33.887629 
L 58.812061 34.551053 
L 59.563717 35.211116 
L 60.304319 35.884443 
L 61.676625 37.064413 
L 60.89084 36.274695 
L 60.107494 36.896729 
L 59.330491 37.526375 
L 58.554391 38.157105 
L 57.782512 38.7929 
L 57.015134 39.434097 
L 56.25051 40.078598 
L 55.491728 40.730109 
L 54.729829 41.37788 
L 53.974507 42.033544 
L 53.227999 42.699785 
L 52.477803 43.3616 
L 51.729496 44.025681 
L 50.983453 44.692479 
L 50.23526 45.356697 
L 49.498991 46.035224 
L 48.754955 46.704431 
L 48.013032 47.376173 
L 46.65926 48.578384 
" clip-path="url(#p6b7d2de8fa)" style="fill: none; stroke: #000000; stroke-width: 5; stroke-linecap: square"/>
   </g>
  </g>
 </g>
 <defs>
  <clipPath id="p6b7d2de8fa">
   <rect x="9" y="8.64" width="55.8" height="55.44"/>
  </clipPath>
 </defs>
</svg>
