<?xml version="1.0" encoding="utf-8" standalone="no"?>
<!DOCTYPE svg PUBLIC "-//W3C//DTD SVG 1.1//EN"
  "http://www.w3.org/Graphics/SVG/1.1/DTD/svg11.dtd">
<svg xmlns:xlink="http://www.w3.org/1999/xlink" width="72pt" height="72pt" viewBox="0 0 72 72" xmlns="http://www.w3.org/2000/svg" version="1.1">
 <metadata>
  <rdf:RDF xmlns:dc="http://purl.org/dc/elements/1.1/" xmlns:cc="http://creativecommons.org/ns#" xmlns:rdf="http://www.w3.org/1999/02/22-rdf-syntax-ns#">
   <cc:Work>
    <dc:type rdf:resource="http://purl.org/dc/dcmitype/StillImage"/>
    <dc:date>2026-04-08T13:36:23.741952</dc:date>
    <dc:format>image/svg+xml</dc:format>
    <dc:creator>
     <cc:Agent>
      <dc:title>Matplotlib v3.10.7, https://matplotlib.org/</dc:title>
     </cc:Agent>
    </dc:creator>
   </cc:Work>
  </rdf:RDF>
 </metadata>
 <defs>
  <style type="text/css">*{stroke-linejoin: round; stroke-linecap: butt}</style>
 </defs>
 <g id="figure_1">
  <g id="patch_1">
   <path d="M 0 72 
L 72 72 
L 72 0 
L 0 0 
L 0 72 
z
" style="fill: none; opacity: 0; stroke: #ffffff; stroke-width: 4; stroke-linejoin: miter"/>
   <path d="M 0 72 
L 72 72 
L 72 0 
L 0 0 
L 0 72 
z
" style="fill: none; opacity: 0"/>
  </g>
  <g id="axes_1">
   <g id="patch_2">
    <path d="M 36.9 59.417851 
L 37.9 59.449288 
L 38.9 59.486228 
L 39.9 59.583975 
L 40.9 59.616496 
L 41.9 59.690121 
L 43.015014 59.728686 
L 44.071397 59.35506 
L 45.017334 59.025629 
L 45.968149 58.707973 
L 46.911915 58.373299 
L 47.858407 58.045207 
L 49.13819 57.610702 
L 50.096473 56.790195 
L 50.833569 56.113077 
L 51.562237 55.427532 
L 52.287761 54.738842 
L 53.009858 54.046726 
L 53.836689 53.296689 
L 54.56355 52.609337 
L 55.291675 51.923248 
L 56.016739 51.234098 
L 56.731765 50.534911 
L 57.446031 49.834963 
L 58.23432 49.046385 
L 58.824648 47.794955 
L 59.196565 46.866616 
L 59.550581 45.930862 
L 59.922946 45.002709 
L 60.277805 44.067304 
L 60.738682 42.798444 
L 60.765824 41.475014 
L 60.726728 40.475014 
L 60.684289 39.475014 
L 60.651524 38.475014 
L 60.584097 37.475014 
L 60.544971 36.36 
L 60.502297 35.36 
L 60.431716 34.36 
L 60.395325 33.36 
L 60.336922 32.36 
L 60.225969 31.36 
L 60.155311 30.244986 
L 59.653254 29.288762 
L 59.228282 28.382399 
L 58.78898 27.481972 
L 58.361489 26.576652 
L 57.904136 25.683702 
L 57.278535 24.483073 
L 56.580392 23.91333 
L 55.81441 23.265098 
L 55.083868 22.581426 
L 54.340531 21.91055 
L 53.585059 21.251808 
L 52.749804 20.510196 
L 51.988309 19.857477 
L 51.261887 19.169686 
L 50.536058 18.481301 
L 49.812935 17.790211 
L 49.092017 17.096915 
L 48.28492 16.327144 
L 47.615201 16.172994 
L 46.677899 15.822714 
L 45.740294 15.473166 
L 44.810534 15.10468 
L 43.88062 14.736566 
L 42.63333 14.223615 
L 42.015014 14.301954 
L 41.015014 14.301468 
L 40.015014 14.299539 
L 39.015014 14.286282 
L 38.015014 14.277891 
L 36.9 14.256354 
L 35.9 14.233322 
L 34.9 14.216088 
L 33.9 14.197626 
L 32.9 14.177173 
L 31.9 14.160574 
L 30.784986 14.097795 
L 30.136785 14.350378 
L 29.200415 14.702906 
L 28.25068 15.023169 
L 27.306117 15.35592 
L 26.36934 15.707464 
L 25.088866 16.140302 
L 24.505075 16.731353 
L 23.775704 17.416196 
L 23.046669 18.101374 
L 22.300807 18.769726 
L 21.54803 19.431163 
L 20.732588 20.192588 
L 19.957646 20.831859 
L 19.215708 21.504135 
L 18.47744 22.18008 
L 17.741961 22.858815 
L 16.958227 23.489295 
L 16.140358 24.248293 
L 15.660008 25.208639 
L 15.212688 26.105745 
L 14.733455 26.989632 
L 14.3166 27.899357 
L 13.891531 28.80568 
L 13.312147 30.025453 
L 13.219733 31.244986 
L 13.142136 32.244986 
L 13.111595 33.244986 
L 13.04208 34.244986 
L 13.018108 35.244986 
L 12.989486 36.36 
L 12.947693 37.36 
L 12.926117 38.36 
L 12.912169 39.36 
L 12.885446 40.36 
L 12.876137 41.36 
L 12.86369 42.475014 
L 13.310641 43.777564 
L 13.688091 44.703611 
L 14.066373 45.629313 
L 14.454182 46.55107 
L 14.849142 47.469864 
L 15.372191 48.712972 
L 16.307871 49.718408 
L 17.031643 50.408849 
L 17.764333 51.090372 
L 18.489798 51.779121 
L 19.212688 52.470444 
L 20.049743 53.210257 
L 20.809554 53.86466 
L 21.583114 54.505313 
L 22.32632 55.176321 
L 23.071564 55.845291 
L 23.803596 56.527471 
L 24.667046 57.24089 
L 25.726801 57.652712 
L 26.664804 58.001298 
L 27.600559 58.355313 
L 28.547841 58.681496 
L 29.497521 59.001892 
L 30.762221 59.472812 
L 31.784986 59.412148 
L 32.784986 59.373961 
L 33.784986 59.331965 
L 34.784986 59.289947 
L 35.784986 59.230431 
L 36.9 59.117271 
L 36.9 59.417851 
z
" clip-path="url(#p417ac349f7)" style="fill: #0000ff; stroke: #ffffff; stroke-width: 4; stroke-linejoin: miter"/>
    <path d="M 36.9 59.417851 
L 37.9 59.449288 
L 38.9 59.486228 
L 39.9 59.583975 
L 40.9 59.616496 
L 41.9 59.690121 
L 43.015014 59.728686 
L 44.071397 59.35506 
L 45.017334 59.025629 
L 45.968149 58.707973 
L 46.911915 58.373299 
L 47.858407 58.045207 
L 49.13819 57.610702 
L 50.096473 56.790195 
L 50.833569 56.113077 
L 51.562237 55.427532 
L 52.287761 54.738842 
L 53.009858 54.046726 
L 53.836689 53.296689 
L 54.56355 52.609337 
L 55.291675 51.923248 
L 56.016739 51.234098 
L 56.731765 50.534911 
L 57.446031 49.834963 
L 58.23432 49.046385 
L 58.824648 47.794955 
L 59.196565 46.866616 
L 59.550581 45.930862 
L 59.922946 45.002709 
L 60.277805 44.067304 
L 60.738682 42.798444 
L 60.765824 41.475014 
L 60.726728 40.475014 
L 60.684289 39.475014 
L 60.651524 38.475014 
L 60.584097 37.475014 
L 60.544971 36.36 
L 60.502297 35.36 
L 60.431716 34.36 
L 60.395325 33.36 
L 60.336922 32.36 
L 60.225969 31.36 
L 60.155311 30.244986 
L 59.653254 29.288762 
L 59.228282 28.382399 
L 58.78898 27.481972 
L 58.361489 26.576652 
L 57.904136 25.683702 
L 57.278535 24.483073 
L 56.580392 23.91333 
L 55.81441 23.265098 
L 55.083868 22.581426 
L 54.340531 21.91055 
L 53.585059 21.251808 
L 52.749804 20.510196 
L 51.988309 19.857477 
L 51.261887 19.169686 
L 50.536058 18.481301 
L 49.812935 17.790211 
L 49.092017 17.096915 
L 48.28492 16.327144 
L 47.615201 16.172994 
L 46.677899 15.822714 
L 45.740294 15.473166 
L 44.810534 15.10468 
L 43.88062 14.736566 
L 42.63333 14.223615 
L 42.015014 14.301954 
L 41.015014 14.301468 
L 40.015014 14.299539 
L 39.015014 14.286282 
L 38.015014 14.277891 
L 36.9 14.256354 
L 35.9 14.233322 
L 34.9 14.216088 
L 33.9 14.197626 
L 32.9 14.177173 
L 31.9 14.160574 
L 30.784986 14.097795 
L 30.136785 14.350378 
L 29.200415 14.702906 
L 28.25068 15.023169 
L 27.306117 15.35592 
L 26.36934 15.707464 
L 25.088866 16.140302 
L 24.505075 16.731353 
L 23.775704 17.416196 
L 23.046669 18.101374 
L 22.300807 18.769726 
L 21.54803 19.431163 
L 20.732588 20.192588 
L 19.957646 20.831859 
L 19.215708 21.504135 
L 18.47744 22.18008 
L 17.741961 22.858815 
L 16.958227 23.489295 
L 16.140358 24.248293 
L 15.660008 25.208639 
L 15.212688 26.105745 
L 14.733455 26.989632 
L 14.3166 27.899357 
L 13.891531 28.80568 
L 13.312147 30.025453 
L 13.219733 31.244986 
L 13.142136 32.244986 
L 13.111595 33.244986 
L 13.04208 34.244986 
L 13.018108 35.244986 
L 12.989486 36.36 
L 12.947693 37.36 
L 12.926117 38.36 
L 12.912169 39.36 
L 12.885446 40.36 
L 12.876137 41.36 
L 12.86369 42.475014 
L 13.310641 43.777564 
L 13.688091 44.703611 
L 14.066373 45.629313 
L 14.454182 46.55107 
L 14.849142 47.469864 
L 15.372191 48.712972 
L 16.307871 49.718408 
L 17.031643 50.408849 
L 17.764333 51.090372 
L 18.489798 51.779121 
L 19.212688 52.470444 
L 20.049743 53.210257 
L 20.809554 53.86466 
L 21.583114 54.505313 
L 22.32632 55.176321 
L 23.071564 55.845291 
L 23.803596 56.527471 
L 24.667046 57.24089 
L 25.726801 57.652712 
L 26.664804 58.001298 
L 27.600559 58.355313 
L 28.547841 58.681496 
L 29.497521 59.001892 
L 30.762221 59.472812 
L 31.784986 59.412148 
L 32.784986 59.373961 
L 33.784986 59.331965 
L 34.784986 59.289947 
L 35.784986 59.230431 
L 36.9 59.117271 
L 36.9 59.417851 
z
" clip-path="url(#p417ac349f7)" style="fill: #0000ff; stroke: #0000ff; stroke-linejoin: miter"/>
   </g>
   <g id="line2d_1">
    <path d="M 36.9 59.417851 
L 37.9 59.449288 
L 38.9 59.486228 
L 39.9 59.583975 
L 40.9 59.616496 
L 41.9 59.690121 
L 43.015014 59.728686 
L 44.071397 59.35506 
L 45.017334 59.025629 
L 45.968149 58.707973 
L 46.911915 58.373299 
L 47.858407 58.045207 
L 49.13819 57.610702 
L 50.096473 56.790195 
L 50.833569 56.113077 
L 51.562237 55.427532 
L 52.287761 54.738842 
L 53.009858 54.046726 
L 53.836689 53.296689 
L 54.56355 52.609337 
L 55.291675 51.923248 
L 56.016739 51.234098 
L 56.731765 50.534911 
L 57.446031 49.834963 
L 58.23432 49.046385 
L 58.824648 47.794955 
L 59.196565 46.866616 
L 59.550581 45.930862 
L 59.922946 45.002709 
L 60.277805 44.067304 
L 60.738682 42.798444 
L 60.765824 41.475014 
L 60.726728 40.475014 
L 60.684289 39.475014 
L 60.651524 38.475014 
L 60.584097 37.475014 
L 60.544971 36.36 
L 60.502297 35.36 
L 60.431716 34.36 
L 60.395325 33.36 
L 60.336922 32.36 
L 60.225969 31.36 
L 60.155311 30.244986 
L 59.653254 29.288762 
L 59.228282 28.382399 
L 58.78898 27.481972 
L 58.361489 26.576652 
L 57.904136 25.683702 
L 57.278535 24.483073 
L 56.580392 23.91333 
L 55.81441 23.265098 
L 55.083868 22.581426 
L 54.340531 21.91055 
L 53.585059 21.251808 
L 52.749804 20.510196 
L 51.988309 19.857477 
L 51.261887 19.169686 
L 50.536058 18.481301 
L 49.812935 17.790211 
L 49.092017 17.096915 
L 48.28492 16.327144 
L 47.615201 16.172994 
L 46.677899 15.822714 
L 45.740294 15.473166 
L 44.810534 15.10468 
L 43.88062 14.736566 
L 42.63333 14.223615 
L 42.015014 14.301954 
L 41.015014 14.301468 
L 40.015014 14.299539 
L 39.015014 14.286282 
L 38.015014 14.277891 
L 36.9 14.256354 
L 35.9 14.233322 
L 34.9 14.216088 
L 33.9 14.197626 
L 32.9 14.177173 
L 31.9 14.160574 
L 30.784986 14.097795 
L 30.136785 14.350378 
L 29.200415 14.702906 
L 28.25068 15.023169 
L 27.306117 15.35592 
L 26.36934 15.707464 
L 25.088866 16.140302 
L 24.505075 16.731353 
L 23.775704 17.416196 
L 23.046669 18.101374 
L 22.300807 18.769726 
L 21.54803 19.431163 
L 20.732588 20.192588 
L 19.957646 20.831859 
L 19.215708 21.504135 
L 18.47744 22.18008 
L 17.741961 22.858815 
L 16.958227 23.489295 
L 16.140358 24.248293 
L 15.660008 25.208639 
L 15.212688 26.105745 
L 14.733455 26.989632 
L 14.3166 27.899357 
L 13.891531 28.80568 
L 13.312147 30.025453 
L 13.219733 31.244986 
L 13.142136 32.244986 
L 13.111595 33.244986 
L 13.04208 34.244986 
L 13.018108 35.244986 
L 12.989486 36.36 
L 12.947693 37.36 
L 12.926117 38.36 
L 12.912169 39.36 
L 12.885446 40.36 
L 12.876137 41.36 
L 12.86369 42.475014 
L 13.310641 43.777564 
L 13.688091 44.703611 
L 14.066373 45.629313 
L 14.454182 46.55107 
L 14.849142 47.469864 
L 15.372191 48.712972 
L 16.307871 49.718408 
L 17.031643 50.408849 
L 17.764333 51.090372 
L 18.489798 51.779121 
L 19.212688 52.470444 
L 20.049743 53.210257 
L 20.809554 53.86466 
L 21.583114 54.505313 
L 22.32632 55.176321 
L 23.071564 55.845291 
L 23.803596 56.527471 
L 24.667046 57.24089 
L 25.726801 57.652712 
L 26.664804 58.001298 
L 27.600559 58.355313 
L 28.547841 58.681496 
L 29.497521 59.001892 
L 30.762221 59.472812 
L 31.784986 59.412148 
L 32.784986 59.373961 
L 33.784986 59.331965 
L 34.784986 59.289947 
L 35.784986 59.230431 
L 36.9 59.117271 
L 36.9 59.417851 
" clip-path="url(#p417ac349f7)" style="fill: none; stroke: #ffffff; stroke-width: 4; stroke-linecap: square"/>
    <path d="M 36.9 59.417851 
L 37.9 59.449288 
L 38.9 59.486228 
L 39.9 59.583975 
L 40.9 59.616496 
L 41.9 59.690121 
L 43.015014 59.728686 
L 44.071397 59.35506 
L 45.017334 59.025629 
L 45.968149 58.707973 
L 46.911915 58.373299 
L 47.858407 58.045207 
L 49.13819 57.610702 
L 50.096473 56.790195 
L 50.833569 56.113077 
L 51.562237 55.427532 
L 52.287761 54.738842 
L 53.009858 54.046726 
L 53.836689 53.296689 
L 54.56355 52.609337 
L 55.291675 51.923248 
L 56.016739 51.234098 
L 56.731765 50.534911 
L 57.446031 49.834963 
L 58.23432 49.046385 
L 58.824648 47.794955 
L 59.196565 46.866616 
L 59.550581 45.930862 
L 59.922946 45.002709 
L 60.277805 44.067304 
L 60.738682 42.798444 
L 60.765824 41.475014 
L 60.726728 40.475014 
L 60.684289 39.475014 
L 60.651524 38.475014 
L 60.584097 37.475014 
L 60.544971 36.36 
L 60.502297 35.36 
L 60.431716 34.36 
L 60.395325 33.36 
L 60.336922 32.36 
L 60.225969 31.36 
L 60.155311 30.244986 
L 59.653254 29.288762 
L 59.228282 28.382399 
L 58.78898 27.481972 
L 58.361489 26.576652 
L 57.904136 25.683702 
L 57.278535 24.483073 
L 56.580392 23.91333 
L 55.81441 23.265098 
L 55.083868 22.581426 
L 54.340531 21.91055 
L 53.585059 21.251808 
L 52.749804 20.510196 
L 51.988309 19.857477 
L 51.261887 19.169686 
L 50.536058 18.481301 
L 49.812935 17.790211 
L 49.092017 17.096915 
L 48.28492 16.327144 
L 47.615201 16.172994 
L 46.677899 15.822714 
L 45.740294 15.473166 
L 44.810534 15.10468 
L 43.88062 14.736566 
L 42.63333 14.223615 
L 42.015014 14.301954 
L 41.015014 14.301468 
L 40.015014 14.299539 
L 39.015014 14.286282 
L 38.015014 14.277891 
L 36.9 14.256354 
L 35.9 14.233322 
L 34.9 14.216088 
L 33.9 14.197626 
L 32.9 14.177173 
L 31.9 14.160574 
L 30.784986 14.097795 
L 30.136785 14.350378 
L 29.200415 14.702906 
L 28.25068 15.023169 
L 27.306117 15.35592 
L 26.36934 15.707464 
L 25.088866 16.140302 
L 24.505075 16.731353 
L 23.775704 17.416196 
L 23.046669 18.101374 
L 22.300807 18.769726 
L 21.54803 19.431163 
L 20.732588 20.192588 
L 19.957646 20.831859 
L 19.215708 21.504135 
L 18.47744 22.18008 
L 17.741961 22.858815 
L 16.958227 23.489295 
L 16.140358 24.248293 
L 15.660008 25.208639 
L 15.212688 26.105745 
L 14.733455 26.989632 
L 14.3166 27.899357 
L 13.891531 28.80568 
L 13.312147 30.025453 
L 13.219733 31.244986 
L 13.142136 32.244986 
L 13.111595 33.244986 
L 13.04208 34.244986 
L 13.018108 35.244986 
L 12.989486 36.36 
L 12.947693 37.36 
L 12.926117 38.36 
L 12.912169 39.36 
L 12.885446 40.36 
L 12.876137 41.36 
L 12.86369 42.475014 
L 13.310641 43.777564 
L 13.688091 44.703611 
L 14.066373 45.629313 
L 14.454182 46.55107 
L 14.849142 47.469864 
L 15.372191 48.712972 
L 16.307871 49.718408 
L 17.031643 50.408849 
L 17.764333 51.090372 
L 18.489798 51.779121 
L 19.212688 52.470444 
L 20.049743 53.210257 
L 20.809554 53.86466 
L 21.583114 54.505313 
L 22.32632 55.176321 
L 23.071564 55.845291 
L 23.803596 56.527471 
L 24.667046 57.24089 
L 25.726801 57.652712 
L 26.664804 58.001298 
L 27.600559 58.355313 
L 28.547841 58.681496 
L 29.497521 59.001892 
L 30.762221 59.472812 
L 31.784986 59.412148 
L 32.784986 59.373961 
L 33.784986 59.331965 
L 34.784986 59.289947 
L 35.784986 59.230431 
L 36.9 59.117271 
L 36.9 59.417851 
" clip-path="url(#p417ac349f7)" style="fill: none; stroke: #0000ff; stroke-width: 5; stroke-linecap: square"/>
   </g>
   <g id="legend_1"/>
  </g>
 </g>
 <defs>
  <clipPath id="p417ac349f7">
   <rect x="9" y="8.64" width="55.8" height="55.44"/>
  </clipPath>
 </defs>
</svg>
