<?xml version="1.0" encoding="utf-8" standalone="no"?>
<!DOCTYPE svg PUBLIC "-//W3C//DTD SVG 1.1//EN"
  "http://www.w3.org/Graphics/SVG/1.1/DTD/svg11.dtd">
<svg xmlns:xlink="http://www.w3.org/1999/xlink" width="72pt" height="72pt" viewBox="0 0 72 72" xmlns="http://www.w3.org/2000/svg" version="1.1">
 <metadata>
  <rdf:RDF xmlns:dc="http://purl.org/dc/elements/1.1/" xmlns:cc="http://creativecommons.org/ns#" xmlns:rdf="http://www.w3.org/1999/02/22-rdf-syntax-ns#">
   <cc:Work>
    <dc:type rdf:resource="http://purl.org/dc/dcmitype/StillImage"/>
    <dc:date>2026-04-08T13:39:50.499246</dc:date>
    <dc:format>image/svg+xml</dc:format>
    <dc:creator>
     <cc:Agent>
      <dc:title>Matplotlib v3.10.7, https://matplotlib.org/</dc:title>
     </cc:Agent>
    </dc:creator>
   </cc:Work>
  </rdf:RDF>
 </metadata>
 <defs>
  <style type="text/css">*{stroke-linejoin: round; stroke-linecap: butt}</style>
 </defs>
 <g id="figure_1">
  <g id="patch_1">
   <path d="M 0 72 
L 72 72 
L 72 0 
L 0 0 
L 0 72 
z
" style="fill: none; opacity: 0; stroke: #ffffff; stroke-width: 4; stroke-linejoin: miter"/>
   <path d="M 0 72 
L 72 72 
L 72 0 
L 0 0 
L 0 72 
z
" style="fill: none; opacity: 0"/>
  </g>
  <g id="axes_1">
   <g id="patch_2">
    <path d="M 36.9 24.012343 
L 36.93787 23.883504 
L 37.019377 23.504879 
L 37.235029 22.907219 
L 37.493252 22.100495 
L 37.925999 21.146037 
L 38.482952 20.068714 
L 39.210743 18.92932 
L 40.137959 17.798276 
L 41.252495 16.730922 
L 42.521449 15.759627 
L 43.946037 14.949255 
L 45.508484 14.361474 
L 47.147834 13.962402 
L 48.852527 13.805667 
L 50.587832 13.895124 
L 52.318392 14.241976 
L 54.004561 14.841625 
L 55.588042 15.715748 
L 57.047894 16.787693 
L 58.333983 18.055867 
L 59.414445 19.482874 
L 60.269261 21.029498 
L 60.867054 22.670703 
L 61.202761 24.373291 
L 61.269307 26.116188 
L 61.057998 27.883563 
L 60.587966 29.666496 
L 60.246904 30.468498 
L 59.856008 31.457154 
L 59.45585 32.257006 
L 58.913929 33.269964 
L 58.405619 34.037079 
L 57.717661 35.066672 
L 57.131463 35.804028 
L 56.327634 36.854893 
L 55.688456 37.573307 
L 54.754509 38.604714 
L 54.094828 39.326074 
L 53.075486 40.341841 
L 52.37744 41.041375 
L 51.361356 42.094766 
L 50.65281 42.797475 
L 49.627455 43.828559 
L 48.89637 44.51181 
L 47.864333 45.471947 
L 47.139588 46.162444 
L 46.182176 47.096758 
L 45.518305 47.850407 
L 44.646824 48.7251 
L 43.984795 49.466662 
L 43.206143 50.249432 
L 41.888352 51.66699 
L 40.768227 53.023845 
L 39.842782 54.288864 
L 39.124234 55.450213 
L 38.555409 56.454228 
L 38.15934 57.311796 
L 37.910845 58.003561 
L 37.78158 58.514799 
L 37.747389 58.83628 
L 37.787695 58.961682 
L 36.89919 59.794203 
L 35.920788 58.772221 
L 35.840934 58.473882 
L 35.67646 57.993544 
L 35.406271 57.335612 
L 34.990592 56.516307 
L 34.408386 55.551464 
L 33.642594 54.45993 
L 32.693046 53.254137 
L 31.546983 51.961354 
L 30.226713 50.585632 
L 29.541664 49.906304 
L 28.752075 49.135086 
L 28.03805 48.471337 
L 27.133374 47.633711 
L 26.39922 46.977424 
L 25.430008 46.056762 
L 24.721926 45.354389 
L 23.671308 44.416053 
L 22.954888 43.71061 
L 21.891125 42.724171 
L 21.159442 42.027587 
L 20.129506 40.98975 
L 19.413124 40.272092 
L 18.390409 39.259885 
L 17.706649 38.505688 
L 16.781442 37.465865 
L 16.170991 36.648028 
L 15.34488 35.616083 
L 14.829411 34.735845 
L 14.146988 33.702272 
L 13.682509 32.810165 
L 13.143127 31.79574 
L 12.85075 30.837685 
L 12.470434 29.844495 
L 12.01056 27.933372 
L 11.858156 26.038874 
L 12.041072 24.19003 
L 12.448986 22.409215 
L 13.144119 20.719356 
L 14.116823 19.161372 
L 15.301202 17.749203 
L 16.702203 16.542355 
L 18.227579 15.515866 
L 19.889308 14.759118 
L 21.599638 14.217107 
L 23.3402 13.941941 
L 25.065532 13.943128 
L 26.733725 14.178077 
L 28.315456 14.64152 
L 29.776159 15.327148 
L 31.102839 16.173599 
L 32.270005 17.160119 
L 33.267113 18.236628 
L 34.091364 19.350027 
L 34.740624 20.45017 
L 35.231528 21.47901 
L 35.57812 22.388104 
L 35.789939 23.136 
L 35.917082 23.677554 
L 35.974546 23.989337 
L 36.012038 24.056414 
L 36.9 24.012343 
z
" clip-path="url(#pe731343c91)" style="fill: #0000ff; stroke: #ffffff; stroke-width: 4; stroke-linejoin: miter"/>
    <path d="M 36.9 24.012343 
L 36.93787 23.883504 
L 37.019377 23.504879 
L 37.235029 22.907219 
L 37.493252 22.100495 
L 37.925999 21.146037 
L 38.482952 20.068714 
L 39.210743 18.92932 
L 40.137959 17.798276 
L 41.252495 16.730922 
L 42.521449 15.759627 
L 43.946037 14.949255 
L 45.508484 14.361474 
L 47.147834 13.962402 
L 48.852527 13.805667 
L 50.587832 13.895124 
L 52.318392 14.241976 
L 54.004561 14.841625 
L 55.588042 15.715748 
L 57.047894 16.787693 
L 58.333983 18.055867 
L 59.414445 19.482874 
L 60.269261 21.029498 
L 60.867054 22.670703 
L 61.202761 24.373291 
L 61.269307 26.116188 
L 61.057998 27.883563 
L 60.587966 29.666496 
L 60.246904 30.468498 
L 59.856008 31.457154 
L 59.45585 32.257006 
L 58.913929 33.269964 
L 58.405619 34.037079 
L 57.717661 35.066672 
L 57.131463 35.804028 
L 56.327634 36.854893 
L 55.688456 37.573307 
L 54.754509 38.604714 
L 54.094828 39.326074 
L 53.075486 40.341841 
L 52.37744 41.041375 
L 51.361356 42.094766 
L 50.65281 42.797475 
L 49.627455 43.828559 
L 48.89637 44.51181 
L 47.864333 45.471947 
L 47.139588 46.162444 
L 46.182176 47.096758 
L 45.518305 47.850407 
L 44.646824 48.7251 
L 43.984795 49.466662 
L 43.206143 50.249432 
L 41.888352 51.66699 
L 40.768227 53.023845 
L 39.842782 54.288864 
L 39.124234 55.450213 
L 38.555409 56.454228 
L 38.15934 57.311796 
L 37.910845 58.003561 
L 37.78158 58.514799 
L 37.747389 58.83628 
L 37.787695 58.961682 
L 36.89919 59.794203 
L 35.920788 58.772221 
L 35.840934 58.473882 
L 35.67646 57.993544 
L 35.406271 57.335612 
L 34.990592 56.516307 
L 34.408386 55.551464 
L 33.642594 54.45993 
L 32.693046 53.254137 
L 31.546983 51.961354 
L 30.226713 50.585632 
L 29.541664 49.906304 
L 28.752075 49.135086 
L 28.03805 48.471337 
L 27.133374 47.633711 
L 26.39922 46.977424 
L 25.430008 46.056762 
L 24.721926 45.354389 
L 23.671308 44.416053 
L 22.954888 43.71061 
L 21.891125 42.724171 
L 21.159442 42.027587 
L 20.129506 40.98975 
L 19.413124 40.272092 
L 18.390409 39.259885 
L 17.706649 38.505688 
L 16.781442 37.465865 
L 16.170991 36.648028 
L 15.34488 35.616083 
L 14.829411 34.735845 
L 14.146988 33.702272 
L 13.682509 32.810165 
L 13.143127 31.79574 
L 12.85075 30.837685 
L 12.470434 29.844495 
L 12.01056 27.933372 
L 11.858156 26.038874 
L 12.041072 24.19003 
L 12.448986 22.409215 
L 13.144119 20.719356 
L 14.116823 19.161372 
L 15.301202 17.749203 
L 16.702203 16.542355 
L 18.227579 15.515866 
L 19.889308 14.759118 
L 21.599638 14.217107 
L 23.3402 13.941941 
L 25.065532 13.943128 
L 26.733725 14.178077 
L 28.315456 14.64152 
L 29.776159 15.327148 
L 31.102839 16.173599 
L 32.270005 17.160119 
L 33.267113 18.236628 
L 34.091364 19.350027 
L 34.740624 20.45017 
L 35.231528 21.47901 
L 35.57812 22.388104 
L 35.789939 23.136 
L 35.917082 23.677554 
L 35.974546 23.989337 
L 36.012038 24.056414 
L 36.9 24.012343 
z
" clip-path="url(#pe731343c91)" style="fill: #0000ff; stroke: #0000ff; stroke-linejoin: miter"/>
   </g>
   <g id="line2d_1">
    <path d="M 36.9 24.012343 
L 36.93787 23.883504 
L 37.019377 23.504879 
L 37.235029 22.907219 
L 37.493252 22.100495 
L 37.925999 21.146037 
L 38.482952 20.068714 
L 39.210743 18.92932 
L 40.137959 17.798276 
L 41.252495 16.730922 
L 42.521449 15.759627 
L 43.946037 14.949255 
L 45.508484 14.361474 
L 47.147834 13.962402 
L 48.852527 13.805667 
L 50.587832 13.895124 
L 52.318392 14.241976 
L 54.004561 14.841625 
L 55.588042 15.715748 
L 57.047894 16.787693 
L 58.333983 18.055867 
L 59.414445 19.482874 
L 60.269261 21.029498 
L 60.867054 22.670703 
L 61.202761 24.373291 
L 61.269307 26.116188 
L 61.057998 27.883563 
L 60.587966 29.666496 
L 60.246904 30.468498 
L 59.856008 31.457154 
L 59.45585 32.257006 
L 58.913929 33.269964 
L 58.405619 34.037079 
L 57.717661 35.066672 
L 57.131463 35.804028 
L 56.327634 36.854893 
L 55.688456 37.573307 
L 54.754509 38.604714 
L 54.094828 39.326074 
L 53.075486 40.341841 
L 52.37744 41.041375 
L 51.361356 42.094766 
L 50.65281 42.797475 
L 49.627455 43.828559 
L 48.89637 44.51181 
L 47.864333 45.471947 
L 47.139588 46.162444 
L 46.182176 47.096758 
L 45.518305 47.850407 
L 44.646824 48.7251 
L 43.984795 49.466662 
L 43.206143 50.249432 
L 41.888352 51.66699 
L 40.768227 53.023845 
L 39.842782 54.288864 
L 39.124234 55.450213 
L 38.555409 56.454228 
L 38.15934 57.311796 
L 37.910845 58.003561 
L 37.78158 58.514799 
L 37.747389 58.83628 
L 37.787695 58.961682 
L 36.89919 59.794203 
L 35.920788 58.772221 
L 35.840934 58.473882 
L 35.67646 57.993544 
L 35.406271 57.335612 
L 34.990592 56.516307 
L 34.408386 55.551464 
L 33.642594 54.45993 
L 32.693046 53.254137 
L 31.546983 51.961354 
L 30.226713 50.585632 
L 29.541664 49.906304 
L 28.752075 49.135086 
L 28.03805 48.471337 
L 27.133374 47.633711 
L 26.39922 46.977424 
L 25.430008 46.056762 
L 24.721926 45.354389 
L 23.671308 44.416053 
L 22.954888 43.71061 
L 21.891125 42.724171 
L 21.159442 42.027587 
L 20.129506 40.98975 
L 19.413124 40.272092 
L 18.390409 39.259885 
L 17.706649 38.505688 
L 16.781442 37.465865 
L 16.170991 36.648028 
L 15.34488 35.616083 
L 14.829411 34.735845 
L 14.146988 33.702272 
L 13.682509 32.810165 
L 13.143127 31.79574 
L 12.85075 30.837685 
L 12.470434 29.844495 
L 12.01056 27.933372 
L 11.858156 26.038874 
L 12.041072 24.19003 
L 12.448986 22.409215 
L 13.144119 20.719356 
L 14.116823 19.161372 
L 15.301202 17.749203 
L 16.702203 16.542355 
L 18.227579 15.515866 
L 19.889308 14.759118 
L 21.599638 14.217107 
L 23.3402 13.941941 
L 25.065532 13.943128 
L 26.733725 14.178077 
L 28.315456 14.64152 
L 29.776159 15.327148 
L 31.102839 16.173599 
L 32.270005 17.160119 
L 33.267113 18.236628 
L 34.091364 19.350027 
L 34.740624 20.45017 
L 35.231528 21.47901 
L 35.57812 22.388104 
L 35.789939 23.136 
L 35.917082 23.677554 
L 35.974546 23.989337 
L 36.012038 24.056414 
" clip-path="url(#pe731343c91)" style="fill: none; stroke: #ffffff; stroke-width: 4; stroke-linecap: square"/>
    <path d="M 36.9 24.012343 
L 36.93787 23.883504 
L 37.019377 23.504879 
L 37.235029 22.907219 
L 37.493252 22.100495 
L 37.925999 21.146037 
L 38.482952 20.068714 
L 39.210743 18.92932 
L 40.137959 17.798276 
L 41.252495 16.730922 
L 42.521449 15.759627 
L 43.946037 14.949255 
L 45.508484 14.361474 
L 47.147834 13.962402 
L 48.852527 13.805667 
L 50.587832 13.895124 
L 52.318392 14.241976 
L 54.004561 14.841625 
L 55.588042 15.715748 
L 57.047894 16.787693 
L 58.333983 18.055867 
L 59.414445 19.482874 
L 60.269261 21.029498 
L 60.867054 22.670703 
L 61.202761 24.373291 
L 61.269307 26.116188 
L 61.057998 27.883563 
L 60.587966 29.666496 
L 60.246904 30.468498 
L 59.856008 31.457154 
L 59.45585 32.257006 
L 58.913929 33.269964 
L 58.405619 34.037079 
L 57.717661 35.066672 
L 57.131463 35.804028 
L 56.327634 36.854893 
L 55.688456 37.573307 
L 54.754509 38.604714 
L 54.094828 39.326074 
L 53.075486 40.341841 
L 52.37744 41.041375 
L 51.361356 42.094766 
L 50.65281 42.797475 
L 49.627455 43.828559 
L 48.89637 44.51181 
L 47.864333 45.471947 
L 47.139588 46.162444 
L 46.182176 47.096758 
L 45.518305 47.850407 
L 44.646824 48.7251 
L 43.984795 49.466662 
L 43.206143 50.249432 
L 41.888352 51.66699 
L 40.768227 53.023845 
L 39.842782 54.288864 
L 39.124234 55.450213 
L 38.555409 56.454228 
L 38.15934 57.311796 
L 37.910845 58.003561 
L 37.78158 58.514799 
L 37.747389 58.83628 
L 37.787695 58.961682 
L 36.89919 59.794203 
L 35.920788 58.772221 
L 35.840934 58.473882 
L 35.67646 57.993544 
L 35.406271 57.335612 
L 34.990592 56.516307 
L 34.408386 55.551464 
L 33.642594 54.45993 
L 32.693046 53.254137 
L 31.546983 51.961354 
L 30.226713 50.585632 
L 29.541664 49.906304 
L 28.752075 49.135086 
L 28.03805 48.471337 
L 27.133374 47.633711 
L 26.39922 46.977424 
L 25.430008 46.056762 
L 24.721926 45.354389 
L 23.671308 44.416053 
L 22.954888 43.71061 
L 21.891125 42.724171 
L 21.159442 42.027587 
L 20.129506 40.98975 
L 19.413124 40.272092 
L 18.390409 39.259885 
L 17.706649 38.505688 
L 16.781442 37.465865 
L 16.170991 36.648028 
L 15.34488 35.616083 
L 14.829411 34.735845 
L 14.146988 33.702272 
L 13.682509 32.810165 
L 13.143127 31.79574 
L 12.85075 30.837685 
L 12.470434 29.844495 
L 12.01056 27.933372 
L 11.858156 26.038874 
L 12.041072 24.19003 
L 12.448986 22.409215 
L 13.144119 20.719356 
L 14.116823 19.161372 
L 15.301202 17.749203 
L 16.702203 16.542355 
L 18.227579 15.515866 
L 19.889308 14.759118 
L 21.599638 14.217107 
L 23.3402 13.941941 
L 25.065532 13.943128 
L 26.733725 14.178077 
L 28.315456 14.64152 
L 29.776159 15.327148 
L 31.102839 16.173599 
L 32.270005 17.160119 
L 33.267113 18.236628 
L 34.091364 19.350027 
L 34.740624 20.45017 
L 35.231528 21.47901 
L 35.57812 22.388104 
L 35.789939 23.136 
L 35.917082 23.677554 
L 35.974546 23.989337 
L 36.012038 24.056414 
" clip-path="url(#pe731343c91)" style="fill: none; stroke: #0000ff; stroke-width: 5; stroke-linecap: square"/>
   </g>
   <g id="legend_1"/>
  </g>
 </g>
 <defs>
  <clipPath id="pe731343c91">
   <rect x="9" y="8.64" width="55.8" height="55.44"/>
  </clipPath>
 </defs>
</svg>
