<?xml version="1.0" encoding="utf-8" standalone="no"?>
<!DOCTYPE svg PUBLIC "-//W3C//DTD SVG 1.1//EN"
  "http://www.w3.org/Graphics/SVG/1.1/DTD/svg11.dtd">
<svg xmlns:xlink="http://www.w3.org/1999/xlink" width="72pt" height="72pt" viewBox="0 0 72 72" xmlns="http://www.w3.org/2000/svg" version="1.1">
 <metadata>
  <rdf:RDF xmlns:dc="http://purl.org/dc/elements/1.1/" xmlns:cc="http://creativecommons.org/ns#" xmlns:rdf="http://www.w3.org/1999/02/22-rdf-syntax-ns#">
   <cc:Work>
    <dc:type rdf:resource="http://purl.org/dc/dcmitype/StillImage"/>
    <dc:date>2026-04-08T13:41:39.432842</dc:date>
    <dc:format>image/svg+xml</dc:format>
    <dc:creator>
     <cc:Agent>
      <dc:title>Matplotlib v3.10.7, https://matplotlib.org/</dc:title>
     </cc:Agent>
    </dc:creator>
   </cc:Work>
  </rdf:RDF>
 </metadata>
 <defs>
  <style type="text/css">*{stroke-linejoin: round; stroke-linecap: butt}</style>
 </defs>
 <g id="figure_1">
  <g id="patch_1">
   <path d="M 0 72 
L 72 72 
L 72 0 
L 0 0 
L 0 72 
z
" style="fill: none; opacity: 0; stroke: #ffffff; stroke-width: 4; stroke-linejoin: miter"/>
   <path d="M 0 72 
L 72 72 
L 72 0 
L 0 0 
L 0 72 
z
" style="fill: none; opacity: 0"/>
  </g>
  <g id="axes_1">
   <g id="patch_2">
    <path d="M 11.536364 61.723636 
L 12.536364 61.755073 
L 13.536364 61.792013 
L 14.536364 61.88976 
L 15.536364 61.922281 
L 16.536364 61.995906 
L 17.536364 62.034472 
L 18.536364 62.069885 
L 19.536364 62.127525 
L 20.536364 62.197911 
L 21.536364 62.249875 
L 22.536364 62.308965 
L 23.536364 62.397286 
L 24.536364 62.44343 
L 25.536364 62.485841 
L 26.536364 62.516334 
L 27.536364 62.542379 
L 28.536364 62.563579 
L 29.536364 62.61788 
L 30.536364 62.645817 
L 31.536364 62.675541 
L 32.536364 62.700936 
L 33.536364 62.712137 
L 34.536364 62.722261 
L 35.536364 62.722056 
L 36.536364 62.712546 
L 37.536364 62.700893 
L 38.536364 62.669864 
L 39.536364 62.658696 
L 40.536364 62.628578 
L 41.536364 62.568801 
L 42.536364 62.53161 
L 43.536364 62.492513 
L 44.536364 62.450074 
L 45.536364 62.417309 
L 46.536364 62.349882 
L 47.536364 62.310756 
L 48.536364 62.268082 
L 49.536364 62.197501 
L 50.536364 62.16111 
L 51.536364 62.102707 
L 52.536364 61.991755 
L 53.536364 61.921096 
L 54.536364 61.808156 
L 55.536364 61.762384 
L 56.536364 61.7011 
L 57.652066 61.652601 
L 57.500208 60.723636 
L 57.381689 59.723636 
L 57.311479 58.723636 
L 57.228216 57.723636 
L 57.195074 56.723636 
L 57.143837 55.723636 
L 57.075439 54.723636 
L 57.009223 53.723636 
L 56.932306 52.723636 
L 56.904991 51.723636 
L 56.878513 50.723636 
L 56.855862 49.723636 
L 56.836331 48.723636 
L 56.809937 47.723636 
L 56.760166 46.723636 
L 56.725093 45.723636 
L 56.689228 44.723636 
L 56.67386 43.723636 
L 56.658091 42.723636 
L 56.654679 41.723636 
L 56.652261 40.723636 
L 56.652747 39.723636 
L 56.654676 38.723636 
L 56.667933 37.723636 
L 56.676324 36.723636 
L 56.697861 35.723636 
L 56.720893 34.723636 
L 56.738126 33.723636 
L 56.756589 32.723636 
L 56.777041 31.723636 
L 56.793641 30.723636 
L 56.85642 29.723636 
L 56.931685 28.723636 
L 56.964324 27.723636 
L 57.031888 26.723636 
L 57.085935 25.723636 
L 57.119639 24.723636 
L 57.209765 23.723636 
L 57.2383 22.723636 
L 57.269786 21.723636 
L 57.300797 20.723636 
L 57.355605 19.723636 
L 57.420193 18.723636 
L 57.458388 17.723636 
L 57.554322 16.723636 
L 57.60358 15.607934 
L 56.652066 15.61235 
L 55.652066 15.572227 
L 54.652066 15.46386 
L 53.652066 15.422232 
L 52.652066 15.36009 
L 51.652066 15.290128 
L 50.652066 15.185624 
L 49.652066 15.148636 
L 48.652066 15.102759 
L 47.652066 15.034264 
L 46.652066 14.985518 
L 45.652066 14.907921 
L 44.652066 14.87738 
L 43.652066 14.807866 
L 42.652066 14.783893 
L 41.652066 14.755271 
L 40.652066 14.713478 
L 39.652066 14.691902 
L 38.652066 14.677954 
L 37.652066 14.651231 
L 36.652066 14.641922 
L 35.652066 14.629475 
L 34.652066 14.61842 
L 33.652066 14.612756 
L 32.652066 14.607992 
L 31.652066 14.613539 
L 30.652066 14.626828 
L 29.652066 14.634345 
L 28.652066 14.65913 
L 27.652066 14.682699 
L 26.652066 14.718879 
L 25.652066 14.744841 
L 24.652066 14.767163 
L 23.652066 14.835923 
L 22.652066 14.910458 
L 21.652066 15.004437 
L 20.652066 15.055489 
L 19.652066 15.109423 
L 18.652066 15.144674 
L 17.652066 15.250762 
L 16.652066 15.303026 
L 15.652066 15.339933 
L 14.652066 15.370963 
L 13.652066 15.432119 
L 12.652066 15.499539 
L 11.536364 15.548445 
L 11.542067 16.607934 
L 11.580254 17.607934 
L 11.62225 18.607934 
L 11.664268 19.607934 
L 11.723784 20.607934 
L 11.836944 21.607934 
L 11.889195 22.607934 
L 11.928612 23.607934 
L 11.975714 24.607934 
L 12.032493 25.607934 
L 12.065156 26.607934 
L 12.101334 27.607934 
L 12.133425 28.607934 
L 12.167705 29.607934 
L 12.226082 30.607934 
L 12.271267 31.607934 
L 12.300891 32.607934 
L 12.351277 33.607934 
L 12.376475 34.607934 
L 12.397526 35.607934 
L 12.432494 36.607934 
L 12.456784 37.607934 
L 12.470851 38.607934 
L 12.489792 39.607934 
L 12.505454 40.607934 
L 12.518006 41.607934 
L 12.523841 42.607934 
L 12.530724 43.607934 
L 12.535898 44.607934 
L 12.534115 45.607934 
L 12.531389 46.607934 
L 12.520236 47.607934 
L 12.492001 48.607934 
L 12.448213 49.607934 
L 12.427524 50.607934 
L 12.38655 51.607934 
L 12.346475 52.607934 
L 12.327365 53.607934 
L 12.304857 54.607934 
L 12.238205 55.607934 
L 12.188496 56.607934 
L 12.114789 57.607934 
L 12.083476 58.607934 
L 12.006853 59.607934 
L 11.968555 60.607934 
L 11.894439 61.723636 
z
" clip-path="url(#paf0e6110db)" style="fill: #0000ff; stroke: #ffffff; stroke-width: 4; stroke-linejoin: miter"/>
    <path d="M 11.536364 61.723636 
L 12.536364 61.755073 
L 13.536364 61.792013 
L 14.536364 61.88976 
L 15.536364 61.922281 
L 16.536364 61.995906 
L 17.536364 62.034472 
L 18.536364 62.069885 
L 19.536364 62.127525 
L 20.536364 62.197911 
L 21.536364 62.249875 
L 22.536364 62.308965 
L 23.536364 62.397286 
L 24.536364 62.44343 
L 25.536364 62.485841 
L 26.536364 62.516334 
L 27.536364 62.542379 
L 28.536364 62.563579 
L 29.536364 62.61788 
L 30.536364 62.645817 
L 31.536364 62.675541 
L 32.536364 62.700936 
L 33.536364 62.712137 
L 34.536364 62.722261 
L 35.536364 62.722056 
L 36.536364 62.712546 
L 37.536364 62.700893 
L 38.536364 62.669864 
L 39.536364 62.658696 
L 40.536364 62.628578 
L 41.536364 62.568801 
L 42.536364 62.53161 
L 43.536364 62.492513 
L 44.536364 62.450074 
L 45.536364 62.417309 
L 46.536364 62.349882 
L 47.536364 62.310756 
L 48.536364 62.268082 
L 49.536364 62.197501 
L 50.536364 62.16111 
L 51.536364 62.102707 
L 52.536364 61.991755 
L 53.536364 61.921096 
L 54.536364 61.808156 
L 55.536364 61.762384 
L 56.536364 61.7011 
L 57.652066 61.652601 
L 57.500208 60.723636 
L 57.381689 59.723636 
L 57.311479 58.723636 
L 57.228216 57.723636 
L 57.195074 56.723636 
L 57.143837 55.723636 
L 57.075439 54.723636 
L 57.009223 53.723636 
L 56.932306 52.723636 
L 56.904991 51.723636 
L 56.878513 50.723636 
L 56.855862 49.723636 
L 56.836331 48.723636 
L 56.809937 47.723636 
L 56.760166 46.723636 
L 56.725093 45.723636 
L 56.689228 44.723636 
L 56.67386 43.723636 
L 56.658091 42.723636 
L 56.654679 41.723636 
L 56.652261 40.723636 
L 56.652747 39.723636 
L 56.654676 38.723636 
L 56.667933 37.723636 
L 56.676324 36.723636 
L 56.697861 35.723636 
L 56.720893 34.723636 
L 56.738126 33.723636 
L 56.756589 32.723636 
L 56.777041 31.723636 
L 56.793641 30.723636 
L 56.85642 29.723636 
L 56.931685 28.723636 
L 56.964324 27.723636 
L 57.031888 26.723636 
L 57.085935 25.723636 
L 57.119639 24.723636 
L 57.209765 23.723636 
L 57.2383 22.723636 
L 57.269786 21.723636 
L 57.300797 20.723636 
L 57.355605 19.723636 
L 57.420193 18.723636 
L 57.458388 17.723636 
L 57.554322 16.723636 
L 57.60358 15.607934 
L 56.652066 15.61235 
L 55.652066 15.572227 
L 54.652066 15.46386 
L 53.652066 15.422232 
L 52.652066 15.36009 
L 51.652066 15.290128 
L 50.652066 15.185624 
L 49.652066 15.148636 
L 48.652066 15.102759 
L 47.652066 15.034264 
L 46.652066 14.985518 
L 45.652066 14.907921 
L 44.652066 14.87738 
L 43.652066 14.807866 
L 42.652066 14.783893 
L 41.652066 14.755271 
L 40.652066 14.713478 
L 39.652066 14.691902 
L 38.652066 14.677954 
L 37.652066 14.651231 
L 36.652066 14.641922 
L 35.652066 14.629475 
L 34.652066 14.61842 
L 33.652066 14.612756 
L 32.652066 14.607992 
L 31.652066 14.613539 
L 30.652066 14.626828 
L 29.652066 14.634345 
L 28.652066 14.65913 
L 27.652066 14.682699 
L 26.652066 14.718879 
L 25.652066 14.744841 
L 24.652066 14.767163 
L 23.652066 14.835923 
L 22.652066 14.910458 
L 21.652066 15.004437 
L 20.652066 15.055489 
L 19.652066 15.109423 
L 18.652066 15.144674 
L 17.652066 15.250762 
L 16.652066 15.303026 
L 15.652066 15.339933 
L 14.652066 15.370963 
L 13.652066 15.432119 
L 12.652066 15.499539 
L 11.536364 15.548445 
L 11.542067 16.607934 
L 11.580254 17.607934 
L 11.62225 18.607934 
L 11.664268 19.607934 
L 11.723784 20.607934 
L 11.836944 21.607934 
L 11.889195 22.607934 
L 11.928612 23.607934 
L 11.975714 24.607934 
L 12.032493 25.607934 
L 12.065156 26.607934 
L 12.101334 27.607934 
L 12.133425 28.607934 
L 12.167705 29.607934 
L 12.226082 30.607934 
L 12.271267 31.607934 
L 12.300891 32.607934 
L 12.351277 33.607934 
L 12.376475 34.607934 
L 12.397526 35.607934 
L 12.432494 36.607934 
L 12.456784 37.607934 
L 12.470851 38.607934 
L 12.489792 39.607934 
L 12.505454 40.607934 
L 12.518006 41.607934 
L 12.523841 42.607934 
L 12.530724 43.607934 
L 12.535898 44.607934 
L 12.534115 45.607934 
L 12.531389 46.607934 
L 12.520236 47.607934 
L 12.492001 48.607934 
L 12.448213 49.607934 
L 12.427524 50.607934 
L 12.38655 51.607934 
L 12.346475 52.607934 
L 12.327365 53.607934 
L 12.304857 54.607934 
L 12.238205 55.607934 
L 12.188496 56.607934 
L 12.114789 57.607934 
L 12.083476 58.607934 
L 12.006853 59.607934 
L 11.968555 60.607934 
L 11.894439 61.723636 
z
" clip-path="url(#paf0e6110db)" style="fill: #0000ff; stroke: #0000ff; stroke-linejoin: miter"/>
   </g>
   <g id="line2d_1">
    <path d="M 11.536364 61.723636 
L 12.536364 61.755073 
L 13.536364 61.792013 
L 14.536364 61.88976 
L 15.536364 61.922281 
L 16.536364 61.995906 
L 17.536364 62.034472 
L 18.536364 62.069885 
L 19.536364 62.127525 
L 20.536364 62.197911 
L 21.536364 62.249875 
L 22.536364 62.308965 
L 23.536364 62.397286 
L 24.536364 62.44343 
L 25.536364 62.485841 
L 26.536364 62.516334 
L 27.536364 62.542379 
L 28.536364 62.563579 
L 29.536364 62.61788 
L 30.536364 62.645817 
L 31.536364 62.675541 
L 32.536364 62.700936 
L 33.536364 62.712137 
L 34.536364 62.722261 
L 35.536364 62.722056 
L 36.536364 62.712546 
L 37.536364 62.700893 
L 38.536364 62.669864 
L 39.536364 62.658696 
L 40.536364 62.628578 
L 41.536364 62.568801 
L 42.536364 62.53161 
L 43.536364 62.492513 
L 44.536364 62.450074 
L 45.536364 62.417309 
L 46.536364 62.349882 
L 47.536364 62.310756 
L 48.536364 62.268082 
L 49.536364 62.197501 
L 50.536364 62.16111 
L 51.536364 62.102707 
L 52.536364 61.991755 
L 53.536364 61.921096 
L 54.536364 61.808156 
L 55.536364 61.762384 
L 56.536364 61.7011 
L 57.652066 61.652601 
L 57.500208 60.723636 
L 57.381689 59.723636 
L 57.311479 58.723636 
L 57.228216 57.723636 
L 57.195074 56.723636 
L 57.143837 55.723636 
L 57.075439 54.723636 
L 57.009223 53.723636 
L 56.932306 52.723636 
L 56.904991 51.723636 
L 56.878513 50.723636 
L 56.855862 49.723636 
L 56.836331 48.723636 
L 56.809937 47.723636 
L 56.760166 46.723636 
L 56.725093 45.723636 
L 56.689228 44.723636 
L 56.67386 43.723636 
L 56.658091 42.723636 
L 56.654679 41.723636 
L 56.652261 40.723636 
L 56.652747 39.723636 
L 56.654676 38.723636 
L 56.667933 37.723636 
L 56.676324 36.723636 
L 56.697861 35.723636 
L 56.720893 34.723636 
L 56.738126 33.723636 
L 56.756589 32.723636 
L 56.777041 31.723636 
L 56.793641 30.723636 
L 56.85642 29.723636 
L 56.931685 28.723636 
L 56.964324 27.723636 
L 57.031888 26.723636 
L 57.085935 25.723636 
L 57.119639 24.723636 
L 57.209765 23.723636 
L 57.2383 22.723636 
L 57.269786 21.723636 
L 57.300797 20.723636 
L 57.355605 19.723636 
L 57.420193 18.723636 
L 57.458388 17.723636 
L 57.554322 16.723636 
L 57.60358 15.607934 
L 56.652066 15.61235 
L 55.652066 15.572227 
L 54.652066 15.46386 
L 53.652066 15.422232 
L 52.652066 15.36009 
L 51.652066 15.290128 
L 50.652066 15.185624 
L 49.652066 15.148636 
L 48.652066 15.102759 
L 47.652066 15.034264 
L 46.652066 14.985518 
L 45.652066 14.907921 
L 44.652066 14.87738 
L 43.652066 14.807866 
L 42.652066 14.783893 
L 41.652066 14.755271 
L 40.652066 14.713478 
L 39.652066 14.691902 
L 38.652066 14.677954 
L 37.652066 14.651231 
L 36.652066 14.641922 
L 35.652066 14.629475 
L 34.652066 14.61842 
L 33.652066 14.612756 
L 32.652066 14.607992 
L 31.652066 14.613539 
L 30.652066 14.626828 
L 29.652066 14.634345 
L 28.652066 14.65913 
L 27.652066 14.682699 
L 26.652066 14.718879 
L 25.652066 14.744841 
L 24.652066 14.767163 
L 23.652066 14.835923 
L 22.652066 14.910458 
L 21.652066 15.004437 
L 20.652066 15.055489 
L 19.652066 15.109423 
L 18.652066 15.144674 
L 17.652066 15.250762 
L 16.652066 15.303026 
L 15.652066 15.339933 
L 14.652066 15.370963 
L 13.652066 15.432119 
L 12.652066 15.499539 
L 11.536364 15.548445 
L 11.542067 16.607934 
L 11.580254 17.607934 
L 11.62225 18.607934 
L 11.664268 19.607934 
L 11.723784 20.607934 
L 11.836944 21.607934 
L 11.889195 22.607934 
L 11.928612 23.607934 
L 11.975714 24.607934 
L 12.032493 25.607934 
L 12.065156 26.607934 
L 12.101334 27.607934 
L 12.133425 28.607934 
L 12.167705 29.607934 
L 12.226082 30.607934 
L 12.271267 31.607934 
L 12.300891 32.607934 
L 12.351277 33.607934 
L 12.376475 34.607934 
L 12.397526 35.607934 
L 12.432494 36.607934 
L 12.456784 37.607934 
L 12.470851 38.607934 
L 12.489792 39.607934 
L 12.505454 40.607934 
L 12.518006 41.607934 
L 12.523841 42.607934 
L 12.530724 43.607934 
L 12.535898 44.607934 
L 12.534115 45.607934 
L 12.531389 46.607934 
L 12.520236 47.607934 
L 12.492001 48.607934 
L 12.448213 49.607934 
L 12.427524 50.607934 
L 12.38655 51.607934 
L 12.346475 52.607934 
L 12.327365 53.607934 
L 12.304857 54.607934 
L 12.238205 55.607934 
L 12.188496 56.607934 
L 12.114789 57.607934 
L 12.083476 58.607934 
L 12.006853 59.607934 
L 11.968555 60.607934 
L 11.894439 61.723636 
" clip-path="url(#paf0e6110db)" style="fill: none; stroke: #ffffff; stroke-width: 4; stroke-linecap: square"/>
    <path d="M 11.536364 61.723636 
L 12.536364 61.755073 
L 13.536364 61.792013 
L 14.536364 61.88976 
L 15.536364 61.922281 
L 16.536364 61.995906 
L 17.536364 62.034472 
L 18.536364 62.069885 
L 19.536364 62.127525 
L 20.536364 62.197911 
L 21.536364 62.249875 
L 22.536364 62.308965 
L 23.536364 62.397286 
L 24.536364 62.44343 
L 25.536364 62.485841 
L 26.536364 62.516334 
L 27.536364 62.542379 
L 28.536364 62.563579 
L 29.536364 62.61788 
L 30.536364 62.645817 
L 31.536364 62.675541 
L 32.536364 62.700936 
L 33.536364 62.712137 
L 34.536364 62.722261 
L 35.536364 62.722056 
L 36.536364 62.712546 
L 37.536364 62.700893 
L 38.536364 62.669864 
L 39.536364 62.658696 
L 40.536364 62.628578 
L 41.536364 62.568801 
L 42.536364 62.53161 
L 43.536364 62.492513 
L 44.536364 62.450074 
L 45.536364 62.417309 
L 46.536364 62.349882 
L 47.536364 62.310756 
L 48.536364 62.268082 
L 49.536364 62.197501 
L 50.536364 62.16111 
L 51.536364 62.102707 
L 52.536364 61.991755 
L 53.536364 61.921096 
L 54.536364 61.808156 
L 55.536364 61.762384 
L 56.536364 61.7011 
L 57.652066 61.652601 
L 57.500208 60.723636 
L 57.381689 59.723636 
L 57.311479 58.723636 
L 57.228216 57.723636 
L 57.195074 56.723636 
L 57.143837 55.723636 
L 57.075439 54.723636 
L 57.009223 53.723636 
L 56.932306 52.723636 
L 56.904991 51.723636 
L 56.878513 50.723636 
L 56.855862 49.723636 
L 56.836331 48.723636 
L 56.809937 47.723636 
L 56.760166 46.723636 
L 56.725093 45.723636 
L 56.689228 44.723636 
L 56.67386 43.723636 
L 56.658091 42.723636 
L 56.654679 41.723636 
L 56.652261 40.723636 
L 56.652747 39.723636 
L 56.654676 38.723636 
L 56.667933 37.723636 
L 56.676324 36.723636 
L 56.697861 35.723636 
L 56.720893 34.723636 
L 56.738126 33.723636 
L 56.756589 32.723636 
L 56.777041 31.723636 
L 56.793641 30.723636 
L 56.85642 29.723636 
L 56.931685 28.723636 
L 56.964324 27.723636 
L 57.031888 26.723636 
L 57.085935 25.723636 
L 57.119639 24.723636 
L 57.209765 23.723636 
L 57.2383 22.723636 
L 57.269786 21.723636 
L 57.300797 20.723636 
L 57.355605 19.723636 
L 57.420193 18.723636 
L 57.458388 17.723636 
L 57.554322 16.723636 
L 57.60358 15.607934 
L 56.652066 15.61235 
L 55.652066 15.572227 
L 54.652066 15.46386 
L 53.652066 15.422232 
L 52.652066 15.36009 
L 51.652066 15.290128 
L 50.652066 15.185624 
L 49.652066 15.148636 
L 48.652066 15.102759 
L 47.652066 15.034264 
L 46.652066 14.985518 
L 45.652066 14.907921 
L 44.652066 14.87738 
L 43.652066 14.807866 
L 42.652066 14.783893 
L 41.652066 14.755271 
L 40.652066 14.713478 
L 39.652066 14.691902 
L 38.652066 14.677954 
L 37.652066 14.651231 
L 36.652066 14.641922 
L 35.652066 14.629475 
L 34.652066 14.61842 
L 33.652066 14.612756 
L 32.652066 14.607992 
L 31.652066 14.613539 
L 30.652066 14.626828 
L 29.652066 14.634345 
L 28.652066 14.65913 
L 27.652066 14.682699 
L 26.652066 14.718879 
L 25.652066 14.744841 
L 24.652066 14.767163 
L 23.652066 14.835923 
L 22.652066 14.910458 
L 21.652066 15.004437 
L 20.652066 15.055489 
L 19.652066 15.109423 
L 18.652066 15.144674 
L 17.652066 15.250762 
L 16.652066 15.303026 
L 15.652066 15.339933 
L 14.652066 15.370963 
L 13.652066 15.432119 
L 12.652066 15.499539 
L 11.536364 15.548445 
L 11.542067 16.607934 
L 11.580254 17.607934 
L 11.62225 18.607934 
L 11.664268 19.607934 
L 11.723784 20.607934 
L 11.836944 21.607934 
L 11.889195 22.607934 
L 11.928612 23.607934 
L 11.975714 24.607934 
L 12.032493 25.607934 
L 12.065156 26.607934 
L 12.101334 27.607934 
L 12.133425 28.607934 
L 12.167705 29.607934 
L 12.226082 30.607934 
L 12.271267 31.607934 
L 12.300891 32.607934 
L 12.351277 33.607934 
L 12.376475 34.607934 
L 12.397526 35.607934 
L 12.432494 36.607934 
L 12.456784 37.607934 
L 12.470851 38.607934 
L 12.489792 39.607934 
L 12.505454 40.607934 
L 12.518006 41.607934 
L 12.523841 42.607934 
L 12.530724 43.607934 
L 12.535898 44.607934 
L 12.534115 45.607934 
L 12.531389 46.607934 
L 12.520236 47.607934 
L 12.492001 48.607934 
L 12.448213 49.607934 
L 12.427524 50.607934 
L 12.38655 51.607934 
L 12.346475 52.607934 
L 12.327365 53.607934 
L 12.304857 54.607934 
L 12.238205 55.607934 
L 12.188496 56.607934 
L 12.114789 57.607934 
L 12.083476 58.607934 
L 12.006853 59.607934 
L 11.968555 60.607934 
L 11.894439 61.723636 
" clip-path="url(#paf0e6110db)" style="fill: none; stroke: #0000ff; stroke-width: 5; stroke-linecap: square"/>
   </g>
   <g id="legend_1"/>
  </g>
 </g>
 <defs>
  <clipPath id="paf0e6110db">
   <rect x="9" y="8.64" width="55.8" height="55.44"/>
  </clipPath>
 </defs>
</svg>
