<?xml version="1.0" encoding="utf-8" standalone="no"?>
<!DOCTYPE svg PUBLIC "-//W3C//DTD SVG 1.1//EN"
  "http://www.w3.org/Graphics/SVG/1.1/DTD/svg11.dtd">
<svg xmlns:xlink="http://www.w3.org/1999/xlink" width="72pt" height="72pt" viewBox="0 0 72 72" xmlns="http://www.w3.org/2000/svg" version="1.1">
 <metadata>
  <rdf:RDF xmlns:dc="http://purl.org/dc/elements/1.1/" xmlns:cc="http://creativecommons.org/ns#" xmlns:rdf="http://www.w3.org/1999/02/22-rdf-syntax-ns#">
   <cc:Work>
    <dc:type rdf:resource="http://purl.org/dc/dcmitype/StillImage"/>
    <dc:date>2026-04-08T13:34:26.725884</dc:date>
    <dc:format>image/svg+xml</dc:format>
    <dc:creator>
     <cc:Agent>
      <dc:title>Matplotlib v3.10.7, https://matplotlib.org/</dc:title>
     </cc:Agent>
    </dc:creator>
   </cc:Work>
  </rdf:RDF>
 </metadata>
 <defs>
  <style type="text/css">*{stroke-linejoin: round; stroke-linecap: butt}</style>
 </defs>
 <g id="figure_1">
  <g id="patch_1">
   <path d="M 0 72 
L 72 72 
L 72 0 
L 0 0 
L 0 72 
z
" style="fill: none; opacity: 0; stroke: #ffffff; stroke-width: 4; stroke-linejoin: miter"/>
   <path d="M 0 72 
L 72 72 
L 72 0 
L 0 0 
L 0 72 
z
" style="fill: none; opacity: 0"/>
  </g>
  <g id="axes_1">
   <g id="patch_2">
    <path d="M 36.9 11.16 
L 36.541976 12.094242 
L 36.178754 13.026676 
L 35.758096 13.939146 
L 35.399048 14.873031 
L 35.001175 15.793421 
L 34.636417 16.725322 
L 34.274637 17.658258 
L 33.891863 18.583896 
L 33.497049 19.50535 
L 33.119635 20.432851 
L 32.735491 21.358013 
L 32.323737 22.273578 
L 31.951821 23.202991 
L 31.583431 24.133629 
L 31.226299 25.068181 
L 30.873368 26.004192 
L 30.525013 26.941795 
L 30.145393 27.868529 
L 29.478561 29.701829 
L 29.330432 29.073276 
L 28.330122 29.06826 
L 27.330102 29.077436 
L 26.330103 29.087689 
L 25.330315 29.108267 
L 24.330716 29.138149 
L 23.331161 29.170175 
L 22.332001 29.221572 
L 21.332436 29.253112 
L 20.333257 29.303597 
L 19.334683 29.383736 
L 18.335648 29.441294 
L 17.336652 29.500756 
L 16.337724 29.563561 
L 15.3386 29.616694 
L 14.340181 29.70448 
L 13.341186 29.763973 
L 12.342263 29.827012 
L 10.393497 29.937321 
L 10.935727 31.363845 
L 11.767885 31.921451 
L 12.631789 32.437182 
L 13.471351 32.985023 
L 14.336456 33.49917 
L 15.160983 34.066842 
L 15.994881 34.622153 
L 16.821055 35.187651 
L 17.666757 35.727392 
L 18.535233 36.237094 
L 19.374524 36.785292 
L 20.2217 37.323088 
L 21.038596 37.900825 
L 21.866424 38.464141 
L 22.70462 39.013783 
L 23.541497 39.565164 
L 24.38484 40.108017 
L 25.198216 40.690396 
L 26.7686 41.84775 
L 26.773775 43.65189 
L 26.502894 44.614701 
L 26.238581 45.579499 
L 25.996644 46.551067 
L 25.740639 47.518378 
L 25.485392 48.485919 
L 25.210525 49.447524 
L 24.936043 50.409246 
L 24.649733 51.367389 
L 24.362472 52.325244 
L 24.07243 53.282258 
L 23.781008 54.238855 
L 23.478743 55.192171 
L 23.181136 56.146896 
L 22.870946 57.097815 
L 22.559325 58.048301 
L 22.253254 59.000465 
L 21.946007 59.952274 
L 21.361582 61.813386 
L 20.854557 60.284204 
L 21.711239 59.764554 
L 22.575054 59.255153 
L 23.414522 58.710764 
L 24.273937 58.195041 
L 25.125633 57.668225 
L 25.965709 57.12471 
L 26.838012 56.627507 
L 27.675135 56.079749 
L 28.513944 55.534414 
L 29.352481 54.988688 
L 30.204611 54.462496 
L 31.062327 53.944331 
L 31.904968 53.404502 
L 32.780589 52.912067 
L 33.629549 52.381319 
L 34.475545 51.846312 
L 35.319288 51.308067 
L 36.982292 50.282868 
L 37.614755 50.888218 
L 38.400086 51.510405 
L 39.18095 52.139012 
L 39.942084 52.795972 
L 40.741782 53.397512 
L 41.536402 54.00635 
L 42.318104 54.633752 
L 43.111086 55.244944 
L 43.887589 55.879818 
L 44.69097 56.476067 
L 45.472089 57.104306 
L 46.279221 57.695164 
L 47.083697 58.289837 
L 47.880651 58.895322 
L 48.689152 59.484212 
L 49.50201 60.066841 
L 50.307571 60.659956 
L 51.123078 61.238778 
L 52.717077 62.363143 
L 53.933495 60.316306 
L 53.649341 59.35751 
L 53.364325 58.398976 
L 53.069439 57.443427 
L 52.767145 56.49012 
L 52.470373 55.535142 
L 52.157075 54.585164 
L 51.84494 53.634834 
L 51.520734 52.688156 
L 51.206308 51.738518 
L 50.895367 50.787827 
L 50.539978 49.850583 
L 50.17906 48.915012 
L 49.799531 47.985071 
L 49.461091 47.042699 
L 49.119892 46.101162 
L 48.796576 45.154215 
L 48.405457 44.22778 
L 47.790584 42.37588 
L 48.457525 42.073591 
L 49.235651 41.444717 
L 49.995577 40.791837 
L 50.751719 40.133966 
L 51.519046 39.490847 
L 52.276534 38.834751 
L 53.050337 38.200174 
L 53.821838 37.562563 
L 54.593327 36.924934 
L 55.354244 36.27336 
L 56.082752 35.57904 
L 56.848058 34.933256 
L 57.621118 34.297699 
L 58.389535 33.656019 
L 59.152105 33.006626 
L 59.929245 32.376452 
L 60.704262 31.743476 
L 61.481748 31.113757 
L 63.015426 29.907988 
L 62.383003 31.080288 
L 61.38229 31.10509 
L 60.381894 31.114333 
L 59.381075 31.144334 
L 58.380769 31.149153 
L 57.380548 31.149825 
L 56.380043 31.164411 
L 55.379756 31.168322 
L 54.379677 31.162012 
L 53.379498 31.160576 
L 52.379387 31.15586 
L 51.379339 31.148035 
L 50.379427 31.133495 
L 49.379495 31.120002 
L 48.379597 31.1048 
L 47.379841 31.082644 
L 46.380104 31.059544 
L 45.380539 31.028019 
L 43.430911 30.960047 
L 42.260752 29.359433 
L 41.951964 28.408077 
L 41.662336 27.450061 
L 41.37186 26.49234 
L 41.06158 25.541503 
L 40.754511 24.589549 
L 40.489138 23.623102 
L 40.207762 22.662218 
L 39.949053 21.693455 
L 39.6503 20.738611 
L 39.394345 19.76889 
L 39.10219 18.811753 
L 38.843868 17.842855 
L 38.613828 16.864126 
L 38.351457 15.896636 
L 38.122527 14.917521 
L 37.846163 13.954895 
L 37.634463 12.969791 
L 37.060667 11.104152 
L 36.9 10.874064 
z
" clip-path="url(#p3a7dd64a61)" style="fill: #0000ff; stroke: #ffffff; stroke-width: 4; stroke-linejoin: miter"/>
    <path d="M 36.9 11.16 
L 36.541976 12.094242 
L 36.178754 13.026676 
L 35.758096 13.939146 
L 35.399048 14.873031 
L 35.001175 15.793421 
L 34.636417 16.725322 
L 34.274637 17.658258 
L 33.891863 18.583896 
L 33.497049 19.50535 
L 33.119635 20.432851 
L 32.735491 21.358013 
L 32.323737 22.273578 
L 31.951821 23.202991 
L 31.583431 24.133629 
L 31.226299 25.068181 
L 30.873368 26.004192 
L 30.525013 26.941795 
L 30.145393 27.868529 
L 29.478561 29.701829 
L 29.330432 29.073276 
L 28.330122 29.06826 
L 27.330102 29.077436 
L 26.330103 29.087689 
L 25.330315 29.108267 
L 24.330716 29.138149 
L 23.331161 29.170175 
L 22.332001 29.221572 
L 21.332436 29.253112 
L 20.333257 29.303597 
L 19.334683 29.383736 
L 18.335648 29.441294 
L 17.336652 29.500756 
L 16.337724 29.563561 
L 15.3386 29.616694 
L 14.340181 29.70448 
L 13.341186 29.763973 
L 12.342263 29.827012 
L 10.393497 29.937321 
L 10.935727 31.363845 
L 11.767885 31.921451 
L 12.631789 32.437182 
L 13.471351 32.985023 
L 14.336456 33.49917 
L 15.160983 34.066842 
L 15.994881 34.622153 
L 16.821055 35.187651 
L 17.666757 35.727392 
L 18.535233 36.237094 
L 19.374524 36.785292 
L 20.2217 37.323088 
L 21.038596 37.900825 
L 21.866424 38.464141 
L 22.70462 39.013783 
L 23.541497 39.565164 
L 24.38484 40.108017 
L 25.198216 40.690396 
L 26.7686 41.84775 
L 26.773775 43.65189 
L 26.502894 44.614701 
L 26.238581 45.579499 
L 25.996644 46.551067 
L 25.740639 47.518378 
L 25.485392 48.485919 
L 25.210525 49.447524 
L 24.936043 50.409246 
L 24.649733 51.367389 
L 24.362472 52.325244 
L 24.07243 53.282258 
L 23.781008 54.238855 
L 23.478743 55.192171 
L 23.181136 56.146896 
L 22.870946 57.097815 
L 22.559325 58.048301 
L 22.253254 59.000465 
L 21.946007 59.952274 
L 21.361582 61.813386 
L 20.854557 60.284204 
L 21.711239 59.764554 
L 22.575054 59.255153 
L 23.414522 58.710764 
L 24.273937 58.195041 
L 25.125633 57.668225 
L 25.965709 57.12471 
L 26.838012 56.627507 
L 27.675135 56.079749 
L 28.513944 55.534414 
L 29.352481 54.988688 
L 30.204611 54.462496 
L 31.062327 53.944331 
L 31.904968 53.404502 
L 32.780589 52.912067 
L 33.629549 52.381319 
L 34.475545 51.846312 
L 35.319288 51.308067 
L 36.982292 50.282868 
L 37.614755 50.888218 
L 38.400086 51.510405 
L 39.18095 52.139012 
L 39.942084 52.795972 
L 40.741782 53.397512 
L 41.536402 54.00635 
L 42.318104 54.633752 
L 43.111086 55.244944 
L 43.887589 55.879818 
L 44.69097 56.476067 
L 45.472089 57.104306 
L 46.279221 57.695164 
L 47.083697 58.289837 
L 47.880651 58.895322 
L 48.689152 59.484212 
L 49.50201 60.066841 
L 50.307571 60.659956 
L 51.123078 61.238778 
L 52.717077 62.363143 
L 53.933495 60.316306 
L 53.649341 59.35751 
L 53.364325 58.398976 
L 53.069439 57.443427 
L 52.767145 56.49012 
L 52.470373 55.535142 
L 52.157075 54.585164 
L 51.84494 53.634834 
L 51.520734 52.688156 
L 51.206308 51.738518 
L 50.895367 50.787827 
L 50.539978 49.850583 
L 50.17906 48.915012 
L 49.799531 47.985071 
L 49.461091 47.042699 
L 49.119892 46.101162 
L 48.796576 45.154215 
L 48.405457 44.22778 
L 47.790584 42.37588 
L 48.457525 42.073591 
L 49.235651 41.444717 
L 49.995577 40.791837 
L 50.751719 40.133966 
L 51.519046 39.490847 
L 52.276534 38.834751 
L 53.050337 38.200174 
L 53.821838 37.562563 
L 54.593327 36.924934 
L 55.354244 36.27336 
L 56.082752 35.57904 
L 56.848058 34.933256 
L 57.621118 34.297699 
L 58.389535 33.656019 
L 59.152105 33.006626 
L 59.929245 32.376452 
L 60.704262 31.743476 
L 61.481748 31.113757 
L 63.015426 29.907988 
L 62.383003 31.080288 
L 61.38229 31.10509 
L 60.381894 31.114333 
L 59.381075 31.144334 
L 58.380769 31.149153 
L 57.380548 31.149825 
L 56.380043 31.164411 
L 55.379756 31.168322 
L 54.379677 31.162012 
L 53.379498 31.160576 
L 52.379387 31.15586 
L 51.379339 31.148035 
L 50.379427 31.133495 
L 49.379495 31.120002 
L 48.379597 31.1048 
L 47.379841 31.082644 
L 46.380104 31.059544 
L 45.380539 31.028019 
L 43.430911 30.960047 
L 42.260752 29.359433 
L 41.951964 28.408077 
L 41.662336 27.450061 
L 41.37186 26.49234 
L 41.06158 25.541503 
L 40.754511 24.589549 
L 40.489138 23.623102 
L 40.207762 22.662218 
L 39.949053 21.693455 
L 39.6503 20.738611 
L 39.394345 19.76889 
L 39.10219 18.811753 
L 38.843868 17.842855 
L 38.613828 16.864126 
L 38.351457 15.896636 
L 38.122527 14.917521 
L 37.846163 13.954895 
L 37.634463 12.969791 
L 37.060667 11.104152 
L 36.9 10.874064 
z
" clip-path="url(#p3a7dd64a61)" style="fill: #0000ff; stroke: #0000ff; stroke-linejoin: miter"/>
   </g>
   <g id="line2d_1">
    <path d="M 36.9 11.16 
L 36.541976 12.094242 
L 36.178754 13.026676 
L 35.758096 13.939146 
L 35.399048 14.873031 
L 35.001175 15.793421 
L 34.636417 16.725322 
L 34.274637 17.658258 
L 33.891863 18.583896 
L 33.497049 19.50535 
L 33.119635 20.432851 
L 32.735491 21.358013 
L 32.323737 22.273578 
L 31.951821 23.202991 
L 31.583431 24.133629 
L 31.226299 25.068181 
L 30.873368 26.004192 
L 30.525013 26.941795 
L 30.145393 27.868529 
L 29.478561 29.701829 
L 29.330432 29.073276 
L 28.330122 29.06826 
L 27.330102 29.077436 
L 26.330103 29.087689 
L 25.330315 29.108267 
L 24.330716 29.138149 
L 23.331161 29.170175 
L 22.332001 29.221572 
L 21.332436 29.253112 
L 20.333257 29.303597 
L 19.334683 29.383736 
L 18.335648 29.441294 
L 17.336652 29.500756 
L 16.337724 29.563561 
L 15.3386 29.616694 
L 14.340181 29.70448 
L 13.341186 29.763973 
L 12.342263 29.827012 
L 10.393497 29.937321 
L 10.935727 31.363845 
L 11.767885 31.921451 
L 12.631789 32.437182 
L 13.471351 32.985023 
L 14.336456 33.49917 
L 15.160983 34.066842 
L 15.994881 34.622153 
L 16.821055 35.187651 
L 17.666757 35.727392 
L 18.535233 36.237094 
L 19.374524 36.785292 
L 20.2217 37.323088 
L 21.038596 37.900825 
L 21.866424 38.464141 
L 22.70462 39.013783 
L 23.541497 39.565164 
L 24.38484 40.108017 
L 25.198216 40.690396 
L 26.7686 41.84775 
L 26.773775 43.65189 
L 26.502894 44.614701 
L 26.238581 45.579499 
L 25.996644 46.551067 
L 25.740639 47.518378 
L 25.485392 48.485919 
L 25.210525 49.447524 
L 24.936043 50.409246 
L 24.649733 51.367389 
L 24.362472 52.325244 
L 24.07243 53.282258 
L 23.781008 54.238855 
L 23.478743 55.192171 
L 23.181136 56.146896 
L 22.870946 57.097815 
L 22.559325 58.048301 
L 22.253254 59.000465 
L 21.946007 59.952274 
L 21.361582 61.813386 
L 20.854557 60.284204 
L 21.711239 59.764554 
L 22.575054 59.255153 
L 23.414522 58.710764 
L 24.273937 58.195041 
L 25.125633 57.668225 
L 25.965709 57.12471 
L 26.838012 56.627507 
L 27.675135 56.079749 
L 28.513944 55.534414 
L 29.352481 54.988688 
L 30.204611 54.462496 
L 31.062327 53.944331 
L 31.904968 53.404502 
L 32.780589 52.912067 
L 33.629549 52.381319 
L 34.475545 51.846312 
L 35.319288 51.308067 
L 36.982292 50.282868 
L 37.614755 50.888218 
L 38.400086 51.510405 
L 39.18095 52.139012 
L 39.942084 52.795972 
L 40.741782 53.397512 
L 41.536402 54.00635 
L 42.318104 54.633752 
L 43.111086 55.244944 
L 43.887589 55.879818 
L 44.69097 56.476067 
L 45.472089 57.104306 
L 46.279221 57.695164 
L 47.083697 58.289837 
L 47.880651 58.895322 
L 48.689152 59.484212 
L 49.50201 60.066841 
L 50.307571 60.659956 
L 51.123078 61.238778 
L 52.717077 62.363143 
L 53.933495 60.316306 
L 53.649341 59.35751 
L 53.364325 58.398976 
L 53.069439 57.443427 
L 52.767145 56.49012 
L 52.470373 55.535142 
L 52.157075 54.585164 
L 51.84494 53.634834 
L 51.520734 52.688156 
L 51.206308 51.738518 
L 50.895367 50.787827 
L 50.539978 49.850583 
L 50.17906 48.915012 
L 49.799531 47.985071 
L 49.461091 47.042699 
L 49.119892 46.101162 
L 48.796576 45.154215 
L 48.405457 44.22778 
L 47.790584 42.37588 
L 48.457525 42.073591 
L 49.235651 41.444717 
L 49.995577 40.791837 
L 50.751719 40.133966 
L 51.519046 39.490847 
L 52.276534 38.834751 
L 53.050337 38.200174 
L 53.821838 37.562563 
L 54.593327 36.924934 
L 55.354244 36.27336 
L 56.082752 35.57904 
L 56.848058 34.933256 
L 57.621118 34.297699 
L 58.389535 33.656019 
L 59.152105 33.006626 
L 59.929245 32.376452 
L 60.704262 31.743476 
L 61.481748 31.113757 
L 63.015426 29.907988 
L 62.383003 31.080288 
L 61.38229 31.10509 
L 60.381894 31.114333 
L 59.381075 31.144334 
L 58.380769 31.149153 
L 57.380548 31.149825 
L 56.380043 31.164411 
L 55.379756 31.168322 
L 54.379677 31.162012 
L 53.379498 31.160576 
L 52.379387 31.15586 
L 51.379339 31.148035 
L 50.379427 31.133495 
L 49.379495 31.120002 
L 48.379597 31.1048 
L 47.379841 31.082644 
L 46.380104 31.059544 
L 45.380539 31.028019 
L 43.430911 30.960047 
L 42.260752 29.359433 
L 41.951964 28.408077 
L 41.662336 27.450061 
L 41.37186 26.49234 
L 41.06158 25.541503 
L 40.754511 24.589549 
L 40.489138 23.623102 
L 40.207762 22.662218 
L 39.949053 21.693455 
L 39.6503 20.738611 
L 39.394345 19.76889 
L 39.10219 18.811753 
L 38.843868 17.842855 
L 38.613828 16.864126 
L 38.351457 15.896636 
L 38.122527 14.917521 
L 37.846163 13.954895 
L 37.634463 12.969791 
L 37.060667 11.104152 
" clip-path="url(#p3a7dd64a61)" style="fill: none; stroke: #ffffff; stroke-width: 4; stroke-linecap: square"/>
    <path d="M 36.9 11.16 
L 36.541976 12.094242 
L 36.178754 13.026676 
L 35.758096 13.939146 
L 35.399048 14.873031 
L 35.001175 15.793421 
L 34.636417 16.725322 
L 34.274637 17.658258 
L 33.891863 18.583896 
L 33.497049 19.50535 
L 33.119635 20.432851 
L 32.735491 21.358013 
L 32.323737 22.273578 
L 31.951821 23.202991 
L 31.583431 24.133629 
L 31.226299 25.068181 
L 30.873368 26.004192 
L 30.525013 26.941795 
L 30.145393 27.868529 
L 29.478561 29.701829 
L 29.330432 29.073276 
L 28.330122 29.06826 
L 27.330102 29.077436 
L 26.330103 29.087689 
L 25.330315 29.108267 
L 24.330716 29.138149 
L 23.331161 29.170175 
L 22.332001 29.221572 
L 21.332436 29.253112 
L 20.333257 29.303597 
L 19.334683 29.383736 
L 18.335648 29.441294 
L 17.336652 29.500756 
L 16.337724 29.563561 
L 15.3386 29.616694 
L 14.340181 29.70448 
L 13.341186 29.763973 
L 12.342263 29.827012 
L 10.393497 29.937321 
L 10.935727 31.363845 
L 11.767885 31.921451 
L 12.631789 32.437182 
L 13.471351 32.985023 
L 14.336456 33.49917 
L 15.160983 34.066842 
L 15.994881 34.622153 
L 16.821055 35.187651 
L 17.666757 35.727392 
L 18.535233 36.237094 
L 19.374524 36.785292 
L 20.2217 37.323088 
L 21.038596 37.900825 
L 21.866424 38.464141 
L 22.70462 39.013783 
L 23.541497 39.565164 
L 24.38484 40.108017 
L 25.198216 40.690396 
L 26.7686 41.84775 
L 26.773775 43.65189 
L 26.502894 44.614701 
L 26.238581 45.579499 
L 25.996644 46.551067 
L 25.740639 47.518378 
L 25.485392 48.485919 
L 25.210525 49.447524 
L 24.936043 50.409246 
L 24.649733 51.367389 
L 24.362472 52.325244 
L 24.07243 53.282258 
L 23.781008 54.238855 
L 23.478743 55.192171 
L 23.181136 56.146896 
L 22.870946 57.097815 
L 22.559325 58.048301 
L 22.253254 59.000465 
L 21.946007 59.952274 
L 21.361582 61.813386 
L 20.854557 60.284204 
L 21.711239 59.764554 
L 22.575054 59.255153 
L 23.414522 58.710764 
L 24.273937 58.195041 
L 25.125633 57.668225 
L 25.965709 57.12471 
L 26.838012 56.627507 
L 27.675135 56.079749 
L 28.513944 55.534414 
L 29.352481 54.988688 
L 30.204611 54.462496 
L 31.062327 53.944331 
L 31.904968 53.404502 
L 32.780589 52.912067 
L 33.629549 52.381319 
L 34.475545 51.846312 
L 35.319288 51.308067 
L 36.982292 50.282868 
L 37.614755 50.888218 
L 38.400086 51.510405 
L 39.18095 52.139012 
L 39.942084 52.795972 
L 40.741782 53.397512 
L 41.536402 54.00635 
L 42.318104 54.633752 
L 43.111086 55.244944 
L 43.887589 55.879818 
L 44.69097 56.476067 
L 45.472089 57.104306 
L 46.279221 57.695164 
L 47.083697 58.289837 
L 47.880651 58.895322 
L 48.689152 59.484212 
L 49.50201 60.066841 
L 50.307571 60.659956 
L 51.123078 61.238778 
L 52.717077 62.363143 
L 53.933495 60.316306 
L 53.649341 59.35751 
L 53.364325 58.398976 
L 53.069439 57.443427 
L 52.767145 56.49012 
L 52.470373 55.535142 
L 52.157075 54.585164 
L 51.84494 53.634834 
L 51.520734 52.688156 
L 51.206308 51.738518 
L 50.895367 50.787827 
L 50.539978 49.850583 
L 50.17906 48.915012 
L 49.799531 47.985071 
L 49.461091 47.042699 
L 49.119892 46.101162 
L 48.796576 45.154215 
L 48.405457 44.22778 
L 47.790584 42.37588 
L 48.457525 42.073591 
L 49.235651 41.444717 
L 49.995577 40.791837 
L 50.751719 40.133966 
L 51.519046 39.490847 
L 52.276534 38.834751 
L 53.050337 38.200174 
L 53.821838 37.562563 
L 54.593327 36.924934 
L 55.354244 36.27336 
L 56.082752 35.57904 
L 56.848058 34.933256 
L 57.621118 34.297699 
L 58.389535 33.656019 
L 59.152105 33.006626 
L 59.929245 32.376452 
L 60.704262 31.743476 
L 61.481748 31.113757 
L 63.015426 29.907988 
L 62.383003 31.080288 
L 61.38229 31.10509 
L 60.381894 31.114333 
L 59.381075 31.144334 
L 58.380769 31.149153 
L 57.380548 31.149825 
L 56.380043 31.164411 
L 55.379756 31.168322 
L 54.379677 31.162012 
L 53.379498 31.160576 
L 52.379387 31.15586 
L 51.379339 31.148035 
L 50.379427 31.133495 
L 49.379495 31.120002 
L 48.379597 31.1048 
L 47.379841 31.082644 
L 46.380104 31.059544 
L 45.380539 31.028019 
L 43.430911 30.960047 
L 42.260752 29.359433 
L 41.951964 28.408077 
L 41.662336 27.450061 
L 41.37186 26.49234 
L 41.06158 25.541503 
L 40.754511 24.589549 
L 40.489138 23.623102 
L 40.207762 22.662218 
L 39.949053 21.693455 
L 39.6503 20.738611 
L 39.394345 19.76889 
L 39.10219 18.811753 
L 38.843868 17.842855 
L 38.613828 16.864126 
L 38.351457 15.896636 
L 38.122527 14.917521 
L 37.846163 13.954895 
L 37.634463 12.969791 
L 37.060667 11.104152 
" clip-path="url(#p3a7dd64a61)" style="fill: none; stroke: #0000ff; stroke-width: 5; stroke-linecap: square"/>
   </g>
   <g id="legend_1"/>
  </g>
 </g>
 <defs>
  <clipPath id="p3a7dd64a61">
   <rect x="9" y="8.64" width="55.8" height="55.44"/>
  </clipPath>
 </defs>
</svg>
