<?xml version="1.0" encoding="utf-8" standalone="no"?>
<!DOCTYPE svg PUBLIC "-//W3C//DTD SVG 1.1//EN"
  "http://www.w3.org/Graphics/SVG/1.1/DTD/svg11.dtd">
<svg xmlns:xlink="http://www.w3.org/1999/xlink" width="72pt" height="72pt" viewBox="0 0 72 72" xmlns="http://www.w3.org/2000/svg" version="1.1">
 <metadata>
  <rdf:RDF xmlns:dc="http://purl.org/dc/elements/1.1/" xmlns:cc="http://creativecommons.org/ns#" xmlns:rdf="http://www.w3.org/1999/02/22-rdf-syntax-ns#">
   <cc:Work>
    <dc:type rdf:resource="http://purl.org/dc/dcmitype/StillImage"/>
    <dc:date>2026-04-08T13:45:29.161832</dc:date>
    <dc:format>image/svg+xml</dc:format>
    <dc:creator>
     <cc:Agent>
      <dc:title>Matplotlib v3.10.7, https://matplotlib.org/</dc:title>
     </cc:Agent>
    </dc:creator>
   </cc:Work>
  </rdf:RDF>
 </metadata>
 <defs>
  <style type="text/css">*{stroke-linejoin: round; stroke-linecap: butt}</style>
 </defs>
 <g id="figure_1">
  <g id="patch_1">
   <path d="M 0 72 
L 72 72 
L 72 0 
L 0 0 
L 0 72 
z
" style="fill: none; opacity: 0; stroke: #ffffff; stroke-width: 4; stroke-linejoin: miter"/>
   <path d="M 0 72 
L 72 72 
L 72 0 
L 0 0 
L 0 72 
z
" style="fill: none; opacity: 0"/>
  </g>
  <g id="axes_1">
   <g id="patch_2">
    <path d="M 34.594215 15.607934 
L 34.118884 16.488302 
L 33.63863 17.366209 
L 33.103989 18.216923 
L 32.627687 19.096806 
L 32.114622 19.958307 
L 31.632914 20.835487 
L 31.154026 21.714077 
L 30.655257 22.582727 
L 30.145089 23.445677 
L 29.651397 24.316865 
L 29.151332 25.184866 
L 28.625121 26.039795 
L 28.136635 26.913586 
L 27.651488 27.789046 
L 27.177001 28.669837 
L 26.706492 29.552616 
L 26.240316 30.437562 
L 25.744534 31.307705 
L 25.272333 32.189639 
L 24.798533 33.070773 
L 24.328606 33.953843 
L 23.871374 34.843261 
L 23.415106 35.733161 
L 22.968075 36.62768 
L 22.529367 37.52636 
L 22.092577 38.425998 
L 21.673117 39.334302 
L 21.235892 40.233724 
L 20.815616 41.14162 
L 20.421869 42.06278 
L 20.00792 42.97384 
L 19.595675 43.885752 
L 19.186421 44.799158 
L 18.768513 45.708239 
L 18.381608 46.63282 
L 17.969389 47.544745 
L 17.560345 48.458257 
L 17.176261 49.384248 
L 16.761596 50.29495 
L 16.36662 51.215496 
L 16.018645 52.159543 
L 15.63463 53.085569 
L 15.288433 54.030505 
L 14.88216 54.945402 
L 14.48976 55.867236 
L 14.085925 56.783353 
L 13.711002 57.713925 
L 13.369795 58.661355 
L 12.985379 59.587182 
L 12.612638 60.518845 
L 11.94511 61.928009 
L 12.536364 61.215407 
L 13.536364 61.147009 
L 14.536364 61.080793 
L 15.536364 61.003876 
L 16.536364 60.976561 
L 17.536364 60.950083 
L 18.536364 60.927433 
L 19.536364 60.907901 
L 20.536364 60.881507 
L 21.536364 60.831737 
L 22.536364 60.796663 
L 23.536364 60.760798 
L 24.536364 60.745431 
L 25.536364 60.729661 
L 26.536364 60.726249 
L 27.536364 60.723831 
L 28.536364 60.724317 
L 29.536364 60.726247 
L 30.536364 60.739503 
L 31.536364 60.747894 
L 32.536364 60.769431 
L 33.536364 60.792463 
L 34.536364 60.809697 
L 35.536364 60.828159 
L 36.536364 60.848612 
L 37.536364 60.865212 
L 38.536364 60.92799 
L 39.536364 61.003255 
L 40.536364 61.035895 
L 41.536364 61.103458 
L 42.536364 61.157505 
L 43.536364 61.191209 
L 44.536364 61.281335 
L 45.536364 61.30987 
L 46.536364 61.341357 
L 47.536364 61.372367 
L 48.536364 61.427175 
L 49.536364 61.491763 
L 50.536364 61.529958 
L 51.536364 61.625892 
L 52.536364 61.67515 
L 53.536364 61.71922 
L 54.536364 61.759343 
L 55.536364 61.86771 
L 56.536364 61.909339 
L 57.652066 61.97148 
L 57.489107 60.687082 
L 57.135365 59.745919 
L 56.721234 58.834951 
L 56.315054 57.920006 
L 55.929104 56.994948 
L 55.52549 56.078721 
L 55.147682 55.149591 
L 54.727784 54.241505 
L 54.342747 53.31599 
L 53.916975 52.410842 
L 53.495361 51.503615 
L 53.085529 50.590497 
L 52.657613 49.686421 
L 52.222875 48.785756 
L 51.799563 47.879378 
L 51.360676 46.980788 
L 50.924595 46.080794 
L 50.487269 45.181423 
L 50.045122 44.284462 
L 49.602169 43.387905 
L 49.149994 42.495959 
L 48.690895 41.607474 
L 48.236958 40.716409 
L 47.767576 39.833066 
L 47.299282 38.949179 
L 46.819707 38.070932 
L 46.349273 37.188115 
L 45.882094 36.303671 
L 45.37338 35.439994 
L 44.8595 34.5789 
L 44.328229 33.726502 
L 43.835353 32.854905 
L 43.339899 31.984598 
L 42.861156 31.105936 
L 42.319055 30.258952 
L 41.825095 29.387898 
L 41.344871 28.509976 
L 40.869902 27.629427 
L 40.36799 26.762349 
L 39.860474 25.898073 
L 39.369517 25.025517 
L 38.863994 24.160245 
L 38.382624 23.282896 
L 37.897849 22.40725 
L 37.413054 21.531613 
L 36.912607 20.663803 
L 36.36418 19.819982 
L 35.870232 18.948922 
L 35.387762 18.072123 
L 34.89842 17.19876 
L 34.150463 15.82981 
z
" clip-path="url(#pbbafd1d16b)" style="fill: #0000ff; stroke: #ffffff; stroke-width: 4; stroke-linejoin: miter"/>
    <path d="M 34.594215 15.607934 
L 34.118884 16.488302 
L 33.63863 17.366209 
L 33.103989 18.216923 
L 32.627687 19.096806 
L 32.114622 19.958307 
L 31.632914 20.835487 
L 31.154026 21.714077 
L 30.655257 22.582727 
L 30.145089 23.445677 
L 29.651397 24.316865 
L 29.151332 25.184866 
L 28.625121 26.039795 
L 28.136635 26.913586 
L 27.651488 27.789046 
L 27.177001 28.669837 
L 26.706492 29.552616 
L 26.240316 30.437562 
L 25.744534 31.307705 
L 25.272333 32.189639 
L 24.798533 33.070773 
L 24.328606 33.953843 
L 23.871374 34.843261 
L 23.415106 35.733161 
L 22.968075 36.62768 
L 22.529367 37.52636 
L 22.092577 38.425998 
L 21.673117 39.334302 
L 21.235892 40.233724 
L 20.815616 41.14162 
L 20.421869 42.06278 
L 20.00792 42.97384 
L 19.595675 43.885752 
L 19.186421 44.799158 
L 18.768513 45.708239 
L 18.381608 46.63282 
L 17.969389 47.544745 
L 17.560345 48.458257 
L 17.176261 49.384248 
L 16.761596 50.29495 
L 16.36662 51.215496 
L 16.018645 52.159543 
L 15.63463 53.085569 
L 15.288433 54.030505 
L 14.88216 54.945402 
L 14.48976 55.867236 
L 14.085925 56.783353 
L 13.711002 57.713925 
L 13.369795 58.661355 
L 12.985379 59.587182 
L 12.612638 60.518845 
L 11.94511 61.928009 
L 12.536364 61.215407 
L 13.536364 61.147009 
L 14.536364 61.080793 
L 15.536364 61.003876 
L 16.536364 60.976561 
L 17.536364 60.950083 
L 18.536364 60.927433 
L 19.536364 60.907901 
L 20.536364 60.881507 
L 21.536364 60.831737 
L 22.536364 60.796663 
L 23.536364 60.760798 
L 24.536364 60.745431 
L 25.536364 60.729661 
L 26.536364 60.726249 
L 27.536364 60.723831 
L 28.536364 60.724317 
L 29.536364 60.726247 
L 30.536364 60.739503 
L 31.536364 60.747894 
L 32.536364 60.769431 
L 33.536364 60.792463 
L 34.536364 60.809697 
L 35.536364 60.828159 
L 36.536364 60.848612 
L 37.536364 60.865212 
L 38.536364 60.92799 
L 39.536364 61.003255 
L 40.536364 61.035895 
L 41.536364 61.103458 
L 42.536364 61.157505 
L 43.536364 61.191209 
L 44.536364 61.281335 
L 45.536364 61.30987 
L 46.536364 61.341357 
L 47.536364 61.372367 
L 48.536364 61.427175 
L 49.536364 61.491763 
L 50.536364 61.529958 
L 51.536364 61.625892 
L 52.536364 61.67515 
L 53.536364 61.71922 
L 54.536364 61.759343 
L 55.536364 61.86771 
L 56.536364 61.909339 
L 57.652066 61.97148 
L 57.489107 60.687082 
L 57.135365 59.745919 
L 56.721234 58.834951 
L 56.315054 57.920006 
L 55.929104 56.994948 
L 55.52549 56.078721 
L 55.147682 55.149591 
L 54.727784 54.241505 
L 54.342747 53.31599 
L 53.916975 52.410842 
L 53.495361 51.503615 
L 53.085529 50.590497 
L 52.657613 49.686421 
L 52.222875 48.785756 
L 51.799563 47.879378 
L 51.360676 46.980788 
L 50.924595 46.080794 
L 50.487269 45.181423 
L 50.045122 44.284462 
L 49.602169 43.387905 
L 49.149994 42.495959 
L 48.690895 41.607474 
L 48.236958 40.716409 
L 47.767576 39.833066 
L 47.299282 38.949179 
L 46.819707 38.070932 
L 46.349273 37.188115 
L 45.882094 36.303671 
L 45.37338 35.439994 
L 44.8595 34.5789 
L 44.328229 33.726502 
L 43.835353 32.854905 
L 43.339899 31.984598 
L 42.861156 31.105936 
L 42.319055 30.258952 
L 41.825095 29.387898 
L 41.344871 28.509976 
L 40.869902 27.629427 
L 40.36799 26.762349 
L 39.860474 25.898073 
L 39.369517 25.025517 
L 38.863994 24.160245 
L 38.382624 23.282896 
L 37.897849 22.40725 
L 37.413054 21.531613 
L 36.912607 20.663803 
L 36.36418 19.819982 
L 35.870232 18.948922 
L 35.387762 18.072123 
L 34.89842 17.19876 
L 34.150463 15.82981 
z
" clip-path="url(#pbbafd1d16b)" style="fill: #0000ff; stroke: #0000ff; stroke-linejoin: miter"/>
   </g>
   <g id="line2d_1">
    <path d="M 34.594215 15.607934 
L 34.118884 16.488302 
L 33.63863 17.366209 
L 33.103989 18.216923 
L 32.627687 19.096806 
L 32.114622 19.958307 
L 31.632914 20.835487 
L 31.154026 21.714077 
L 30.655257 22.582727 
L 30.145089 23.445677 
L 29.651397 24.316865 
L 29.151332 25.184866 
L 28.625121 26.039795 
L 28.136635 26.913586 
L 27.651488 27.789046 
L 27.177001 28.669837 
L 26.706492 29.552616 
L 26.240316 30.437562 
L 25.744534 31.307705 
L 25.272333 32.189639 
L 24.798533 33.070773 
L 24.328606 33.953843 
L 23.871374 34.843261 
L 23.415106 35.733161 
L 22.968075 36.62768 
L 22.529367 37.52636 
L 22.092577 38.425998 
L 21.673117 39.334302 
L 21.235892 40.233724 
L 20.815616 41.14162 
L 20.421869 42.06278 
L 20.00792 42.97384 
L 19.595675 43.885752 
L 19.186421 44.799158 
L 18.768513 45.708239 
L 18.381608 46.63282 
L 17.969389 47.544745 
L 17.560345 48.458257 
L 17.176261 49.384248 
L 16.761596 50.29495 
L 16.36662 51.215496 
L 16.018645 52.159543 
L 15.63463 53.085569 
L 15.288433 54.030505 
L 14.88216 54.945402 
L 14.48976 55.867236 
L 14.085925 56.783353 
L 13.711002 57.713925 
L 13.369795 58.661355 
L 12.985379 59.587182 
L 12.612638 60.518845 
L 11.94511 61.928009 
L 12.536364 61.215407 
L 13.536364 61.147009 
L 14.536364 61.080793 
L 15.536364 61.003876 
L 16.536364 60.976561 
L 17.536364 60.950083 
L 18.536364 60.927433 
L 19.536364 60.907901 
L 20.536364 60.881507 
L 21.536364 60.831737 
L 22.536364 60.796663 
L 23.536364 60.760798 
L 24.536364 60.745431 
L 25.536364 60.729661 
L 26.536364 60.726249 
L 27.536364 60.723831 
L 28.536364 60.724317 
L 29.536364 60.726247 
L 30.536364 60.739503 
L 31.536364 60.747894 
L 32.536364 60.769431 
L 33.536364 60.792463 
L 34.536364 60.809697 
L 35.536364 60.828159 
L 36.536364 60.848612 
L 37.536364 60.865212 
L 38.536364 60.92799 
L 39.536364 61.003255 
L 40.536364 61.035895 
L 41.536364 61.103458 
L 42.536364 61.157505 
L 43.536364 61.191209 
L 44.536364 61.281335 
L 45.536364 61.30987 
L 46.536364 61.341357 
L 47.536364 61.372367 
L 48.536364 61.427175 
L 49.536364 61.491763 
L 50.536364 61.529958 
L 51.536364 61.625892 
L 52.536364 61.67515 
L 53.536364 61.71922 
L 54.536364 61.759343 
L 55.536364 61.86771 
L 56.536364 61.909339 
L 57.652066 61.97148 
L 57.489107 60.687082 
L 57.135365 59.745919 
L 56.721234 58.834951 
L 56.315054 57.920006 
L 55.929104 56.994948 
L 55.52549 56.078721 
L 55.147682 55.149591 
L 54.727784 54.241505 
L 54.342747 53.31599 
L 53.916975 52.410842 
L 53.495361 51.503615 
L 53.085529 50.590497 
L 52.657613 49.686421 
L 52.222875 48.785756 
L 51.799563 47.879378 
L 51.360676 46.980788 
L 50.924595 46.080794 
L 50.487269 45.181423 
L 50.045122 44.284462 
L 49.602169 43.387905 
L 49.149994 42.495959 
L 48.690895 41.607474 
L 48.236958 40.716409 
L 47.767576 39.833066 
L 47.299282 38.949179 
L 46.819707 38.070932 
L 46.349273 37.188115 
L 45.882094 36.303671 
L 45.37338 35.439994 
L 44.8595 34.5789 
L 44.328229 33.726502 
L 43.835353 32.854905 
L 43.339899 31.984598 
L 42.861156 31.105936 
L 42.319055 30.258952 
L 41.825095 29.387898 
L 41.344871 28.509976 
L 40.869902 27.629427 
L 40.36799 26.762349 
L 39.860474 25.898073 
L 39.369517 25.025517 
L 38.863994 24.160245 
L 38.382624 23.282896 
L 37.897849 22.40725 
L 37.413054 21.531613 
L 36.912607 20.663803 
L 36.36418 19.819982 
L 35.870232 18.948922 
L 35.387762 18.072123 
L 34.89842 17.19876 
L 34.150463 15.82981 
" clip-path="url(#pbbafd1d16b)" style="fill: none; stroke: #ffffff; stroke-width: 4; stroke-linecap: square"/>
    <path d="M 34.594215 15.607934 
L 34.118884 16.488302 
L 33.63863 17.366209 
L 33.103989 18.216923 
L 32.627687 19.096806 
L 32.114622 19.958307 
L 31.632914 20.835487 
L 31.154026 21.714077 
L 30.655257 22.582727 
L 30.145089 23.445677 
L 29.651397 24.316865 
L 29.151332 25.184866 
L 28.625121 26.039795 
L 28.136635 26.913586 
L 27.651488 27.789046 
L 27.177001 28.669837 
L 26.706492 29.552616 
L 26.240316 30.437562 
L 25.744534 31.307705 
L 25.272333 32.189639 
L 24.798533 33.070773 
L 24.328606 33.953843 
L 23.871374 34.843261 
L 23.415106 35.733161 
L 22.968075 36.62768 
L 22.529367 37.52636 
L 22.092577 38.425998 
L 21.673117 39.334302 
L 21.235892 40.233724 
L 20.815616 41.14162 
L 20.421869 42.06278 
L 20.00792 42.97384 
L 19.595675 43.885752 
L 19.186421 44.799158 
L 18.768513 45.708239 
L 18.381608 46.63282 
L 17.969389 47.544745 
L 17.560345 48.458257 
L 17.176261 49.384248 
L 16.761596 50.29495 
L 16.36662 51.215496 
L 16.018645 52.159543 
L 15.63463 53.085569 
L 15.288433 54.030505 
L 14.88216 54.945402 
L 14.48976 55.867236 
L 14.085925 56.783353 
L 13.711002 57.713925 
L 13.369795 58.661355 
L 12.985379 59.587182 
L 12.612638 60.518845 
L 11.94511 61.928009 
L 12.536364 61.215407 
L 13.536364 61.147009 
L 14.536364 61.080793 
L 15.536364 61.003876 
L 16.536364 60.976561 
L 17.536364 60.950083 
L 18.536364 60.927433 
L 19.536364 60.907901 
L 20.536364 60.881507 
L 21.536364 60.831737 
L 22.536364 60.796663 
L 23.536364 60.760798 
L 24.536364 60.745431 
L 25.536364 60.729661 
L 26.536364 60.726249 
L 27.536364 60.723831 
L 28.536364 60.724317 
L 29.536364 60.726247 
L 30.536364 60.739503 
L 31.536364 60.747894 
L 32.536364 60.769431 
L 33.536364 60.792463 
L 34.536364 60.809697 
L 35.536364 60.828159 
L 36.536364 60.848612 
L 37.536364 60.865212 
L 38.536364 60.92799 
L 39.536364 61.003255 
L 40.536364 61.035895 
L 41.536364 61.103458 
L 42.536364 61.157505 
L 43.536364 61.191209 
L 44.536364 61.281335 
L 45.536364 61.30987 
L 46.536364 61.341357 
L 47.536364 61.372367 
L 48.536364 61.427175 
L 49.536364 61.491763 
L 50.536364 61.529958 
L 51.536364 61.625892 
L 52.536364 61.67515 
L 53.536364 61.71922 
L 54.536364 61.759343 
L 55.536364 61.86771 
L 56.536364 61.909339 
L 57.652066 61.97148 
L 57.489107 60.687082 
L 57.135365 59.745919 
L 56.721234 58.834951 
L 56.315054 57.920006 
L 55.929104 56.994948 
L 55.52549 56.078721 
L 55.147682 55.149591 
L 54.727784 54.241505 
L 54.342747 53.31599 
L 53.916975 52.410842 
L 53.495361 51.503615 
L 53.085529 50.590497 
L 52.657613 49.686421 
L 52.222875 48.785756 
L 51.799563 47.879378 
L 51.360676 46.980788 
L 50.924595 46.080794 
L 50.487269 45.181423 
L 50.045122 44.284462 
L 49.602169 43.387905 
L 49.149994 42.495959 
L 48.690895 41.607474 
L 48.236958 40.716409 
L 47.767576 39.833066 
L 47.299282 38.949179 
L 46.819707 38.070932 
L 46.349273 37.188115 
L 45.882094 36.303671 
L 45.37338 35.439994 
L 44.8595 34.5789 
L 44.328229 33.726502 
L 43.835353 32.854905 
L 43.339899 31.984598 
L 42.861156 31.105936 
L 42.319055 30.258952 
L 41.825095 29.387898 
L 41.344871 28.509976 
L 40.869902 27.629427 
L 40.36799 26.762349 
L 39.860474 25.898073 
L 39.369517 25.025517 
L 38.863994 24.160245 
L 38.382624 23.282896 
L 37.897849 22.40725 
L 37.413054 21.531613 
L 36.912607 20.663803 
L 36.36418 19.819982 
L 35.870232 18.948922 
L 35.387762 18.072123 
L 34.89842 17.19876 
L 34.150463 15.82981 
" clip-path="url(#pbbafd1d16b)" style="fill: none; stroke: #0000ff; stroke-width: 5; stroke-linecap: square"/>
   </g>
   <g id="legend_1"/>
  </g>
 </g>
 <defs>
  <clipPath id="pbbafd1d16b">
   <rect x="9" y="8.64" width="55.8" height="55.44"/>
  </clipPath>
 </defs>
</svg>
